M48
;GenerationSoftware,Autodesk,EAGLE,9.2.1*%
;CreationDate,2019-04-22T03:40:10Z*%
FMAT,2
ICI,OFF
METRIC,TZ,000.000
T4C0.250
T3C0.257
T2C1.016
T1C1.400
%
G90
M71
T1
X10000Y-32
X-10000Y-32
T2
X-16764Y9017
X-16764Y-13081
X16764Y-13081
X16764Y9017
T3
X-8738Y-6452
X7379Y-12890
X2311Y-14135
X5795Y-5496
X-8757Y880
X-2159Y3302
X-15494Y10160
X-16764Y-11303
X-13589Y-762
X-381Y9271
X12319Y9779
X17272Y2921
X16891Y-4826
X14224Y-13081
X9779Y1905
X9906Y-1905
X-10414Y6477
X-7787Y4065
X-4495Y-11201
X-5015Y2446
X-4338Y-7475
X-6706Y914
X11303Y4128
X8788Y2794
X9855Y6477
X7010Y2235
X-2498Y-10593
X7518Y-8026
X7518Y-5309
X-17501Y-4013
X13627Y-635
X-17475Y-10135
X4864Y-10490
X-12878Y-7163
X-16078Y3073
X12078Y-12687
X16307Y444
X-11303Y4242
X-15646Y-3912
X-13691Y10161
X8859Y5334
X-6462Y-7760
X-11201Y1431
X10960Y-9258
X-9677Y7899
X-5283Y4369
X-4710Y1023
X-4713Y-334
X5055Y-7595
X-7937Y-7709
X-6350Y-10208
X4305Y7823
X-5601Y5778
X11811Y-5283
X9182Y-7556
X-9919Y5537
X4185Y-1890
X4185Y-1029
X4165Y-154
X4190Y706
X4232Y1676
X13691Y8839
X-5611Y-10602
X8738Y-8484
X8894Y-4801
X8992Y-12598
X-4903Y-10183
X8166Y-7518
X8078Y-4561
X-7379Y8890
X-911Y2447
X-1676Y5613
X-1524Y8484
X-3061Y-11208
X-2720Y-5714
X-1582Y1282
X-9652Y7010
X-3548Y-5726
X-2183Y-1019
X-3783Y-10730
X-5590Y320
X-6279Y-11087
X-9296Y-13221
X112Y2061
X3315Y-11125
X3843Y-6097
X-940Y7252
X-1676Y-10505
X-11690Y3434
X-11199Y2252
X15151Y-6629
X15151Y-7976
X-1245Y-11205
X6858Y-8534
X12590Y-1525
X11482Y4943
X2555Y-2690
X648Y-2692
X1891Y-11163
X-865Y-2640
X-1727Y-5726
X-5715Y-3886
X-11316Y-3340
X-2464Y-7556
X-6411Y-4633
X-5740Y-2451
X-10846Y-2489
X-9271Y-2489
X-7493Y-4610
X-5817Y-1095
X2591Y-10744
X1054Y-11138
X5283Y7849
X4089Y3404
X6618Y3839
X1277Y987
X-8465Y-13233
X470Y-13957
X-4978Y-5029
X-9247Y-3899
T4
X-361Y-1187
X-7671Y2819
M30