G04 EAGLE Gerber RS-274X export*
G75*
%MOMM*%
%FSLAX34Y34*%
%LPD*%
%INBottom Copper*%
%IPPOS*%
%AMOC8*
5,1,8,0,0,1.08239X$1,22.5*%
G01*
%ADD10R,0.800000X2.000000*%
%ADD11R,2.100000X3.000000*%
%ADD12R,2.000000X0.800000*%
%ADD13R,3.000000X2.100000*%
%ADD14R,0.800000X0.800000*%
%ADD15C,1.524000*%
%ADD16R,1.100000X1.000000*%
%ADD17R,1.000000X0.900000*%
%ADD18C,0.450000*%
%ADD19R,1.000000X0.450000*%
%ADD20R,0.450000X1.000000*%
%ADD21R,0.450000X1.600000*%
%ADD22R,0.850000X0.500000*%
%ADD23R,0.850000X1.060000*%
%ADD24R,0.200000X0.700000*%
%ADD25R,0.700000X0.200000*%
%ADD26R,0.600000X0.800000*%
%ADD27C,0.250000*%
%ADD28R,0.400000X0.350000*%
%ADD29C,0.662941*%
%ADD30C,0.254000*%
%ADD31C,0.152400*%
%ADD32C,0.203200*%
%ADD33C,0.508000*%
%ADD34C,0.304800*%
%ADD35C,0.656400*%
%ADD36C,0.609600*%

G36*
X-156184Y-146300D02*
X-156184Y-146300D01*
X-156165Y-146302D01*
X-156063Y-146280D01*
X-155961Y-146264D01*
X-155944Y-146254D01*
X-155924Y-146250D01*
X-155835Y-146197D01*
X-155744Y-146148D01*
X-155730Y-146134D01*
X-155713Y-146124D01*
X-155646Y-146045D01*
X-155574Y-145970D01*
X-155566Y-145952D01*
X-155553Y-145937D01*
X-155514Y-145841D01*
X-155471Y-145747D01*
X-155469Y-145727D01*
X-155461Y-145709D01*
X-155443Y-145542D01*
X-155443Y-114658D01*
X-153954Y-113169D01*
X-130850Y-113169D01*
X-129361Y-114658D01*
X-129361Y-145542D01*
X-129358Y-145562D01*
X-129360Y-145581D01*
X-129338Y-145683D01*
X-129322Y-145785D01*
X-129312Y-145802D01*
X-129308Y-145822D01*
X-129255Y-145911D01*
X-129206Y-146002D01*
X-129192Y-146016D01*
X-129182Y-146033D01*
X-129103Y-146100D01*
X-129028Y-146172D01*
X-129010Y-146180D01*
X-128995Y-146193D01*
X-128899Y-146232D01*
X-128805Y-146275D01*
X-128785Y-146277D01*
X-128767Y-146285D01*
X-128600Y-146303D01*
X-81204Y-146303D01*
X-81184Y-146300D01*
X-81165Y-146302D01*
X-81063Y-146280D01*
X-80961Y-146264D01*
X-80944Y-146254D01*
X-80924Y-146250D01*
X-80835Y-146197D01*
X-80744Y-146148D01*
X-80730Y-146134D01*
X-80713Y-146124D01*
X-80646Y-146045D01*
X-80574Y-145970D01*
X-80566Y-145952D01*
X-80553Y-145937D01*
X-80514Y-145841D01*
X-80471Y-145747D01*
X-80469Y-145727D01*
X-80461Y-145709D01*
X-80443Y-145542D01*
X-80443Y-116923D01*
X-80454Y-116853D01*
X-80456Y-116781D01*
X-80474Y-116732D01*
X-80482Y-116681D01*
X-80516Y-116617D01*
X-80541Y-116550D01*
X-80573Y-116509D01*
X-80598Y-116463D01*
X-80650Y-116414D01*
X-80694Y-116358D01*
X-80738Y-116330D01*
X-80776Y-116294D01*
X-80841Y-116264D01*
X-80901Y-116225D01*
X-80952Y-116212D01*
X-80999Y-116190D01*
X-81070Y-116182D01*
X-81140Y-116165D01*
X-81192Y-116169D01*
X-81243Y-116163D01*
X-81314Y-116178D01*
X-81385Y-116184D01*
X-81433Y-116204D01*
X-81484Y-116215D01*
X-81545Y-116252D01*
X-81611Y-116280D01*
X-81667Y-116325D01*
X-81695Y-116342D01*
X-81710Y-116359D01*
X-81742Y-116385D01*
X-89438Y-124081D01*
X-89491Y-124155D01*
X-89551Y-124224D01*
X-89563Y-124255D01*
X-89582Y-124281D01*
X-89609Y-124368D01*
X-89643Y-124453D01*
X-89647Y-124494D01*
X-89654Y-124516D01*
X-89653Y-124548D01*
X-89661Y-124619D01*
X-89661Y-126914D01*
X-89647Y-127004D01*
X-89639Y-127095D01*
X-89627Y-127124D01*
X-89622Y-127156D01*
X-89579Y-127237D01*
X-89543Y-127321D01*
X-89517Y-127353D01*
X-89506Y-127374D01*
X-89483Y-127396D01*
X-89438Y-127452D01*
X-88000Y-128890D01*
X-87109Y-131042D01*
X-87109Y-133372D01*
X-88000Y-135524D01*
X-89647Y-137171D01*
X-91799Y-138062D01*
X-94129Y-138062D01*
X-96281Y-137171D01*
X-97928Y-135524D01*
X-98819Y-133372D01*
X-98819Y-131042D01*
X-97928Y-128890D01*
X-96490Y-127452D01*
X-96437Y-127378D01*
X-96377Y-127308D01*
X-96365Y-127278D01*
X-96346Y-127252D01*
X-96319Y-127165D01*
X-96285Y-127080D01*
X-96281Y-127039D01*
X-96274Y-127017D01*
X-96275Y-126985D01*
X-96267Y-126914D01*
X-96267Y-121568D01*
X-94109Y-119410D01*
X-87999Y-113300D01*
X-87957Y-113242D01*
X-87908Y-113190D01*
X-87886Y-113143D01*
X-87855Y-113101D01*
X-87834Y-113032D01*
X-87804Y-112967D01*
X-87798Y-112915D01*
X-87783Y-112865D01*
X-87785Y-112794D01*
X-87777Y-112723D01*
X-87788Y-112672D01*
X-87789Y-112620D01*
X-87814Y-112552D01*
X-87829Y-112482D01*
X-87856Y-112437D01*
X-87874Y-112389D01*
X-87919Y-112333D01*
X-87956Y-112271D01*
X-87995Y-112237D01*
X-88028Y-112197D01*
X-88088Y-112158D01*
X-88142Y-112111D01*
X-88191Y-112092D01*
X-88235Y-112064D01*
X-88304Y-112046D01*
X-88371Y-112019D01*
X-88442Y-112011D01*
X-88473Y-112003D01*
X-88496Y-112005D01*
X-88537Y-112001D01*
X-90879Y-112001D01*
X-90879Y-100222D01*
X-90882Y-100202D01*
X-90880Y-100183D01*
X-90902Y-100081D01*
X-90919Y-99979D01*
X-90928Y-99962D01*
X-90932Y-99942D01*
X-90985Y-99853D01*
X-91034Y-99762D01*
X-91048Y-99748D01*
X-91058Y-99731D01*
X-91137Y-99664D01*
X-91212Y-99593D01*
X-91230Y-99584D01*
X-91245Y-99571D01*
X-91341Y-99532D01*
X-91435Y-99489D01*
X-91455Y-99487D01*
X-91473Y-99479D01*
X-91640Y-99461D01*
X-93164Y-99461D01*
X-93184Y-99464D01*
X-93203Y-99462D01*
X-93305Y-99484D01*
X-93407Y-99501D01*
X-93424Y-99510D01*
X-93444Y-99514D01*
X-93533Y-99567D01*
X-93624Y-99616D01*
X-93638Y-99630D01*
X-93655Y-99640D01*
X-93722Y-99719D01*
X-93793Y-99794D01*
X-93802Y-99812D01*
X-93815Y-99827D01*
X-93854Y-99923D01*
X-93897Y-100017D01*
X-93899Y-100037D01*
X-93907Y-100055D01*
X-93925Y-100222D01*
X-93925Y-112001D01*
X-96736Y-112001D01*
X-97383Y-111828D01*
X-97962Y-111493D01*
X-98114Y-111341D01*
X-98130Y-111330D01*
X-98142Y-111314D01*
X-98229Y-111258D01*
X-98313Y-111198D01*
X-98332Y-111192D01*
X-98349Y-111181D01*
X-98449Y-111156D01*
X-98548Y-111126D01*
X-98568Y-111126D01*
X-98588Y-111121D01*
X-98691Y-111129D01*
X-98794Y-111132D01*
X-98813Y-111139D01*
X-98833Y-111140D01*
X-98928Y-111181D01*
X-99025Y-111216D01*
X-99041Y-111229D01*
X-99059Y-111237D01*
X-99190Y-111341D01*
X-99850Y-112001D01*
X-109954Y-112001D01*
X-110614Y-111341D01*
X-110630Y-111330D01*
X-110642Y-111314D01*
X-110730Y-111258D01*
X-110813Y-111198D01*
X-110832Y-111192D01*
X-110849Y-111181D01*
X-110950Y-111156D01*
X-111049Y-111126D01*
X-111068Y-111126D01*
X-111088Y-111121D01*
X-111191Y-111129D01*
X-111294Y-111132D01*
X-111313Y-111139D01*
X-111333Y-111140D01*
X-111428Y-111181D01*
X-111525Y-111216D01*
X-111541Y-111229D01*
X-111559Y-111237D01*
X-111690Y-111341D01*
X-112350Y-112001D01*
X-122454Y-112001D01*
X-123943Y-110512D01*
X-123943Y-88408D01*
X-122454Y-86919D01*
X-120480Y-86919D01*
X-120390Y-86905D01*
X-120299Y-86897D01*
X-120270Y-86885D01*
X-120238Y-86880D01*
X-120157Y-86837D01*
X-120073Y-86801D01*
X-120041Y-86775D01*
X-120020Y-86764D01*
X-119998Y-86741D01*
X-119942Y-86696D01*
X-118547Y-85301D01*
X-112619Y-79373D01*
X-110461Y-77215D01*
X-97100Y-77215D01*
X-97010Y-77201D01*
X-96919Y-77193D01*
X-96889Y-77181D01*
X-96857Y-77176D01*
X-96776Y-77133D01*
X-96692Y-77097D01*
X-96660Y-77071D01*
X-96639Y-77060D01*
X-96617Y-77037D01*
X-96561Y-76992D01*
X-83564Y-63995D01*
X-75567Y-63995D01*
X-67583Y-71979D01*
X-67488Y-72047D01*
X-67394Y-72117D01*
X-67388Y-72119D01*
X-67383Y-72122D01*
X-67272Y-72157D01*
X-67161Y-72193D01*
X-67154Y-72193D01*
X-67148Y-72195D01*
X-67032Y-72192D01*
X-66915Y-72191D01*
X-66907Y-72189D01*
X-66902Y-72188D01*
X-66885Y-72182D01*
X-66754Y-72144D01*
X-65782Y-71742D01*
X-63453Y-71742D01*
X-61301Y-72633D01*
X-59654Y-74280D01*
X-58762Y-76432D01*
X-58762Y-78762D01*
X-59654Y-80914D01*
X-61301Y-82561D01*
X-63072Y-83295D01*
X-63128Y-83329D01*
X-63188Y-83355D01*
X-63253Y-83407D01*
X-63281Y-83424D01*
X-63293Y-83439D01*
X-63319Y-83460D01*
X-65912Y-86053D01*
X-65965Y-86127D01*
X-66025Y-86196D01*
X-66037Y-86227D01*
X-66056Y-86253D01*
X-66083Y-86340D01*
X-66117Y-86425D01*
X-66121Y-86466D01*
X-66128Y-86488D01*
X-66127Y-86520D01*
X-66135Y-86591D01*
X-66135Y-88819D01*
X-66121Y-88909D01*
X-66113Y-89000D01*
X-66101Y-89030D01*
X-66096Y-89062D01*
X-66053Y-89142D01*
X-66017Y-89227D01*
X-65991Y-89259D01*
X-65980Y-89279D01*
X-65957Y-89302D01*
X-65912Y-89357D01*
X-65747Y-89523D01*
X-65731Y-89534D01*
X-65719Y-89550D01*
X-65631Y-89606D01*
X-65548Y-89666D01*
X-65528Y-89672D01*
X-65512Y-89683D01*
X-65411Y-89708D01*
X-65312Y-89739D01*
X-65292Y-89738D01*
X-65273Y-89743D01*
X-65170Y-89735D01*
X-65067Y-89732D01*
X-65048Y-89725D01*
X-65028Y-89724D01*
X-64933Y-89683D01*
X-64836Y-89648D01*
X-64820Y-89635D01*
X-64802Y-89628D01*
X-64671Y-89523D01*
X-63452Y-88304D01*
X-57812Y-88304D01*
X-56545Y-89571D01*
X-56529Y-89582D01*
X-56517Y-89598D01*
X-56430Y-89654D01*
X-56346Y-89714D01*
X-56326Y-89720D01*
X-56310Y-89731D01*
X-56209Y-89756D01*
X-56110Y-89787D01*
X-56091Y-89786D01*
X-56071Y-89791D01*
X-55968Y-89783D01*
X-55865Y-89780D01*
X-55846Y-89774D01*
X-55826Y-89772D01*
X-55731Y-89732D01*
X-55634Y-89696D01*
X-55618Y-89683D01*
X-55600Y-89676D01*
X-55469Y-89571D01*
X-54959Y-89062D01*
X-54095Y-88563D01*
X-53131Y-88304D01*
X-52631Y-88304D01*
X-52631Y-92857D01*
X-52628Y-92876D01*
X-52630Y-92896D01*
X-52608Y-92998D01*
X-52592Y-93100D01*
X-52582Y-93117D01*
X-52578Y-93137D01*
X-52525Y-93226D01*
X-52476Y-93317D01*
X-52462Y-93331D01*
X-52452Y-93348D01*
X-52373Y-93415D01*
X-52298Y-93486D01*
X-52280Y-93495D01*
X-52265Y-93508D01*
X-52169Y-93546D01*
X-52075Y-93590D01*
X-52055Y-93592D01*
X-52037Y-93600D01*
X-51870Y-93618D01*
X-50894Y-93618D01*
X-50874Y-93615D01*
X-50854Y-93617D01*
X-50753Y-93595D01*
X-50651Y-93578D01*
X-50634Y-93569D01*
X-50614Y-93565D01*
X-50525Y-93512D01*
X-50434Y-93463D01*
X-50420Y-93449D01*
X-50403Y-93439D01*
X-50336Y-93360D01*
X-50264Y-93285D01*
X-50256Y-93267D01*
X-50243Y-93252D01*
X-50204Y-93155D01*
X-50161Y-93062D01*
X-50159Y-93042D01*
X-50151Y-93024D01*
X-50133Y-92857D01*
X-50133Y-88304D01*
X-49633Y-88304D01*
X-48669Y-88563D01*
X-47873Y-89022D01*
X-47784Y-89056D01*
X-47697Y-89096D01*
X-47669Y-89099D01*
X-47643Y-89109D01*
X-47547Y-89113D01*
X-47453Y-89123D01*
X-47425Y-89117D01*
X-47397Y-89118D01*
X-47306Y-89091D01*
X-47212Y-89071D01*
X-47188Y-89056D01*
X-47161Y-89048D01*
X-47083Y-88994D01*
X-47001Y-88945D01*
X-46983Y-88923D01*
X-46960Y-88907D01*
X-46903Y-88830D01*
X-46841Y-88758D01*
X-46831Y-88732D01*
X-46814Y-88709D01*
X-46785Y-88618D01*
X-46749Y-88530D01*
X-46746Y-88494D01*
X-46739Y-88475D01*
X-46740Y-88442D01*
X-46731Y-88363D01*
X-46731Y-84304D01*
X-46746Y-84214D01*
X-46753Y-84123D01*
X-46765Y-84093D01*
X-46771Y-84061D01*
X-46813Y-83981D01*
X-46849Y-83897D01*
X-46875Y-83865D01*
X-46886Y-83844D01*
X-46909Y-83822D01*
X-46954Y-83766D01*
X-52283Y-78437D01*
X-52283Y-71061D01*
X-51529Y-70307D01*
X-51518Y-70291D01*
X-51502Y-70278D01*
X-51446Y-70191D01*
X-51386Y-70107D01*
X-51380Y-70088D01*
X-51369Y-70071D01*
X-51344Y-69971D01*
X-51313Y-69872D01*
X-51314Y-69852D01*
X-51309Y-69833D01*
X-51317Y-69730D01*
X-51320Y-69626D01*
X-51327Y-69607D01*
X-51328Y-69588D01*
X-51368Y-69493D01*
X-51404Y-69395D01*
X-51417Y-69379D01*
X-51424Y-69361D01*
X-51529Y-69230D01*
X-60224Y-60536D01*
X-60298Y-60483D01*
X-60367Y-60423D01*
X-60397Y-60411D01*
X-60423Y-60392D01*
X-60510Y-60366D01*
X-60595Y-60331D01*
X-60636Y-60327D01*
X-60658Y-60320D01*
X-60691Y-60321D01*
X-60762Y-60313D01*
X-82915Y-60313D01*
X-90171Y-53057D01*
X-90171Y-45514D01*
X-90178Y-45469D01*
X-90176Y-45423D01*
X-90198Y-45348D01*
X-90210Y-45272D01*
X-90232Y-45231D01*
X-90245Y-45187D01*
X-90289Y-45123D01*
X-90326Y-45054D01*
X-90359Y-45023D01*
X-90385Y-44985D01*
X-90447Y-44938D01*
X-90504Y-44885D01*
X-90546Y-44865D01*
X-90582Y-44838D01*
X-90656Y-44814D01*
X-90727Y-44781D01*
X-90773Y-44776D01*
X-90816Y-44762D01*
X-90894Y-44763D01*
X-90971Y-44754D01*
X-91016Y-44764D01*
X-91062Y-44764D01*
X-91194Y-44802D01*
X-91212Y-44806D01*
X-91216Y-44809D01*
X-91223Y-44811D01*
X-91304Y-44844D01*
X-93633Y-44844D01*
X-95786Y-43953D01*
X-97433Y-42306D01*
X-98324Y-40154D01*
X-98324Y-38120D01*
X-98339Y-38030D01*
X-98346Y-37939D01*
X-98359Y-37909D01*
X-98364Y-37877D01*
X-98407Y-37796D01*
X-98442Y-37712D01*
X-98468Y-37680D01*
X-98479Y-37660D01*
X-98502Y-37637D01*
X-98547Y-37581D01*
X-99202Y-36927D01*
X-99276Y-36874D01*
X-99345Y-36814D01*
X-99375Y-36802D01*
X-99402Y-36783D01*
X-99489Y-36756D01*
X-99573Y-36722D01*
X-99614Y-36718D01*
X-99637Y-36711D01*
X-99669Y-36712D01*
X-99740Y-36704D01*
X-107864Y-36704D01*
X-107954Y-36718D01*
X-108045Y-36726D01*
X-108074Y-36738D01*
X-108106Y-36743D01*
X-108187Y-36786D01*
X-108271Y-36822D01*
X-108303Y-36848D01*
X-108324Y-36859D01*
X-108346Y-36882D01*
X-108402Y-36927D01*
X-109840Y-38365D01*
X-111992Y-39256D01*
X-112089Y-39256D01*
X-112160Y-39268D01*
X-112231Y-39270D01*
X-112280Y-39288D01*
X-112331Y-39296D01*
X-112395Y-39330D01*
X-112462Y-39355D01*
X-112503Y-39387D01*
X-112549Y-39411D01*
X-112598Y-39463D01*
X-112654Y-39508D01*
X-112682Y-39552D01*
X-112718Y-39590D01*
X-112748Y-39655D01*
X-112787Y-39715D01*
X-112800Y-39766D01*
X-112822Y-39813D01*
X-112830Y-39884D01*
X-112847Y-39954D01*
X-112843Y-40006D01*
X-112849Y-40057D01*
X-112834Y-40127D01*
X-112828Y-40199D01*
X-112823Y-40210D01*
X-112823Y-50464D01*
X-114312Y-51953D01*
X-122416Y-51953D01*
X-122450Y-51919D01*
X-122508Y-51878D01*
X-122560Y-51828D01*
X-122607Y-51806D01*
X-122649Y-51776D01*
X-122718Y-51755D01*
X-122783Y-51725D01*
X-122835Y-51719D01*
X-122885Y-51703D01*
X-122956Y-51705D01*
X-123027Y-51697D01*
X-123078Y-51709D01*
X-123130Y-51710D01*
X-123198Y-51734D01*
X-123268Y-51750D01*
X-123313Y-51776D01*
X-123361Y-51794D01*
X-123417Y-51839D01*
X-123479Y-51876D01*
X-123513Y-51915D01*
X-123553Y-51948D01*
X-123592Y-52008D01*
X-123639Y-52063D01*
X-123658Y-52111D01*
X-123686Y-52155D01*
X-123704Y-52224D01*
X-123731Y-52291D01*
X-123739Y-52362D01*
X-123747Y-52393D01*
X-123745Y-52417D01*
X-123749Y-52458D01*
X-123749Y-62156D01*
X-125238Y-63645D01*
X-147342Y-63645D01*
X-148831Y-62156D01*
X-148831Y-52052D01*
X-148171Y-51392D01*
X-148160Y-51376D01*
X-148144Y-51364D01*
X-148088Y-51276D01*
X-148028Y-51193D01*
X-148022Y-51174D01*
X-148011Y-51157D01*
X-147986Y-51056D01*
X-147956Y-50957D01*
X-147956Y-50938D01*
X-147951Y-50918D01*
X-147959Y-50815D01*
X-147962Y-50712D01*
X-147969Y-50693D01*
X-147970Y-50673D01*
X-148011Y-50578D01*
X-148046Y-50481D01*
X-148059Y-50465D01*
X-148067Y-50447D01*
X-148171Y-50316D01*
X-148831Y-49656D01*
X-148831Y-39552D01*
X-148171Y-38892D01*
X-148160Y-38876D01*
X-148144Y-38864D01*
X-148088Y-38776D01*
X-148028Y-38693D01*
X-148022Y-38674D01*
X-148011Y-38657D01*
X-147986Y-38556D01*
X-147956Y-38457D01*
X-147956Y-38438D01*
X-147951Y-38418D01*
X-147959Y-38315D01*
X-147962Y-38212D01*
X-147969Y-38193D01*
X-147970Y-38173D01*
X-148011Y-38078D01*
X-148046Y-37981D01*
X-148059Y-37965D01*
X-148067Y-37947D01*
X-148171Y-37816D01*
X-148323Y-37664D01*
X-148658Y-37085D01*
X-148831Y-36438D01*
X-148831Y-33627D01*
X-137052Y-33627D01*
X-137032Y-33624D01*
X-137013Y-33626D01*
X-136911Y-33604D01*
X-136809Y-33587D01*
X-136792Y-33578D01*
X-136772Y-33574D01*
X-136683Y-33521D01*
X-136592Y-33472D01*
X-136578Y-33458D01*
X-136561Y-33448D01*
X-136494Y-33369D01*
X-136423Y-33294D01*
X-136414Y-33276D01*
X-136401Y-33261D01*
X-136362Y-33165D01*
X-136319Y-33071D01*
X-136317Y-33051D01*
X-136309Y-33033D01*
X-136291Y-32866D01*
X-136291Y-32103D01*
X-136289Y-32103D01*
X-136289Y-32866D01*
X-136286Y-32886D01*
X-136288Y-32905D01*
X-136266Y-33007D01*
X-136249Y-33109D01*
X-136240Y-33126D01*
X-136236Y-33146D01*
X-136183Y-33235D01*
X-136134Y-33326D01*
X-136120Y-33340D01*
X-136110Y-33357D01*
X-136031Y-33424D01*
X-135956Y-33495D01*
X-135938Y-33504D01*
X-135923Y-33517D01*
X-135827Y-33556D01*
X-135733Y-33599D01*
X-135713Y-33601D01*
X-135695Y-33609D01*
X-135528Y-33627D01*
X-123749Y-33627D01*
X-123749Y-36438D01*
X-123922Y-37085D01*
X-124257Y-37664D01*
X-124409Y-37816D01*
X-124420Y-37832D01*
X-124436Y-37844D01*
X-124492Y-37932D01*
X-124552Y-38015D01*
X-124558Y-38034D01*
X-124569Y-38051D01*
X-124594Y-38152D01*
X-124624Y-38251D01*
X-124624Y-38271D01*
X-124629Y-38290D01*
X-124621Y-38393D01*
X-124618Y-38496D01*
X-124611Y-38515D01*
X-124610Y-38535D01*
X-124569Y-38630D01*
X-124534Y-38727D01*
X-124521Y-38743D01*
X-124513Y-38761D01*
X-124409Y-38892D01*
X-123961Y-39340D01*
X-123945Y-39351D01*
X-123933Y-39367D01*
X-123846Y-39423D01*
X-123762Y-39483D01*
X-123742Y-39489D01*
X-123726Y-39500D01*
X-123625Y-39525D01*
X-123526Y-39555D01*
X-123507Y-39555D01*
X-123487Y-39560D01*
X-123384Y-39552D01*
X-123281Y-39549D01*
X-123262Y-39542D01*
X-123242Y-39541D01*
X-123147Y-39500D01*
X-123050Y-39465D01*
X-123034Y-39452D01*
X-123016Y-39444D01*
X-122885Y-39340D01*
X-122416Y-38871D01*
X-117805Y-38871D01*
X-117735Y-38860D01*
X-117663Y-38858D01*
X-117614Y-38840D01*
X-117563Y-38832D01*
X-117499Y-38798D01*
X-117432Y-38773D01*
X-117391Y-38741D01*
X-117345Y-38716D01*
X-117296Y-38664D01*
X-117240Y-38620D01*
X-117212Y-38576D01*
X-117176Y-38538D01*
X-117146Y-38473D01*
X-117107Y-38413D01*
X-117094Y-38362D01*
X-117072Y-38315D01*
X-117064Y-38244D01*
X-117047Y-38174D01*
X-117051Y-38122D01*
X-117045Y-38071D01*
X-117060Y-38000D01*
X-117066Y-37929D01*
X-117086Y-37881D01*
X-117097Y-37830D01*
X-117134Y-37769D01*
X-117162Y-37703D01*
X-117207Y-37647D01*
X-117224Y-37619D01*
X-117241Y-37604D01*
X-117267Y-37572D01*
X-118121Y-36718D01*
X-119012Y-34566D01*
X-119012Y-32236D01*
X-118121Y-30084D01*
X-116474Y-28437D01*
X-114492Y-27616D01*
X-114475Y-27605D01*
X-114455Y-27600D01*
X-114370Y-27541D01*
X-114283Y-27486D01*
X-114270Y-27471D01*
X-114253Y-27460D01*
X-114192Y-27377D01*
X-114126Y-27297D01*
X-114119Y-27278D01*
X-114107Y-27262D01*
X-114075Y-27164D01*
X-114038Y-27067D01*
X-114037Y-27047D01*
X-114030Y-27028D01*
X-114031Y-26925D01*
X-114027Y-26821D01*
X-114033Y-26802D01*
X-114033Y-26782D01*
X-114080Y-26621D01*
X-114313Y-26057D01*
X-114313Y-23727D01*
X-113422Y-21575D01*
X-111775Y-19928D01*
X-109623Y-19037D01*
X-107293Y-19037D01*
X-105141Y-19928D01*
X-103703Y-21366D01*
X-103629Y-21419D01*
X-103559Y-21479D01*
X-103529Y-21491D01*
X-103503Y-21510D01*
X-103416Y-21537D01*
X-103331Y-21571D01*
X-103290Y-21575D01*
X-103268Y-21582D01*
X-103236Y-21581D01*
X-103165Y-21589D01*
X-98003Y-21589D01*
X-97913Y-21575D01*
X-97822Y-21567D01*
X-97793Y-21555D01*
X-97761Y-21550D01*
X-97680Y-21507D01*
X-97596Y-21471D01*
X-97564Y-21445D01*
X-97543Y-21434D01*
X-97521Y-21411D01*
X-97465Y-21366D01*
X-96027Y-19928D01*
X-93875Y-19037D01*
X-91545Y-19037D01*
X-91223Y-19170D01*
X-91179Y-19180D01*
X-91137Y-19200D01*
X-91060Y-19208D01*
X-90984Y-19226D01*
X-90938Y-19222D01*
X-90893Y-19227D01*
X-90816Y-19210D01*
X-90739Y-19203D01*
X-90697Y-19184D01*
X-90652Y-19175D01*
X-90585Y-19135D01*
X-90514Y-19103D01*
X-90480Y-19072D01*
X-90441Y-19048D01*
X-90390Y-18989D01*
X-90333Y-18937D01*
X-90311Y-18896D01*
X-90281Y-18862D01*
X-90252Y-18789D01*
X-90215Y-18721D01*
X-90206Y-18676D01*
X-90189Y-18633D01*
X-90174Y-18497D01*
X-90171Y-18479D01*
X-90172Y-18474D01*
X-90171Y-18467D01*
X-90171Y-9413D01*
X-90182Y-9343D01*
X-90184Y-9271D01*
X-90202Y-9222D01*
X-90210Y-9171D01*
X-90244Y-9107D01*
X-90269Y-9040D01*
X-90301Y-8999D01*
X-90326Y-8953D01*
X-90378Y-8904D01*
X-90422Y-8848D01*
X-90466Y-8820D01*
X-90504Y-8784D01*
X-90569Y-8754D01*
X-90629Y-8715D01*
X-90680Y-8702D01*
X-90727Y-8680D01*
X-90798Y-8672D01*
X-90868Y-8655D01*
X-90920Y-8659D01*
X-90971Y-8653D01*
X-91042Y-8668D01*
X-91113Y-8674D01*
X-91161Y-8694D01*
X-91212Y-8705D01*
X-91273Y-8742D01*
X-91339Y-8770D01*
X-91395Y-8815D01*
X-91423Y-8832D01*
X-91438Y-8849D01*
X-91470Y-8875D01*
X-93157Y-10562D01*
X-97597Y-12401D01*
X-102403Y-12401D01*
X-106843Y-10562D01*
X-110242Y-7163D01*
X-112081Y-2723D01*
X-112081Y2083D01*
X-110242Y6523D01*
X-109216Y7549D01*
X-109159Y7628D01*
X-109097Y7703D01*
X-109088Y7727D01*
X-109073Y7748D01*
X-109044Y7841D01*
X-109009Y7932D01*
X-109008Y7958D01*
X-109000Y7983D01*
X-109003Y8081D01*
X-108999Y8178D01*
X-109006Y8203D01*
X-109007Y8229D01*
X-109040Y8321D01*
X-109067Y8414D01*
X-109082Y8436D01*
X-109091Y8460D01*
X-109152Y8536D01*
X-109208Y8616D01*
X-109228Y8632D01*
X-109245Y8652D01*
X-109327Y8705D01*
X-109405Y8763D01*
X-109430Y8771D01*
X-109452Y8785D01*
X-109546Y8809D01*
X-109639Y8839D01*
X-109665Y8839D01*
X-109690Y8845D01*
X-109787Y8838D01*
X-109885Y8837D01*
X-109916Y8828D01*
X-109935Y8826D01*
X-109966Y8813D01*
X-110046Y8790D01*
X-110849Y8457D01*
X-113179Y8457D01*
X-115331Y9349D01*
X-116978Y10996D01*
X-117869Y13148D01*
X-117869Y15477D01*
X-116978Y17630D01*
X-116719Y17888D01*
X-116708Y17904D01*
X-116692Y17917D01*
X-116636Y18004D01*
X-116576Y18088D01*
X-116570Y18107D01*
X-116559Y18124D01*
X-116534Y18224D01*
X-116503Y18323D01*
X-116504Y18343D01*
X-116499Y18362D01*
X-116507Y18465D01*
X-116510Y18569D01*
X-116517Y18588D01*
X-116518Y18608D01*
X-116559Y18703D01*
X-116594Y18800D01*
X-116607Y18816D01*
X-116614Y18834D01*
X-116719Y18965D01*
X-116958Y19204D01*
X-117849Y21356D01*
X-117849Y21600D01*
X-117861Y21670D01*
X-117863Y21742D01*
X-117881Y21791D01*
X-117889Y21842D01*
X-117923Y21906D01*
X-117947Y21973D01*
X-117980Y22014D01*
X-118004Y22060D01*
X-118056Y22109D01*
X-118101Y22165D01*
X-118145Y22193D01*
X-118183Y22229D01*
X-118248Y22259D01*
X-118308Y22298D01*
X-118359Y22311D01*
X-118406Y22333D01*
X-118477Y22341D01*
X-118546Y22358D01*
X-118598Y22354D01*
X-118650Y22360D01*
X-118720Y22345D01*
X-118792Y22339D01*
X-118840Y22319D01*
X-118891Y22308D01*
X-118952Y22271D01*
X-119018Y22243D01*
X-119074Y22198D01*
X-119102Y22181D01*
X-119117Y22164D01*
X-119149Y22138D01*
X-120568Y20719D01*
X-132672Y20719D01*
X-134178Y22224D01*
X-134273Y22293D01*
X-134370Y22364D01*
X-134374Y22366D01*
X-134377Y22368D01*
X-134490Y22403D01*
X-134604Y22439D01*
X-134608Y22439D01*
X-134612Y22440D01*
X-134731Y22437D01*
X-134850Y22435D01*
X-134854Y22434D01*
X-134858Y22434D01*
X-134970Y22393D01*
X-135082Y22354D01*
X-135085Y22351D01*
X-135089Y22350D01*
X-135184Y22274D01*
X-135276Y22202D01*
X-135279Y22198D01*
X-135281Y22196D01*
X-135289Y22184D01*
X-135375Y22067D01*
X-135587Y21700D01*
X-136060Y21227D01*
X-136639Y20892D01*
X-137286Y20719D01*
X-141097Y20719D01*
X-141097Y26998D01*
X-141100Y27018D01*
X-141098Y27037D01*
X-141120Y27139D01*
X-141137Y27241D01*
X-141146Y27258D01*
X-141150Y27278D01*
X-141203Y27367D01*
X-141252Y27458D01*
X-141266Y27472D01*
X-141276Y27489D01*
X-141355Y27556D01*
X-141430Y27627D01*
X-141448Y27636D01*
X-141463Y27649D01*
X-141559Y27688D01*
X-141653Y27731D01*
X-141673Y27733D01*
X-141691Y27741D01*
X-141858Y27759D01*
X-142621Y27759D01*
X-142621Y27761D01*
X-141858Y27761D01*
X-141838Y27764D01*
X-141819Y27762D01*
X-141717Y27784D01*
X-141615Y27801D01*
X-141598Y27810D01*
X-141578Y27814D01*
X-141489Y27867D01*
X-141398Y27916D01*
X-141384Y27930D01*
X-141367Y27940D01*
X-141300Y28019D01*
X-141229Y28094D01*
X-141220Y28112D01*
X-141207Y28127D01*
X-141168Y28223D01*
X-141125Y28317D01*
X-141123Y28337D01*
X-141115Y28355D01*
X-141097Y28522D01*
X-141097Y34801D01*
X-137285Y34801D01*
X-136639Y34628D01*
X-136060Y34293D01*
X-135587Y33820D01*
X-135375Y33453D01*
X-135299Y33360D01*
X-135226Y33268D01*
X-135222Y33266D01*
X-135219Y33263D01*
X-135118Y33199D01*
X-135019Y33135D01*
X-135015Y33134D01*
X-135011Y33132D01*
X-134895Y33104D01*
X-134780Y33075D01*
X-134776Y33076D01*
X-134772Y33075D01*
X-134653Y33085D01*
X-134535Y33094D01*
X-134531Y33096D01*
X-134527Y33096D01*
X-134417Y33144D01*
X-134309Y33191D01*
X-134305Y33194D01*
X-134302Y33195D01*
X-134291Y33205D01*
X-134178Y33296D01*
X-132526Y34947D01*
X-132510Y34956D01*
X-132496Y34970D01*
X-132479Y34980D01*
X-132412Y35059D01*
X-132340Y35134D01*
X-132332Y35152D01*
X-132319Y35167D01*
X-132280Y35263D01*
X-132237Y35357D01*
X-132235Y35377D01*
X-132227Y35395D01*
X-132209Y35562D01*
X-132209Y60958D01*
X-132212Y60978D01*
X-132210Y60997D01*
X-132232Y61099D01*
X-132248Y61201D01*
X-132258Y61218D01*
X-132262Y61238D01*
X-132315Y61327D01*
X-132364Y61418D01*
X-132378Y61432D01*
X-132388Y61449D01*
X-132467Y61516D01*
X-132517Y61564D01*
X-134178Y63224D01*
X-134273Y63293D01*
X-134370Y63364D01*
X-134374Y63366D01*
X-134377Y63368D01*
X-134490Y63403D01*
X-134604Y63439D01*
X-134608Y63439D01*
X-134612Y63440D01*
X-134731Y63437D01*
X-134850Y63435D01*
X-134854Y63434D01*
X-134858Y63434D01*
X-134970Y63393D01*
X-135082Y63354D01*
X-135085Y63351D01*
X-135089Y63350D01*
X-135183Y63275D01*
X-135276Y63202D01*
X-135279Y63198D01*
X-135281Y63196D01*
X-135289Y63184D01*
X-135375Y63067D01*
X-135587Y62700D01*
X-136060Y62227D01*
X-136639Y61892D01*
X-137286Y61719D01*
X-141097Y61719D01*
X-141097Y67998D01*
X-141100Y68018D01*
X-141098Y68037D01*
X-141120Y68139D01*
X-141137Y68241D01*
X-141146Y68258D01*
X-141150Y68278D01*
X-141203Y68367D01*
X-141252Y68458D01*
X-141266Y68472D01*
X-141276Y68489D01*
X-141355Y68556D01*
X-141430Y68627D01*
X-141448Y68636D01*
X-141463Y68649D01*
X-141559Y68688D01*
X-141653Y68731D01*
X-141673Y68733D01*
X-141691Y68741D01*
X-141858Y68759D01*
X-142621Y68759D01*
X-142621Y68761D01*
X-141858Y68761D01*
X-141838Y68764D01*
X-141819Y68762D01*
X-141717Y68784D01*
X-141615Y68801D01*
X-141598Y68810D01*
X-141578Y68814D01*
X-141489Y68867D01*
X-141398Y68916D01*
X-141384Y68930D01*
X-141367Y68940D01*
X-141300Y69019D01*
X-141229Y69094D01*
X-141220Y69112D01*
X-141207Y69127D01*
X-141168Y69223D01*
X-141125Y69317D01*
X-141123Y69337D01*
X-141115Y69355D01*
X-141097Y69522D01*
X-141097Y75801D01*
X-137286Y75801D01*
X-136639Y75628D01*
X-136060Y75293D01*
X-135587Y74820D01*
X-135375Y74453D01*
X-135299Y74360D01*
X-135226Y74268D01*
X-135222Y74266D01*
X-135219Y74263D01*
X-135118Y74199D01*
X-135019Y74135D01*
X-135015Y74134D01*
X-135011Y74132D01*
X-134895Y74104D01*
X-134780Y74075D01*
X-134776Y74076D01*
X-134772Y74075D01*
X-134653Y74085D01*
X-134535Y74094D01*
X-134531Y74096D01*
X-134527Y74096D01*
X-134417Y74144D01*
X-134309Y74191D01*
X-134305Y74194D01*
X-134302Y74195D01*
X-134291Y74205D01*
X-134178Y74296D01*
X-132672Y75801D01*
X-131990Y75801D01*
X-131970Y75804D01*
X-131951Y75802D01*
X-131849Y75824D01*
X-131747Y75840D01*
X-131730Y75850D01*
X-131710Y75854D01*
X-131621Y75907D01*
X-131530Y75956D01*
X-131516Y75970D01*
X-131499Y75980D01*
X-131432Y76059D01*
X-131360Y76134D01*
X-131352Y76152D01*
X-131339Y76167D01*
X-131300Y76263D01*
X-131257Y76357D01*
X-131255Y76377D01*
X-131247Y76395D01*
X-131229Y76562D01*
X-131229Y77532D01*
X-131230Y77541D01*
X-131230Y77544D01*
X-131233Y77559D01*
X-131243Y77622D01*
X-131251Y77713D01*
X-131263Y77743D01*
X-131268Y77775D01*
X-131311Y77856D01*
X-131347Y77940D01*
X-131373Y77972D01*
X-131384Y77992D01*
X-131407Y78015D01*
X-131452Y78071D01*
X-132431Y79050D01*
X-132431Y86154D01*
X-130942Y87643D01*
X-128226Y87643D01*
X-128161Y87653D01*
X-128096Y87654D01*
X-128016Y87677D01*
X-127983Y87682D01*
X-127966Y87692D01*
X-127935Y87701D01*
X-126752Y88191D01*
X-124528Y88191D01*
X-123345Y87701D01*
X-123281Y87686D01*
X-123221Y87661D01*
X-123138Y87652D01*
X-123106Y87645D01*
X-123086Y87646D01*
X-123054Y87643D01*
X-120338Y87643D01*
X-118849Y86154D01*
X-118849Y79050D01*
X-119828Y78071D01*
X-119881Y77997D01*
X-119941Y77927D01*
X-119953Y77897D01*
X-119972Y77871D01*
X-119999Y77784D01*
X-120033Y77699D01*
X-120037Y77658D01*
X-120044Y77636D01*
X-120043Y77604D01*
X-120051Y77532D01*
X-120051Y75600D01*
X-120037Y75510D01*
X-120029Y75419D01*
X-120017Y75389D01*
X-120012Y75357D01*
X-119969Y75276D01*
X-119933Y75192D01*
X-119907Y75160D01*
X-119896Y75140D01*
X-119873Y75117D01*
X-119828Y75061D01*
X-119079Y74312D01*
X-119079Y63208D01*
X-120714Y61573D01*
X-120730Y61564D01*
X-120744Y61550D01*
X-120761Y61540D01*
X-120828Y61461D01*
X-120900Y61386D01*
X-120908Y61368D01*
X-120921Y61353D01*
X-120960Y61257D01*
X-121003Y61163D01*
X-121005Y61143D01*
X-121013Y61125D01*
X-121031Y60958D01*
X-121031Y40102D01*
X-121024Y40057D01*
X-121026Y40011D01*
X-121004Y39936D01*
X-120992Y39859D01*
X-120970Y39819D01*
X-120957Y39774D01*
X-120913Y39710D01*
X-120876Y39642D01*
X-120843Y39610D01*
X-120817Y39572D01*
X-120755Y39526D01*
X-120698Y39472D01*
X-120656Y39453D01*
X-120620Y39426D01*
X-120546Y39402D01*
X-120475Y39369D01*
X-120429Y39364D01*
X-120386Y39349D01*
X-120308Y39350D01*
X-120231Y39342D01*
X-120186Y39351D01*
X-120140Y39352D01*
X-120008Y39390D01*
X-119990Y39394D01*
X-119986Y39396D01*
X-119979Y39399D01*
X-119093Y39765D01*
X-119076Y39776D01*
X-119057Y39781D01*
X-118972Y39840D01*
X-118884Y39895D01*
X-118871Y39910D01*
X-118855Y39922D01*
X-118793Y40005D01*
X-118727Y40084D01*
X-118720Y40103D01*
X-118708Y40119D01*
X-118676Y40218D01*
X-118639Y40314D01*
X-118638Y40334D01*
X-118632Y40353D01*
X-118633Y40457D01*
X-118629Y40560D01*
X-118634Y40579D01*
X-118634Y40599D01*
X-118681Y40760D01*
X-118885Y41253D01*
X-118885Y43583D01*
X-117994Y45735D01*
X-116347Y47382D01*
X-114195Y48273D01*
X-111865Y48273D01*
X-109713Y47382D01*
X-108066Y45735D01*
X-107175Y43583D01*
X-107175Y41253D01*
X-108066Y39101D01*
X-109713Y37454D01*
X-110836Y36989D01*
X-110853Y36978D01*
X-110872Y36973D01*
X-110957Y36914D01*
X-111045Y36859D01*
X-111058Y36844D01*
X-111074Y36832D01*
X-111136Y36749D01*
X-111202Y36670D01*
X-111209Y36651D01*
X-111221Y36635D01*
X-111253Y36536D01*
X-111290Y36440D01*
X-111291Y36420D01*
X-111297Y36401D01*
X-111296Y36297D01*
X-111301Y36194D01*
X-111295Y36175D01*
X-111295Y36155D01*
X-111248Y35994D01*
X-111044Y35501D01*
X-111044Y33467D01*
X-111029Y33377D01*
X-111022Y33286D01*
X-111009Y33256D01*
X-111004Y33224D01*
X-110962Y33143D01*
X-110926Y33059D01*
X-110900Y33027D01*
X-110889Y33007D01*
X-110866Y32984D01*
X-110821Y32928D01*
X-108691Y30799D01*
X-108691Y27814D01*
X-108677Y27724D01*
X-108669Y27633D01*
X-108657Y27603D01*
X-108652Y27571D01*
X-108609Y27490D01*
X-108573Y27407D01*
X-108547Y27374D01*
X-108536Y27354D01*
X-108513Y27332D01*
X-108468Y27276D01*
X-107030Y25837D01*
X-106139Y23685D01*
X-106139Y21356D01*
X-107030Y19204D01*
X-107289Y18945D01*
X-107300Y18929D01*
X-107316Y18916D01*
X-107372Y18829D01*
X-107432Y18745D01*
X-107438Y18726D01*
X-107449Y18709D01*
X-107474Y18609D01*
X-107505Y18510D01*
X-107504Y18490D01*
X-107509Y18471D01*
X-107501Y18368D01*
X-107498Y18264D01*
X-107491Y18245D01*
X-107490Y18226D01*
X-107449Y18131D01*
X-107414Y18033D01*
X-107401Y18018D01*
X-107394Y17999D01*
X-107289Y17868D01*
X-107050Y17630D01*
X-106159Y15477D01*
X-106159Y13148D01*
X-106927Y11294D01*
X-106943Y11224D01*
X-106969Y11157D01*
X-106971Y11105D01*
X-106983Y11054D01*
X-106976Y10983D01*
X-106979Y10911D01*
X-106965Y10861D01*
X-106960Y10809D01*
X-106931Y10744D01*
X-106911Y10675D01*
X-106881Y10632D01*
X-106860Y10584D01*
X-106811Y10532D01*
X-106770Y10473D01*
X-106729Y10442D01*
X-106693Y10403D01*
X-106631Y10369D01*
X-106573Y10326D01*
X-106524Y10310D01*
X-106478Y10285D01*
X-106407Y10272D01*
X-106339Y10250D01*
X-106287Y10250D01*
X-106236Y10241D01*
X-106165Y10252D01*
X-106093Y10252D01*
X-106024Y10272D01*
X-105992Y10277D01*
X-105972Y10287D01*
X-105932Y10299D01*
X-102403Y11761D01*
X-97597Y11761D01*
X-93157Y9922D01*
X-89758Y6523D01*
X-89214Y5210D01*
X-89190Y5171D01*
X-89174Y5128D01*
X-89126Y5067D01*
X-89085Y5001D01*
X-89049Y4971D01*
X-89021Y4936D01*
X-88955Y4894D01*
X-88895Y4844D01*
X-88853Y4828D01*
X-88814Y4803D01*
X-88738Y4784D01*
X-88666Y4756D01*
X-88620Y4754D01*
X-88575Y4743D01*
X-88498Y4749D01*
X-88420Y4745D01*
X-88376Y4758D01*
X-88330Y4762D01*
X-88259Y4792D01*
X-88184Y4814D01*
X-88146Y4840D01*
X-88104Y4858D01*
X-87997Y4943D01*
X-87982Y4954D01*
X-87979Y4958D01*
X-87973Y4963D01*
X-67952Y24984D01*
X-67940Y25000D01*
X-67924Y25013D01*
X-67868Y25100D01*
X-67808Y25184D01*
X-67802Y25203D01*
X-67791Y25220D01*
X-67766Y25320D01*
X-67736Y25419D01*
X-67736Y25439D01*
X-67731Y25458D01*
X-67739Y25561D01*
X-67742Y25665D01*
X-67749Y25684D01*
X-67750Y25704D01*
X-67791Y25799D01*
X-67826Y25896D01*
X-67839Y25912D01*
X-67847Y25930D01*
X-67952Y26061D01*
X-69586Y27695D01*
X-69644Y27737D01*
X-69696Y27786D01*
X-69743Y27808D01*
X-69785Y27839D01*
X-69854Y27860D01*
X-69919Y27890D01*
X-69971Y27896D01*
X-70021Y27911D01*
X-70092Y27909D01*
X-70163Y27917D01*
X-70214Y27906D01*
X-70266Y27905D01*
X-70334Y27880D01*
X-70404Y27865D01*
X-70448Y27838D01*
X-70497Y27820D01*
X-70553Y27775D01*
X-70615Y27738D01*
X-70649Y27699D01*
X-70689Y27666D01*
X-70728Y27606D01*
X-70775Y27552D01*
X-70794Y27503D01*
X-70822Y27459D01*
X-70840Y27390D01*
X-70867Y27323D01*
X-70875Y27252D01*
X-70883Y27221D01*
X-70881Y27198D01*
X-70885Y27157D01*
X-70885Y27036D01*
X-71772Y24896D01*
X-73410Y23258D01*
X-75550Y22371D01*
X-77866Y22371D01*
X-80006Y23258D01*
X-81644Y24896D01*
X-82531Y27036D01*
X-82531Y29352D01*
X-81644Y31492D01*
X-80006Y33130D01*
X-79208Y33461D01*
X-79147Y33499D01*
X-79082Y33528D01*
X-79043Y33563D01*
X-78999Y33591D01*
X-78953Y33646D01*
X-78900Y33694D01*
X-78875Y33740D01*
X-78842Y33780D01*
X-78816Y33847D01*
X-78782Y33910D01*
X-78773Y33961D01*
X-78754Y34010D01*
X-78751Y34081D01*
X-78738Y34152D01*
X-78746Y34203D01*
X-78744Y34255D01*
X-78764Y34324D01*
X-78774Y34395D01*
X-78798Y34442D01*
X-78812Y34492D01*
X-78853Y34550D01*
X-78885Y34614D01*
X-78923Y34651D01*
X-78952Y34694D01*
X-79010Y34736D01*
X-79061Y34787D01*
X-79124Y34821D01*
X-79150Y34840D01*
X-79172Y34848D01*
X-79208Y34868D01*
X-81189Y35688D01*
X-82836Y37335D01*
X-83727Y39487D01*
X-83727Y41817D01*
X-82836Y43969D01*
X-81189Y45616D01*
X-79037Y46507D01*
X-77146Y46507D01*
X-77075Y46519D01*
X-77004Y46521D01*
X-76955Y46539D01*
X-76903Y46547D01*
X-76840Y46581D01*
X-76773Y46605D01*
X-76732Y46638D01*
X-76686Y46662D01*
X-76637Y46714D01*
X-76581Y46759D01*
X-76552Y46803D01*
X-76517Y46841D01*
X-76486Y46906D01*
X-76448Y46966D01*
X-76435Y47017D01*
X-76413Y47064D01*
X-76405Y47135D01*
X-76387Y47204D01*
X-76392Y47256D01*
X-76386Y47308D01*
X-76401Y47378D01*
X-76407Y47450D01*
X-76427Y47498D01*
X-76438Y47549D01*
X-76475Y47610D01*
X-76503Y47676D01*
X-76548Y47732D01*
X-76564Y47760D01*
X-76582Y47775D01*
X-76608Y47807D01*
X-93347Y64546D01*
X-93421Y64599D01*
X-93490Y64659D01*
X-93521Y64671D01*
X-93547Y64690D01*
X-93634Y64717D01*
X-93719Y64751D01*
X-93760Y64755D01*
X-93782Y64762D01*
X-93814Y64761D01*
X-93885Y64769D01*
X-93947Y64769D01*
X-94011Y64759D01*
X-94077Y64758D01*
X-94157Y64735D01*
X-94190Y64730D01*
X-94207Y64720D01*
X-94238Y64711D01*
X-95355Y64249D01*
X-97685Y64249D01*
X-99837Y65140D01*
X-101484Y66787D01*
X-102375Y68939D01*
X-102375Y71269D01*
X-101484Y73421D01*
X-101021Y73884D01*
X-101009Y73900D01*
X-100994Y73912D01*
X-100938Y73999D01*
X-100878Y74083D01*
X-100872Y74102D01*
X-100861Y74119D01*
X-100836Y74220D01*
X-100805Y74319D01*
X-100806Y74338D01*
X-100801Y74358D01*
X-100809Y74461D01*
X-100812Y74564D01*
X-100818Y74583D01*
X-100820Y74603D01*
X-100860Y74698D01*
X-100896Y74795D01*
X-100909Y74811D01*
X-100916Y74829D01*
X-101021Y74960D01*
X-101738Y75677D01*
X-102324Y77091D01*
X-102385Y77191D01*
X-102445Y77291D01*
X-102450Y77295D01*
X-102453Y77300D01*
X-102543Y77375D01*
X-102632Y77451D01*
X-102638Y77453D01*
X-102643Y77457D01*
X-102751Y77499D01*
X-102860Y77543D01*
X-102868Y77544D01*
X-102872Y77545D01*
X-102891Y77546D01*
X-103027Y77561D01*
X-113342Y77561D01*
X-114831Y79050D01*
X-114831Y86154D01*
X-113342Y87643D01*
X-102738Y87643D01*
X-102602Y87507D01*
X-102585Y87495D01*
X-102573Y87479D01*
X-102486Y87423D01*
X-102402Y87363D01*
X-102383Y87357D01*
X-102366Y87346D01*
X-102266Y87321D01*
X-102167Y87291D01*
X-102147Y87291D01*
X-102127Y87286D01*
X-102024Y87294D01*
X-101921Y87297D01*
X-101902Y87304D01*
X-101882Y87306D01*
X-101787Y87346D01*
X-101690Y87382D01*
X-101674Y87394D01*
X-101656Y87402D01*
X-101525Y87507D01*
X-100659Y88373D01*
X-92889Y88373D01*
X-90644Y86128D01*
X-90570Y86075D01*
X-90501Y86015D01*
X-90471Y86003D01*
X-90444Y85984D01*
X-90357Y85957D01*
X-90273Y85923D01*
X-90232Y85919D01*
X-90209Y85912D01*
X-90177Y85913D01*
X-90106Y85905D01*
X-82487Y85905D01*
X-82397Y85919D01*
X-82306Y85927D01*
X-82276Y85939D01*
X-82244Y85944D01*
X-82163Y85987D01*
X-82079Y86023D01*
X-82047Y86049D01*
X-82027Y86060D01*
X-82004Y86083D01*
X-81949Y86128D01*
X-79865Y88211D01*
X-79812Y88285D01*
X-79753Y88354D01*
X-79741Y88384D01*
X-79722Y88411D01*
X-79695Y88497D01*
X-79661Y88582D01*
X-79656Y88623D01*
X-79650Y88646D01*
X-79650Y88678D01*
X-79642Y88749D01*
X-79642Y90065D01*
X-78751Y92217D01*
X-77104Y93864D01*
X-74952Y94755D01*
X-72622Y94755D01*
X-70470Y93864D01*
X-68823Y92217D01*
X-67932Y90065D01*
X-67932Y87735D01*
X-68823Y85583D01*
X-70470Y83936D01*
X-72622Y83045D01*
X-73938Y83045D01*
X-74028Y83030D01*
X-74119Y83023D01*
X-74149Y83010D01*
X-74181Y83005D01*
X-74261Y82962D01*
X-74345Y82926D01*
X-74377Y82901D01*
X-74398Y82890D01*
X-74420Y82866D01*
X-74476Y82822D01*
X-78507Y78791D01*
X-81663Y78791D01*
X-81949Y79076D01*
X-82022Y79129D01*
X-82092Y79189D01*
X-82122Y79201D01*
X-82148Y79220D01*
X-82235Y79247D01*
X-82320Y79281D01*
X-82361Y79285D01*
X-82383Y79292D01*
X-82416Y79291D01*
X-82487Y79299D01*
X-90157Y79299D01*
X-90177Y79296D01*
X-90197Y79298D01*
X-90298Y79276D01*
X-90400Y79260D01*
X-90418Y79250D01*
X-90437Y79246D01*
X-90526Y79193D01*
X-90617Y79144D01*
X-90631Y79130D01*
X-90648Y79120D01*
X-90716Y79041D01*
X-90787Y78966D01*
X-90795Y78948D01*
X-90808Y78933D01*
X-90847Y78837D01*
X-90890Y78743D01*
X-90893Y78723D01*
X-90900Y78705D01*
X-90919Y78538D01*
X-90919Y77829D01*
X-91810Y75677D01*
X-92273Y75214D01*
X-92285Y75198D01*
X-92300Y75186D01*
X-92356Y75098D01*
X-92416Y75015D01*
X-92422Y74996D01*
X-92433Y74979D01*
X-92458Y74878D01*
X-92489Y74779D01*
X-92488Y74760D01*
X-92493Y74740D01*
X-92485Y74637D01*
X-92482Y74534D01*
X-92476Y74515D01*
X-92474Y74495D01*
X-92434Y74400D01*
X-92398Y74303D01*
X-92385Y74287D01*
X-92378Y74269D01*
X-92273Y74138D01*
X-91556Y73421D01*
X-90678Y71300D01*
X-90643Y71245D01*
X-90617Y71184D01*
X-90565Y71119D01*
X-90548Y71091D01*
X-90533Y71079D01*
X-90513Y71053D01*
X-88676Y69217D01*
X-59064Y39604D01*
X-58985Y39548D01*
X-58909Y39485D01*
X-58885Y39476D01*
X-58864Y39461D01*
X-58771Y39432D01*
X-58680Y39397D01*
X-58654Y39396D01*
X-58629Y39388D01*
X-58531Y39391D01*
X-58434Y39387D01*
X-58409Y39394D01*
X-58383Y39395D01*
X-58291Y39428D01*
X-58198Y39455D01*
X-58176Y39470D01*
X-58152Y39479D01*
X-58076Y39540D01*
X-57996Y39596D01*
X-57980Y39617D01*
X-57960Y39633D01*
X-57907Y39715D01*
X-57849Y39793D01*
X-57841Y39818D01*
X-57827Y39840D01*
X-57803Y39934D01*
X-57773Y40027D01*
X-57773Y40053D01*
X-57767Y40078D01*
X-57774Y40175D01*
X-57775Y40273D01*
X-57784Y40304D01*
X-57786Y40324D01*
X-57799Y40354D01*
X-57822Y40434D01*
X-58687Y42523D01*
X-58687Y44853D01*
X-57796Y47005D01*
X-56149Y48652D01*
X-53997Y49543D01*
X-51667Y49543D01*
X-49515Y48652D01*
X-47868Y47005D01*
X-46977Y44853D01*
X-46977Y43537D01*
X-46962Y43447D01*
X-46955Y43356D01*
X-46942Y43326D01*
X-46937Y43294D01*
X-46894Y43214D01*
X-46858Y43130D01*
X-46833Y43098D01*
X-46822Y43077D01*
X-46798Y43055D01*
X-46754Y42999D01*
X-45968Y42214D01*
X-45895Y42161D01*
X-45825Y42101D01*
X-45795Y42089D01*
X-45769Y42070D01*
X-45682Y42043D01*
X-45597Y42009D01*
X-45556Y42005D01*
X-45534Y41998D01*
X-45501Y41999D01*
X-45430Y41991D01*
X-41553Y41991D01*
X-41463Y42005D01*
X-41372Y42013D01*
X-41342Y42025D01*
X-41310Y42030D01*
X-41229Y42073D01*
X-41145Y42109D01*
X-41113Y42135D01*
X-41093Y42146D01*
X-41070Y42169D01*
X-41014Y42214D01*
X-40257Y42971D01*
X-34452Y42971D01*
X-34432Y42974D01*
X-34413Y42972D01*
X-34311Y42994D01*
X-34209Y43010D01*
X-34192Y43020D01*
X-34172Y43024D01*
X-34083Y43077D01*
X-33992Y43126D01*
X-33978Y43140D01*
X-33961Y43150D01*
X-33894Y43229D01*
X-33822Y43304D01*
X-33814Y43322D01*
X-33801Y43337D01*
X-33762Y43433D01*
X-33719Y43527D01*
X-33717Y43547D01*
X-33709Y43565D01*
X-33691Y43732D01*
X-33691Y49664D01*
X-32934Y50421D01*
X-32881Y50495D01*
X-32821Y50565D01*
X-32809Y50595D01*
X-32790Y50621D01*
X-32763Y50708D01*
X-32729Y50793D01*
X-32725Y50834D01*
X-32718Y50856D01*
X-32719Y50888D01*
X-32711Y50960D01*
X-32711Y52609D01*
X-32725Y52699D01*
X-32733Y52790D01*
X-32745Y52820D01*
X-32750Y52852D01*
X-32793Y52933D01*
X-32829Y53017D01*
X-32855Y53049D01*
X-32866Y53069D01*
X-32889Y53092D01*
X-32934Y53147D01*
X-33538Y53751D01*
X-33611Y53804D01*
X-33681Y53864D01*
X-33711Y53876D01*
X-33737Y53895D01*
X-33824Y53922D01*
X-33909Y53956D01*
X-33950Y53960D01*
X-33972Y53967D01*
X-34005Y53966D01*
X-34076Y53974D01*
X-51222Y53974D01*
X-51312Y53960D01*
X-51403Y53952D01*
X-51432Y53940D01*
X-51464Y53935D01*
X-51545Y53892D01*
X-51629Y53856D01*
X-51661Y53830D01*
X-51682Y53819D01*
X-51704Y53796D01*
X-51760Y53751D01*
X-52690Y52821D01*
X-54842Y51930D01*
X-57172Y51930D01*
X-59324Y52821D01*
X-60971Y54468D01*
X-61862Y56620D01*
X-61862Y58950D01*
X-60971Y61102D01*
X-59324Y62749D01*
X-57172Y63640D01*
X-54842Y63640D01*
X-52690Y62749D01*
X-51760Y61819D01*
X-51686Y61766D01*
X-51616Y61706D01*
X-51586Y61694D01*
X-51560Y61675D01*
X-51473Y61648D01*
X-51388Y61614D01*
X-51347Y61610D01*
X-51325Y61603D01*
X-51293Y61604D01*
X-51222Y61596D01*
X-30604Y61596D01*
X-25089Y56081D01*
X-25089Y53363D01*
X-25086Y53343D01*
X-25088Y53323D01*
X-25066Y53222D01*
X-25050Y53120D01*
X-25040Y53103D01*
X-25036Y53083D01*
X-24983Y52994D01*
X-24934Y52903D01*
X-24920Y52889D01*
X-24910Y52872D01*
X-24831Y52805D01*
X-24756Y52733D01*
X-24738Y52725D01*
X-24723Y52712D01*
X-24627Y52673D01*
X-24533Y52630D01*
X-24513Y52628D01*
X-24495Y52620D01*
X-24328Y52602D01*
X-22778Y52602D01*
X-22733Y52609D01*
X-22687Y52607D01*
X-22612Y52629D01*
X-22535Y52641D01*
X-22495Y52663D01*
X-22451Y52676D01*
X-22387Y52720D01*
X-22318Y52757D01*
X-22286Y52790D01*
X-22249Y52816D01*
X-22202Y52878D01*
X-22149Y52935D01*
X-22129Y52977D01*
X-22102Y53013D01*
X-22078Y53087D01*
X-22045Y53158D01*
X-22040Y53204D01*
X-22026Y53247D01*
X-22026Y53325D01*
X-22018Y53402D01*
X-22028Y53447D01*
X-22028Y53493D01*
X-22066Y53625D01*
X-22070Y53643D01*
X-22073Y53647D01*
X-22075Y53654D01*
X-22619Y54969D01*
X-22619Y57299D01*
X-21728Y59451D01*
X-20290Y60889D01*
X-20237Y60963D01*
X-20177Y61033D01*
X-20165Y61063D01*
X-20146Y61089D01*
X-20119Y61176D01*
X-20085Y61261D01*
X-20081Y61302D01*
X-20074Y61324D01*
X-20075Y61356D01*
X-20067Y61427D01*
X-20067Y80910D01*
X-20081Y81000D01*
X-20089Y81091D01*
X-20101Y81121D01*
X-20106Y81153D01*
X-20149Y81234D01*
X-20185Y81318D01*
X-20211Y81350D01*
X-20222Y81370D01*
X-20245Y81393D01*
X-20290Y81448D01*
X-20575Y81734D01*
X-20575Y82263D01*
X-20585Y82327D01*
X-20586Y82393D01*
X-20609Y82473D01*
X-20614Y82506D01*
X-20624Y82523D01*
X-20633Y82554D01*
X-21095Y83671D01*
X-21095Y86001D01*
X-20204Y88153D01*
X-18557Y89800D01*
X-16405Y90691D01*
X-14075Y90691D01*
X-11923Y89800D01*
X-10276Y88153D01*
X-9385Y86001D01*
X-9385Y83671D01*
X-10276Y81519D01*
X-11923Y79872D01*
X-12991Y79430D01*
X-13091Y79368D01*
X-13191Y79308D01*
X-13195Y79303D01*
X-13200Y79300D01*
X-13275Y79210D01*
X-13351Y79121D01*
X-13353Y79115D01*
X-13357Y79110D01*
X-13399Y79002D01*
X-13443Y78893D01*
X-13444Y78885D01*
X-13445Y78881D01*
X-13446Y78863D01*
X-13461Y78726D01*
X-13461Y78311D01*
X-13454Y78266D01*
X-13456Y78220D01*
X-13434Y78145D01*
X-13422Y78068D01*
X-13400Y78028D01*
X-13387Y77984D01*
X-13343Y77920D01*
X-13306Y77851D01*
X-13273Y77819D01*
X-13247Y77782D01*
X-13185Y77735D01*
X-13128Y77682D01*
X-13086Y77662D01*
X-13050Y77635D01*
X-12976Y77611D01*
X-12905Y77578D01*
X-12859Y77573D01*
X-12816Y77559D01*
X-12738Y77559D01*
X-12661Y77551D01*
X-12616Y77561D01*
X-12570Y77561D01*
X-12438Y77599D01*
X-12420Y77603D01*
X-12416Y77606D01*
X-12409Y77608D01*
X-10563Y78372D01*
X-8233Y78372D01*
X-6081Y77481D01*
X-4434Y75834D01*
X-3543Y73682D01*
X-3543Y71648D01*
X-3528Y71558D01*
X-3521Y71467D01*
X-3508Y71437D01*
X-3503Y71405D01*
X-3460Y71324D01*
X-3424Y71240D01*
X-3399Y71208D01*
X-3388Y71187D01*
X-3364Y71165D01*
X-3320Y71109D01*
X7385Y60404D01*
X9543Y58247D01*
X9543Y53333D01*
X9562Y53217D01*
X9580Y53098D01*
X9582Y53094D01*
X9583Y53090D01*
X9638Y52987D01*
X9693Y52880D01*
X9696Y52877D01*
X9698Y52873D01*
X9784Y52791D01*
X9870Y52708D01*
X9873Y52707D01*
X9876Y52704D01*
X9985Y52653D01*
X10091Y52602D01*
X10096Y52602D01*
X10099Y52600D01*
X10218Y52587D01*
X10336Y52573D01*
X10340Y52573D01*
X10344Y52573D01*
X10357Y52576D01*
X10501Y52598D01*
X10516Y52602D01*
X11976Y52602D01*
X11976Y45424D01*
X11979Y45404D01*
X11977Y45385D01*
X11999Y45283D01*
X12015Y45181D01*
X12025Y45164D01*
X12029Y45144D01*
X12082Y45055D01*
X12131Y44964D01*
X12145Y44950D01*
X12155Y44933D01*
X12234Y44866D01*
X12309Y44795D01*
X12327Y44786D01*
X12342Y44773D01*
X12438Y44735D01*
X12532Y44691D01*
X12552Y44689D01*
X12570Y44681D01*
X12737Y44663D01*
X13463Y44663D01*
X13483Y44666D01*
X13502Y44664D01*
X13604Y44686D01*
X13706Y44703D01*
X13723Y44712D01*
X13743Y44716D01*
X13832Y44769D01*
X13923Y44818D01*
X13937Y44832D01*
X13954Y44842D01*
X14021Y44921D01*
X14093Y44996D01*
X14101Y45014D01*
X14114Y45029D01*
X14153Y45126D01*
X14196Y45219D01*
X14198Y45239D01*
X14206Y45257D01*
X14224Y45424D01*
X14224Y52602D01*
X15684Y52602D01*
X16138Y52480D01*
X16205Y52473D01*
X16271Y52457D01*
X16327Y52461D01*
X16383Y52456D01*
X16449Y52471D01*
X16516Y52476D01*
X16568Y52498D01*
X16622Y52511D01*
X16680Y52546D01*
X16742Y52572D01*
X16804Y52622D01*
X16832Y52639D01*
X16845Y52655D01*
X16873Y52677D01*
X16949Y52753D01*
X17002Y52827D01*
X17061Y52896D01*
X17073Y52926D01*
X17092Y52953D01*
X17119Y53040D01*
X17153Y53124D01*
X17158Y53165D01*
X17164Y53188D01*
X17164Y53220D01*
X17172Y53291D01*
X17172Y62464D01*
X29130Y74423D01*
X37154Y74423D01*
X37199Y74430D01*
X37245Y74428D01*
X37320Y74450D01*
X37396Y74462D01*
X37437Y74484D01*
X37481Y74497D01*
X37545Y74541D01*
X37614Y74578D01*
X37645Y74611D01*
X37683Y74637D01*
X37730Y74699D01*
X37783Y74756D01*
X37803Y74798D01*
X37830Y74834D01*
X37854Y74908D01*
X37887Y74979D01*
X37892Y75025D01*
X37906Y75068D01*
X37905Y75146D01*
X37914Y75223D01*
X37904Y75268D01*
X37904Y75314D01*
X37866Y75446D01*
X37862Y75464D01*
X37859Y75468D01*
X37857Y75475D01*
X37198Y77067D01*
X37198Y79397D01*
X38089Y81549D01*
X39736Y83196D01*
X41888Y84087D01*
X44218Y84087D01*
X46370Y83196D01*
X47277Y82289D01*
X47293Y82277D01*
X47306Y82261D01*
X47370Y82220D01*
X47415Y82182D01*
X47439Y82172D01*
X47477Y82145D01*
X47496Y82139D01*
X47513Y82128D01*
X47606Y82105D01*
X47643Y82090D01*
X47662Y82088D01*
X47712Y82073D01*
X47732Y82073D01*
X47751Y82068D01*
X47803Y82072D01*
X47809Y82072D01*
X47822Y82072D01*
X47846Y82076D01*
X47854Y82076D01*
X47958Y82079D01*
X47977Y82086D01*
X47996Y82087D01*
X48046Y82108D01*
X48064Y82112D01*
X48104Y82132D01*
X48189Y82164D01*
X48205Y82176D01*
X48223Y82184D01*
X48266Y82218D01*
X48282Y82227D01*
X48299Y82245D01*
X48354Y82289D01*
X49515Y83450D01*
X51667Y84341D01*
X53997Y84341D01*
X56149Y83450D01*
X57079Y82520D01*
X57153Y82467D01*
X57223Y82407D01*
X57253Y82395D01*
X57279Y82376D01*
X57366Y82349D01*
X57451Y82315D01*
X57492Y82311D01*
X57514Y82304D01*
X57546Y82305D01*
X57617Y82297D01*
X102261Y82297D01*
X102351Y82311D01*
X102442Y82319D01*
X102472Y82331D01*
X102504Y82336D01*
X102585Y82379D01*
X102669Y82415D01*
X102701Y82441D01*
X102722Y82452D01*
X102744Y82475D01*
X102800Y82520D01*
X103609Y83329D01*
X103662Y83403D01*
X103722Y83473D01*
X103734Y83503D01*
X103753Y83529D01*
X103780Y83616D01*
X103814Y83701D01*
X103818Y83742D01*
X103825Y83764D01*
X103824Y83796D01*
X103832Y83867D01*
X103832Y87688D01*
X103818Y87778D01*
X103810Y87869D01*
X103798Y87899D01*
X103793Y87931D01*
X103750Y88012D01*
X103714Y88096D01*
X103688Y88128D01*
X103677Y88149D01*
X103654Y88171D01*
X103609Y88227D01*
X102900Y88936D01*
X102884Y88948D01*
X102872Y88963D01*
X102785Y89019D01*
X102701Y89079D01*
X102681Y89085D01*
X102665Y89096D01*
X102564Y89121D01*
X102465Y89152D01*
X102446Y89151D01*
X102426Y89156D01*
X102323Y89148D01*
X102220Y89145D01*
X102201Y89139D01*
X102181Y89137D01*
X102086Y89097D01*
X101989Y89061D01*
X101973Y89048D01*
X101955Y89041D01*
X101824Y88936D01*
X101314Y88427D01*
X100450Y87928D01*
X99486Y87669D01*
X98986Y87669D01*
X98986Y92222D01*
X98983Y92241D01*
X98985Y92261D01*
X98963Y92363D01*
X98947Y92465D01*
X98937Y92482D01*
X98933Y92502D01*
X98880Y92591D01*
X98831Y92682D01*
X98817Y92696D01*
X98807Y92713D01*
X98803Y92716D01*
X98855Y92770D01*
X98863Y92788D01*
X98876Y92803D01*
X98915Y92900D01*
X98958Y92993D01*
X98960Y93013D01*
X98968Y93031D01*
X98986Y93198D01*
X98986Y97751D01*
X99486Y97751D01*
X100450Y97492D01*
X101314Y96993D01*
X101824Y96484D01*
X101840Y96473D01*
X101852Y96457D01*
X101939Y96401D01*
X102023Y96341D01*
X102042Y96335D01*
X102059Y96324D01*
X102160Y96299D01*
X102259Y96268D01*
X102278Y96269D01*
X102298Y96264D01*
X102401Y96272D01*
X102504Y96275D01*
X102523Y96282D01*
X102543Y96283D01*
X102638Y96323D01*
X102735Y96359D01*
X102751Y96372D01*
X102769Y96379D01*
X102900Y96484D01*
X104167Y97751D01*
X109807Y97751D01*
X112028Y95530D01*
X112028Y89890D01*
X110661Y88523D01*
X110608Y88449D01*
X110548Y88379D01*
X110536Y88349D01*
X110517Y88323D01*
X110490Y88236D01*
X110456Y88151D01*
X110452Y88110D01*
X110445Y88088D01*
X110446Y88056D01*
X110438Y87984D01*
X110438Y83867D01*
X110452Y83777D01*
X110460Y83686D01*
X110472Y83657D01*
X110477Y83625D01*
X110520Y83544D01*
X110556Y83460D01*
X110582Y83428D01*
X110593Y83407D01*
X110616Y83385D01*
X110661Y83329D01*
X111222Y82768D01*
X111238Y82757D01*
X111250Y82741D01*
X111338Y82685D01*
X111421Y82625D01*
X111440Y82619D01*
X111457Y82608D01*
X111558Y82583D01*
X111657Y82552D01*
X111676Y82553D01*
X111696Y82548D01*
X111799Y82556D01*
X111902Y82559D01*
X111921Y82566D01*
X111941Y82567D01*
X112036Y82607D01*
X112133Y82643D01*
X112149Y82656D01*
X112167Y82663D01*
X112298Y82768D01*
X113565Y84035D01*
X119205Y84035D01*
X121426Y81814D01*
X121426Y76174D01*
X119168Y73917D01*
X119150Y73914D01*
X119132Y73904D01*
X119113Y73900D01*
X119024Y73847D01*
X118933Y73798D01*
X118919Y73784D01*
X118902Y73774D01*
X118834Y73695D01*
X118763Y73620D01*
X118755Y73602D01*
X118742Y73587D01*
X118703Y73491D01*
X118660Y73397D01*
X118657Y73377D01*
X118650Y73359D01*
X118631Y73192D01*
X118631Y54214D01*
X118646Y54124D01*
X118653Y54033D01*
X118666Y54003D01*
X118671Y53971D01*
X118714Y53890D01*
X118750Y53807D01*
X118775Y53774D01*
X118786Y53754D01*
X118810Y53732D01*
X118854Y53676D01*
X119785Y52745D01*
X120676Y50593D01*
X120676Y48264D01*
X119785Y46112D01*
X118433Y44760D01*
X118366Y44666D01*
X118295Y44571D01*
X118293Y44565D01*
X118290Y44560D01*
X118255Y44449D01*
X118219Y44337D01*
X118219Y44331D01*
X118217Y44325D01*
X118220Y44208D01*
X118221Y44091D01*
X118223Y44084D01*
X118224Y44079D01*
X118230Y44062D01*
X118268Y43930D01*
X118885Y42440D01*
X118885Y41656D01*
X118889Y41636D01*
X118886Y41617D01*
X118908Y41515D01*
X118925Y41413D01*
X118934Y41396D01*
X118939Y41376D01*
X118992Y41287D01*
X119040Y41196D01*
X119055Y41182D01*
X119065Y41165D01*
X119144Y41098D01*
X119219Y41026D01*
X119237Y41018D01*
X119252Y41005D01*
X119348Y40966D01*
X119442Y40923D01*
X119461Y40921D01*
X119480Y40913D01*
X119647Y40895D01*
X122734Y40895D01*
X122754Y40898D01*
X122773Y40896D01*
X122875Y40918D01*
X122977Y40934D01*
X122994Y40944D01*
X123014Y40948D01*
X123103Y41001D01*
X123194Y41050D01*
X123208Y41064D01*
X123225Y41074D01*
X123292Y41153D01*
X123364Y41228D01*
X123372Y41246D01*
X123385Y41261D01*
X123424Y41357D01*
X123467Y41451D01*
X123469Y41471D01*
X123477Y41489D01*
X123490Y41611D01*
X135274Y41611D01*
X135294Y41614D01*
X135313Y41612D01*
X135415Y41634D01*
X135517Y41651D01*
X135534Y41660D01*
X135554Y41664D01*
X135643Y41717D01*
X135734Y41766D01*
X135748Y41780D01*
X135765Y41790D01*
X135832Y41869D01*
X135903Y41944D01*
X135912Y41962D01*
X135925Y41977D01*
X135964Y42073D01*
X136007Y42167D01*
X136009Y42187D01*
X136017Y42205D01*
X136035Y42372D01*
X136035Y43135D01*
X136037Y43135D01*
X136037Y42372D01*
X136040Y42352D01*
X136038Y42333D01*
X136060Y42231D01*
X136077Y42129D01*
X136086Y42112D01*
X136090Y42092D01*
X136143Y42003D01*
X136192Y41912D01*
X136206Y41898D01*
X136216Y41881D01*
X136295Y41814D01*
X136370Y41743D01*
X136388Y41734D01*
X136403Y41721D01*
X136499Y41682D01*
X136593Y41639D01*
X136613Y41637D01*
X136631Y41629D01*
X136798Y41611D01*
X148577Y41611D01*
X148577Y38800D01*
X148404Y38153D01*
X148069Y37574D01*
X147917Y37422D01*
X147906Y37406D01*
X147890Y37394D01*
X147834Y37307D01*
X147774Y37223D01*
X147768Y37204D01*
X147757Y37187D01*
X147732Y37087D01*
X147702Y36988D01*
X147702Y36968D01*
X147697Y36948D01*
X147705Y36845D01*
X147708Y36742D01*
X147715Y36723D01*
X147716Y36703D01*
X147757Y36608D01*
X147792Y36511D01*
X147805Y36495D01*
X147813Y36477D01*
X147917Y36346D01*
X148577Y35686D01*
X148577Y25582D01*
X147917Y24922D01*
X147906Y24906D01*
X147890Y24894D01*
X147834Y24806D01*
X147774Y24723D01*
X147768Y24704D01*
X147757Y24687D01*
X147732Y24586D01*
X147702Y24487D01*
X147702Y24468D01*
X147697Y24448D01*
X147705Y24345D01*
X147708Y24242D01*
X147715Y24223D01*
X147716Y24203D01*
X147757Y24108D01*
X147792Y24011D01*
X147805Y23995D01*
X147813Y23977D01*
X147917Y23846D01*
X148577Y23186D01*
X148577Y13082D01*
X147917Y12422D01*
X147906Y12406D01*
X147890Y12394D01*
X147834Y12306D01*
X147774Y12223D01*
X147768Y12204D01*
X147757Y12187D01*
X147732Y12086D01*
X147702Y11987D01*
X147702Y11968D01*
X147697Y11948D01*
X147705Y11845D01*
X147708Y11742D01*
X147715Y11723D01*
X147716Y11703D01*
X147757Y11608D01*
X147792Y11511D01*
X147805Y11495D01*
X147813Y11477D01*
X147917Y11346D01*
X148577Y10686D01*
X148577Y582D01*
X147088Y-907D01*
X140946Y-907D01*
X140876Y-918D01*
X140804Y-920D01*
X140755Y-938D01*
X140704Y-946D01*
X140640Y-980D01*
X140573Y-1005D01*
X140532Y-1037D01*
X140486Y-1062D01*
X140437Y-1114D01*
X140381Y-1158D01*
X140353Y-1202D01*
X140317Y-1240D01*
X140287Y-1305D01*
X140248Y-1365D01*
X140235Y-1416D01*
X140213Y-1463D01*
X140205Y-1534D01*
X140188Y-1604D01*
X140192Y-1656D01*
X140186Y-1707D01*
X140201Y-1778D01*
X140207Y-1849D01*
X140227Y-1897D01*
X140238Y-1948D01*
X140275Y-2009D01*
X140303Y-2075D01*
X140348Y-2131D01*
X140365Y-2159D01*
X140382Y-2174D01*
X140408Y-2206D01*
X141235Y-3033D01*
X142126Y-5185D01*
X142126Y-7515D01*
X141235Y-9667D01*
X139588Y-11314D01*
X138393Y-11809D01*
X138293Y-11871D01*
X138193Y-11931D01*
X138189Y-11935D01*
X138184Y-11939D01*
X138109Y-12028D01*
X138033Y-12117D01*
X138031Y-12123D01*
X138027Y-12128D01*
X137985Y-12237D01*
X137941Y-12346D01*
X137940Y-12353D01*
X137939Y-12358D01*
X137938Y-12376D01*
X137923Y-12512D01*
X137923Y-12700D01*
X137922Y-12701D01*
X137476Y-12701D01*
X137386Y-12715D01*
X137295Y-12723D01*
X137265Y-12735D01*
X137233Y-12740D01*
X137152Y-12783D01*
X137068Y-12819D01*
X137036Y-12845D01*
X137015Y-12856D01*
X136993Y-12879D01*
X136937Y-12924D01*
X131796Y-18065D01*
X131743Y-18139D01*
X131683Y-18209D01*
X131671Y-18239D01*
X131652Y-18265D01*
X131625Y-18352D01*
X131591Y-18437D01*
X131587Y-18478D01*
X131580Y-18500D01*
X131581Y-18532D01*
X131573Y-18604D01*
X131573Y-18796D01*
X131572Y-18797D01*
X130945Y-18797D01*
X130855Y-18811D01*
X130764Y-18819D01*
X130734Y-18831D01*
X130702Y-18836D01*
X130621Y-18879D01*
X130537Y-18915D01*
X130505Y-18941D01*
X130485Y-18952D01*
X130462Y-18975D01*
X130406Y-19020D01*
X129217Y-20209D01*
X127065Y-21101D01*
X124735Y-21101D01*
X122583Y-20209D01*
X120936Y-18562D01*
X120045Y-16410D01*
X120045Y-14081D01*
X120936Y-11928D01*
X122458Y-10406D01*
X122511Y-10332D01*
X122571Y-10263D01*
X122583Y-10233D01*
X122602Y-10206D01*
X122629Y-10119D01*
X122663Y-10035D01*
X122667Y-9994D01*
X122674Y-9971D01*
X122673Y-9939D01*
X122681Y-9868D01*
X122681Y2638D01*
X123272Y3229D01*
X123325Y3303D01*
X123385Y3372D01*
X123397Y3403D01*
X123416Y3429D01*
X123443Y3516D01*
X123477Y3601D01*
X123481Y3642D01*
X123488Y3664D01*
X123487Y3696D01*
X123495Y3767D01*
X123495Y10686D01*
X124155Y11346D01*
X124166Y11362D01*
X124182Y11374D01*
X124238Y11462D01*
X124298Y11545D01*
X124304Y11564D01*
X124315Y11581D01*
X124340Y11682D01*
X124370Y11781D01*
X124370Y11800D01*
X124375Y11820D01*
X124367Y11923D01*
X124364Y12026D01*
X124357Y12045D01*
X124356Y12065D01*
X124315Y12160D01*
X124280Y12257D01*
X124267Y12273D01*
X124259Y12291D01*
X124155Y12422D01*
X123495Y13082D01*
X123495Y13435D01*
X123492Y13455D01*
X123494Y13474D01*
X123472Y13576D01*
X123456Y13678D01*
X123446Y13695D01*
X123442Y13715D01*
X123389Y13804D01*
X123340Y13895D01*
X123326Y13909D01*
X123316Y13926D01*
X123237Y13993D01*
X123162Y14065D01*
X123144Y14073D01*
X123129Y14086D01*
X123033Y14125D01*
X122939Y14168D01*
X122919Y14170D01*
X122901Y14178D01*
X122734Y14196D01*
X111308Y14196D01*
X101090Y24414D01*
X101016Y24467D01*
X100947Y24527D01*
X100916Y24539D01*
X100890Y24558D01*
X100803Y24585D01*
X100718Y24619D01*
X100677Y24623D01*
X100655Y24630D01*
X100623Y24629D01*
X100552Y24637D01*
X93177Y24637D01*
X93087Y24623D01*
X92996Y24615D01*
X92967Y24603D01*
X92935Y24598D01*
X92854Y24555D01*
X92770Y24519D01*
X92738Y24493D01*
X92717Y24482D01*
X92695Y24459D01*
X92639Y24414D01*
X91201Y22976D01*
X89049Y22085D01*
X86719Y22085D01*
X86397Y22218D01*
X86353Y22228D01*
X86311Y22248D01*
X86234Y22256D01*
X86158Y22274D01*
X86112Y22270D01*
X86067Y22275D01*
X85990Y22258D01*
X85913Y22251D01*
X85871Y22232D01*
X85826Y22223D01*
X85759Y22183D01*
X85688Y22151D01*
X85654Y22120D01*
X85615Y22096D01*
X85564Y22037D01*
X85507Y21985D01*
X85485Y21944D01*
X85455Y21910D01*
X85426Y21837D01*
X85389Y21769D01*
X85380Y21724D01*
X85363Y21681D01*
X85348Y21545D01*
X85345Y21527D01*
X85346Y21522D01*
X85345Y21515D01*
X85345Y1077D01*
X85359Y987D01*
X85367Y896D01*
X85379Y866D01*
X85384Y834D01*
X85427Y753D01*
X85463Y669D01*
X85489Y637D01*
X85500Y616D01*
X85523Y594D01*
X85568Y538D01*
X86620Y-514D01*
X86678Y-556D01*
X86730Y-605D01*
X86777Y-627D01*
X86819Y-657D01*
X86888Y-678D01*
X86953Y-709D01*
X87005Y-714D01*
X87055Y-730D01*
X87126Y-728D01*
X87197Y-736D01*
X87248Y-725D01*
X87300Y-723D01*
X87368Y-699D01*
X87438Y-684D01*
X87483Y-657D01*
X87531Y-639D01*
X87587Y-594D01*
X87649Y-557D01*
X87683Y-518D01*
X87723Y-485D01*
X87762Y-425D01*
X87809Y-370D01*
X87828Y-322D01*
X87856Y-278D01*
X87874Y-209D01*
X87901Y-142D01*
X87909Y-71D01*
X87917Y-40D01*
X87915Y-16D01*
X87919Y24D01*
X87919Y2083D01*
X89758Y6523D01*
X93157Y9922D01*
X97597Y11761D01*
X102403Y11761D01*
X106843Y9922D01*
X110242Y6523D01*
X112081Y2083D01*
X112081Y-2723D01*
X110242Y-7163D01*
X106843Y-10562D01*
X102403Y-12401D01*
X97597Y-12401D01*
X93636Y-10760D01*
X93592Y-10750D01*
X93550Y-10730D01*
X93473Y-10722D01*
X93397Y-10704D01*
X93351Y-10708D01*
X93306Y-10703D01*
X93229Y-10720D01*
X93152Y-10727D01*
X93110Y-10746D01*
X93065Y-10755D01*
X92998Y-10795D01*
X92927Y-10827D01*
X92893Y-10858D01*
X92854Y-10882D01*
X92803Y-10941D01*
X92746Y-10993D01*
X92724Y-11034D01*
X92694Y-11069D01*
X92665Y-11141D01*
X92628Y-11209D01*
X92619Y-11254D01*
X92602Y-11297D01*
X92587Y-11433D01*
X92584Y-11451D01*
X92585Y-11456D01*
X92584Y-11463D01*
X92584Y-43055D01*
X92598Y-43145D01*
X92606Y-43236D01*
X92618Y-43266D01*
X92623Y-43298D01*
X92666Y-43379D01*
X92702Y-43463D01*
X92728Y-43495D01*
X92739Y-43516D01*
X92762Y-43538D01*
X92807Y-43594D01*
X93902Y-44689D01*
X94794Y-46841D01*
X94794Y-48363D01*
X94805Y-48433D01*
X94807Y-48505D01*
X94825Y-48554D01*
X94833Y-48605D01*
X94867Y-48669D01*
X94892Y-48736D01*
X94924Y-48777D01*
X94948Y-48823D01*
X95000Y-48872D01*
X95045Y-48928D01*
X95089Y-48956D01*
X95127Y-48992D01*
X95192Y-49022D01*
X95252Y-49061D01*
X95303Y-49074D01*
X95350Y-49096D01*
X95421Y-49104D01*
X95491Y-49121D01*
X95543Y-49117D01*
X95594Y-49123D01*
X95664Y-49108D01*
X95736Y-49102D01*
X95784Y-49082D01*
X95835Y-49071D01*
X95896Y-49034D01*
X95962Y-49006D01*
X96018Y-48961D01*
X96046Y-48944D01*
X96061Y-48927D01*
X96093Y-48901D01*
X96573Y-48422D01*
X97437Y-47923D01*
X98401Y-47664D01*
X98901Y-47664D01*
X98901Y-51456D01*
X94915Y-51456D01*
X94903Y-51444D01*
X94858Y-51388D01*
X94814Y-51360D01*
X94776Y-51324D01*
X94711Y-51294D01*
X94651Y-51255D01*
X94600Y-51242D01*
X94553Y-51220D01*
X94482Y-51213D01*
X94412Y-51195D01*
X94360Y-51199D01*
X94309Y-51193D01*
X94239Y-51209D01*
X94167Y-51214D01*
X94119Y-51235D01*
X94068Y-51246D01*
X94007Y-51282D01*
X93941Y-51310D01*
X93885Y-51355D01*
X93857Y-51372D01*
X93842Y-51390D01*
X93810Y-51415D01*
X92255Y-52970D01*
X90103Y-53861D01*
X87773Y-53861D01*
X85621Y-52970D01*
X83913Y-51262D01*
X83891Y-51226D01*
X83876Y-51214D01*
X83865Y-51197D01*
X83782Y-51136D01*
X83702Y-51070D01*
X83683Y-51063D01*
X83667Y-51051D01*
X83569Y-51019D01*
X83472Y-50981D01*
X83452Y-50981D01*
X83433Y-50974D01*
X83330Y-50975D01*
X83226Y-50971D01*
X83207Y-50977D01*
X83187Y-50977D01*
X83026Y-51024D01*
X81949Y-51470D01*
X81801Y-51470D01*
X81781Y-51473D01*
X81761Y-51471D01*
X81660Y-51493D01*
X81558Y-51509D01*
X81540Y-51519D01*
X81521Y-51523D01*
X81432Y-51576D01*
X81341Y-51624D01*
X81327Y-51639D01*
X81310Y-51649D01*
X81242Y-51728D01*
X81171Y-51803D01*
X81163Y-51821D01*
X81150Y-51836D01*
X81111Y-51932D01*
X81068Y-52026D01*
X81065Y-52046D01*
X81058Y-52064D01*
X81039Y-52231D01*
X81039Y-54251D01*
X80148Y-56403D01*
X78501Y-58050D01*
X76349Y-58941D01*
X74019Y-58941D01*
X71867Y-58050D01*
X70220Y-56403D01*
X69329Y-54251D01*
X69329Y-51921D01*
X70220Y-49769D01*
X71658Y-48331D01*
X71711Y-48257D01*
X71771Y-48187D01*
X71783Y-48157D01*
X71802Y-48131D01*
X71829Y-48044D01*
X71863Y-47959D01*
X71867Y-47918D01*
X71874Y-47896D01*
X71873Y-47864D01*
X71881Y-47793D01*
X71881Y-47552D01*
X71867Y-47462D01*
X71859Y-47371D01*
X71847Y-47341D01*
X71842Y-47309D01*
X71799Y-47228D01*
X71763Y-47144D01*
X71737Y-47112D01*
X71726Y-47092D01*
X71703Y-47069D01*
X71658Y-47014D01*
X69595Y-44950D01*
X69595Y15735D01*
X69592Y15755D01*
X69594Y15775D01*
X69572Y15876D01*
X69556Y15978D01*
X69546Y15996D01*
X69542Y16015D01*
X69489Y16104D01*
X69440Y16195D01*
X69426Y16209D01*
X69416Y16226D01*
X69337Y16294D01*
X69262Y16365D01*
X69244Y16373D01*
X69229Y16386D01*
X69133Y16425D01*
X69039Y16468D01*
X69019Y16471D01*
X69001Y16478D01*
X68978Y16481D01*
X66787Y17388D01*
X65140Y19035D01*
X64249Y21187D01*
X64249Y23517D01*
X65140Y25669D01*
X66787Y27316D01*
X68939Y28207D01*
X71269Y28207D01*
X72861Y27548D01*
X72905Y27537D01*
X72947Y27518D01*
X73024Y27510D01*
X73100Y27492D01*
X73146Y27496D01*
X73191Y27491D01*
X73268Y27508D01*
X73345Y27515D01*
X73387Y27534D01*
X73432Y27543D01*
X73499Y27583D01*
X73570Y27615D01*
X73604Y27646D01*
X73643Y27670D01*
X73694Y27729D01*
X73751Y27781D01*
X73773Y27821D01*
X73803Y27856D01*
X73832Y27929D01*
X73869Y27997D01*
X73878Y28042D01*
X73895Y28085D01*
X73910Y28220D01*
X73913Y28239D01*
X73912Y28244D01*
X73913Y28251D01*
X73913Y36417D01*
X73911Y36428D01*
X73912Y36436D01*
X73903Y36477D01*
X73899Y36507D01*
X73891Y36598D01*
X73879Y36627D01*
X73874Y36659D01*
X73831Y36740D01*
X73795Y36824D01*
X73769Y36856D01*
X73758Y36877D01*
X73735Y36899D01*
X73690Y36955D01*
X55243Y55402D01*
X55169Y55455D01*
X55100Y55515D01*
X55069Y55527D01*
X55043Y55546D01*
X54956Y55573D01*
X54871Y55607D01*
X54830Y55611D01*
X54808Y55618D01*
X54776Y55617D01*
X54705Y55625D01*
X45175Y55625D01*
X45155Y55622D01*
X45135Y55624D01*
X45034Y55602D01*
X44932Y55586D01*
X44915Y55576D01*
X44895Y55572D01*
X44806Y55519D01*
X44715Y55470D01*
X44701Y55456D01*
X44684Y55446D01*
X44617Y55367D01*
X44545Y55292D01*
X44537Y55274D01*
X44524Y55259D01*
X44485Y55163D01*
X44442Y55069D01*
X44440Y55049D01*
X44432Y55031D01*
X44414Y54864D01*
X44414Y52906D01*
X44428Y52816D01*
X44435Y52725D01*
X44448Y52695D01*
X44453Y52663D01*
X44496Y52583D01*
X44532Y52499D01*
X44557Y52466D01*
X44568Y52446D01*
X44592Y52424D01*
X44637Y52368D01*
X44956Y52048D01*
X44992Y52023D01*
X45021Y51990D01*
X45091Y51951D01*
X45156Y51905D01*
X45198Y51892D01*
X45236Y51870D01*
X45314Y51856D01*
X45391Y51832D01*
X45435Y51833D01*
X45478Y51825D01*
X45557Y51837D01*
X45637Y51839D01*
X45678Y51854D01*
X45721Y51860D01*
X45855Y51918D01*
X45868Y51923D01*
X45870Y51925D01*
X45875Y51927D01*
X46251Y52144D01*
X46976Y52338D01*
X46976Y45543D01*
X46979Y45523D01*
X46977Y45504D01*
X46999Y45402D01*
X47015Y45300D01*
X47025Y45283D01*
X47029Y45263D01*
X47082Y45174D01*
X47131Y45083D01*
X47145Y45069D01*
X47155Y45052D01*
X47234Y44985D01*
X47309Y44914D01*
X47327Y44905D01*
X47342Y44892D01*
X47438Y44854D01*
X47532Y44810D01*
X47552Y44808D01*
X47570Y44800D01*
X47704Y44786D01*
X47703Y44777D01*
X47725Y44676D01*
X47742Y44574D01*
X47751Y44557D01*
X47755Y44537D01*
X47808Y44448D01*
X47857Y44357D01*
X47871Y44343D01*
X47881Y44326D01*
X47960Y44259D01*
X48035Y44187D01*
X48053Y44179D01*
X48068Y44166D01*
X48165Y44127D01*
X48258Y44084D01*
X48278Y44082D01*
X48296Y44074D01*
X48463Y44056D01*
X52891Y44056D01*
X52891Y43732D01*
X52894Y43712D01*
X52892Y43692D01*
X52914Y43591D01*
X52930Y43489D01*
X52940Y43472D01*
X52944Y43452D01*
X52997Y43363D01*
X53046Y43272D01*
X53060Y43258D01*
X53070Y43241D01*
X53149Y43174D01*
X53224Y43102D01*
X53242Y43094D01*
X53257Y43081D01*
X53353Y43042D01*
X53447Y42999D01*
X53467Y42997D01*
X53485Y42989D01*
X53652Y42971D01*
X59584Y42971D01*
X62391Y40164D01*
X62391Y36196D01*
X62138Y35943D01*
X62126Y35927D01*
X62111Y35914D01*
X62055Y35827D01*
X61994Y35743D01*
X61988Y35724D01*
X61978Y35707D01*
X61952Y35607D01*
X61922Y35508D01*
X61923Y35488D01*
X61918Y35469D01*
X61926Y35366D01*
X61928Y35262D01*
X61935Y35243D01*
X61937Y35223D01*
X61977Y35128D01*
X62013Y35031D01*
X62025Y35015D01*
X62033Y34997D01*
X62138Y34866D01*
X62522Y34482D01*
X62522Y13861D01*
X62511Y13850D01*
X62486Y13799D01*
X62454Y13753D01*
X62434Y13689D01*
X62405Y13628D01*
X62398Y13572D01*
X62381Y13518D01*
X62383Y13451D01*
X62375Y13384D01*
X62387Y13305D01*
X62388Y13272D01*
X62395Y13253D01*
X62400Y13218D01*
X62522Y12764D01*
X62522Y11304D01*
X55344Y11304D01*
X55325Y11301D01*
X55305Y11303D01*
X55203Y11281D01*
X55101Y11264D01*
X55084Y11255D01*
X55064Y11251D01*
X54975Y11198D01*
X54884Y11149D01*
X54870Y11135D01*
X54853Y11125D01*
X54786Y11046D01*
X54715Y10971D01*
X54706Y10953D01*
X54693Y10938D01*
X54655Y10842D01*
X54611Y10748D01*
X54609Y10728D01*
X54601Y10710D01*
X54583Y10543D01*
X54583Y9817D01*
X54586Y9797D01*
X54584Y9777D01*
X54606Y9676D01*
X54623Y9574D01*
X54632Y9557D01*
X54636Y9537D01*
X54689Y9448D01*
X54738Y9357D01*
X54752Y9343D01*
X54762Y9326D01*
X54841Y9259D01*
X54916Y9187D01*
X54934Y9179D01*
X54949Y9166D01*
X55046Y9127D01*
X55139Y9084D01*
X55159Y9082D01*
X55177Y9074D01*
X55344Y9056D01*
X62522Y9056D01*
X62522Y7596D01*
X62400Y7142D01*
X62394Y7075D01*
X62377Y7009D01*
X62381Y6953D01*
X62376Y6897D01*
X62391Y6831D01*
X62396Y6764D01*
X62418Y6712D01*
X62431Y6658D01*
X62466Y6600D01*
X62492Y6538D01*
X62522Y6501D01*
X62522Y-14139D01*
X62511Y-14150D01*
X62487Y-14201D01*
X62454Y-14247D01*
X62434Y-14311D01*
X62405Y-14372D01*
X62398Y-14428D01*
X62381Y-14482D01*
X62383Y-14549D01*
X62375Y-14616D01*
X62387Y-14695D01*
X62388Y-14728D01*
X62395Y-14747D01*
X62400Y-14782D01*
X62522Y-15236D01*
X62522Y-16696D01*
X55344Y-16696D01*
X55325Y-16699D01*
X55305Y-16697D01*
X55203Y-16719D01*
X55101Y-16735D01*
X55084Y-16745D01*
X55064Y-16749D01*
X54975Y-16802D01*
X54884Y-16851D01*
X54870Y-16865D01*
X54853Y-16875D01*
X54786Y-16954D01*
X54715Y-17029D01*
X54706Y-17047D01*
X54693Y-17062D01*
X54655Y-17158D01*
X54611Y-17252D01*
X54609Y-17272D01*
X54601Y-17290D01*
X54583Y-17457D01*
X54583Y-18183D01*
X54586Y-18203D01*
X54584Y-18223D01*
X54606Y-18324D01*
X54623Y-18426D01*
X54632Y-18443D01*
X54636Y-18463D01*
X54689Y-18552D01*
X54738Y-18643D01*
X54752Y-18657D01*
X54762Y-18674D01*
X54841Y-18741D01*
X54916Y-18813D01*
X54934Y-18821D01*
X54949Y-18834D01*
X55046Y-18873D01*
X55139Y-18916D01*
X55159Y-18918D01*
X55177Y-18926D01*
X55344Y-18944D01*
X62522Y-18944D01*
X62522Y-20404D01*
X62400Y-20858D01*
X62394Y-20925D01*
X62377Y-20991D01*
X62381Y-21047D01*
X62376Y-21103D01*
X62391Y-21169D01*
X62396Y-21236D01*
X62418Y-21288D01*
X62431Y-21342D01*
X62466Y-21400D01*
X62492Y-21462D01*
X62522Y-21499D01*
X62522Y-35122D01*
X62142Y-35502D01*
X62130Y-35519D01*
X62115Y-35531D01*
X62059Y-35618D01*
X61998Y-35702D01*
X61992Y-35721D01*
X61982Y-35738D01*
X61956Y-35838D01*
X61926Y-35937D01*
X61927Y-35957D01*
X61922Y-35976D01*
X61930Y-36079D01*
X61932Y-36183D01*
X61939Y-36202D01*
X61941Y-36222D01*
X61981Y-36317D01*
X62017Y-36414D01*
X62029Y-36430D01*
X62037Y-36448D01*
X62142Y-36579D01*
X62399Y-36836D01*
X62399Y-40804D01*
X59592Y-43611D01*
X53652Y-43611D01*
X53632Y-43614D01*
X53613Y-43612D01*
X53511Y-43634D01*
X53409Y-43651D01*
X53392Y-43660D01*
X53372Y-43664D01*
X53283Y-43717D01*
X53192Y-43766D01*
X53178Y-43780D01*
X53161Y-43790D01*
X53094Y-43869D01*
X53022Y-43944D01*
X53014Y-43962D01*
X53001Y-43977D01*
X52962Y-44073D01*
X52919Y-44167D01*
X52917Y-44187D01*
X52909Y-44205D01*
X52891Y-44372D01*
X52891Y-50304D01*
X50084Y-53111D01*
X46116Y-53111D01*
X45849Y-52844D01*
X45813Y-52818D01*
X45784Y-52786D01*
X45714Y-52747D01*
X45649Y-52700D01*
X45607Y-52687D01*
X45569Y-52666D01*
X45490Y-52651D01*
X45414Y-52628D01*
X45370Y-52629D01*
X45327Y-52621D01*
X45248Y-52632D01*
X45168Y-52634D01*
X45127Y-52649D01*
X45083Y-52655D01*
X44950Y-52714D01*
X44937Y-52719D01*
X44934Y-52721D01*
X44930Y-52723D01*
X44331Y-53069D01*
X43684Y-53242D01*
X42224Y-53242D01*
X42224Y-46064D01*
X42221Y-46045D01*
X42223Y-46025D01*
X42201Y-45924D01*
X42185Y-45821D01*
X42175Y-45804D01*
X42171Y-45784D01*
X42124Y-45707D01*
X42153Y-45636D01*
X42196Y-45543D01*
X42198Y-45523D01*
X42206Y-45505D01*
X42224Y-45338D01*
X42224Y-38160D01*
X43684Y-38160D01*
X44331Y-38333D01*
X44920Y-38673D01*
X44921Y-38675D01*
X44934Y-38690D01*
X45021Y-38746D01*
X45105Y-38807D01*
X45124Y-38813D01*
X45141Y-38823D01*
X45241Y-38849D01*
X45340Y-38879D01*
X45360Y-38879D01*
X45379Y-38883D01*
X45482Y-38875D01*
X45586Y-38873D01*
X45605Y-38866D01*
X45625Y-38864D01*
X45720Y-38824D01*
X45817Y-38788D01*
X45832Y-38776D01*
X45851Y-38768D01*
X45982Y-38663D01*
X46116Y-38529D01*
X47056Y-38529D01*
X47076Y-38526D01*
X47095Y-38528D01*
X47197Y-38506D01*
X47299Y-38490D01*
X47316Y-38480D01*
X47336Y-38476D01*
X47425Y-38423D01*
X47516Y-38374D01*
X47530Y-38360D01*
X47547Y-38350D01*
X47614Y-38271D01*
X47686Y-38196D01*
X47694Y-38178D01*
X47707Y-38163D01*
X47746Y-38067D01*
X47789Y-37973D01*
X47791Y-37953D01*
X47799Y-37935D01*
X47817Y-37768D01*
X47817Y-36836D01*
X47947Y-36706D01*
X47959Y-36690D01*
X47974Y-36677D01*
X48030Y-36590D01*
X48091Y-36506D01*
X48097Y-36487D01*
X48107Y-36470D01*
X48133Y-36370D01*
X48163Y-36271D01*
X48162Y-36251D01*
X48167Y-36232D01*
X48159Y-36129D01*
X48157Y-36025D01*
X48150Y-36006D01*
X48148Y-35987D01*
X48108Y-35891D01*
X48072Y-35794D01*
X48060Y-35779D01*
X48052Y-35760D01*
X47947Y-35629D01*
X47440Y-35122D01*
X47440Y-29316D01*
X47437Y-29296D01*
X47439Y-29276D01*
X47417Y-29175D01*
X47401Y-29073D01*
X47391Y-29055D01*
X47387Y-29036D01*
X47334Y-28947D01*
X47285Y-28856D01*
X47271Y-28842D01*
X47261Y-28825D01*
X47182Y-28757D01*
X47107Y-28686D01*
X47089Y-28678D01*
X47074Y-28665D01*
X46978Y-28626D01*
X46884Y-28583D01*
X46864Y-28580D01*
X46846Y-28573D01*
X46679Y-28554D01*
X46111Y-28554D01*
X42540Y-24983D01*
X42466Y-24930D01*
X42396Y-24871D01*
X42366Y-24858D01*
X42340Y-24840D01*
X42253Y-24813D01*
X42168Y-24779D01*
X42127Y-24774D01*
X42105Y-24767D01*
X42073Y-24768D01*
X42001Y-24760D01*
X40686Y-24760D01*
X38534Y-23869D01*
X36887Y-22222D01*
X35995Y-20069D01*
X35995Y-17740D01*
X36886Y-15588D01*
X37341Y-15134D01*
X37352Y-15118D01*
X37368Y-15105D01*
X37397Y-15059D01*
X37420Y-15035D01*
X37436Y-15001D01*
X37484Y-14934D01*
X37490Y-14915D01*
X37501Y-14898D01*
X37521Y-14818D01*
X37524Y-14812D01*
X37525Y-14802D01*
X37526Y-14798D01*
X37557Y-14699D01*
X37556Y-14679D01*
X37561Y-14660D01*
X37553Y-14557D01*
X37550Y-14453D01*
X37543Y-14434D01*
X37542Y-14414D01*
X37501Y-14319D01*
X37466Y-14222D01*
X37453Y-14206D01*
X37445Y-14188D01*
X37341Y-14057D01*
X36887Y-13603D01*
X35995Y-11451D01*
X35995Y-9121D01*
X36887Y-6969D01*
X37304Y-6552D01*
X37316Y-6536D01*
X37331Y-6523D01*
X37387Y-6436D01*
X37448Y-6352D01*
X37454Y-6333D01*
X37464Y-6316D01*
X37490Y-6216D01*
X37520Y-6117D01*
X37520Y-6097D01*
X37524Y-6078D01*
X37516Y-5975D01*
X37514Y-5871D01*
X37507Y-5852D01*
X37505Y-5832D01*
X37465Y-5737D01*
X37429Y-5640D01*
X37417Y-5624D01*
X37409Y-5606D01*
X37304Y-5475D01*
X36687Y-4858D01*
X35796Y-2706D01*
X35796Y-377D01*
X36687Y1775D01*
X37257Y2345D01*
X37269Y2362D01*
X37285Y2374D01*
X37341Y2461D01*
X37401Y2545D01*
X37407Y2564D01*
X37418Y2581D01*
X37443Y2681D01*
X37473Y2780D01*
X37473Y2800D01*
X37478Y2820D01*
X37470Y2923D01*
X37467Y3026D01*
X37460Y3045D01*
X37459Y3065D01*
X37418Y3160D01*
X37383Y3257D01*
X37370Y3273D01*
X37362Y3291D01*
X37289Y3383D01*
X37283Y3393D01*
X37277Y3398D01*
X37257Y3422D01*
X36938Y3742D01*
X36046Y5894D01*
X36046Y8223D01*
X36938Y10375D01*
X38146Y11583D01*
X38157Y11599D01*
X38173Y11612D01*
X38229Y11699D01*
X38289Y11783D01*
X38295Y11802D01*
X38306Y11819D01*
X38331Y11919D01*
X38362Y12018D01*
X38361Y12038D01*
X38366Y12057D01*
X38358Y12160D01*
X38355Y12264D01*
X38348Y12283D01*
X38347Y12302D01*
X38307Y12397D01*
X38271Y12495D01*
X38258Y12511D01*
X38251Y12529D01*
X38146Y12660D01*
X37358Y13448D01*
X36466Y15600D01*
X36466Y17929D01*
X37358Y20081D01*
X39005Y21729D01*
X41157Y22620D01*
X43486Y22620D01*
X45638Y21729D01*
X46141Y21226D01*
X46199Y21184D01*
X46251Y21135D01*
X46298Y21113D01*
X46340Y21083D01*
X46409Y21062D01*
X46474Y21031D01*
X46526Y21026D01*
X46576Y21010D01*
X46647Y21012D01*
X46718Y21004D01*
X46769Y21015D01*
X46821Y21017D01*
X46889Y21041D01*
X46959Y21057D01*
X47004Y21083D01*
X47052Y21101D01*
X47108Y21146D01*
X47170Y21183D01*
X47204Y21222D01*
X47244Y21255D01*
X47283Y21315D01*
X47330Y21370D01*
X47349Y21418D01*
X47377Y21462D01*
X47395Y21531D01*
X47422Y21598D01*
X47430Y21669D01*
X47438Y21700D01*
X47436Y21724D01*
X47440Y21765D01*
X47440Y30712D01*
X47425Y30808D01*
X47415Y30905D01*
X47405Y30929D01*
X47401Y30955D01*
X47355Y31041D01*
X47315Y31130D01*
X47298Y31149D01*
X47285Y31172D01*
X47215Y31239D01*
X47149Y31311D01*
X47126Y31324D01*
X47107Y31342D01*
X47019Y31383D01*
X46933Y31430D01*
X46908Y31434D01*
X46884Y31445D01*
X46787Y31456D01*
X46691Y31473D01*
X46665Y31469D01*
X46640Y31472D01*
X46545Y31452D01*
X46448Y31437D01*
X46425Y31426D01*
X46399Y31420D01*
X46316Y31370D01*
X46229Y31326D01*
X46210Y31307D01*
X46188Y31294D01*
X46125Y31220D01*
X46057Y31150D01*
X46041Y31122D01*
X46028Y31107D01*
X46016Y31076D01*
X45976Y31003D01*
X45858Y30719D01*
X44211Y29072D01*
X42059Y28181D01*
X39729Y28181D01*
X37577Y29072D01*
X36139Y30510D01*
X36065Y30563D01*
X35995Y30623D01*
X35965Y30635D01*
X35939Y30654D01*
X35852Y30681D01*
X35767Y30715D01*
X35726Y30719D01*
X35704Y30726D01*
X35672Y30725D01*
X35601Y30733D01*
X-2268Y30733D01*
X-3854Y32319D01*
X-3870Y32331D01*
X-3883Y32347D01*
X-3970Y32403D01*
X-4054Y32463D01*
X-4073Y32469D01*
X-4090Y32480D01*
X-4190Y32505D01*
X-4289Y32535D01*
X-4309Y32535D01*
X-4328Y32540D01*
X-4431Y32532D01*
X-4535Y32529D01*
X-4554Y32522D01*
X-4574Y32521D01*
X-4668Y32480D01*
X-4766Y32445D01*
X-4782Y32432D01*
X-4800Y32424D01*
X-4931Y32319D01*
X-6416Y30835D01*
X-6442Y30797D01*
X-6476Y30766D01*
X-6490Y30742D01*
X-6496Y30735D01*
X-6512Y30701D01*
X-6514Y30698D01*
X-6559Y30635D01*
X-6573Y30591D01*
X-6595Y30551D01*
X-6609Y30474D01*
X-6632Y30400D01*
X-6630Y30354D01*
X-6639Y30309D01*
X-6627Y30232D01*
X-6625Y30154D01*
X-6609Y30111D01*
X-6603Y30065D01*
X-6568Y29996D01*
X-6541Y29923D01*
X-6512Y29887D01*
X-6491Y29846D01*
X-6436Y29792D01*
X-6387Y29731D01*
X-6348Y29706D01*
X-6316Y29674D01*
X-6196Y29608D01*
X-6180Y29598D01*
X-6175Y29597D01*
X-6169Y29593D01*
X-5791Y29437D01*
X-4144Y27790D01*
X-3358Y25892D01*
X-3334Y25853D01*
X-3318Y25810D01*
X-3270Y25749D01*
X-3229Y25683D01*
X-3193Y25654D01*
X-3165Y25618D01*
X-3099Y25576D01*
X-3039Y25526D01*
X-2996Y25510D01*
X-2958Y25485D01*
X-2882Y25466D01*
X-2810Y25438D01*
X-2764Y25436D01*
X-2719Y25425D01*
X-2642Y25431D01*
X-2564Y25428D01*
X-2520Y25441D01*
X-2474Y25444D01*
X-2402Y25475D01*
X-2328Y25496D01*
X-2290Y25522D01*
X-2248Y25540D01*
X-2232Y25553D01*
X-41Y26461D01*
X2289Y26461D01*
X4441Y25569D01*
X6088Y23922D01*
X6980Y21770D01*
X6980Y19441D01*
X6088Y17288D01*
X4441Y15641D01*
X2289Y14750D01*
X1052Y14750D01*
X1032Y14747D01*
X1012Y14749D01*
X911Y14727D01*
X809Y14710D01*
X791Y14701D01*
X772Y14697D01*
X683Y14643D01*
X591Y14595D01*
X578Y14581D01*
X561Y14570D01*
X493Y14492D01*
X422Y14417D01*
X414Y14399D01*
X401Y14383D01*
X362Y14287D01*
X318Y14194D01*
X316Y14174D01*
X309Y14155D01*
X290Y13989D01*
X290Y-4598D01*
X-730Y-5618D01*
X-757Y-5656D01*
X-790Y-5687D01*
X-828Y-5755D01*
X-873Y-5818D01*
X-887Y-5862D01*
X-909Y-5902D01*
X-923Y-5979D01*
X-946Y-6053D01*
X-944Y-6099D01*
X-953Y-6144D01*
X-941Y-6221D01*
X-939Y-6299D01*
X-923Y-6342D01*
X-917Y-6388D01*
X-881Y-6457D01*
X-855Y-6530D01*
X-826Y-6566D01*
X-805Y-6607D01*
X-750Y-6661D01*
X-701Y-6722D01*
X-662Y-6747D01*
X-630Y-6779D01*
X-510Y-6845D01*
X-494Y-6855D01*
X-489Y-6856D01*
X-483Y-6860D01*
X-316Y-6929D01*
X1322Y-8567D01*
X2209Y-10707D01*
X2209Y-13024D01*
X1322Y-15164D01*
X-316Y-16802D01*
X-2456Y-17688D01*
X-2723Y-17688D01*
X-2813Y-17703D01*
X-2904Y-17710D01*
X-2934Y-17723D01*
X-2966Y-17728D01*
X-3046Y-17770D01*
X-3130Y-17806D01*
X-3163Y-17832D01*
X-3183Y-17843D01*
X-3205Y-17866D01*
X-3261Y-17911D01*
X-5557Y-20206D01*
X-5583Y-20244D01*
X-5617Y-20275D01*
X-5655Y-20343D01*
X-5700Y-20406D01*
X-5714Y-20450D01*
X-5736Y-20490D01*
X-5750Y-20567D01*
X-5773Y-20641D01*
X-5771Y-20687D01*
X-5780Y-20732D01*
X-5768Y-20809D01*
X-5766Y-20887D01*
X-5750Y-20930D01*
X-5744Y-20976D01*
X-5709Y-21045D01*
X-5682Y-21118D01*
X-5653Y-21154D01*
X-5632Y-21195D01*
X-5577Y-21249D01*
X-5528Y-21310D01*
X-5489Y-21335D01*
X-5457Y-21367D01*
X-5340Y-21431D01*
X-3895Y-22877D01*
X-3821Y-22930D01*
X-3751Y-22989D01*
X-3721Y-23001D01*
X-3695Y-23020D01*
X-3608Y-23047D01*
X-3523Y-23081D01*
X-3482Y-23086D01*
X-3460Y-23093D01*
X-3428Y-23092D01*
X-3356Y-23100D01*
X-1066Y-23100D01*
X101Y-24266D01*
X138Y-24293D01*
X169Y-24327D01*
X237Y-24365D01*
X300Y-24410D01*
X344Y-24423D01*
X385Y-24446D01*
X461Y-24459D01*
X535Y-24482D01*
X581Y-24481D01*
X627Y-24489D01*
X704Y-24478D01*
X781Y-24476D01*
X824Y-24460D01*
X870Y-24453D01*
X939Y-24418D01*
X1012Y-24391D01*
X1048Y-24363D01*
X1089Y-24342D01*
X1144Y-24286D01*
X1204Y-24238D01*
X1229Y-24199D01*
X1261Y-24166D01*
X1327Y-24047D01*
X1337Y-24031D01*
X1339Y-24026D01*
X1342Y-24019D01*
X1513Y-23607D01*
X3160Y-21960D01*
X5312Y-21069D01*
X7642Y-21069D01*
X9794Y-21960D01*
X11232Y-23398D01*
X11306Y-23451D01*
X11376Y-23511D01*
X11406Y-23523D01*
X11432Y-23542D01*
X11519Y-23569D01*
X11604Y-23603D01*
X11645Y-23607D01*
X11667Y-23614D01*
X11699Y-23613D01*
X11770Y-23621D01*
X14467Y-23621D01*
X18392Y-27546D01*
X18450Y-27588D01*
X18502Y-27638D01*
X18549Y-27660D01*
X18592Y-27690D01*
X18660Y-27711D01*
X18725Y-27741D01*
X18777Y-27747D01*
X18827Y-27762D01*
X18899Y-27761D01*
X18970Y-27768D01*
X19021Y-27757D01*
X19073Y-27756D01*
X19140Y-27731D01*
X19210Y-27716D01*
X19255Y-27689D01*
X19304Y-27672D01*
X19360Y-27627D01*
X19421Y-27590D01*
X19455Y-27550D01*
X19496Y-27518D01*
X19534Y-27458D01*
X19581Y-27403D01*
X19601Y-27355D01*
X19629Y-27311D01*
X19646Y-27241D01*
X19673Y-27175D01*
X19681Y-27104D01*
X19689Y-27072D01*
X19687Y-27049D01*
X19692Y-27008D01*
X19692Y-25736D01*
X20583Y-23584D01*
X22230Y-21937D01*
X24382Y-21045D01*
X26712Y-21045D01*
X28864Y-21937D01*
X30511Y-23584D01*
X31277Y-25434D01*
X31312Y-25489D01*
X31337Y-25550D01*
X31390Y-25615D01*
X31407Y-25643D01*
X31422Y-25655D01*
X31442Y-25681D01*
X31517Y-25756D01*
X37131Y-31369D01*
X37131Y-37539D01*
X37150Y-37656D01*
X37168Y-37774D01*
X37170Y-37778D01*
X37171Y-37782D01*
X37226Y-37887D01*
X37281Y-37993D01*
X37284Y-37996D01*
X37286Y-37999D01*
X37372Y-38081D01*
X37457Y-38164D01*
X37461Y-38166D01*
X37464Y-38169D01*
X37572Y-38219D01*
X37679Y-38270D01*
X37683Y-38271D01*
X37687Y-38272D01*
X37805Y-38285D01*
X37923Y-38300D01*
X37928Y-38299D01*
X37932Y-38299D01*
X37945Y-38297D01*
X38089Y-38275D01*
X38516Y-38160D01*
X39976Y-38160D01*
X39976Y-45338D01*
X39979Y-45358D01*
X39977Y-45377D01*
X39999Y-45479D01*
X40015Y-45581D01*
X40025Y-45598D01*
X40029Y-45618D01*
X40076Y-45696D01*
X40047Y-45766D01*
X40004Y-45859D01*
X40002Y-45879D01*
X39994Y-45898D01*
X39976Y-46064D01*
X39976Y-53242D01*
X38516Y-53242D01*
X38062Y-53120D01*
X37995Y-53114D01*
X37929Y-53097D01*
X37873Y-53101D01*
X37817Y-53096D01*
X37751Y-53111D01*
X37684Y-53116D01*
X37632Y-53138D01*
X37578Y-53151D01*
X37520Y-53186D01*
X37458Y-53213D01*
X37421Y-53242D01*
X30788Y-53242D01*
X30768Y-53245D01*
X30748Y-53243D01*
X30647Y-53265D01*
X30545Y-53282D01*
X30527Y-53291D01*
X30508Y-53295D01*
X30419Y-53348D01*
X30327Y-53397D01*
X30314Y-53411D01*
X30297Y-53421D01*
X30229Y-53500D01*
X30158Y-53575D01*
X30150Y-53593D01*
X30137Y-53608D01*
X30098Y-53704D01*
X30054Y-53798D01*
X30052Y-53818D01*
X30045Y-53836D01*
X30026Y-54003D01*
X30026Y-62863D01*
X30038Y-62934D01*
X30040Y-63006D01*
X30058Y-63055D01*
X30066Y-63106D01*
X30100Y-63169D01*
X30124Y-63237D01*
X30157Y-63277D01*
X30181Y-63323D01*
X30233Y-63373D01*
X30278Y-63429D01*
X30322Y-63457D01*
X30360Y-63493D01*
X30425Y-63523D01*
X30485Y-63562D01*
X30535Y-63574D01*
X30583Y-63596D01*
X30654Y-63604D01*
X30723Y-63622D01*
X30775Y-63618D01*
X30827Y-63623D01*
X30897Y-63608D01*
X30969Y-63603D01*
X31016Y-63582D01*
X31067Y-63571D01*
X31129Y-63534D01*
X31195Y-63506D01*
X31251Y-63461D01*
X31279Y-63445D01*
X31294Y-63427D01*
X31326Y-63401D01*
X32354Y-62374D01*
X32407Y-62300D01*
X32466Y-62230D01*
X32478Y-62200D01*
X32497Y-62174D01*
X32524Y-62087D01*
X32558Y-62002D01*
X32563Y-61961D01*
X32570Y-61939D01*
X32569Y-61907D01*
X32577Y-61835D01*
X32577Y-59801D01*
X33468Y-57649D01*
X35115Y-56002D01*
X37267Y-55110D01*
X39597Y-55110D01*
X41749Y-56002D01*
X43396Y-57649D01*
X44288Y-59801D01*
X44288Y-62131D01*
X43396Y-64283D01*
X41749Y-65930D01*
X39597Y-66821D01*
X37563Y-66821D01*
X37473Y-66836D01*
X37382Y-66843D01*
X37352Y-66856D01*
X37320Y-66861D01*
X37239Y-66904D01*
X37155Y-66939D01*
X37123Y-66965D01*
X37103Y-66976D01*
X37080Y-67000D01*
X37024Y-67044D01*
X36673Y-67396D01*
X36625Y-67463D01*
X36621Y-67466D01*
X36620Y-67470D01*
X36560Y-67539D01*
X36548Y-67570D01*
X36529Y-67596D01*
X36502Y-67683D01*
X36468Y-67768D01*
X36464Y-67809D01*
X36457Y-67831D01*
X36458Y-67863D01*
X36450Y-67934D01*
X36450Y-92964D01*
X36453Y-92984D01*
X36451Y-93003D01*
X36473Y-93105D01*
X36489Y-93207D01*
X36499Y-93224D01*
X36503Y-93244D01*
X36556Y-93333D01*
X36605Y-93424D01*
X36619Y-93438D01*
X36629Y-93455D01*
X36708Y-93522D01*
X36783Y-93594D01*
X36801Y-93602D01*
X36816Y-93615D01*
X36912Y-93654D01*
X37006Y-93697D01*
X37026Y-93699D01*
X37044Y-93707D01*
X37211Y-93725D01*
X38830Y-93725D01*
X38920Y-93711D01*
X39011Y-93703D01*
X39040Y-93691D01*
X39072Y-93686D01*
X39153Y-93643D01*
X39237Y-93607D01*
X39269Y-93581D01*
X39290Y-93570D01*
X39312Y-93547D01*
X39368Y-93502D01*
X49769Y-83101D01*
X49798Y-83061D01*
X49829Y-83033D01*
X49840Y-83013D01*
X49860Y-82991D01*
X49882Y-82944D01*
X49913Y-82901D01*
X49928Y-82853D01*
X49947Y-82817D01*
X49951Y-82795D01*
X49964Y-82768D01*
X49970Y-82716D01*
X49985Y-82666D01*
X49984Y-82615D01*
X49991Y-82575D01*
X49988Y-82554D01*
X49991Y-82523D01*
X49980Y-82472D01*
X49979Y-82420D01*
X49961Y-82372D01*
X49955Y-82332D01*
X49945Y-82312D01*
X49939Y-82283D01*
X49912Y-82238D01*
X49894Y-82189D01*
X49863Y-82150D01*
X49844Y-82113D01*
X49828Y-82097D01*
X49813Y-82072D01*
X49773Y-82038D01*
X49741Y-81997D01*
X49699Y-81970D01*
X49668Y-81940D01*
X49643Y-81926D01*
X49626Y-81912D01*
X49591Y-81898D01*
X49556Y-81879D01*
X49534Y-81864D01*
X49527Y-81862D01*
X49521Y-81859D01*
X47229Y-80910D01*
X45582Y-79263D01*
X44691Y-77111D01*
X44691Y-74781D01*
X45582Y-72629D01*
X47229Y-70982D01*
X49381Y-70091D01*
X51711Y-70091D01*
X53863Y-70982D01*
X55510Y-72629D01*
X56459Y-74921D01*
X56483Y-74959D01*
X56499Y-75004D01*
X56532Y-75045D01*
X56556Y-75091D01*
X56577Y-75111D01*
X56589Y-75130D01*
X56622Y-75157D01*
X56653Y-75196D01*
X56697Y-75225D01*
X56735Y-75260D01*
X56761Y-75273D01*
X56779Y-75287D01*
X56817Y-75302D01*
X56860Y-75329D01*
X56911Y-75342D01*
X56958Y-75364D01*
X56988Y-75367D01*
X57008Y-75375D01*
X57049Y-75377D01*
X57098Y-75390D01*
X57150Y-75385D01*
X57202Y-75391D01*
X57232Y-75385D01*
X57254Y-75386D01*
X57293Y-75374D01*
X57344Y-75370D01*
X57392Y-75350D01*
X57443Y-75339D01*
X57469Y-75323D01*
X57490Y-75317D01*
X57524Y-75294D01*
X57570Y-75274D01*
X57626Y-75229D01*
X57654Y-75213D01*
X57669Y-75195D01*
X57687Y-75180D01*
X57692Y-75177D01*
X57693Y-75176D01*
X57701Y-75169D01*
X68451Y-64419D01*
X70609Y-62261D01*
X93600Y-62261D01*
X93620Y-62258D01*
X93639Y-62260D01*
X93741Y-62238D01*
X93843Y-62222D01*
X93860Y-62212D01*
X93880Y-62208D01*
X93969Y-62155D01*
X94060Y-62106D01*
X94074Y-62092D01*
X94091Y-62082D01*
X94158Y-62003D01*
X94230Y-61928D01*
X94238Y-61910D01*
X94251Y-61895D01*
X94290Y-61799D01*
X94333Y-61705D01*
X94335Y-61685D01*
X94343Y-61667D01*
X94361Y-61500D01*
X94361Y-60230D01*
X94534Y-59583D01*
X94869Y-59004D01*
X95342Y-58531D01*
X95921Y-58196D01*
X96114Y-58145D01*
X96201Y-58106D01*
X96290Y-58073D01*
X96313Y-58055D01*
X96338Y-58044D01*
X96408Y-57979D01*
X96482Y-57919D01*
X96498Y-57895D01*
X96518Y-57876D01*
X96564Y-57793D01*
X96615Y-57712D01*
X96622Y-57685D01*
X96636Y-57660D01*
X96652Y-57566D01*
X96676Y-57474D01*
X96673Y-57446D01*
X96678Y-57418D01*
X96664Y-57323D01*
X96656Y-57228D01*
X96645Y-57203D01*
X96641Y-57175D01*
X96597Y-57090D01*
X96560Y-57002D01*
X96538Y-56975D01*
X96528Y-56956D01*
X96505Y-56933D01*
X96455Y-56871D01*
X95867Y-56283D01*
X95368Y-55418D01*
X95109Y-54454D01*
X95109Y-53954D01*
X98901Y-53954D01*
X98901Y-57262D01*
X98902Y-57272D01*
X98902Y-57276D01*
X98904Y-57285D01*
X98902Y-57301D01*
X98924Y-57403D01*
X98940Y-57505D01*
X98950Y-57522D01*
X98954Y-57542D01*
X99007Y-57631D01*
X99056Y-57722D01*
X99070Y-57736D01*
X99080Y-57753D01*
X99159Y-57820D01*
X99234Y-57892D01*
X99252Y-57900D01*
X99267Y-57913D01*
X99363Y-57952D01*
X99457Y-57995D01*
X99477Y-57997D01*
X99495Y-58005D01*
X99641Y-58021D01*
X99641Y-61262D01*
X99644Y-61282D01*
X99642Y-61301D01*
X99664Y-61403D01*
X99680Y-61505D01*
X99690Y-61522D01*
X99694Y-61542D01*
X99747Y-61631D01*
X99795Y-61722D01*
X99810Y-61736D01*
X99820Y-61753D01*
X99899Y-61820D01*
X99974Y-61892D01*
X99992Y-61900D01*
X100007Y-61913D01*
X100103Y-61952D01*
X100197Y-61995D01*
X100217Y-61997D01*
X100235Y-62005D01*
X100402Y-62023D01*
X100422Y-62020D01*
X100441Y-62022D01*
X100442Y-62022D01*
X100543Y-62000D01*
X100645Y-61984D01*
X100662Y-61974D01*
X100682Y-61970D01*
X100771Y-61917D01*
X100862Y-61868D01*
X100876Y-61854D01*
X100893Y-61844D01*
X100960Y-61765D01*
X101032Y-61690D01*
X101040Y-61672D01*
X101053Y-61657D01*
X101092Y-61561D01*
X101135Y-61467D01*
X101137Y-61447D01*
X101145Y-61429D01*
X101163Y-61262D01*
X101163Y-57804D01*
X101196Y-57765D01*
X101268Y-57690D01*
X101276Y-57672D01*
X101289Y-57657D01*
X101328Y-57561D01*
X101371Y-57467D01*
X101373Y-57447D01*
X101381Y-57429D01*
X101399Y-57262D01*
X101399Y-53193D01*
X101396Y-53174D01*
X101398Y-53154D01*
X101376Y-53052D01*
X101360Y-52950D01*
X101350Y-52933D01*
X101346Y-52913D01*
X101293Y-52824D01*
X101244Y-52733D01*
X101230Y-52719D01*
X101220Y-52702D01*
X101216Y-52699D01*
X101268Y-52645D01*
X101276Y-52627D01*
X101289Y-52612D01*
X101328Y-52515D01*
X101371Y-52422D01*
X101373Y-52402D01*
X101381Y-52384D01*
X101399Y-52217D01*
X101399Y-47664D01*
X101899Y-47664D01*
X102863Y-47923D01*
X103727Y-48422D01*
X104237Y-48931D01*
X104253Y-48942D01*
X104265Y-48958D01*
X104352Y-49014D01*
X104436Y-49074D01*
X104455Y-49080D01*
X104472Y-49091D01*
X104573Y-49116D01*
X104672Y-49147D01*
X104691Y-49146D01*
X104711Y-49151D01*
X104814Y-49143D01*
X104917Y-49140D01*
X104936Y-49133D01*
X104956Y-49132D01*
X105051Y-49092D01*
X105148Y-49056D01*
X105164Y-49043D01*
X105182Y-49036D01*
X105313Y-48931D01*
X106580Y-47664D01*
X112220Y-47664D01*
X113070Y-48514D01*
X113086Y-48526D01*
X113099Y-48542D01*
X113186Y-48598D01*
X113270Y-48658D01*
X113289Y-48664D01*
X113306Y-48675D01*
X113406Y-48700D01*
X113505Y-48730D01*
X113525Y-48730D01*
X113544Y-48735D01*
X113647Y-48727D01*
X113751Y-48724D01*
X113770Y-48717D01*
X113790Y-48715D01*
X113884Y-48675D01*
X113982Y-48639D01*
X113998Y-48627D01*
X114016Y-48619D01*
X114147Y-48514D01*
X114793Y-47868D01*
X116945Y-46977D01*
X119275Y-46977D01*
X119606Y-47114D01*
X119720Y-47141D01*
X119834Y-47169D01*
X119840Y-47169D01*
X119846Y-47170D01*
X119962Y-47159D01*
X120079Y-47150D01*
X120085Y-47148D01*
X120091Y-47147D01*
X120197Y-47100D01*
X120305Y-47054D01*
X120311Y-47049D01*
X120315Y-47047D01*
X120329Y-47034D01*
X120386Y-46989D01*
X154178Y-46989D01*
X157989Y-50800D01*
X157989Y-66802D01*
X157958Y-66833D01*
X157905Y-66907D01*
X157845Y-66977D01*
X157833Y-67007D01*
X157814Y-67033D01*
X157787Y-67120D01*
X157753Y-67205D01*
X157749Y-67246D01*
X157742Y-67268D01*
X157743Y-67300D01*
X157735Y-67372D01*
X157735Y-78678D01*
X157749Y-78768D01*
X157757Y-78859D01*
X157769Y-78889D01*
X157774Y-78921D01*
X157817Y-79002D01*
X157853Y-79086D01*
X157879Y-79118D01*
X157890Y-79138D01*
X157913Y-79161D01*
X157958Y-79217D01*
X158243Y-79502D01*
X158212Y-79533D01*
X158161Y-79603D01*
X158120Y-79646D01*
X158115Y-79658D01*
X158099Y-79677D01*
X158087Y-79707D01*
X158068Y-79733D01*
X158044Y-79810D01*
X158017Y-79870D01*
X158015Y-79885D01*
X158007Y-79905D01*
X158003Y-79946D01*
X157996Y-79968D01*
X157997Y-80000D01*
X157989Y-80072D01*
X157989Y-90678D01*
X153162Y-95505D01*
X115237Y-95505D01*
X115123Y-95524D01*
X115006Y-95541D01*
X115001Y-95543D01*
X114995Y-95544D01*
X114892Y-95599D01*
X114787Y-95652D01*
X114783Y-95657D01*
X114777Y-95660D01*
X114697Y-95744D01*
X114615Y-95828D01*
X114611Y-95834D01*
X114608Y-95838D01*
X114600Y-95855D01*
X114588Y-95877D01*
X112918Y-97547D01*
X110766Y-98438D01*
X108436Y-98438D01*
X106284Y-97547D01*
X104637Y-95900D01*
X103746Y-93748D01*
X103746Y-91418D01*
X104637Y-89266D01*
X105821Y-88082D01*
X105874Y-88008D01*
X105934Y-87938D01*
X105946Y-87908D01*
X105965Y-87882D01*
X105992Y-87795D01*
X106026Y-87710D01*
X106030Y-87669D01*
X106037Y-87647D01*
X106036Y-87615D01*
X106044Y-87544D01*
X106044Y-87371D01*
X106030Y-87281D01*
X106022Y-87190D01*
X106010Y-87160D01*
X106005Y-87128D01*
X105962Y-87047D01*
X105926Y-86963D01*
X105900Y-86931D01*
X105889Y-86910D01*
X105866Y-86888D01*
X105821Y-86832D01*
X105186Y-86197D01*
X105170Y-86185D01*
X105158Y-86170D01*
X105071Y-86114D01*
X104987Y-86054D01*
X104967Y-86048D01*
X104951Y-86037D01*
X104850Y-86012D01*
X104751Y-85981D01*
X104732Y-85982D01*
X104712Y-85977D01*
X104609Y-85985D01*
X104506Y-85988D01*
X104487Y-85994D01*
X104467Y-85996D01*
X104372Y-86037D01*
X104275Y-86072D01*
X104259Y-86085D01*
X104241Y-86092D01*
X104110Y-86197D01*
X103600Y-86706D01*
X102736Y-87205D01*
X101772Y-87464D01*
X101272Y-87464D01*
X101272Y-82911D01*
X101269Y-82892D01*
X101271Y-82872D01*
X101249Y-82770D01*
X101233Y-82668D01*
X101223Y-82651D01*
X101219Y-82631D01*
X101166Y-82542D01*
X101117Y-82451D01*
X101103Y-82437D01*
X101093Y-82420D01*
X101014Y-82353D01*
X100939Y-82282D01*
X100921Y-82273D01*
X100906Y-82260D01*
X100810Y-82222D01*
X100716Y-82178D01*
X100696Y-82176D01*
X100678Y-82168D01*
X100511Y-82150D01*
X100296Y-82150D01*
X100296Y-81935D01*
X100293Y-81915D01*
X100295Y-81895D01*
X100273Y-81794D01*
X100256Y-81692D01*
X100247Y-81675D01*
X100243Y-81655D01*
X100190Y-81566D01*
X100141Y-81475D01*
X100127Y-81461D01*
X100117Y-81444D01*
X100038Y-81377D01*
X99963Y-81305D01*
X99945Y-81297D01*
X99930Y-81284D01*
X99833Y-81245D01*
X99740Y-81202D01*
X99720Y-81200D01*
X99702Y-81192D01*
X99535Y-81174D01*
X94728Y-81174D01*
X94705Y-81157D01*
X94649Y-81103D01*
X94608Y-81084D01*
X94571Y-81057D01*
X94497Y-81032D01*
X94426Y-81000D01*
X94381Y-80995D01*
X94337Y-80980D01*
X94259Y-80981D01*
X94182Y-80973D01*
X94137Y-80982D01*
X94091Y-80983D01*
X93960Y-81021D01*
X93941Y-81025D01*
X93937Y-81027D01*
X93930Y-81029D01*
X93103Y-81372D01*
X93086Y-81382D01*
X93067Y-81388D01*
X92982Y-81447D01*
X92894Y-81501D01*
X92881Y-81517D01*
X92865Y-81528D01*
X92803Y-81611D01*
X92737Y-81691D01*
X92730Y-81710D01*
X92718Y-81726D01*
X92686Y-81824D01*
X92649Y-81921D01*
X92648Y-81940D01*
X92642Y-81959D01*
X92643Y-82063D01*
X92638Y-82166D01*
X92644Y-82185D01*
X92644Y-82205D01*
X92691Y-82367D01*
X93231Y-83671D01*
X93231Y-86001D01*
X92340Y-88153D01*
X91283Y-89210D01*
X91230Y-89284D01*
X91170Y-89354D01*
X91158Y-89384D01*
X91139Y-89410D01*
X91112Y-89497D01*
X91078Y-89582D01*
X91074Y-89623D01*
X91067Y-89645D01*
X91068Y-89677D01*
X91060Y-89748D01*
X91060Y-119094D01*
X91074Y-119184D01*
X91082Y-119275D01*
X91094Y-119305D01*
X91099Y-119336D01*
X91142Y-119417D01*
X91178Y-119501D01*
X91204Y-119533D01*
X91215Y-119554D01*
X91238Y-119576D01*
X91283Y-119632D01*
X92166Y-120515D01*
X92219Y-120554D01*
X92266Y-120600D01*
X92339Y-120640D01*
X92366Y-120659D01*
X92385Y-120665D01*
X92413Y-120681D01*
X93233Y-121020D01*
X94880Y-122667D01*
X95771Y-124819D01*
X95771Y-127149D01*
X94880Y-129301D01*
X93233Y-130948D01*
X91081Y-131839D01*
X88751Y-131839D01*
X86599Y-130948D01*
X84952Y-129301D01*
X84061Y-127149D01*
X84061Y-124819D01*
X84615Y-123481D01*
X84625Y-123437D01*
X84645Y-123395D01*
X84653Y-123318D01*
X84671Y-123242D01*
X84667Y-123196D01*
X84672Y-123151D01*
X84655Y-123074D01*
X84648Y-122997D01*
X84629Y-122955D01*
X84619Y-122910D01*
X84579Y-122843D01*
X84548Y-122772D01*
X84517Y-122738D01*
X84493Y-122699D01*
X84434Y-122648D01*
X84381Y-122591D01*
X84341Y-122569D01*
X84306Y-122539D01*
X84234Y-122510D01*
X84166Y-122473D01*
X84121Y-122464D01*
X84078Y-122447D01*
X83942Y-122432D01*
X83924Y-122429D01*
X83919Y-122430D01*
X83911Y-122429D01*
X74230Y-122429D01*
X74140Y-122443D01*
X74049Y-122451D01*
X74019Y-122463D01*
X73987Y-122468D01*
X73906Y-122511D01*
X73822Y-122547D01*
X73790Y-122573D01*
X73770Y-122584D01*
X73747Y-122607D01*
X73691Y-122652D01*
X73567Y-122777D01*
X73509Y-122801D01*
X73477Y-122827D01*
X73456Y-122838D01*
X73437Y-122858D01*
X73435Y-122859D01*
X73430Y-122865D01*
X73378Y-122906D01*
X59250Y-137034D01*
X-827Y-137034D01*
X-917Y-137048D01*
X-1008Y-137056D01*
X-1038Y-137068D01*
X-1070Y-137073D01*
X-1151Y-137116D01*
X-1235Y-137152D01*
X-1267Y-137178D01*
X-1288Y-137189D01*
X-1310Y-137212D01*
X-1366Y-137257D01*
X-1617Y-137508D01*
X-1639Y-137521D01*
X-1730Y-137570D01*
X-1744Y-137584D01*
X-1761Y-137594D01*
X-1828Y-137673D01*
X-1900Y-137748D01*
X-1908Y-137766D01*
X-1921Y-137781D01*
X-1960Y-137877D01*
X-2003Y-137971D01*
X-2005Y-137991D01*
X-2013Y-138009D01*
X-2031Y-138176D01*
X-2031Y-145542D01*
X-2028Y-145562D01*
X-2030Y-145581D01*
X-2008Y-145683D01*
X-1992Y-145785D01*
X-1982Y-145802D01*
X-1978Y-145822D01*
X-1925Y-145911D01*
X-1876Y-146002D01*
X-1862Y-146016D01*
X-1852Y-146033D01*
X-1773Y-146100D01*
X-1698Y-146172D01*
X-1680Y-146180D01*
X-1665Y-146193D01*
X-1569Y-146232D01*
X-1475Y-146275D01*
X-1455Y-146277D01*
X-1437Y-146285D01*
X-1270Y-146303D01*
X182626Y-146303D01*
X182646Y-146300D01*
X182665Y-146302D01*
X182767Y-146280D01*
X182869Y-146264D01*
X182886Y-146254D01*
X182906Y-146250D01*
X182995Y-146197D01*
X183086Y-146148D01*
X183100Y-146134D01*
X183117Y-146124D01*
X183184Y-146045D01*
X183256Y-145970D01*
X183264Y-145952D01*
X183277Y-145937D01*
X183316Y-145841D01*
X183359Y-145747D01*
X183361Y-145727D01*
X183369Y-145709D01*
X183387Y-145542D01*
X183387Y-33168D01*
X183384Y-33148D01*
X183386Y-33129D01*
X183364Y-33027D01*
X183348Y-32925D01*
X183338Y-32908D01*
X183334Y-32888D01*
X183281Y-32799D01*
X183232Y-32708D01*
X183218Y-32694D01*
X183208Y-32677D01*
X183129Y-32610D01*
X183054Y-32538D01*
X183036Y-32530D01*
X183021Y-32517D01*
X182925Y-32478D01*
X182831Y-32435D01*
X182811Y-32433D01*
X182793Y-32425D01*
X182626Y-32407D01*
X151234Y-32407D01*
X149745Y-30918D01*
X149745Y-7814D01*
X151234Y-6325D01*
X182626Y-6325D01*
X182646Y-6322D01*
X182665Y-6324D01*
X182767Y-6302D01*
X182869Y-6286D01*
X182886Y-6276D01*
X182906Y-6272D01*
X182995Y-6219D01*
X183086Y-6170D01*
X183100Y-6156D01*
X183117Y-6146D01*
X183184Y-6067D01*
X183256Y-5992D01*
X183264Y-5974D01*
X183277Y-5959D01*
X183316Y-5863D01*
X183359Y-5769D01*
X183361Y-5749D01*
X183369Y-5731D01*
X183387Y-5564D01*
X183387Y54332D01*
X183384Y54352D01*
X183386Y54371D01*
X183364Y54473D01*
X183348Y54575D01*
X183338Y54592D01*
X183334Y54612D01*
X183281Y54701D01*
X183232Y54792D01*
X183218Y54806D01*
X183208Y54823D01*
X183129Y54890D01*
X183054Y54962D01*
X183036Y54970D01*
X183021Y54983D01*
X182925Y55022D01*
X182831Y55065D01*
X182811Y55067D01*
X182793Y55075D01*
X182626Y55093D01*
X151234Y55093D01*
X149745Y56582D01*
X149745Y79686D01*
X151234Y81175D01*
X160428Y81175D01*
X160499Y81186D01*
X160570Y81188D01*
X160619Y81206D01*
X160671Y81214D01*
X160734Y81248D01*
X160801Y81273D01*
X160842Y81305D01*
X160888Y81330D01*
X160937Y81382D01*
X160993Y81426D01*
X161022Y81470D01*
X161058Y81508D01*
X161088Y81573D01*
X161126Y81633D01*
X161139Y81684D01*
X161161Y81731D01*
X161169Y81802D01*
X161187Y81872D01*
X161182Y81924D01*
X161188Y81975D01*
X161173Y82046D01*
X161167Y82117D01*
X161147Y82165D01*
X161136Y82216D01*
X161099Y82277D01*
X161071Y82343D01*
X161026Y82399D01*
X161010Y82427D01*
X160992Y82442D01*
X160966Y82474D01*
X159890Y83551D01*
X158950Y84845D01*
X158224Y86270D01*
X157729Y87791D01*
X157594Y88647D01*
X166878Y88647D01*
X166898Y88650D01*
X166917Y88648D01*
X167019Y88670D01*
X167121Y88687D01*
X167138Y88696D01*
X167158Y88700D01*
X167247Y88753D01*
X167338Y88802D01*
X167352Y88816D01*
X167369Y88826D01*
X167436Y88905D01*
X167507Y88980D01*
X167516Y88998D01*
X167529Y89013D01*
X167567Y89109D01*
X167611Y89203D01*
X167613Y89223D01*
X167621Y89241D01*
X167639Y89408D01*
X167639Y90171D01*
X167641Y90171D01*
X167641Y89408D01*
X167644Y89388D01*
X167642Y89369D01*
X167664Y89267D01*
X167681Y89165D01*
X167690Y89148D01*
X167694Y89128D01*
X167747Y89039D01*
X167796Y88948D01*
X167810Y88934D01*
X167820Y88917D01*
X167899Y88850D01*
X167974Y88779D01*
X167992Y88770D01*
X168007Y88757D01*
X168103Y88718D01*
X168197Y88675D01*
X168217Y88673D01*
X168235Y88665D01*
X168402Y88647D01*
X177686Y88647D01*
X177551Y87791D01*
X177056Y86270D01*
X176330Y84845D01*
X175390Y83551D01*
X174314Y82474D01*
X174272Y82416D01*
X174222Y82364D01*
X174201Y82317D01*
X174170Y82275D01*
X174149Y82206D01*
X174119Y82141D01*
X174113Y82089D01*
X174098Y82039D01*
X174100Y81968D01*
X174092Y81897D01*
X174103Y81846D01*
X174104Y81794D01*
X174129Y81726D01*
X174144Y81656D01*
X174171Y81611D01*
X174189Y81563D01*
X174233Y81507D01*
X174270Y81445D01*
X174310Y81411D01*
X174342Y81371D01*
X174403Y81332D01*
X174457Y81285D01*
X174505Y81266D01*
X174549Y81238D01*
X174619Y81220D01*
X174685Y81193D01*
X174757Y81185D01*
X174788Y81177D01*
X174811Y81179D01*
X174852Y81175D01*
X182626Y81175D01*
X182646Y81178D01*
X182665Y81176D01*
X182767Y81198D01*
X182869Y81214D01*
X182886Y81224D01*
X182906Y81228D01*
X182995Y81281D01*
X183086Y81330D01*
X183100Y81344D01*
X183117Y81354D01*
X183184Y81433D01*
X183256Y81508D01*
X183264Y81526D01*
X183277Y81541D01*
X183316Y81637D01*
X183359Y81731D01*
X183361Y81751D01*
X183369Y81769D01*
X183387Y81936D01*
X183387Y105410D01*
X183384Y105430D01*
X183386Y105449D01*
X183364Y105551D01*
X183348Y105653D01*
X183338Y105670D01*
X183334Y105690D01*
X183281Y105779D01*
X183232Y105870D01*
X183218Y105884D01*
X183208Y105901D01*
X183129Y105968D01*
X183054Y106040D01*
X183036Y106048D01*
X183021Y106061D01*
X182925Y106100D01*
X182831Y106143D01*
X182811Y106145D01*
X182793Y106153D01*
X182626Y106171D01*
X-100488Y106171D01*
X-100508Y106168D01*
X-100527Y106170D01*
X-100629Y106148D01*
X-100731Y106132D01*
X-100748Y106122D01*
X-100768Y106118D01*
X-100857Y106065D01*
X-100948Y106016D01*
X-100962Y106002D01*
X-100979Y105992D01*
X-101046Y105913D01*
X-101118Y105838D01*
X-101126Y105820D01*
X-101139Y105805D01*
X-101178Y105709D01*
X-101221Y105615D01*
X-101223Y105595D01*
X-101231Y105577D01*
X-101249Y105410D01*
X-101249Y101325D01*
X-107278Y101325D01*
X-107298Y101322D01*
X-107317Y101324D01*
X-107419Y101302D01*
X-107521Y101285D01*
X-107538Y101276D01*
X-107558Y101272D01*
X-107647Y101219D01*
X-107738Y101170D01*
X-107752Y101156D01*
X-107769Y101146D01*
X-107836Y101067D01*
X-107907Y100992D01*
X-107916Y100974D01*
X-107929Y100959D01*
X-107968Y100863D01*
X-108011Y100769D01*
X-108013Y100749D01*
X-108021Y100731D01*
X-108039Y100564D01*
X-108039Y99801D01*
X-108041Y99801D01*
X-108041Y100564D01*
X-108044Y100584D01*
X-108042Y100603D01*
X-108064Y100705D01*
X-108081Y100807D01*
X-108090Y100824D01*
X-108094Y100844D01*
X-108147Y100933D01*
X-108196Y101024D01*
X-108210Y101038D01*
X-108220Y101055D01*
X-108299Y101122D01*
X-108374Y101193D01*
X-108392Y101202D01*
X-108407Y101215D01*
X-108503Y101254D01*
X-108597Y101297D01*
X-108617Y101299D01*
X-108635Y101307D01*
X-108802Y101325D01*
X-114831Y101325D01*
X-114831Y105410D01*
X-114834Y105430D01*
X-114832Y105449D01*
X-114854Y105551D01*
X-114870Y105653D01*
X-114880Y105670D01*
X-114884Y105690D01*
X-114937Y105779D01*
X-114986Y105870D01*
X-115000Y105884D01*
X-115010Y105901D01*
X-115089Y105968D01*
X-115164Y106040D01*
X-115182Y106048D01*
X-115197Y106061D01*
X-115293Y106100D01*
X-115387Y106143D01*
X-115407Y106145D01*
X-115425Y106153D01*
X-115592Y106171D01*
X-118088Y106171D01*
X-118108Y106168D01*
X-118127Y106170D01*
X-118229Y106148D01*
X-118331Y106132D01*
X-118348Y106122D01*
X-118368Y106118D01*
X-118457Y106065D01*
X-118548Y106016D01*
X-118562Y106002D01*
X-118579Y105992D01*
X-118646Y105913D01*
X-118718Y105838D01*
X-118726Y105820D01*
X-118739Y105805D01*
X-118778Y105709D01*
X-118821Y105615D01*
X-118823Y105595D01*
X-118831Y105577D01*
X-118849Y105410D01*
X-118849Y98250D01*
X-120338Y96761D01*
X-131011Y96761D01*
X-131031Y96758D01*
X-131050Y96760D01*
X-131152Y96738D01*
X-131254Y96722D01*
X-131271Y96712D01*
X-131291Y96708D01*
X-131380Y96655D01*
X-131471Y96606D01*
X-131485Y96592D01*
X-131502Y96582D01*
X-131569Y96503D01*
X-131641Y96428D01*
X-131649Y96410D01*
X-131662Y96395D01*
X-131701Y96299D01*
X-131744Y96205D01*
X-131746Y96185D01*
X-131754Y96167D01*
X-131772Y96000D01*
X-131772Y91486D01*
X-131794Y91433D01*
X-131798Y91392D01*
X-131805Y91370D01*
X-131804Y91338D01*
X-131812Y91266D01*
X-131812Y90906D01*
X-134033Y88685D01*
X-134393Y88685D01*
X-134483Y88670D01*
X-134574Y88663D01*
X-134604Y88651D01*
X-134636Y88646D01*
X-134636Y88645D01*
X-139093Y88645D01*
X-139146Y88667D01*
X-139187Y88671D01*
X-139209Y88678D01*
X-139241Y88677D01*
X-139313Y88685D01*
X-139673Y88685D01*
X-140940Y89952D01*
X-140956Y89963D01*
X-140968Y89979D01*
X-141055Y90035D01*
X-141139Y90095D01*
X-141159Y90101D01*
X-141175Y90112D01*
X-141276Y90137D01*
X-141375Y90168D01*
X-141394Y90167D01*
X-141414Y90172D01*
X-141517Y90164D01*
X-141620Y90161D01*
X-141639Y90155D01*
X-141659Y90153D01*
X-141754Y90113D01*
X-141851Y90077D01*
X-141867Y90064D01*
X-141885Y90057D01*
X-142016Y89952D01*
X-142526Y89443D01*
X-143390Y88944D01*
X-144354Y88685D01*
X-144854Y88685D01*
X-144854Y93238D01*
X-144857Y93257D01*
X-144855Y93277D01*
X-144877Y93379D01*
X-144893Y93481D01*
X-144903Y93498D01*
X-144907Y93518D01*
X-144960Y93607D01*
X-145009Y93698D01*
X-145023Y93712D01*
X-145033Y93729D01*
X-145037Y93732D01*
X-144985Y93786D01*
X-144977Y93804D01*
X-144964Y93819D01*
X-144925Y93916D01*
X-144882Y94009D01*
X-144880Y94029D01*
X-144872Y94047D01*
X-144854Y94214D01*
X-144854Y98767D01*
X-144354Y98767D01*
X-143293Y98482D01*
X-143282Y98481D01*
X-143235Y98463D01*
X-143233Y98463D01*
X-143231Y98463D01*
X-143113Y98458D01*
X-142989Y98453D01*
X-142987Y98454D01*
X-142985Y98454D01*
X-142873Y98487D01*
X-142753Y98522D01*
X-142751Y98523D01*
X-142750Y98523D01*
X-142650Y98593D01*
X-142551Y98662D01*
X-142550Y98663D01*
X-142548Y98665D01*
X-142477Y98762D01*
X-142404Y98859D01*
X-142404Y98861D01*
X-142403Y98863D01*
X-142366Y98978D01*
X-142328Y99093D01*
X-142328Y99095D01*
X-142328Y99097D01*
X-142329Y99210D01*
X-142330Y99339D01*
X-142331Y99341D01*
X-142331Y99343D01*
X-142334Y99350D01*
X-142377Y99500D01*
X-142767Y100441D01*
X-142767Y102770D01*
X-141863Y104952D01*
X-141835Y104982D01*
X-141813Y105029D01*
X-141782Y105071D01*
X-141761Y105140D01*
X-141731Y105205D01*
X-141725Y105257D01*
X-141710Y105306D01*
X-141712Y105378D01*
X-141704Y105449D01*
X-141715Y105500D01*
X-141716Y105552D01*
X-141741Y105620D01*
X-141756Y105690D01*
X-141783Y105734D01*
X-141801Y105783D01*
X-141845Y105839D01*
X-141882Y105901D01*
X-141922Y105935D01*
X-141954Y105975D01*
X-142015Y106014D01*
X-142069Y106061D01*
X-142117Y106080D01*
X-142161Y106108D01*
X-142231Y106126D01*
X-142297Y106153D01*
X-142368Y106161D01*
X-142400Y106169D01*
X-142423Y106167D01*
X-142464Y106171D01*
X-182626Y106171D01*
X-182646Y106168D01*
X-182665Y106170D01*
X-182767Y106148D01*
X-182869Y106132D01*
X-182886Y106122D01*
X-182906Y106118D01*
X-182995Y106065D01*
X-183086Y106016D01*
X-183100Y106002D01*
X-183117Y105992D01*
X-183184Y105913D01*
X-183256Y105838D01*
X-183264Y105820D01*
X-183277Y105805D01*
X-183316Y105709D01*
X-183359Y105615D01*
X-183361Y105595D01*
X-183369Y105577D01*
X-183387Y105410D01*
X-183387Y75288D01*
X-183376Y75217D01*
X-183374Y75145D01*
X-183356Y75096D01*
X-183348Y75045D01*
X-183314Y74982D01*
X-183289Y74914D01*
X-183257Y74874D01*
X-183232Y74828D01*
X-183180Y74778D01*
X-183136Y74722D01*
X-183092Y74694D01*
X-183054Y74658D01*
X-182989Y74628D01*
X-182929Y74589D01*
X-182878Y74576D01*
X-182831Y74555D01*
X-182760Y74547D01*
X-182690Y74529D01*
X-182638Y74533D01*
X-182587Y74527D01*
X-182516Y74543D01*
X-182445Y74548D01*
X-182397Y74569D01*
X-182346Y74580D01*
X-182285Y74617D01*
X-182219Y74645D01*
X-182163Y74689D01*
X-182135Y74706D01*
X-182120Y74724D01*
X-182088Y74749D01*
X-181462Y75375D01*
X-171358Y75375D01*
X-169869Y73886D01*
X-169869Y63782D01*
X-170074Y63577D01*
X-170116Y63518D01*
X-170163Y63469D01*
X-170171Y63451D01*
X-170187Y63433D01*
X-170199Y63403D01*
X-170218Y63377D01*
X-170241Y63301D01*
X-170267Y63246D01*
X-170269Y63230D01*
X-170279Y63205D01*
X-170283Y63164D01*
X-170290Y63142D01*
X-170289Y63110D01*
X-170297Y63038D01*
X-170297Y58848D01*
X-170294Y58828D01*
X-170296Y58809D01*
X-170274Y58707D01*
X-170258Y58605D01*
X-170248Y58588D01*
X-170244Y58568D01*
X-170191Y58479D01*
X-170142Y58388D01*
X-170128Y58374D01*
X-170118Y58357D01*
X-170039Y58290D01*
X-169964Y58218D01*
X-169946Y58210D01*
X-169931Y58197D01*
X-169835Y58158D01*
X-169741Y58115D01*
X-169721Y58113D01*
X-169703Y58105D01*
X-169536Y58087D01*
X-168826Y58087D01*
X-167416Y56677D01*
X-167400Y56666D01*
X-167388Y56650D01*
X-167300Y56594D01*
X-167217Y56534D01*
X-167198Y56528D01*
X-167181Y56517D01*
X-167080Y56492D01*
X-166981Y56462D01*
X-166962Y56462D01*
X-166942Y56457D01*
X-166839Y56465D01*
X-166736Y56468D01*
X-166717Y56475D01*
X-166697Y56476D01*
X-166602Y56517D01*
X-166505Y56552D01*
X-166489Y56565D01*
X-166471Y56573D01*
X-166340Y56677D01*
X-164930Y58087D01*
X-151826Y58087D01*
X-150337Y56598D01*
X-150337Y44494D01*
X-151826Y43005D01*
X-153416Y43005D01*
X-153436Y43002D01*
X-153455Y43004D01*
X-153557Y42982D01*
X-153659Y42966D01*
X-153676Y42956D01*
X-153696Y42952D01*
X-153785Y42899D01*
X-153876Y42850D01*
X-153890Y42836D01*
X-153907Y42826D01*
X-153974Y42747D01*
X-154046Y42672D01*
X-154054Y42654D01*
X-154067Y42639D01*
X-154106Y42543D01*
X-154149Y42449D01*
X-154151Y42429D01*
X-154159Y42411D01*
X-154177Y42244D01*
X-154177Y28883D01*
X-157174Y25887D01*
X-157194Y25885D01*
X-157223Y25873D01*
X-157255Y25868D01*
X-157336Y25825D01*
X-157420Y25789D01*
X-157421Y25788D01*
X-159617Y24879D01*
X-161947Y24879D01*
X-162451Y25087D01*
X-162514Y25102D01*
X-162575Y25127D01*
X-162658Y25136D01*
X-162690Y25143D01*
X-162710Y25142D01*
X-162742Y25145D01*
X-171079Y25145D01*
X-171646Y25712D01*
X-171719Y25765D01*
X-171789Y25825D01*
X-171819Y25837D01*
X-171845Y25856D01*
X-171932Y25883D01*
X-172002Y25911D01*
X-172443Y26352D01*
X-172479Y26378D01*
X-172508Y26410D01*
X-172578Y26449D01*
X-172643Y26495D01*
X-172685Y26508D01*
X-172723Y26530D01*
X-172801Y26544D01*
X-172878Y26568D01*
X-172922Y26567D01*
X-172965Y26575D01*
X-173044Y26564D01*
X-173124Y26561D01*
X-173165Y26546D01*
X-173208Y26540D01*
X-173342Y26482D01*
X-173355Y26477D01*
X-173357Y26475D01*
X-173362Y26473D01*
X-173993Y26108D01*
X-174640Y25935D01*
X-176100Y25935D01*
X-176100Y30113D01*
X-176103Y30132D01*
X-176101Y30152D01*
X-176114Y30212D01*
X-176100Y30339D01*
X-176100Y34517D01*
X-174639Y34517D01*
X-173993Y34344D01*
X-173362Y33979D01*
X-173321Y33964D01*
X-173284Y33940D01*
X-173207Y33920D01*
X-173132Y33892D01*
X-173088Y33890D01*
X-173046Y33880D01*
X-172966Y33886D01*
X-172886Y33883D01*
X-172844Y33896D01*
X-172800Y33899D01*
X-172727Y33930D01*
X-172650Y33953D01*
X-172614Y33978D01*
X-172574Y33995D01*
X-172460Y34086D01*
X-172449Y34094D01*
X-172447Y34097D01*
X-172443Y34100D01*
X-172005Y34538D01*
X-172003Y34539D01*
X-171973Y34551D01*
X-171941Y34556D01*
X-171860Y34599D01*
X-171777Y34635D01*
X-171744Y34661D01*
X-171724Y34672D01*
X-171702Y34695D01*
X-171646Y34740D01*
X-171079Y35307D01*
X-165100Y35307D01*
X-165080Y35310D01*
X-165061Y35308D01*
X-164959Y35330D01*
X-164857Y35346D01*
X-164840Y35356D01*
X-164820Y35360D01*
X-164731Y35413D01*
X-164640Y35462D01*
X-164626Y35476D01*
X-164609Y35486D01*
X-164542Y35565D01*
X-164470Y35640D01*
X-164462Y35658D01*
X-164449Y35673D01*
X-164410Y35769D01*
X-164367Y35863D01*
X-164365Y35883D01*
X-164357Y35901D01*
X-164339Y36068D01*
X-164339Y42244D01*
X-164342Y42264D01*
X-164340Y42283D01*
X-164362Y42385D01*
X-164378Y42487D01*
X-164388Y42504D01*
X-164392Y42524D01*
X-164445Y42613D01*
X-164494Y42704D01*
X-164508Y42718D01*
X-164518Y42735D01*
X-164597Y42802D01*
X-164672Y42874D01*
X-164690Y42882D01*
X-164705Y42895D01*
X-164801Y42934D01*
X-164895Y42977D01*
X-164903Y42978D01*
X-166340Y44415D01*
X-166356Y44426D01*
X-166368Y44442D01*
X-166456Y44498D01*
X-166539Y44558D01*
X-166558Y44564D01*
X-166575Y44575D01*
X-166676Y44600D01*
X-166775Y44630D01*
X-166794Y44630D01*
X-166814Y44635D01*
X-166917Y44627D01*
X-167020Y44624D01*
X-167039Y44617D01*
X-167059Y44616D01*
X-167154Y44575D01*
X-167251Y44540D01*
X-167267Y44527D01*
X-167285Y44519D01*
X-167416Y44415D01*
X-168826Y43005D01*
X-181930Y43005D01*
X-182088Y43163D01*
X-182146Y43204D01*
X-182198Y43254D01*
X-182245Y43276D01*
X-182287Y43306D01*
X-182356Y43327D01*
X-182421Y43357D01*
X-182473Y43363D01*
X-182523Y43379D01*
X-182594Y43377D01*
X-182665Y43385D01*
X-182716Y43373D01*
X-182768Y43372D01*
X-182836Y43348D01*
X-182906Y43332D01*
X-182951Y43306D01*
X-182999Y43288D01*
X-183055Y43243D01*
X-183117Y43206D01*
X-183151Y43167D01*
X-183191Y43134D01*
X-183230Y43074D01*
X-183277Y43019D01*
X-183296Y42971D01*
X-183324Y42927D01*
X-183342Y42858D01*
X-183369Y42791D01*
X-183377Y42720D01*
X-183385Y42689D01*
X-183383Y42665D01*
X-183387Y42624D01*
X-183387Y19198D01*
X-183384Y19178D01*
X-183386Y19159D01*
X-183364Y19057D01*
X-183348Y18955D01*
X-183338Y18938D01*
X-183334Y18918D01*
X-183281Y18829D01*
X-183232Y18738D01*
X-183218Y18724D01*
X-183208Y18707D01*
X-183129Y18640D01*
X-183054Y18568D01*
X-183036Y18560D01*
X-183021Y18547D01*
X-182925Y18508D01*
X-182831Y18465D01*
X-182811Y18463D01*
X-182793Y18455D01*
X-182626Y18437D01*
X-151488Y18437D01*
X-149999Y16948D01*
X-149999Y-6156D01*
X-151488Y-7645D01*
X-182626Y-7645D01*
X-182646Y-7648D01*
X-182665Y-7646D01*
X-182767Y-7668D01*
X-182869Y-7684D01*
X-182886Y-7694D01*
X-182906Y-7698D01*
X-182995Y-7751D01*
X-183086Y-7800D01*
X-183100Y-7814D01*
X-183117Y-7824D01*
X-183184Y-7903D01*
X-183256Y-7978D01*
X-183264Y-7996D01*
X-183277Y-8011D01*
X-183316Y-8107D01*
X-183359Y-8201D01*
X-183361Y-8221D01*
X-183369Y-8239D01*
X-183387Y-8406D01*
X-183387Y-68302D01*
X-183384Y-68322D01*
X-183386Y-68341D01*
X-183364Y-68443D01*
X-183348Y-68545D01*
X-183338Y-68562D01*
X-183334Y-68582D01*
X-183281Y-68671D01*
X-183232Y-68762D01*
X-183218Y-68776D01*
X-183208Y-68793D01*
X-183129Y-68860D01*
X-183054Y-68932D01*
X-183036Y-68940D01*
X-183021Y-68953D01*
X-182925Y-68992D01*
X-182831Y-69035D01*
X-182811Y-69037D01*
X-182793Y-69045D01*
X-182626Y-69063D01*
X-151488Y-69063D01*
X-149999Y-70552D01*
X-149999Y-93656D01*
X-151488Y-95145D01*
X-170835Y-95145D01*
X-170905Y-95156D01*
X-170977Y-95158D01*
X-171026Y-95176D01*
X-171077Y-95184D01*
X-171141Y-95218D01*
X-171208Y-95243D01*
X-171249Y-95275D01*
X-171295Y-95300D01*
X-171344Y-95352D01*
X-171400Y-95396D01*
X-171428Y-95440D01*
X-171464Y-95478D01*
X-171494Y-95543D01*
X-171533Y-95603D01*
X-171546Y-95654D01*
X-171568Y-95701D01*
X-171576Y-95772D01*
X-171593Y-95842D01*
X-171589Y-95894D01*
X-171595Y-95945D01*
X-171580Y-96016D01*
X-171574Y-96087D01*
X-171554Y-96135D01*
X-171543Y-96186D01*
X-171506Y-96247D01*
X-171478Y-96313D01*
X-171433Y-96369D01*
X-171416Y-96397D01*
X-171399Y-96412D01*
X-171373Y-96444D01*
X-169788Y-98029D01*
X-168897Y-100181D01*
X-168897Y-102511D01*
X-169788Y-104663D01*
X-171435Y-106310D01*
X-173587Y-107201D01*
X-175917Y-107201D01*
X-178069Y-106310D01*
X-179716Y-104663D01*
X-180607Y-102511D01*
X-180607Y-100181D01*
X-179716Y-98029D01*
X-178131Y-96444D01*
X-178089Y-96386D01*
X-178040Y-96334D01*
X-178018Y-96287D01*
X-177988Y-96245D01*
X-177966Y-96176D01*
X-177936Y-96111D01*
X-177931Y-96059D01*
X-177915Y-96009D01*
X-177917Y-95938D01*
X-177909Y-95867D01*
X-177920Y-95816D01*
X-177922Y-95764D01*
X-177946Y-95696D01*
X-177961Y-95626D01*
X-177988Y-95581D01*
X-178006Y-95533D01*
X-178051Y-95477D01*
X-178088Y-95415D01*
X-178127Y-95381D01*
X-178160Y-95341D01*
X-178220Y-95302D01*
X-178274Y-95255D01*
X-178323Y-95236D01*
X-178367Y-95208D01*
X-178436Y-95190D01*
X-178503Y-95163D01*
X-178574Y-95155D01*
X-178605Y-95147D01*
X-178628Y-95149D01*
X-178669Y-95145D01*
X-182626Y-95145D01*
X-182646Y-95148D01*
X-182665Y-95146D01*
X-182767Y-95168D01*
X-182869Y-95184D01*
X-182886Y-95194D01*
X-182906Y-95198D01*
X-182995Y-95251D01*
X-183086Y-95300D01*
X-183100Y-95314D01*
X-183117Y-95324D01*
X-183184Y-95403D01*
X-183256Y-95478D01*
X-183264Y-95496D01*
X-183277Y-95511D01*
X-183316Y-95607D01*
X-183359Y-95701D01*
X-183361Y-95721D01*
X-183369Y-95739D01*
X-183387Y-95906D01*
X-183387Y-145542D01*
X-183384Y-145562D01*
X-183386Y-145581D01*
X-183364Y-145683D01*
X-183348Y-145785D01*
X-183338Y-145802D01*
X-183334Y-145822D01*
X-183281Y-145911D01*
X-183232Y-146002D01*
X-183218Y-146016D01*
X-183208Y-146033D01*
X-183129Y-146100D01*
X-183054Y-146172D01*
X-183036Y-146180D01*
X-183021Y-146193D01*
X-182925Y-146232D01*
X-182831Y-146275D01*
X-182811Y-146277D01*
X-182793Y-146285D01*
X-182626Y-146303D01*
X-156204Y-146303D01*
X-156184Y-146300D01*
G37*
G36*
X-40864Y-63846D02*
X-40864Y-63846D01*
X-40761Y-63844D01*
X-40742Y-63837D01*
X-40722Y-63835D01*
X-40627Y-63795D01*
X-40530Y-63759D01*
X-40514Y-63747D01*
X-40496Y-63739D01*
X-40365Y-63634D01*
X-39418Y-62687D01*
X-39407Y-62671D01*
X-39391Y-62659D01*
X-39335Y-62572D01*
X-39275Y-62488D01*
X-39269Y-62469D01*
X-39258Y-62452D01*
X-39233Y-62351D01*
X-39202Y-62253D01*
X-39203Y-62233D01*
X-39198Y-62213D01*
X-39206Y-62110D01*
X-39209Y-62007D01*
X-39215Y-61988D01*
X-39217Y-61968D01*
X-39257Y-61873D01*
X-39293Y-61776D01*
X-39306Y-61760D01*
X-39313Y-61742D01*
X-39418Y-61611D01*
X-40448Y-60581D01*
X-41339Y-58429D01*
X-41339Y-56100D01*
X-40448Y-53947D01*
X-38801Y-52300D01*
X-36649Y-51409D01*
X-34319Y-51409D01*
X-34195Y-51460D01*
X-34078Y-51488D01*
X-33960Y-51516D01*
X-33958Y-51516D01*
X-33956Y-51516D01*
X-33834Y-51505D01*
X-33715Y-51494D01*
X-33713Y-51493D01*
X-33711Y-51493D01*
X-33598Y-51443D01*
X-33490Y-51395D01*
X-33488Y-51394D01*
X-33486Y-51393D01*
X-33395Y-51310D01*
X-33308Y-51230D01*
X-33307Y-51228D01*
X-33305Y-51227D01*
X-33245Y-51118D01*
X-33188Y-51015D01*
X-33188Y-51013D01*
X-33187Y-51011D01*
X-33165Y-50890D01*
X-33143Y-50773D01*
X-33143Y-50771D01*
X-33143Y-50769D01*
X-33161Y-50648D01*
X-33177Y-50530D01*
X-33178Y-50528D01*
X-33179Y-50526D01*
X-33182Y-50519D01*
X-33245Y-50376D01*
X-33364Y-50169D01*
X-33691Y-48951D01*
X-33691Y-46944D01*
X-29263Y-46944D01*
X-29244Y-46941D01*
X-29224Y-46943D01*
X-29122Y-46921D01*
X-29020Y-46905D01*
X-29003Y-46895D01*
X-28983Y-46891D01*
X-28894Y-46838D01*
X-28803Y-46789D01*
X-28789Y-46775D01*
X-28772Y-46765D01*
X-28705Y-46686D01*
X-28634Y-46611D01*
X-28625Y-46593D01*
X-28612Y-46578D01*
X-28574Y-46482D01*
X-28530Y-46388D01*
X-28528Y-46368D01*
X-28520Y-46350D01*
X-28502Y-46183D01*
X-28502Y-45457D01*
X-28505Y-45437D01*
X-28503Y-45418D01*
X-28525Y-45316D01*
X-28542Y-45214D01*
X-28551Y-45197D01*
X-28555Y-45177D01*
X-28608Y-45088D01*
X-28657Y-44997D01*
X-28671Y-44983D01*
X-28681Y-44966D01*
X-28760Y-44899D01*
X-28835Y-44827D01*
X-28853Y-44819D01*
X-28868Y-44806D01*
X-28965Y-44767D01*
X-29058Y-44724D01*
X-29078Y-44722D01*
X-29096Y-44714D01*
X-29263Y-44696D01*
X-33691Y-44696D01*
X-33691Y-44372D01*
X-33694Y-44352D01*
X-33692Y-44333D01*
X-33714Y-44231D01*
X-33730Y-44129D01*
X-33740Y-44112D01*
X-33744Y-44092D01*
X-33797Y-44003D01*
X-33846Y-43912D01*
X-33860Y-43898D01*
X-33870Y-43881D01*
X-33949Y-43814D01*
X-34024Y-43743D01*
X-34042Y-43734D01*
X-34057Y-43721D01*
X-34153Y-43682D01*
X-34247Y-43639D01*
X-34267Y-43637D01*
X-34285Y-43629D01*
X-34452Y-43611D01*
X-40384Y-43611D01*
X-41623Y-42372D01*
X-41698Y-42318D01*
X-41769Y-42258D01*
X-41798Y-42247D01*
X-41823Y-42229D01*
X-41911Y-42201D01*
X-41998Y-42167D01*
X-42036Y-42163D01*
X-42058Y-42156D01*
X-42090Y-42157D01*
X-42164Y-42149D01*
X-44175Y-42158D01*
X-44217Y-42165D01*
X-45852Y-42165D01*
X-45853Y-42165D01*
X-45855Y-42165D01*
X-47474Y-42172D01*
X-47535Y-42165D01*
X-51857Y-42165D01*
X-51947Y-42179D01*
X-52038Y-42187D01*
X-52067Y-42199D01*
X-52099Y-42204D01*
X-52180Y-42247D01*
X-52264Y-42283D01*
X-52296Y-42309D01*
X-52317Y-42320D01*
X-52339Y-42343D01*
X-52395Y-42388D01*
X-53833Y-43826D01*
X-55985Y-44717D01*
X-57495Y-44717D01*
X-57515Y-44721D01*
X-57534Y-44718D01*
X-57636Y-44740D01*
X-57738Y-44757D01*
X-57755Y-44766D01*
X-57775Y-44771D01*
X-57864Y-44824D01*
X-57955Y-44872D01*
X-57969Y-44887D01*
X-57986Y-44897D01*
X-58053Y-44976D01*
X-58124Y-45051D01*
X-58133Y-45069D01*
X-58146Y-45084D01*
X-58185Y-45180D01*
X-58228Y-45274D01*
X-58230Y-45293D01*
X-58238Y-45312D01*
X-58256Y-45479D01*
X-58256Y-47496D01*
X-58499Y-48083D01*
X-58510Y-48128D01*
X-58529Y-48169D01*
X-58538Y-48247D01*
X-58555Y-48322D01*
X-58551Y-48368D01*
X-58556Y-48414D01*
X-58540Y-48490D01*
X-58532Y-48567D01*
X-58514Y-48609D01*
X-58504Y-48654D01*
X-58464Y-48721D01*
X-58432Y-48792D01*
X-58401Y-48826D01*
X-58378Y-48865D01*
X-58319Y-48916D01*
X-58266Y-48973D01*
X-58226Y-48995D01*
X-58191Y-49025D01*
X-58118Y-49054D01*
X-58050Y-49092D01*
X-58005Y-49100D01*
X-57963Y-49117D01*
X-57827Y-49132D01*
X-57808Y-49135D01*
X-57803Y-49135D01*
X-57796Y-49136D01*
X-55940Y-49136D01*
X-53782Y-51293D01*
X-41441Y-63634D01*
X-41425Y-63646D01*
X-41413Y-63661D01*
X-41325Y-63717D01*
X-41242Y-63778D01*
X-41223Y-63783D01*
X-41206Y-63794D01*
X-41105Y-63820D01*
X-41007Y-63850D01*
X-40987Y-63849D01*
X-40967Y-63854D01*
X-40864Y-63846D01*
G37*
%LPC*%
G36*
X-129943Y-77483D02*
X-129943Y-77483D01*
X-132095Y-76592D01*
X-133742Y-74945D01*
X-134633Y-72793D01*
X-134633Y-70463D01*
X-133742Y-68311D01*
X-132095Y-66664D01*
X-129943Y-65773D01*
X-127613Y-65773D01*
X-125883Y-66489D01*
X-125819Y-66504D01*
X-125758Y-66529D01*
X-125675Y-66538D01*
X-125643Y-66545D01*
X-125624Y-66544D01*
X-125592Y-66547D01*
X-124666Y-66547D01*
X-124646Y-66544D01*
X-124627Y-66546D01*
X-124525Y-66524D01*
X-124423Y-66508D01*
X-124406Y-66498D01*
X-124386Y-66494D01*
X-124297Y-66441D01*
X-124206Y-66392D01*
X-124192Y-66378D01*
X-124175Y-66368D01*
X-124108Y-66289D01*
X-124036Y-66214D01*
X-124028Y-66196D01*
X-124015Y-66181D01*
X-123976Y-66085D01*
X-123933Y-65991D01*
X-123931Y-65971D01*
X-123923Y-65953D01*
X-123905Y-65786D01*
X-123905Y-65360D01*
X-122416Y-63871D01*
X-114312Y-63871D01*
X-112823Y-65360D01*
X-112823Y-75464D01*
X-114312Y-76953D01*
X-122416Y-76953D01*
X-122437Y-76932D01*
X-122511Y-76879D01*
X-122581Y-76819D01*
X-122611Y-76807D01*
X-122637Y-76788D01*
X-122724Y-76761D01*
X-122809Y-76727D01*
X-122850Y-76723D01*
X-122872Y-76716D01*
X-122904Y-76717D01*
X-122976Y-76709D01*
X-125592Y-76709D01*
X-125656Y-76719D01*
X-125722Y-76720D01*
X-125802Y-76743D01*
X-125834Y-76748D01*
X-125851Y-76758D01*
X-125883Y-76767D01*
X-127613Y-77483D01*
X-129943Y-77483D01*
G37*
%LPD*%
G36*
X-24718Y22113D02*
X-24718Y22113D01*
X-24627Y22121D01*
X-24598Y22133D01*
X-24566Y22138D01*
X-24485Y22181D01*
X-24401Y22217D01*
X-24369Y22243D01*
X-24348Y22254D01*
X-24326Y22277D01*
X-24270Y22322D01*
X-11508Y35084D01*
X-11455Y35158D01*
X-11395Y35227D01*
X-11383Y35258D01*
X-11364Y35284D01*
X-11338Y35371D01*
X-11316Y35424D01*
X-11313Y35431D01*
X-11313Y35432D01*
X-11303Y35456D01*
X-11299Y35496D01*
X-11292Y35519D01*
X-11293Y35551D01*
X-11285Y35622D01*
X-11285Y36759D01*
X-11288Y36779D01*
X-11286Y36798D01*
X-11308Y36900D01*
X-11325Y37002D01*
X-11334Y37019D01*
X-11338Y37039D01*
X-11391Y37128D01*
X-11440Y37219D01*
X-11454Y37233D01*
X-11464Y37250D01*
X-11543Y37317D01*
X-11618Y37388D01*
X-11636Y37397D01*
X-11651Y37410D01*
X-11747Y37449D01*
X-11841Y37492D01*
X-11861Y37494D01*
X-11879Y37502D01*
X-12046Y37520D01*
X-25202Y37520D01*
X-25705Y38023D01*
X-25721Y38035D01*
X-25734Y38050D01*
X-25821Y38106D01*
X-25905Y38167D01*
X-25924Y38172D01*
X-25941Y38183D01*
X-26041Y38209D01*
X-26140Y38239D01*
X-26160Y38238D01*
X-26179Y38243D01*
X-26282Y38235D01*
X-26386Y38233D01*
X-26405Y38226D01*
X-26425Y38224D01*
X-26520Y38184D01*
X-26617Y38148D01*
X-26633Y38136D01*
X-26651Y38128D01*
X-26782Y38023D01*
X-26916Y37889D01*
X-27721Y37889D01*
X-27741Y37886D01*
X-27760Y37888D01*
X-27862Y37866D01*
X-27964Y37849D01*
X-27981Y37840D01*
X-28001Y37836D01*
X-28090Y37783D01*
X-28181Y37734D01*
X-28195Y37720D01*
X-28212Y37710D01*
X-28279Y37631D01*
X-28351Y37556D01*
X-28359Y37538D01*
X-28372Y37523D01*
X-28411Y37427D01*
X-28454Y37333D01*
X-28456Y37313D01*
X-28464Y37295D01*
X-28482Y37128D01*
X-28482Y36196D01*
X-28680Y35998D01*
X-28691Y35982D01*
X-28707Y35970D01*
X-28763Y35882D01*
X-28823Y35799D01*
X-28829Y35779D01*
X-28840Y35763D01*
X-28865Y35662D01*
X-28896Y35563D01*
X-28895Y35544D01*
X-28900Y35524D01*
X-28892Y35421D01*
X-28889Y35318D01*
X-28882Y35299D01*
X-28881Y35279D01*
X-28840Y35184D01*
X-28805Y35087D01*
X-28792Y35071D01*
X-28784Y35053D01*
X-28680Y34922D01*
X-28240Y34482D01*
X-28240Y22860D01*
X-28237Y22840D01*
X-28239Y22821D01*
X-28217Y22719D01*
X-28201Y22617D01*
X-28191Y22600D01*
X-28187Y22580D01*
X-28134Y22491D01*
X-28085Y22400D01*
X-28071Y22386D01*
X-28061Y22369D01*
X-27982Y22302D01*
X-27907Y22230D01*
X-27889Y22222D01*
X-27874Y22209D01*
X-27778Y22170D01*
X-27684Y22127D01*
X-27664Y22125D01*
X-27646Y22117D01*
X-27479Y22099D01*
X-24808Y22099D01*
X-24718Y22113D01*
G37*
%LPC*%
G36*
X-176171Y-45987D02*
X-176171Y-45987D01*
X-178323Y-45096D01*
X-179970Y-43449D01*
X-180861Y-41297D01*
X-180861Y-38967D01*
X-179970Y-36815D01*
X-178323Y-35168D01*
X-176171Y-34277D01*
X-173841Y-34277D01*
X-171689Y-35168D01*
X-170042Y-36815D01*
X-169151Y-38967D01*
X-169151Y-41297D01*
X-170042Y-43449D01*
X-171689Y-45096D01*
X-173841Y-45987D01*
X-176171Y-45987D01*
G37*
%LPD*%
%LPC*%
G36*
X-157629Y-44971D02*
X-157629Y-44971D01*
X-159781Y-44080D01*
X-161428Y-42433D01*
X-162319Y-40281D01*
X-162319Y-37951D01*
X-161428Y-35799D01*
X-159781Y-34152D01*
X-157629Y-33261D01*
X-155299Y-33261D01*
X-153147Y-34152D01*
X-151500Y-35799D01*
X-150609Y-37951D01*
X-150609Y-40281D01*
X-151500Y-42433D01*
X-153147Y-44080D01*
X-155299Y-44971D01*
X-157629Y-44971D01*
G37*
%LPD*%
%LPC*%
G36*
X119612Y-132728D02*
X119612Y-132728D01*
X117460Y-131837D01*
X115813Y-130190D01*
X114922Y-128038D01*
X114922Y-125708D01*
X115813Y-123556D01*
X117460Y-121909D01*
X119612Y-121018D01*
X121942Y-121018D01*
X124094Y-121909D01*
X125741Y-123556D01*
X126632Y-125708D01*
X126632Y-128038D01*
X125741Y-130190D01*
X124094Y-131837D01*
X121942Y-132728D01*
X119612Y-132728D01*
G37*
%LPD*%
%LPC*%
G36*
X135741Y82537D02*
X135741Y82537D01*
X133589Y83428D01*
X131942Y85075D01*
X131051Y87227D01*
X131051Y89557D01*
X131942Y91709D01*
X133589Y93356D01*
X135741Y94247D01*
X138071Y94247D01*
X140223Y93356D01*
X141870Y91709D01*
X142761Y89557D01*
X142761Y87227D01*
X141870Y85075D01*
X140223Y83428D01*
X138071Y82537D01*
X135741Y82537D01*
G37*
%LPD*%
%LPC*%
G36*
X-100352Y49517D02*
X-100352Y49517D01*
X-102504Y50408D01*
X-104151Y52055D01*
X-105042Y54207D01*
X-105042Y56537D01*
X-104151Y58689D01*
X-102504Y60336D01*
X-100352Y61227D01*
X-98022Y61227D01*
X-95870Y60336D01*
X-94223Y58689D01*
X-93332Y56537D01*
X-93332Y54207D01*
X-94223Y52055D01*
X-95870Y50408D01*
X-98022Y49517D01*
X-100352Y49517D01*
G37*
%LPD*%
%LPC*%
G36*
X161903Y-1410D02*
X161903Y-1410D01*
X159751Y-519D01*
X158104Y1128D01*
X157213Y3280D01*
X157213Y5610D01*
X158104Y7762D01*
X159751Y9409D01*
X161903Y10300D01*
X164233Y10300D01*
X166385Y9409D01*
X168032Y7762D01*
X168923Y5610D01*
X168923Y3280D01*
X168032Y1128D01*
X166385Y-519D01*
X164233Y-1410D01*
X161903Y-1410D01*
G37*
%LPD*%
%LPC*%
G36*
X-148831Y-30581D02*
X-148831Y-30581D01*
X-148831Y-27770D01*
X-148658Y-27123D01*
X-148323Y-26544D01*
X-148171Y-26392D01*
X-148160Y-26376D01*
X-148144Y-26364D01*
X-148088Y-26277D01*
X-148028Y-26193D01*
X-148022Y-26174D01*
X-148011Y-26157D01*
X-147986Y-26057D01*
X-147956Y-25958D01*
X-147956Y-25938D01*
X-147951Y-25918D01*
X-147959Y-25815D01*
X-147962Y-25712D01*
X-147969Y-25693D01*
X-147970Y-25673D01*
X-148011Y-25578D01*
X-148046Y-25481D01*
X-148059Y-25465D01*
X-148067Y-25447D01*
X-148171Y-25316D01*
X-148323Y-25164D01*
X-148658Y-24585D01*
X-148831Y-23938D01*
X-148831Y-21127D01*
X-137813Y-21127D01*
X-137813Y-30581D01*
X-148831Y-30581D01*
G37*
%LPD*%
%LPC*%
G36*
X-134767Y-30581D02*
X-134767Y-30581D01*
X-134767Y-21127D01*
X-123749Y-21127D01*
X-123749Y-23938D01*
X-123922Y-24585D01*
X-124257Y-25164D01*
X-124409Y-25316D01*
X-124420Y-25332D01*
X-124436Y-25344D01*
X-124492Y-25432D01*
X-124552Y-25515D01*
X-124558Y-25535D01*
X-124569Y-25551D01*
X-124594Y-25652D01*
X-124624Y-25751D01*
X-124624Y-25771D01*
X-124629Y-25790D01*
X-124621Y-25893D01*
X-124618Y-25996D01*
X-124611Y-26015D01*
X-124610Y-26035D01*
X-124569Y-26130D01*
X-124534Y-26227D01*
X-124521Y-26243D01*
X-124513Y-26261D01*
X-124409Y-26392D01*
X-124257Y-26544D01*
X-123922Y-27123D01*
X-123749Y-27770D01*
X-123749Y-30581D01*
X-134767Y-30581D01*
G37*
%LPD*%
%LPC*%
G36*
X137559Y44657D02*
X137559Y44657D01*
X137559Y49675D01*
X146370Y49675D01*
X147017Y49502D01*
X147596Y49167D01*
X148069Y48694D01*
X148404Y48115D01*
X148577Y47468D01*
X148577Y44657D01*
X137559Y44657D01*
G37*
%LPD*%
%LPC*%
G36*
X123495Y44657D02*
X123495Y44657D01*
X123495Y47468D01*
X123668Y48115D01*
X124003Y48694D01*
X124476Y49167D01*
X125055Y49502D01*
X125702Y49675D01*
X134513Y49675D01*
X134513Y44657D01*
X123495Y44657D01*
G37*
%LPD*%
%LPC*%
G36*
X-148831Y-18081D02*
X-148831Y-18081D01*
X-148831Y-15270D01*
X-148658Y-14623D01*
X-148323Y-14044D01*
X-147850Y-13571D01*
X-147271Y-13236D01*
X-146624Y-13063D01*
X-137813Y-13063D01*
X-137813Y-18081D01*
X-148831Y-18081D01*
G37*
%LPD*%
%LPC*%
G36*
X-134767Y-18081D02*
X-134767Y-18081D01*
X-134767Y-13063D01*
X-125956Y-13063D01*
X-125309Y-13236D01*
X-124730Y-13571D01*
X-124257Y-14044D01*
X-123922Y-14623D01*
X-123749Y-15270D01*
X-123749Y-18081D01*
X-134767Y-18081D01*
G37*
%LPD*%
%LPC*%
G36*
X-177686Y91693D02*
X-177686Y91693D01*
X-177551Y92549D01*
X-177056Y94070D01*
X-176330Y95495D01*
X-175390Y96789D01*
X-174259Y97920D01*
X-172965Y98860D01*
X-171540Y99586D01*
X-170019Y100081D01*
X-169163Y100216D01*
X-169163Y91693D01*
X-177686Y91693D01*
G37*
%LPD*%
%LPC*%
G36*
X-170019Y-140721D02*
X-170019Y-140721D01*
X-171540Y-140226D01*
X-172965Y-139500D01*
X-174259Y-138560D01*
X-175390Y-137429D01*
X-176330Y-136135D01*
X-177056Y-134710D01*
X-177551Y-133189D01*
X-177686Y-132333D01*
X-169163Y-132333D01*
X-169163Y-140856D01*
X-170019Y-140721D01*
G37*
%LPD*%
%LPC*%
G36*
X169163Y91693D02*
X169163Y91693D01*
X169163Y100216D01*
X170019Y100081D01*
X171540Y99586D01*
X172965Y98860D01*
X174259Y97920D01*
X175390Y96789D01*
X176330Y95495D01*
X177056Y94070D01*
X177551Y92549D01*
X177686Y91693D01*
X169163Y91693D01*
G37*
%LPD*%
%LPC*%
G36*
X169163Y-132333D02*
X169163Y-132333D01*
X177686Y-132333D01*
X177551Y-133189D01*
X177056Y-134710D01*
X176330Y-136135D01*
X175390Y-137429D01*
X174259Y-138560D01*
X172965Y-139500D01*
X171540Y-140226D01*
X170019Y-140721D01*
X169163Y-140856D01*
X169163Y-132333D01*
G37*
%LPD*%
%LPC*%
G36*
X157594Y91693D02*
X157594Y91693D01*
X157729Y92549D01*
X158224Y94070D01*
X158950Y95495D01*
X159890Y96789D01*
X161021Y97920D01*
X162315Y98860D01*
X163740Y99586D01*
X165261Y100081D01*
X166117Y100216D01*
X166117Y91693D01*
X157594Y91693D01*
G37*
%LPD*%
%LPC*%
G36*
X-166117Y91693D02*
X-166117Y91693D01*
X-166117Y100216D01*
X-165261Y100081D01*
X-163740Y99586D01*
X-162315Y98860D01*
X-161021Y97920D01*
X-159890Y96789D01*
X-158950Y95495D01*
X-158224Y94070D01*
X-157729Y92549D01*
X-157594Y91693D01*
X-166117Y91693D01*
G37*
%LPD*%
%LPC*%
G36*
X-170019Y80259D02*
X-170019Y80259D01*
X-171540Y80754D01*
X-172965Y81480D01*
X-174259Y82420D01*
X-175390Y83551D01*
X-176330Y84845D01*
X-177056Y86270D01*
X-177551Y87791D01*
X-177686Y88647D01*
X-169163Y88647D01*
X-169163Y80124D01*
X-170019Y80259D01*
G37*
%LPD*%
%LPC*%
G36*
X-177686Y-129287D02*
X-177686Y-129287D01*
X-177551Y-128431D01*
X-177056Y-126910D01*
X-176330Y-125485D01*
X-175390Y-124191D01*
X-174259Y-123060D01*
X-172965Y-122120D01*
X-171540Y-121394D01*
X-170019Y-120899D01*
X-169163Y-120764D01*
X-169163Y-129287D01*
X-177686Y-129287D01*
G37*
%LPD*%
%LPC*%
G36*
X169163Y-129287D02*
X169163Y-129287D01*
X169163Y-120764D01*
X170019Y-120899D01*
X171540Y-121394D01*
X172965Y-122120D01*
X174259Y-123060D01*
X175390Y-124191D01*
X176330Y-125485D01*
X177056Y-126910D01*
X177551Y-128431D01*
X177686Y-129287D01*
X169163Y-129287D01*
G37*
%LPD*%
%LPC*%
G36*
X165261Y-140721D02*
X165261Y-140721D01*
X163740Y-140226D01*
X162315Y-139500D01*
X161021Y-138560D01*
X159890Y-137429D01*
X158950Y-136135D01*
X158224Y-134710D01*
X157729Y-133189D01*
X157594Y-132333D01*
X166117Y-132333D01*
X166117Y-140856D01*
X165261Y-140721D01*
G37*
%LPD*%
%LPC*%
G36*
X-166117Y-132333D02*
X-166117Y-132333D01*
X-157594Y-132333D01*
X-157729Y-133189D01*
X-158224Y-134710D01*
X-158950Y-136135D01*
X-159890Y-137429D01*
X-161021Y-138560D01*
X-162315Y-139500D01*
X-163740Y-140226D01*
X-165261Y-140721D01*
X-166117Y-140856D01*
X-166117Y-132333D01*
G37*
%LPD*%
%LPC*%
G36*
X-166117Y88647D02*
X-166117Y88647D01*
X-157594Y88647D01*
X-157729Y87791D01*
X-158224Y86270D01*
X-158950Y84845D01*
X-159890Y83551D01*
X-161021Y82420D01*
X-162315Y81480D01*
X-163740Y80754D01*
X-165261Y80259D01*
X-166117Y80124D01*
X-166117Y88647D01*
G37*
%LPD*%
%LPC*%
G36*
X-166117Y-129287D02*
X-166117Y-129287D01*
X-166117Y-120764D01*
X-165261Y-120899D01*
X-163740Y-121394D01*
X-162315Y-122120D01*
X-161021Y-123060D01*
X-159890Y-124191D01*
X-158950Y-125485D01*
X-158224Y-126910D01*
X-157729Y-128431D01*
X-157594Y-129287D01*
X-166117Y-129287D01*
G37*
%LPD*%
%LPC*%
G36*
X157594Y-129287D02*
X157594Y-129287D01*
X157729Y-128431D01*
X158224Y-126910D01*
X158950Y-125485D01*
X159890Y-124191D01*
X161021Y-123060D01*
X162315Y-122120D01*
X163740Y-121394D01*
X165261Y-120899D01*
X166117Y-120764D01*
X166117Y-129287D01*
X157594Y-129287D01*
G37*
%LPD*%
%LPC*%
G36*
X-112624Y91961D02*
X-112624Y91961D01*
X-113271Y92134D01*
X-113850Y92469D01*
X-114323Y92942D01*
X-114658Y93521D01*
X-114831Y94168D01*
X-114831Y98279D01*
X-109563Y98279D01*
X-109563Y91961D01*
X-112624Y91961D01*
G37*
%LPD*%
%LPC*%
G36*
X-106517Y98279D02*
X-106517Y98279D01*
X-101249Y98279D01*
X-101249Y94168D01*
X-101422Y93521D01*
X-101757Y92942D01*
X-102230Y92469D01*
X-102809Y92134D01*
X-103456Y91961D01*
X-106517Y91961D01*
X-106517Y98279D01*
G37*
%LPD*%
%LPC*%
G36*
X-150161Y29283D02*
X-150161Y29283D01*
X-150161Y32594D01*
X-149988Y33241D01*
X-149653Y33820D01*
X-149180Y34293D01*
X-148601Y34628D01*
X-147954Y34801D01*
X-144143Y34801D01*
X-144143Y29283D01*
X-150161Y29283D01*
G37*
%LPD*%
%LPC*%
G36*
X-150161Y70283D02*
X-150161Y70283D01*
X-150161Y73594D01*
X-149988Y74241D01*
X-149653Y74820D01*
X-149180Y75293D01*
X-148601Y75628D01*
X-147954Y75801D01*
X-144143Y75801D01*
X-144143Y70283D01*
X-150161Y70283D01*
G37*
%LPD*%
%LPC*%
G36*
X-147954Y20719D02*
X-147954Y20719D01*
X-148601Y20892D01*
X-149180Y21227D01*
X-149653Y21700D01*
X-149988Y22279D01*
X-150161Y22926D01*
X-150161Y26237D01*
X-144143Y26237D01*
X-144143Y20719D01*
X-147954Y20719D01*
G37*
%LPD*%
%LPC*%
G36*
X-147954Y61719D02*
X-147954Y61719D01*
X-148601Y61892D01*
X-149180Y62227D01*
X-149653Y62700D01*
X-149988Y63279D01*
X-150161Y63926D01*
X-150161Y67237D01*
X-144143Y67237D01*
X-144143Y61719D01*
X-147954Y61719D01*
G37*
%LPD*%
%LPC*%
G36*
X-167951Y70357D02*
X-167951Y70357D01*
X-167951Y73168D01*
X-167778Y73815D01*
X-167443Y74394D01*
X-166970Y74867D01*
X-166391Y75202D01*
X-165744Y75375D01*
X-162933Y75375D01*
X-162933Y70357D01*
X-167951Y70357D01*
G37*
%LPD*%
%LPC*%
G36*
X-165744Y62293D02*
X-165744Y62293D01*
X-166391Y62466D01*
X-166970Y62801D01*
X-167443Y63274D01*
X-167778Y63853D01*
X-167951Y64500D01*
X-167951Y67311D01*
X-162933Y67311D01*
X-162933Y62293D01*
X-165744Y62293D01*
G37*
%LPD*%
%LPC*%
G36*
X-159887Y70357D02*
X-159887Y70357D01*
X-159887Y75375D01*
X-157076Y75375D01*
X-156429Y75202D01*
X-155850Y74867D01*
X-155377Y74394D01*
X-155042Y73815D01*
X-154869Y73168D01*
X-154869Y70357D01*
X-159887Y70357D01*
G37*
%LPD*%
%LPC*%
G36*
X-159887Y67311D02*
X-159887Y67311D01*
X-154869Y67311D01*
X-154869Y64500D01*
X-155042Y63853D01*
X-155377Y63274D01*
X-155850Y62801D01*
X-156429Y62466D01*
X-157076Y62293D01*
X-159887Y62293D01*
X-159887Y67311D01*
G37*
%LPD*%
%LPC*%
G36*
X49224Y46304D02*
X49224Y46304D01*
X49224Y52338D01*
X49949Y52144D01*
X51042Y51514D01*
X51934Y50622D01*
X52564Y49529D01*
X52891Y48311D01*
X52891Y46304D01*
X49224Y46304D01*
G37*
%LPD*%
%LPC*%
G36*
X-151144Y94975D02*
X-151144Y94975D01*
X-151144Y95475D01*
X-150885Y96439D01*
X-150386Y97304D01*
X-149681Y98009D01*
X-148816Y98508D01*
X-147852Y98767D01*
X-147352Y98767D01*
X-147352Y94975D01*
X-151144Y94975D01*
G37*
%LPD*%
%LPC*%
G36*
X-147852Y88685D02*
X-147852Y88685D01*
X-148816Y88944D01*
X-149681Y89443D01*
X-150386Y90148D01*
X-150885Y91013D01*
X-151144Y91977D01*
X-151144Y92477D01*
X-147352Y92477D01*
X-147352Y88685D01*
X-147852Y88685D01*
G37*
%LPD*%
%LPC*%
G36*
X92696Y93959D02*
X92696Y93959D01*
X92696Y94459D01*
X92955Y95423D01*
X93454Y96288D01*
X94159Y96993D01*
X95024Y97492D01*
X95988Y97751D01*
X96488Y97751D01*
X96488Y93959D01*
X92696Y93959D01*
G37*
%LPD*%
%LPC*%
G36*
X98274Y-87464D02*
X98274Y-87464D01*
X97310Y-87205D01*
X96445Y-86706D01*
X95740Y-86001D01*
X95241Y-85136D01*
X94982Y-84172D01*
X94982Y-83672D01*
X98774Y-83672D01*
X98774Y-87464D01*
X98274Y-87464D01*
G37*
%LPD*%
%LPC*%
G36*
X95988Y87669D02*
X95988Y87669D01*
X95024Y87928D01*
X94159Y88427D01*
X93454Y89132D01*
X92955Y89997D01*
X92696Y90961D01*
X92696Y91461D01*
X96488Y91461D01*
X96488Y87669D01*
X95988Y87669D01*
G37*
%LPD*%
%LPC*%
G36*
X-181515Y31100D02*
X-181515Y31100D01*
X-181515Y32310D01*
X-181342Y32957D01*
X-181007Y33536D01*
X-180534Y34009D01*
X-179955Y34344D01*
X-179308Y34517D01*
X-177848Y34517D01*
X-177848Y31100D01*
X-181515Y31100D01*
G37*
%LPD*%
%LPC*%
G36*
X-179308Y25935D02*
X-179308Y25935D01*
X-179955Y26108D01*
X-180534Y26443D01*
X-181007Y26916D01*
X-181342Y27495D01*
X-181515Y28142D01*
X-181515Y29352D01*
X-177848Y29352D01*
X-177848Y25935D01*
X-179308Y25935D01*
G37*
%LPD*%
%LPC*%
G36*
X-167641Y90169D02*
X-167641Y90169D01*
X-167641Y90171D01*
X-167639Y90171D01*
X-167639Y90169D01*
X-167641Y90169D01*
G37*
%LPD*%
%LPC*%
G36*
X167639Y-130811D02*
X167639Y-130811D01*
X167639Y-130809D01*
X167641Y-130809D01*
X167641Y-130811D01*
X167639Y-130811D01*
G37*
%LPD*%
%LPC*%
G36*
X-167641Y-130811D02*
X-167641Y-130811D01*
X-167641Y-130809D01*
X-167639Y-130809D01*
X-167639Y-130811D01*
X-167641Y-130811D01*
G37*
%LPD*%
%LPC*%
G36*
X-161411Y68833D02*
X-161411Y68833D01*
X-161411Y68835D01*
X-161409Y68835D01*
X-161409Y68833D01*
X-161411Y68833D01*
G37*
%LPD*%
%LPC*%
G36*
X-136291Y-19605D02*
X-136291Y-19605D01*
X-136291Y-19603D01*
X-136289Y-19603D01*
X-136289Y-19605D01*
X-136291Y-19605D01*
G37*
%LPD*%
D10*
X-92402Y-99460D03*
X-104902Y-99460D03*
X-117402Y-99460D03*
D11*
X-67402Y-130710D03*
X-142402Y-130710D03*
D12*
X136036Y43134D03*
X136036Y30634D03*
X136036Y18134D03*
X136036Y5634D03*
D13*
X167286Y68134D03*
X167286Y-19366D03*
D12*
X-136290Y-57104D03*
X-136290Y-44604D03*
X-136290Y-32104D03*
X-136290Y-19604D03*
D13*
X-167540Y-82104D03*
X-167540Y5396D03*
D14*
X-161410Y68834D03*
X-176410Y68834D03*
D15*
X-167640Y-130810D03*
X167640Y-130810D03*
X167640Y90170D03*
X-167640Y90170D03*
D16*
X-175378Y50546D03*
X-158378Y50546D03*
D17*
X-126620Y68760D03*
X-142620Y68760D03*
X-142620Y27760D03*
X-126620Y27760D03*
D18*
X-38400Y-38820D02*
X-33400Y-38820D01*
D19*
X-35781Y-31947D03*
X-35781Y-24820D03*
X-35781Y-17820D03*
X-35781Y-10820D03*
X-35781Y-3820D03*
X-35781Y3180D03*
X-35781Y10180D03*
X-35781Y17180D03*
X-35781Y24180D03*
X-35781Y31180D03*
D18*
X-38273Y38180D02*
X-33273Y38180D01*
D19*
X54981Y-24820D03*
X54981Y-17820D03*
X54981Y-10820D03*
X54981Y-3820D03*
X54981Y3180D03*
X54981Y10180D03*
X54981Y17180D03*
D18*
X-28900Y-43320D02*
X-28900Y-48320D01*
D20*
X-21900Y-45701D03*
X-14900Y-45701D03*
X-7900Y-45701D03*
X-900Y-45701D03*
D21*
X6100Y-42701D03*
D20*
X13100Y-45701D03*
X20100Y-45701D03*
X27100Y-45701D03*
X34100Y-45701D03*
X41100Y-45701D03*
D18*
X-28900Y42680D02*
X-28900Y47680D01*
D20*
X-7900Y45061D03*
X-900Y45061D03*
X6100Y45061D03*
X13100Y45061D03*
X20100Y45061D03*
X27100Y45061D03*
X34100Y45061D03*
X41100Y45061D03*
D18*
X48100Y42680D02*
X48100Y47680D01*
X48100Y-43320D02*
X48100Y-48320D01*
X52608Y-38820D02*
X57608Y-38820D01*
D19*
X54981Y-31820D03*
X54981Y24180D03*
X54981Y31180D03*
D18*
X52600Y38180D02*
X57600Y38180D01*
D20*
X-21900Y45061D03*
X-14900Y45061D03*
D22*
X-125640Y82602D03*
X-125640Y101802D03*
X-108040Y82602D03*
D23*
X-108040Y99802D03*
D24*
X-73438Y-93925D03*
X-73438Y-102925D03*
X-77438Y-93925D03*
X-81438Y-93925D03*
X-69438Y-102925D03*
X-77438Y-102925D03*
X-81438Y-102925D03*
X-69438Y-93925D03*
D25*
X109402Y-69564D03*
X100402Y-69564D03*
X109402Y-65564D03*
X109402Y-61564D03*
X100402Y-73564D03*
X100402Y-65564D03*
X100402Y-61564D03*
X109402Y-73564D03*
D26*
X-118364Y-70412D03*
X-118364Y-45412D03*
D27*
X-52632Y-92095D02*
X-50132Y-92095D01*
X-50132Y-94595D01*
X-52632Y-94595D01*
X-52632Y-92095D01*
X-52632Y-92220D02*
X-50132Y-92220D01*
X-59382Y-92095D02*
X-61882Y-92095D01*
X-59382Y-92095D02*
X-59382Y-94595D01*
X-61882Y-94595D01*
X-61882Y-92095D01*
X-61882Y-92220D02*
X-59382Y-92220D01*
X98773Y-83673D02*
X101273Y-83673D01*
X98773Y-83673D02*
X98773Y-81173D01*
X101273Y-81173D01*
X101273Y-83673D01*
X101273Y-81298D02*
X98773Y-81298D01*
X108023Y-83673D02*
X110523Y-83673D01*
X108023Y-83673D02*
X108023Y-81173D01*
X110523Y-81173D01*
X110523Y-83673D01*
X110523Y-81298D02*
X108023Y-81298D01*
X101400Y-53955D02*
X98900Y-53955D01*
X98900Y-51455D01*
X101400Y-51455D01*
X101400Y-53955D01*
X101400Y-51580D02*
X98900Y-51580D01*
X108150Y-53955D02*
X110650Y-53955D01*
X108150Y-53955D02*
X108150Y-51455D01*
X110650Y-51455D01*
X110650Y-53955D01*
X110650Y-51580D02*
X108150Y-51580D01*
X-144853Y92476D02*
X-147353Y92476D01*
X-147353Y94976D01*
X-144853Y94976D01*
X-144853Y92476D01*
X-144853Y94851D02*
X-147353Y94851D01*
X-138103Y92476D02*
X-135603Y92476D01*
X-138103Y92476D02*
X-138103Y94976D01*
X-135603Y94976D01*
X-135603Y92476D01*
X-135603Y94851D02*
X-138103Y94851D01*
X-20226Y-95865D02*
X-17726Y-95865D01*
X-20226Y-95865D02*
X-20226Y-93365D01*
X-17726Y-93365D01*
X-17726Y-95865D01*
X-17726Y-93490D02*
X-20226Y-93490D01*
X-10976Y-95865D02*
X-8476Y-95865D01*
X-10976Y-95865D02*
X-10976Y-93365D01*
X-8476Y-93365D01*
X-8476Y-95865D01*
X-8476Y-93490D02*
X-10976Y-93490D01*
X-2319Y-95992D02*
X181Y-95992D01*
X-2319Y-95992D02*
X-2319Y-93492D01*
X181Y-93492D01*
X181Y-95992D01*
X181Y-93617D02*
X-2319Y-93617D01*
X6931Y-95992D02*
X9431Y-95992D01*
X6931Y-95992D02*
X6931Y-93492D01*
X9431Y-93492D01*
X9431Y-95992D01*
X9431Y-93617D02*
X6931Y-93617D01*
X15207Y-96373D02*
X17707Y-96373D01*
X15207Y-96373D02*
X15207Y-93873D01*
X17707Y-93873D01*
X17707Y-96373D01*
X17707Y-93998D02*
X15207Y-93998D01*
X24457Y-96373D02*
X26957Y-96373D01*
X24457Y-96373D02*
X24457Y-93873D01*
X26957Y-93873D01*
X26957Y-96373D01*
X26957Y-93998D02*
X24457Y-93998D01*
X92804Y34310D02*
X95304Y34310D01*
X92804Y34310D02*
X92804Y36810D01*
X95304Y36810D01*
X95304Y34310D01*
X95304Y36685D02*
X92804Y36685D01*
X102054Y34310D02*
X104554Y34310D01*
X102054Y34310D02*
X102054Y36810D01*
X104554Y36810D01*
X104554Y34310D01*
X104554Y36685D02*
X102054Y36685D01*
X94923Y44724D02*
X92423Y44724D01*
X92423Y47224D01*
X94923Y47224D01*
X94923Y44724D01*
X94923Y47099D02*
X92423Y47099D01*
X101673Y44724D02*
X104173Y44724D01*
X101673Y44724D02*
X101673Y47224D01*
X104173Y47224D01*
X104173Y44724D01*
X104173Y47099D02*
X101673Y47099D01*
D28*
X-168974Y30226D03*
X-176974Y30226D03*
D27*
X105885Y77744D02*
X108385Y77744D01*
X105885Y77744D02*
X105885Y80244D01*
X108385Y80244D01*
X108385Y77744D01*
X108385Y80119D02*
X105885Y80119D01*
X115135Y77744D02*
X117635Y77744D01*
X115135Y77744D02*
X115135Y80244D01*
X117635Y80244D01*
X117635Y77744D01*
X117635Y80119D02*
X115135Y80119D01*
X108237Y93960D02*
X105737Y93960D01*
X108237Y93960D02*
X108237Y91460D01*
X105737Y91460D01*
X105737Y93960D01*
X105737Y93835D02*
X108237Y93835D01*
X98987Y93960D02*
X96487Y93960D01*
X98987Y93960D02*
X98987Y91460D01*
X96487Y91460D01*
X96487Y93960D01*
X96487Y93835D02*
X98987Y93835D01*
D29*
X66185Y38390D03*
X12772Y9870D03*
D30*
X-92402Y-99460D02*
X-88937Y-102925D01*
X-81438Y-102925D01*
D29*
X-84646Y-132334D03*
X4699Y-139573D03*
X-49784Y-50292D03*
X-87376Y-64516D03*
X73787Y-128905D03*
X23114Y-141351D03*
X57948Y-54959D03*
X-87565Y8795D03*
X-21590Y33020D03*
X-154940Y101600D03*
X-167640Y-113030D03*
X-135890Y-7620D03*
X-3810Y92710D03*
X123190Y97790D03*
X172720Y29210D03*
X168910Y-48260D03*
X142240Y-130810D03*
X97790Y19050D03*
X99060Y-19050D03*
X-104140Y64770D03*
X-77872Y40652D03*
D31*
X-62743Y25523D01*
X-62679Y25586D02*
X-54572Y17479D01*
D29*
X-44952Y-112014D03*
D31*
X-81547Y-57010D02*
X-86868Y-51689D01*
X-86868Y1397D01*
X-63124Y25142D01*
X-62679Y25586D01*
X-62743Y25523D02*
X-63124Y25142D01*
X-45968Y-110998D02*
X-44952Y-112014D01*
X-45968Y-110998D02*
X-45968Y-106686D01*
X-43428Y-104147D01*
X-43428Y-80609D02*
X-43688Y-80349D01*
X-45700Y-80349D01*
X-48980Y-77069D01*
X-48980Y-72429D01*
X-47884Y-71333D01*
X-47884Y-68204D01*
X-59079Y-57010D01*
X-81547Y-57010D01*
X-43428Y-80609D02*
X-43428Y-104147D01*
X-36080Y17479D02*
X-54572Y17479D01*
X-36080Y17479D02*
X-35781Y17180D01*
D29*
X-50145Y24457D03*
X-43380Y-74749D03*
D31*
X-67056Y-508D02*
X-67056Y9144D01*
X-67056Y-508D02*
X-81534Y-14986D01*
D29*
X-67056Y9144D03*
D31*
X-43380Y-66367D02*
X-43380Y-74749D01*
X-43380Y-66367D02*
X-57308Y-52438D01*
X-79268Y-52438D01*
X-81534Y-50172D02*
X-81534Y-14986D01*
X-81534Y-50172D02*
X-79268Y-52438D01*
X-50145Y24457D02*
X-36058Y24457D01*
X-35781Y24180D01*
D32*
X130148Y30634D02*
X136036Y30634D01*
D31*
X105410Y35841D02*
X103585Y35841D01*
X103304Y35560D01*
X105410Y35841D02*
X110617Y30634D01*
X107315Y35560D02*
X103304Y35560D01*
X107315Y35560D02*
X113030Y41275D01*
D29*
X113030Y41275D03*
D31*
X110617Y30634D02*
X130148Y30634D01*
X136036Y18134D02*
X135401Y17499D01*
X112676Y17499D01*
X102235Y27940D01*
X87884Y27940D01*
D29*
X87884Y27940D03*
X98552Y64770D03*
D31*
X99060Y64770D02*
X109220Y54610D01*
D30*
X99060Y64770D02*
X98552Y64770D01*
D31*
X109220Y54610D02*
X109220Y46778D01*
X72898Y19558D02*
X72898Y-43582D01*
X72898Y19558D02*
X70104Y22352D01*
D29*
X70104Y22352D03*
D31*
X102923Y45974D02*
X108416Y45974D01*
X109220Y46778D01*
D29*
X-24980Y-105931D03*
D31*
X-24980Y-118094D01*
X-21182Y-121893D01*
X75057Y-102362D02*
X75057Y-80391D01*
X75184Y-80264D01*
D29*
X75184Y-80264D03*
X75184Y-53086D03*
D31*
X75184Y-45868D01*
X72898Y-43582D01*
X75057Y-102362D02*
X50292Y-127127D01*
X-1850Y-127127D02*
X-7085Y-121893D01*
X-21182Y-121893D01*
X-1850Y-127127D02*
X50292Y-127127D01*
D29*
X-175006Y-40132D03*
X136271Y-6350D03*
X-174752Y-101346D03*
X48641Y-104902D03*
D33*
X-118364Y-70412D02*
X-119580Y-71628D01*
X-128778Y-71628D01*
D29*
X-128778Y-71628D03*
D33*
X-161290Y30226D02*
X-160782Y30734D01*
X-161290Y30226D02*
X-168974Y30226D01*
X-161036Y30988D02*
X-159258Y30988D01*
X-160782Y30734D02*
X-161036Y30988D01*
D29*
X-160782Y30734D03*
D33*
X-159258Y49666D02*
X-158378Y50546D01*
X-159258Y49666D02*
X-159258Y30988D01*
D29*
X120777Y-126873D03*
X163068Y4445D03*
X-113030Y42418D03*
X-156464Y-39116D03*
X-136911Y101605D03*
D33*
X-136657Y101859D02*
X-125697Y101859D01*
X-136657Y101859D02*
X-136911Y101605D01*
D34*
X-125697Y101859D02*
X-125640Y101802D01*
D33*
X-136853Y101547D02*
X-136911Y101605D01*
X-136853Y101547D02*
X-136853Y93726D01*
D29*
X88593Y53344D03*
D31*
X-60632Y-93345D02*
X-68858Y-93345D01*
X-69438Y-93925D01*
X-65120Y-80590D02*
X-65120Y-78735D01*
X-65120Y-80590D02*
X-69438Y-84908D01*
X-69438Y-93925D01*
X-64618Y-78232D02*
X-64618Y-77597D01*
X-64618Y-78232D02*
X-65120Y-78735D01*
D29*
X-64618Y-77597D03*
X-112014Y14313D03*
D32*
X109402Y-73564D02*
X109402Y-82294D01*
X109273Y-82423D01*
X109601Y-82751D01*
X109601Y-92583D01*
D29*
X109601Y-92583D03*
X-96774Y78994D03*
D35*
X-76708Y28194D03*
D29*
X-52832Y43688D03*
X-47098Y10233D03*
D31*
X-35834Y10233D02*
X-35781Y10180D01*
D29*
X-47134Y-3338D03*
D30*
X-46289Y-3820D02*
X-35781Y-3820D01*
X-46289Y-3820D02*
X-47860Y-2250D01*
X-47860Y-2613D01*
X-47134Y-3338D01*
D29*
X50546Y-75946D03*
X-79375Y-77089D03*
D31*
X-79375Y-79629D01*
X-81280Y-81534D01*
X-81280Y-93767D01*
X-81438Y-93925D01*
X-64344Y-102925D02*
X-63500Y-102081D01*
X-64344Y-102925D02*
X-69438Y-102925D01*
D29*
X-63500Y-102081D03*
X43053Y78232D03*
X-56007Y57785D03*
D32*
X109402Y-52707D02*
X109402Y-61564D01*
X109402Y-52707D02*
X109400Y-52705D01*
X109527Y-52832D01*
X118110Y-52832D01*
D29*
X118110Y-52832D03*
D32*
X100402Y-73564D02*
X93822Y-73564D01*
X91821Y-75565D01*
D29*
X91821Y-75565D03*
X-99187Y55372D03*
D30*
X-47098Y10233D02*
X-35834Y10233D01*
X-32182Y57785D02*
X-56007Y57785D01*
X-28900Y54503D02*
X-28900Y45180D01*
X-28900Y54503D02*
X-32182Y57785D01*
X-47324Y38180D02*
X-52832Y43688D01*
X-47324Y38180D02*
X-35773Y38180D01*
D29*
X41851Y-18905D03*
D30*
X47690Y-24744D02*
X52456Y-24744D01*
X47690Y-24744D02*
X41851Y-18905D01*
X54959Y-24798D02*
X54981Y-24820D01*
X54959Y-24798D02*
X52456Y-24744D01*
D29*
X41851Y-10286D03*
D30*
X42154Y-10590D01*
X54981Y-10820D01*
D29*
X41651Y-1541D03*
D30*
X43707Y-3597D01*
X54981Y-3820D01*
D29*
X41902Y7058D03*
D30*
X41928Y4909D02*
X41902Y4883D01*
X41902Y7058D01*
X41928Y4909D02*
X43657Y3180D01*
X54981Y3180D01*
D29*
X42322Y16765D03*
D30*
X54566Y16765D02*
X54981Y17180D01*
X54566Y16765D02*
X42322Y16765D01*
D35*
X-3614Y-11865D03*
D29*
X136906Y88392D03*
D31*
X-15047Y-25026D02*
X-15047Y-45554D01*
X-14900Y-45701D01*
X-15047Y-25026D02*
X-14250Y-24229D01*
X-14250Y-24082D01*
X-10970Y-20802D01*
X-10823Y-20802D01*
X-3614Y-13593D01*
X-3614Y-11865D01*
X58420Y62992D02*
X82042Y39370D01*
X58420Y62992D02*
X38314Y62992D01*
X34100Y58778D02*
X34100Y45061D01*
X34100Y58778D02*
X38314Y62992D01*
X82042Y39370D02*
X82042Y-607D01*
D29*
X-56115Y-106018D03*
D31*
X82042Y-607D02*
X89281Y-7846D01*
X-53601Y-108531D02*
X-56115Y-106018D01*
X-53601Y-108531D02*
X-53601Y-125208D01*
X-45078Y-133731D01*
X57882Y-133731D02*
X87757Y-103856D01*
X87757Y-85217D02*
X87376Y-84836D01*
X87757Y-85217D02*
X87757Y-103717D01*
X57882Y-133731D02*
X-45078Y-133731D01*
D29*
X87376Y-84836D03*
X88938Y-48006D03*
D31*
X87757Y-103717D02*
X87757Y-103856D01*
X87757Y-120777D01*
X89916Y-122936D02*
X89916Y-125984D01*
X89916Y-122936D02*
X87757Y-120777D01*
D29*
X89916Y-125984D03*
D31*
X88938Y-48006D02*
X89281Y-47663D01*
X89281Y-7846D01*
X56388Y58928D02*
X41111Y58928D01*
X41111Y45072D01*
X41100Y45061D01*
X77216Y38100D02*
X77216Y-6989D01*
X80516Y-10289D02*
X80643Y-10289D01*
X80516Y-10289D02*
X77216Y-6989D01*
D29*
X-49029Y-101827D03*
D31*
X54588Y-130302D02*
X81166Y-103724D01*
X81166Y-89388D01*
D29*
X81661Y-75184D03*
D31*
X81280Y-89274D02*
X81166Y-89388D01*
X81280Y-75565D02*
X81661Y-75184D01*
X81280Y-75565D02*
X81280Y-89274D01*
D29*
X80785Y-45614D03*
D31*
X-49029Y-101827D02*
X-49029Y-108170D01*
X-50553Y-109694D01*
X-50553Y-117595D01*
X80785Y-45614D02*
X80785Y-10431D01*
X80643Y-10289D01*
X77216Y38100D02*
X56388Y58928D01*
X54588Y-130302D02*
X-37846Y-130302D01*
X-50553Y-117595D01*
D33*
X-126620Y68760D02*
X-125640Y69740D01*
D36*
X-125640Y82602D01*
X-126620Y68760D02*
X-126620Y27760D01*
D30*
X-80085Y82602D02*
X-73787Y88900D01*
D29*
X-73787Y88900D03*
D31*
X-101759Y82602D02*
X-108040Y82602D01*
X-101759Y82602D02*
X-99291Y85070D01*
X-94257Y85070D01*
X-91789Y82602D01*
X-80085Y82602D01*
D29*
X-9108Y24473D03*
X-16764Y56134D03*
D31*
X-16764Y83312D01*
D30*
X-15240Y84836D01*
D29*
X-15240Y84836D03*
X-30607Y-112078D03*
D31*
X-30607Y-108732D01*
X-32232Y-107108D01*
X-32232Y-104238D01*
X-32232Y-62166D02*
X-27203Y-57137D01*
D29*
X-27203Y-57137D03*
D31*
X-32227Y-104233D02*
X-32232Y-104238D01*
X-32227Y-104233D02*
X-32227Y-99593D01*
X-32232Y-99588D01*
X-32232Y-62166D01*
D29*
X-15822Y12820D03*
D31*
X-9108Y21568D02*
X-9108Y24473D01*
X-9108Y21568D02*
X-15403Y15273D01*
X-15403Y13238D01*
X-15822Y12820D01*
D29*
X-96520Y70104D03*
D31*
X-92202Y68072D02*
X-55626Y31496D01*
X-92202Y68072D02*
X-94488Y68072D01*
X-96520Y70104D01*
X-55626Y31496D02*
X-45385Y31496D01*
X-35781Y31180D01*
D33*
X-175378Y50546D02*
X-175378Y67802D01*
X-176410Y68834D01*
D29*
X-35484Y-57264D03*
X-21827Y-10191D03*
D31*
X-35484Y-57264D02*
X-35484Y-63424D01*
X-37338Y-65278D01*
X-37338Y-106807D01*
X-37833Y-107302D01*
D29*
X-37833Y-107302D03*
D31*
X-21827Y-10191D02*
X-21827Y20094D01*
X-7982Y33939D01*
X-7982Y44979D01*
X-7900Y45061D01*
D32*
X26959Y45060D02*
X27100Y45061D01*
D31*
X60494Y67056D02*
X93022Y34528D01*
X26959Y45060D02*
X26959Y58930D01*
X35085Y67056D02*
X60494Y67056D01*
X35085Y67056D02*
X26959Y58930D01*
X93022Y34528D02*
X94054Y35560D01*
X86561Y46736D02*
X62177Y71120D01*
X30498Y71120D01*
X20474Y61096D01*
X20474Y45435D01*
X20100Y45061D01*
X87323Y45974D02*
X93673Y45974D01*
X87323Y45974D02*
X86561Y46736D01*
D29*
X-55898Y3195D03*
D31*
X-55883Y3180D01*
X-35781Y3180D01*
D29*
X-62792Y-110871D03*
D31*
X-73438Y-102925D02*
X-73613Y-103100D01*
X-73613Y-108515D01*
X-70368Y-111760D01*
X-62792Y-111760D02*
X-62792Y-110871D01*
X-62792Y-111760D02*
X-70368Y-111760D01*
D29*
X-92964Y-132207D03*
D31*
X-77438Y-107410D02*
X-77438Y-102925D01*
X-77438Y-107410D02*
X-92964Y-122936D01*
X-92964Y-132207D01*
D29*
X1124Y20605D03*
D31*
X-3012Y16469D01*
X-3012Y16287D01*
X-3012Y-3230D01*
X-22024Y-22241D01*
X-22024Y-45577D01*
X-21900Y-45701D01*
D29*
X33147Y-111252D03*
D31*
X33147Y-66251D01*
X38432Y-60966D01*
D29*
X38432Y-60966D03*
X-9398Y72517D03*
D31*
X6240Y56879D01*
X6240Y45201D01*
X6100Y45061D01*
X74835Y-69564D02*
X100402Y-69564D01*
D29*
X-16764Y-105054D03*
D31*
X-16213Y-105200D02*
X-17102Y-106089D01*
X-17102Y-105054D02*
X-16764Y-105054D01*
X-17102Y-105054D02*
X-17102Y-106089D01*
X-16213Y-105200D02*
X-11372Y-105200D01*
X4079Y-120650D01*
X62738Y-100203D02*
X62738Y-81661D01*
X74835Y-69564D01*
X42291Y-120650D02*
X4079Y-120650D01*
X42291Y-120650D02*
X62738Y-100203D01*
X35721Y-117234D02*
X6744Y-117234D01*
X35721Y-117234D02*
X42418Y-110537D01*
X42418Y-95123D01*
X71977Y-65564D01*
X100402Y-65564D01*
X-12733Y-99401D02*
X-24170Y-99401D01*
X-8527Y-103607D02*
X-6883Y-103607D01*
X-8527Y-103607D02*
X-12733Y-99401D01*
X-6883Y-103607D02*
X6744Y-117234D01*
D29*
X-24638Y-75565D03*
D31*
X-25908Y-76835D01*
X-25908Y-97663D01*
X-24170Y-99401D01*
D29*
X-116899Y34336D03*
D31*
X-111994Y29431D01*
X-111994Y22520D01*
D29*
X-111994Y22520D03*
D31*
X-109093Y-80518D02*
X-95416Y-80518D01*
X-82196Y-67297D02*
X-76936Y-67297D01*
X-70345Y-73888D01*
X-70345Y-81053D01*
X-82196Y-67297D02*
X-95416Y-80518D01*
X-73438Y-84145D02*
X-70345Y-81053D01*
X-73438Y-84145D02*
X-73438Y-93925D01*
X-109093Y-80518D02*
X-117402Y-88827D01*
X-117402Y-99460D01*
X-104902Y-87122D02*
X-103632Y-85852D01*
X-84976Y-85852D01*
X-84976Y-74642D02*
X-81822Y-71488D01*
X-77055Y-71488D01*
X-73393Y-75150D01*
X-73393Y-79790D01*
X-84976Y-74642D02*
X-84976Y-85852D01*
X-77438Y-83835D02*
X-73393Y-79790D01*
X-77438Y-83835D02*
X-77438Y-93925D01*
X-104902Y-99460D02*
X-104902Y-87122D01*
D32*
X109402Y-65564D02*
X150781Y-65564D01*
X151511Y-66294D01*
D29*
X151511Y-66294D03*
D32*
X114268Y-69564D02*
X109402Y-69564D01*
X114268Y-69564D02*
X124460Y-79756D01*
X151511Y-79756D01*
D29*
X151511Y-79756D03*
D33*
X-136290Y-57104D02*
X-136290Y-44604D01*
X-135482Y-45412D02*
X-118364Y-45412D01*
X-135482Y-45412D02*
X-136290Y-44604D01*
D29*
X-12446Y-112052D03*
D31*
X-10051Y-112243D02*
X-9860Y-112052D01*
X-12446Y-112052D01*
X-10051Y-112243D02*
X1531Y-123825D01*
X46094Y-123825D01*
X68580Y-101339D02*
X68580Y-85344D01*
X68580Y-101339D02*
X46094Y-123825D01*
D29*
X68580Y-85344D03*
X125900Y-15245D03*
X114821Y49428D03*
D31*
X115329Y49936D02*
X115329Y77938D01*
X115329Y49936D02*
X114821Y49428D01*
X115329Y77938D02*
X116385Y78994D01*
X125984Y-15161D02*
X125900Y-15245D01*
X130348Y5634D02*
X136036Y5634D01*
X125984Y1270D02*
X125984Y-15161D01*
X125984Y1270D02*
X130348Y5634D01*
D29*
X25547Y-26901D03*
D31*
X33828Y-32737D02*
X33828Y-45429D01*
X34100Y-45701D01*
X33828Y-32737D02*
X27991Y-26901D01*
X25547Y-26901D01*
X26724Y-45694D02*
X27100Y-45701D01*
X16203Y-72316D02*
X16203Y-94869D01*
X16457Y-95123D01*
X26724Y-61795D02*
X26724Y-45694D01*
X26724Y-61795D02*
X16203Y-72316D01*
D29*
X6477Y-26924D03*
D31*
X13099Y-26924D01*
X20100Y-33925D02*
X20100Y-45701D01*
X20100Y-33925D02*
X13099Y-26924D01*
X-1069Y-72824D02*
X-1069Y-94742D01*
X13100Y-58655D02*
X13100Y-45701D01*
X13100Y-58655D02*
X-1069Y-72824D01*
D29*
X18910Y-111633D03*
D31*
X8181Y-100904D01*
X8181Y-94742D01*
D29*
X-8650Y-26402D03*
D31*
X-2434Y-26402D01*
X6100Y-34937D02*
X6100Y-42701D01*
X6100Y-34937D02*
X-2434Y-26402D01*
X-18976Y-76126D02*
X-18976Y-94615D01*
X-900Y-58050D02*
X-900Y-45701D01*
X-900Y-58050D02*
X-18976Y-76126D01*
D29*
X-17272Y-57264D03*
D31*
X-11018Y-57264D01*
X-7796Y-54042D01*
X-7900Y-53938D01*
X-7900Y-45701D01*
D29*
X-57150Y-38862D03*
D31*
X-45862Y-38862D01*
X-35900Y-38820D01*
D29*
X-113157Y-33401D03*
D31*
X-98057Y-33401D01*
X-92469Y-38989D01*
D29*
X-92469Y-38989D03*
X-64112Y-46332D03*
D31*
X-64112Y-34902D01*
X-61214Y-32004D01*
X-45509Y-31947D02*
X-35781Y-31947D01*
X-45509Y-31947D02*
X-45512Y-32004D01*
X-61214Y-32004D01*
D29*
X-57404Y-24511D03*
D31*
X-45392Y-24511D01*
X-35781Y-24820D01*
D29*
X-108458Y-24892D03*
D31*
X-92710Y-24892D01*
D29*
X-92710Y-24892D03*
D31*
X-36202Y-17399D02*
X-35781Y-17820D01*
D29*
X-74930Y-46101D03*
D31*
X-74930Y-26289D01*
X-66040Y-17399D01*
X-36202Y-17399D01*
D29*
X-58166Y-10947D03*
D31*
X-45828Y-10947D01*
X-45789Y-10908D02*
X-35819Y-10782D01*
X-45789Y-10908D02*
X-45828Y-10947D01*
X-35819Y-10782D02*
X-35781Y-10820D01*
D29*
X25908Y-107442D03*
D31*
X25908Y-95324D02*
X25707Y-95123D01*
X25908Y-95324D02*
X25908Y-107442D01*
D29*
X10541Y-111379D03*
D31*
X10541Y-110363D01*
X737Y-100559D01*
X-5232Y-100559D01*
X-9726Y-96065D01*
X-9726Y-94615D01*
X53340Y78994D02*
X107135Y78994D01*
X53340Y78994D02*
X52832Y78486D01*
D29*
X52832Y78486D03*
X40894Y34036D03*
D31*
X-900Y34036D01*
X-900Y45061D01*
X107135Y78994D02*
X107135Y92562D01*
X106987Y92710D01*
M02*
