G04 EAGLE Gerber RS-274X export*
G75*
%MOMM*%
%FSLAX34Y34*%
%LPD*%
%IN*%
%IPPOS*%
%AMOC8*
5,1,8,0,0,1.08239X$1,22.5*%
G01*
%ADD10C,0.254000*%


D10*
X-189230Y-152146D02*
X189230Y-152146D01*
X189230Y112014D01*
X-189230Y112014D01*
X-189230Y-152146D01*
X93000Y-664D02*
X93067Y-1348D01*
X93202Y-2023D01*
X93401Y-2681D01*
X93664Y-3317D01*
X93989Y-3923D01*
X94371Y-4495D01*
X94807Y-5027D01*
X95293Y-5513D01*
X95825Y-5949D01*
X96397Y-6331D01*
X97004Y-6656D01*
X97639Y-6919D01*
X98297Y-7118D01*
X98972Y-7253D01*
X99656Y-7320D01*
X100344Y-7320D01*
X101028Y-7253D01*
X101703Y-7118D01*
X102361Y-6919D01*
X102997Y-6656D01*
X103603Y-6331D01*
X104175Y-5949D01*
X104707Y-5513D01*
X105193Y-5027D01*
X105629Y-4495D01*
X106011Y-3923D01*
X106336Y-3317D01*
X106599Y-2681D01*
X106798Y-2023D01*
X106933Y-1348D01*
X107000Y-664D01*
X107000Y24D01*
X106933Y708D01*
X106798Y1383D01*
X106599Y2041D01*
X106336Y2677D01*
X106011Y3283D01*
X105629Y3855D01*
X105193Y4387D01*
X104707Y4873D01*
X104175Y5309D01*
X103603Y5691D01*
X102997Y6016D01*
X102361Y6279D01*
X101703Y6478D01*
X101028Y6613D01*
X100344Y6680D01*
X99656Y6680D01*
X98972Y6613D01*
X98297Y6478D01*
X97639Y6279D01*
X97004Y6016D01*
X96397Y5691D01*
X95825Y5309D01*
X95293Y4873D01*
X94807Y4387D01*
X94371Y3855D01*
X93989Y3283D01*
X93664Y2677D01*
X93401Y2041D01*
X93202Y1383D01*
X93067Y708D01*
X93000Y24D01*
X93000Y-664D01*
X-107000Y-664D02*
X-106933Y-1348D01*
X-106798Y-2023D01*
X-106599Y-2681D01*
X-106336Y-3317D01*
X-106011Y-3923D01*
X-105629Y-4495D01*
X-105193Y-5027D01*
X-104707Y-5513D01*
X-104175Y-5949D01*
X-103603Y-6331D01*
X-102997Y-6656D01*
X-102361Y-6919D01*
X-101703Y-7118D01*
X-101028Y-7253D01*
X-100344Y-7320D01*
X-99656Y-7320D01*
X-98972Y-7253D01*
X-98297Y-7118D01*
X-97639Y-6919D01*
X-97004Y-6656D01*
X-96397Y-6331D01*
X-95825Y-5949D01*
X-95293Y-5513D01*
X-94807Y-5027D01*
X-94371Y-4495D01*
X-93989Y-3923D01*
X-93664Y-3317D01*
X-93401Y-2681D01*
X-93202Y-2023D01*
X-93067Y-1348D01*
X-93000Y-664D01*
X-93000Y24D01*
X-93067Y708D01*
X-93202Y1383D01*
X-93401Y2041D01*
X-93664Y2677D01*
X-93989Y3283D01*
X-94371Y3855D01*
X-94807Y4387D01*
X-95293Y4873D01*
X-95825Y5309D01*
X-96397Y5691D01*
X-97004Y6016D01*
X-97639Y6279D01*
X-98297Y6478D01*
X-98972Y6613D01*
X-99656Y6680D01*
X-100344Y6680D01*
X-101028Y6613D01*
X-101703Y6478D01*
X-102361Y6279D01*
X-102997Y6016D01*
X-103603Y5691D01*
X-104175Y5309D01*
X-104707Y4873D01*
X-105193Y4387D01*
X-105629Y3855D01*
X-106011Y3283D01*
X-106336Y2677D01*
X-106599Y2041D01*
X-106798Y1383D01*
X-106933Y708D01*
X-107000Y24D01*
X-107000Y-664D01*
M02*
