G04 EAGLE Gerber RS-274X export*
G75*
%MOMM*%
%FSLAX34Y34*%
%LPD*%
%INSilkscreen Bottom*%
%IPPOS*%
%AMOC8*
5,1,8,0,0,1.08239X$1,22.5*%
G01*
%ADD10C,0.152400*%
%ADD11C,0.050800*%
%ADD12C,0.203200*%
%ADD13R,0.500000X0.875000*%
%ADD14R,0.875000X0.500000*%
%ADD15R,0.300000X0.150000*%
%ADD16R,0.300000X0.300000*%
%ADD17C,0.076200*%
%ADD18C,0.127000*%
%ADD19C,0.080000*%
%ADD20C,0.050000*%
%ADD21C,0.101600*%
%ADD22R,1.100000X0.600000*%

G36*
X9940Y-88578D02*
X9940Y-88578D01*
X9959Y-88580D01*
X10061Y-88558D01*
X10163Y-88542D01*
X10180Y-88532D01*
X10200Y-88528D01*
X10289Y-88475D01*
X10380Y-88426D01*
X10394Y-88412D01*
X10411Y-88402D01*
X10478Y-88323D01*
X10550Y-88248D01*
X10558Y-88230D01*
X10571Y-88215D01*
X10610Y-88119D01*
X10653Y-88025D01*
X10655Y-88005D01*
X10663Y-87987D01*
X10681Y-87820D01*
X10681Y-75320D01*
X10678Y-75300D01*
X10680Y-75281D01*
X10658Y-75179D01*
X10642Y-75077D01*
X10632Y-75060D01*
X10628Y-75040D01*
X10575Y-74951D01*
X10526Y-74860D01*
X10512Y-74846D01*
X10502Y-74829D01*
X10423Y-74762D01*
X10348Y-74691D01*
X10330Y-74682D01*
X10315Y-74669D01*
X10219Y-74630D01*
X10125Y-74587D01*
X10105Y-74585D01*
X10087Y-74577D01*
X9920Y-74559D01*
X-15000Y-74559D01*
X-15020Y-74562D01*
X-15039Y-74560D01*
X-15141Y-74582D01*
X-15243Y-74599D01*
X-15260Y-74608D01*
X-15280Y-74612D01*
X-15369Y-74665D01*
X-15460Y-74714D01*
X-15474Y-74728D01*
X-15491Y-74738D01*
X-15558Y-74817D01*
X-15630Y-74892D01*
X-15638Y-74910D01*
X-15651Y-74925D01*
X-15690Y-75021D01*
X-15733Y-75115D01*
X-15735Y-75135D01*
X-15743Y-75153D01*
X-15761Y-75320D01*
X-15761Y-87820D01*
X-15758Y-87840D01*
X-15760Y-87859D01*
X-15738Y-87961D01*
X-15722Y-88063D01*
X-15712Y-88080D01*
X-15708Y-88100D01*
X-15655Y-88189D01*
X-15606Y-88280D01*
X-15592Y-88294D01*
X-15582Y-88311D01*
X-15503Y-88378D01*
X-15428Y-88450D01*
X-15410Y-88458D01*
X-15395Y-88471D01*
X-15299Y-88510D01*
X-15205Y-88553D01*
X-15185Y-88555D01*
X-15167Y-88563D01*
X-15000Y-88581D01*
X9920Y-88581D01*
X9940Y-88578D01*
G37*
D10*
X-87500Y87180D02*
X87500Y87180D01*
X87500Y24680D01*
X-87500Y24680D02*
X-87500Y87180D01*
X100000Y24680D02*
X100609Y24673D01*
X101217Y24650D01*
X101825Y24613D01*
X102431Y24561D01*
X103037Y24495D01*
X103640Y24414D01*
X104241Y24318D01*
X104840Y24207D01*
X105436Y24082D01*
X106028Y23942D01*
X106617Y23788D01*
X107202Y23620D01*
X107783Y23438D01*
X108360Y23241D01*
X108931Y23030D01*
X109497Y22806D01*
X110057Y22568D01*
X110611Y22316D01*
X111159Y22051D01*
X111701Y21773D01*
X112235Y21481D01*
X112763Y21177D01*
X113282Y20860D01*
X113794Y20530D01*
X114298Y20188D01*
X114793Y19834D01*
X115279Y19467D01*
X115757Y19089D01*
X116225Y18700D01*
X116683Y18299D01*
X117131Y17888D01*
X117570Y17465D01*
X117998Y17032D01*
X118415Y16588D01*
X118821Y16135D01*
X119216Y15672D01*
X119600Y15199D01*
X119972Y14717D01*
X120332Y14226D01*
X120680Y13727D01*
X121016Y13219D01*
X121340Y12704D01*
X121651Y12180D01*
X121949Y11649D01*
X122234Y11111D01*
X122505Y10566D01*
X122764Y10015D01*
X123009Y9458D01*
X123240Y8894D01*
X123457Y8326D01*
X123661Y7752D01*
X123851Y7173D01*
X124026Y6590D01*
X124187Y6003D01*
X124334Y5412D01*
X124466Y4818D01*
X124584Y4221D01*
X124687Y3621D01*
X124776Y3019D01*
X124850Y2414D01*
X124909Y1808D01*
X124954Y1201D01*
X124983Y593D01*
X124998Y-16D01*
X124998Y-624D01*
X124983Y-1233D01*
X124954Y-1841D01*
X124909Y-2448D01*
X124850Y-3054D01*
X124776Y-3659D01*
X124687Y-4261D01*
X124584Y-4861D01*
X124466Y-5458D01*
X124334Y-6052D01*
X124187Y-6643D01*
X124026Y-7230D01*
X123851Y-7813D01*
X123661Y-8392D01*
X123457Y-8966D01*
X123240Y-9534D01*
X123009Y-10098D01*
X122764Y-10655D01*
X122505Y-11206D01*
X122234Y-11751D01*
X121949Y-12289D01*
X121651Y-12820D01*
X121340Y-13344D01*
X121016Y-13859D01*
X120680Y-14367D01*
X120332Y-14866D01*
X119972Y-15357D01*
X119600Y-15839D01*
X119216Y-16312D01*
X118821Y-16775D01*
X118415Y-17228D01*
X117998Y-17672D01*
X117570Y-18105D01*
X117131Y-18528D01*
X116683Y-18939D01*
X116225Y-19340D01*
X115757Y-19729D01*
X115279Y-20107D01*
X114793Y-20474D01*
X114298Y-20828D01*
X113794Y-21170D01*
X113282Y-21500D01*
X112763Y-21817D01*
X112235Y-22121D01*
X111701Y-22413D01*
X111159Y-22691D01*
X110611Y-22956D01*
X110057Y-23208D01*
X109497Y-23446D01*
X108931Y-23670D01*
X108360Y-23881D01*
X107783Y-24078D01*
X107202Y-24260D01*
X106617Y-24428D01*
X106028Y-24582D01*
X105436Y-24722D01*
X104840Y-24847D01*
X104241Y-24958D01*
X103640Y-25054D01*
X103037Y-25135D01*
X102431Y-25201D01*
X101825Y-25253D01*
X101217Y-25290D01*
X100609Y-25313D01*
X100000Y-25320D01*
X100000Y24680D02*
X87500Y24680D01*
X87500Y-25320D02*
X100000Y-25320D01*
X87500Y-25320D02*
X87500Y-87820D01*
X-87500Y-87820D01*
X-87500Y-25320D01*
X-100000Y-25320D02*
X-100609Y-25313D01*
X-101217Y-25290D01*
X-101825Y-25253D01*
X-102431Y-25201D01*
X-103037Y-25135D01*
X-103640Y-25054D01*
X-104241Y-24958D01*
X-104840Y-24847D01*
X-105436Y-24722D01*
X-106028Y-24582D01*
X-106617Y-24428D01*
X-107202Y-24260D01*
X-107783Y-24078D01*
X-108360Y-23881D01*
X-108931Y-23670D01*
X-109497Y-23446D01*
X-110057Y-23208D01*
X-110611Y-22956D01*
X-111159Y-22691D01*
X-111701Y-22413D01*
X-112235Y-22121D01*
X-112763Y-21817D01*
X-113282Y-21500D01*
X-113794Y-21170D01*
X-114298Y-20828D01*
X-114793Y-20474D01*
X-115279Y-20107D01*
X-115757Y-19729D01*
X-116225Y-19340D01*
X-116683Y-18939D01*
X-117131Y-18528D01*
X-117570Y-18105D01*
X-117998Y-17672D01*
X-118415Y-17228D01*
X-118821Y-16775D01*
X-119216Y-16312D01*
X-119600Y-15839D01*
X-119972Y-15357D01*
X-120332Y-14866D01*
X-120680Y-14367D01*
X-121016Y-13859D01*
X-121340Y-13344D01*
X-121651Y-12820D01*
X-121949Y-12289D01*
X-122234Y-11751D01*
X-122505Y-11206D01*
X-122764Y-10655D01*
X-123009Y-10098D01*
X-123240Y-9534D01*
X-123457Y-8966D01*
X-123661Y-8392D01*
X-123851Y-7813D01*
X-124026Y-7230D01*
X-124187Y-6643D01*
X-124334Y-6052D01*
X-124466Y-5458D01*
X-124584Y-4861D01*
X-124687Y-4261D01*
X-124776Y-3659D01*
X-124850Y-3054D01*
X-124909Y-2448D01*
X-124954Y-1841D01*
X-124983Y-1233D01*
X-124998Y-624D01*
X-124998Y-16D01*
X-124983Y593D01*
X-124954Y1201D01*
X-124909Y1808D01*
X-124850Y2414D01*
X-124776Y3019D01*
X-124687Y3621D01*
X-124584Y4221D01*
X-124466Y4818D01*
X-124334Y5412D01*
X-124187Y6003D01*
X-124026Y6590D01*
X-123851Y7173D01*
X-123661Y7752D01*
X-123457Y8326D01*
X-123240Y8894D01*
X-123009Y9458D01*
X-122764Y10015D01*
X-122505Y10566D01*
X-122234Y11111D01*
X-121949Y11649D01*
X-121651Y12180D01*
X-121340Y12704D01*
X-121016Y13219D01*
X-120680Y13727D01*
X-120332Y14226D01*
X-119972Y14717D01*
X-119600Y15199D01*
X-119216Y15672D01*
X-118821Y16135D01*
X-118415Y16588D01*
X-117998Y17032D01*
X-117570Y17465D01*
X-117131Y17888D01*
X-116683Y18299D01*
X-116225Y18700D01*
X-115757Y19089D01*
X-115279Y19467D01*
X-114793Y19834D01*
X-114298Y20188D01*
X-113794Y20530D01*
X-113282Y20860D01*
X-112763Y21177D01*
X-112235Y21481D01*
X-111701Y21773D01*
X-111159Y22051D01*
X-110611Y22316D01*
X-110057Y22568D01*
X-109497Y22806D01*
X-108931Y23030D01*
X-108360Y23241D01*
X-107783Y23438D01*
X-107202Y23620D01*
X-106617Y23788D01*
X-106028Y23942D01*
X-105436Y24082D01*
X-104840Y24207D01*
X-104241Y24318D01*
X-103640Y24414D01*
X-103037Y24495D01*
X-102431Y24561D01*
X-101825Y24613D01*
X-101217Y24650D01*
X-100609Y24673D01*
X-100000Y24680D01*
X-87500Y24680D01*
X-87500Y-25320D02*
X-100000Y-25320D01*
X-70000Y69680D02*
X-58571Y69680D01*
X-48571Y69680D02*
X-37143Y69680D01*
X-27143Y69680D02*
X-15714Y69680D01*
X-5714Y69680D02*
X5714Y69680D01*
X15714Y69680D02*
X27143Y69680D01*
X37143Y69680D02*
X48571Y69680D01*
X58571Y69680D02*
X70000Y69680D01*
X70000Y58251D01*
X70000Y48251D02*
X70000Y36823D01*
X70000Y26823D02*
X70000Y15394D01*
X70000Y5394D02*
X70000Y-6034D01*
X70000Y-16034D02*
X70000Y-27463D01*
X70000Y-37463D02*
X70000Y-48891D01*
X70000Y-58891D02*
X70000Y-70320D01*
X58571Y-70320D01*
X48571Y-70320D02*
X37143Y-70320D01*
X27143Y-70320D02*
X15714Y-70320D01*
X5714Y-70320D02*
X-5714Y-70320D01*
X-15714Y-70320D02*
X-27143Y-70320D01*
X-37143Y-70320D02*
X-48571Y-70320D01*
X-58571Y-70320D02*
X-70000Y-70320D01*
X-70000Y-58891D01*
X-70000Y-48891D02*
X-70000Y-37463D01*
X-70000Y-27463D02*
X-70000Y-16034D01*
X-70000Y-6034D02*
X-70000Y5394D01*
X-70000Y15394D02*
X-70000Y26823D01*
X-70000Y36823D02*
X-70000Y48251D01*
X-70000Y58251D02*
X-70000Y69680D01*
D11*
X154629Y-142776D02*
X154631Y-142846D01*
X154637Y-142915D01*
X154647Y-142984D01*
X154660Y-143052D01*
X154678Y-143120D01*
X154699Y-143186D01*
X154724Y-143251D01*
X154752Y-143315D01*
X154784Y-143377D01*
X154819Y-143437D01*
X154858Y-143495D01*
X154900Y-143550D01*
X154945Y-143604D01*
X154993Y-143654D01*
X155043Y-143702D01*
X155097Y-143747D01*
X155152Y-143789D01*
X155210Y-143828D01*
X155270Y-143863D01*
X155332Y-143895D01*
X155396Y-143923D01*
X155461Y-143948D01*
X155527Y-143969D01*
X155595Y-143987D01*
X155663Y-144000D01*
X155732Y-144010D01*
X155801Y-144016D01*
X155871Y-144018D01*
X155970Y-144016D01*
X156068Y-144011D01*
X156166Y-144001D01*
X156264Y-143988D01*
X156361Y-143972D01*
X156458Y-143952D01*
X156553Y-143928D01*
X156648Y-143900D01*
X156742Y-143869D01*
X156834Y-143835D01*
X156925Y-143797D01*
X157015Y-143756D01*
X157103Y-143711D01*
X157189Y-143663D01*
X157273Y-143612D01*
X157355Y-143558D01*
X157436Y-143500D01*
X157514Y-143440D01*
X157589Y-143377D01*
X157663Y-143311D01*
X157733Y-143242D01*
X157579Y-139672D02*
X157577Y-139602D01*
X157571Y-139533D01*
X157561Y-139464D01*
X157548Y-139396D01*
X157530Y-139328D01*
X157509Y-139262D01*
X157484Y-139197D01*
X157456Y-139133D01*
X157424Y-139071D01*
X157389Y-139011D01*
X157350Y-138953D01*
X157308Y-138898D01*
X157263Y-138844D01*
X157215Y-138794D01*
X157165Y-138746D01*
X157111Y-138701D01*
X157056Y-138659D01*
X156998Y-138620D01*
X156938Y-138585D01*
X156876Y-138553D01*
X156812Y-138525D01*
X156747Y-138500D01*
X156681Y-138479D01*
X156613Y-138461D01*
X156545Y-138448D01*
X156476Y-138438D01*
X156407Y-138432D01*
X156337Y-138430D01*
X156243Y-138432D01*
X156150Y-138438D01*
X156057Y-138447D01*
X155964Y-138460D01*
X155872Y-138477D01*
X155781Y-138497D01*
X155690Y-138522D01*
X155601Y-138549D01*
X155513Y-138581D01*
X155426Y-138616D01*
X155340Y-138654D01*
X155256Y-138696D01*
X155174Y-138741D01*
X155094Y-138789D01*
X155016Y-138841D01*
X154940Y-138896D01*
X156958Y-140758D02*
X157017Y-140722D01*
X157073Y-140682D01*
X157127Y-140639D01*
X157179Y-140594D01*
X157228Y-140545D01*
X157274Y-140494D01*
X157317Y-140441D01*
X157358Y-140385D01*
X157395Y-140327D01*
X157430Y-140267D01*
X157460Y-140206D01*
X157488Y-140143D01*
X157512Y-140078D01*
X157532Y-140012D01*
X157549Y-139945D01*
X157562Y-139878D01*
X157571Y-139810D01*
X157577Y-139741D01*
X157579Y-139672D01*
X155251Y-141690D02*
X155192Y-141726D01*
X155136Y-141766D01*
X155082Y-141809D01*
X155030Y-141854D01*
X154981Y-141903D01*
X154935Y-141954D01*
X154892Y-142007D01*
X154851Y-142063D01*
X154814Y-142121D01*
X154779Y-142180D01*
X154749Y-142242D01*
X154721Y-142305D01*
X154697Y-142370D01*
X154677Y-142436D01*
X154660Y-142503D01*
X154647Y-142570D01*
X154638Y-142638D01*
X154632Y-142707D01*
X154630Y-142776D01*
X155250Y-141690D02*
X156958Y-140758D01*
X152237Y-138430D02*
X152237Y-144018D01*
X149753Y-144018D01*
X147986Y-144018D02*
X146123Y-138430D01*
X144261Y-144018D01*
X144726Y-142621D02*
X147520Y-142621D01*
X142134Y-141845D02*
X138409Y-141845D01*
X135971Y-139672D02*
X134419Y-138430D01*
X134419Y-144018D01*
X135971Y-144018D02*
X132867Y-144018D01*
X130485Y-144018D02*
X128622Y-144018D01*
X128552Y-144016D01*
X128483Y-144010D01*
X128414Y-144000D01*
X128346Y-143987D01*
X128278Y-143969D01*
X128212Y-143948D01*
X128147Y-143923D01*
X128083Y-143895D01*
X128021Y-143863D01*
X127961Y-143828D01*
X127903Y-143789D01*
X127848Y-143747D01*
X127794Y-143702D01*
X127744Y-143654D01*
X127696Y-143604D01*
X127651Y-143550D01*
X127609Y-143495D01*
X127570Y-143437D01*
X127535Y-143377D01*
X127503Y-143315D01*
X127475Y-143251D01*
X127450Y-143186D01*
X127429Y-143120D01*
X127411Y-143052D01*
X127398Y-142984D01*
X127388Y-142915D01*
X127382Y-142846D01*
X127380Y-142776D01*
X127381Y-142776D02*
X127381Y-142155D01*
X127380Y-142155D02*
X127382Y-142085D01*
X127388Y-142016D01*
X127398Y-141947D01*
X127411Y-141879D01*
X127429Y-141811D01*
X127450Y-141745D01*
X127475Y-141680D01*
X127503Y-141616D01*
X127535Y-141554D01*
X127570Y-141494D01*
X127609Y-141436D01*
X127651Y-141381D01*
X127696Y-141327D01*
X127744Y-141277D01*
X127794Y-141229D01*
X127848Y-141184D01*
X127903Y-141142D01*
X127961Y-141103D01*
X128021Y-141068D01*
X128083Y-141036D01*
X128147Y-141008D01*
X128212Y-140983D01*
X128278Y-140962D01*
X128346Y-140944D01*
X128414Y-140931D01*
X128483Y-140921D01*
X128552Y-140915D01*
X128622Y-140913D01*
X128622Y-140914D02*
X130485Y-140914D01*
X130485Y-138430D01*
X127381Y-138430D01*
X124533Y-139206D02*
X124589Y-139324D01*
X124641Y-139444D01*
X124690Y-139565D01*
X124735Y-139687D01*
X124777Y-139811D01*
X124815Y-139936D01*
X124850Y-140062D01*
X124881Y-140189D01*
X124909Y-140316D01*
X124933Y-140444D01*
X124953Y-140573D01*
X124969Y-140703D01*
X124982Y-140833D01*
X124992Y-140963D01*
X124997Y-141093D01*
X124999Y-141224D01*
X124533Y-139206D02*
X124510Y-139146D01*
X124484Y-139086D01*
X124455Y-139029D01*
X124422Y-138973D01*
X124386Y-138919D01*
X124348Y-138867D01*
X124306Y-138817D01*
X124262Y-138770D01*
X124215Y-138725D01*
X124165Y-138683D01*
X124114Y-138644D01*
X124060Y-138608D01*
X124004Y-138575D01*
X123947Y-138545D01*
X123888Y-138518D01*
X123827Y-138495D01*
X123766Y-138475D01*
X123703Y-138459D01*
X123639Y-138446D01*
X123575Y-138437D01*
X123511Y-138432D01*
X123446Y-138430D01*
X123381Y-138432D01*
X123317Y-138437D01*
X123253Y-138446D01*
X123189Y-138459D01*
X123126Y-138475D01*
X123065Y-138495D01*
X123004Y-138518D01*
X122945Y-138545D01*
X122888Y-138575D01*
X122832Y-138608D01*
X122778Y-138644D01*
X122727Y-138683D01*
X122677Y-138725D01*
X122630Y-138770D01*
X122586Y-138817D01*
X122544Y-138867D01*
X122506Y-138919D01*
X122470Y-138973D01*
X122437Y-139029D01*
X122408Y-139086D01*
X122382Y-139146D01*
X122359Y-139206D01*
X122360Y-139206D02*
X122304Y-139324D01*
X122252Y-139444D01*
X122203Y-139565D01*
X122158Y-139687D01*
X122116Y-139811D01*
X122078Y-139936D01*
X122043Y-140062D01*
X122012Y-140188D01*
X121984Y-140316D01*
X121960Y-140444D01*
X121940Y-140573D01*
X121924Y-140703D01*
X121911Y-140833D01*
X121901Y-140963D01*
X121896Y-141093D01*
X121894Y-141224D01*
X124999Y-141224D02*
X124997Y-141355D01*
X124992Y-141485D01*
X124982Y-141615D01*
X124969Y-141745D01*
X124953Y-141875D01*
X124933Y-142004D01*
X124909Y-142132D01*
X124881Y-142259D01*
X124850Y-142386D01*
X124815Y-142512D01*
X124777Y-142637D01*
X124735Y-142761D01*
X124690Y-142883D01*
X124641Y-143004D01*
X124589Y-143124D01*
X124533Y-143242D01*
X124510Y-143302D01*
X124484Y-143362D01*
X124455Y-143419D01*
X124422Y-143475D01*
X124386Y-143529D01*
X124348Y-143581D01*
X124306Y-143631D01*
X124262Y-143678D01*
X124215Y-143723D01*
X124165Y-143765D01*
X124114Y-143804D01*
X124060Y-143840D01*
X124004Y-143873D01*
X123947Y-143903D01*
X123888Y-143930D01*
X123827Y-143953D01*
X123766Y-143973D01*
X123703Y-143989D01*
X123639Y-144002D01*
X123575Y-144011D01*
X123511Y-144016D01*
X123446Y-144018D01*
X122360Y-143242D02*
X122304Y-143124D01*
X122252Y-143004D01*
X122203Y-142883D01*
X122158Y-142761D01*
X122116Y-142637D01*
X122078Y-142512D01*
X122043Y-142386D01*
X122012Y-142260D01*
X121984Y-142132D01*
X121960Y-142004D01*
X121940Y-141875D01*
X121924Y-141745D01*
X121911Y-141615D01*
X121901Y-141485D01*
X121896Y-141355D01*
X121894Y-141224D01*
X122359Y-143242D02*
X122382Y-143302D01*
X122408Y-143362D01*
X122437Y-143419D01*
X122470Y-143475D01*
X122506Y-143529D01*
X122544Y-143581D01*
X122586Y-143631D01*
X122630Y-143678D01*
X122677Y-143723D01*
X122727Y-143765D01*
X122778Y-143804D01*
X122832Y-143840D01*
X122888Y-143873D01*
X122945Y-143903D01*
X123004Y-143930D01*
X123065Y-143953D01*
X123126Y-143973D01*
X123189Y-143989D01*
X123253Y-144002D01*
X123317Y-144011D01*
X123381Y-144016D01*
X123446Y-144018D01*
X124688Y-142776D02*
X122205Y-139672D01*
X119512Y-141224D02*
X119510Y-141093D01*
X119505Y-140963D01*
X119495Y-140833D01*
X119482Y-140703D01*
X119466Y-140573D01*
X119446Y-140444D01*
X119422Y-140316D01*
X119394Y-140189D01*
X119363Y-140062D01*
X119328Y-139936D01*
X119290Y-139811D01*
X119248Y-139687D01*
X119203Y-139565D01*
X119154Y-139444D01*
X119102Y-139324D01*
X119046Y-139206D01*
X119047Y-139206D02*
X119024Y-139146D01*
X118998Y-139086D01*
X118969Y-139029D01*
X118936Y-138973D01*
X118900Y-138919D01*
X118862Y-138867D01*
X118820Y-138817D01*
X118776Y-138770D01*
X118729Y-138725D01*
X118679Y-138683D01*
X118628Y-138644D01*
X118574Y-138608D01*
X118518Y-138575D01*
X118461Y-138545D01*
X118402Y-138518D01*
X118341Y-138495D01*
X118280Y-138475D01*
X118217Y-138459D01*
X118153Y-138446D01*
X118089Y-138437D01*
X118025Y-138432D01*
X117960Y-138430D01*
X117895Y-138432D01*
X117831Y-138437D01*
X117767Y-138446D01*
X117703Y-138459D01*
X117640Y-138475D01*
X117579Y-138495D01*
X117518Y-138518D01*
X117459Y-138545D01*
X117402Y-138575D01*
X117346Y-138608D01*
X117292Y-138644D01*
X117241Y-138683D01*
X117191Y-138725D01*
X117144Y-138770D01*
X117100Y-138817D01*
X117058Y-138867D01*
X117020Y-138919D01*
X116984Y-138973D01*
X116951Y-139029D01*
X116922Y-139086D01*
X116896Y-139146D01*
X116873Y-139206D01*
X116874Y-139206D02*
X116818Y-139324D01*
X116766Y-139444D01*
X116717Y-139565D01*
X116672Y-139687D01*
X116630Y-139811D01*
X116592Y-139936D01*
X116557Y-140062D01*
X116526Y-140188D01*
X116498Y-140316D01*
X116474Y-140444D01*
X116454Y-140573D01*
X116438Y-140703D01*
X116425Y-140833D01*
X116415Y-140963D01*
X116410Y-141093D01*
X116408Y-141224D01*
X119512Y-141224D02*
X119510Y-141355D01*
X119505Y-141485D01*
X119495Y-141615D01*
X119482Y-141745D01*
X119466Y-141875D01*
X119446Y-142004D01*
X119422Y-142132D01*
X119394Y-142259D01*
X119363Y-142386D01*
X119328Y-142512D01*
X119290Y-142637D01*
X119248Y-142761D01*
X119203Y-142883D01*
X119154Y-143004D01*
X119102Y-143124D01*
X119046Y-143242D01*
X119047Y-143242D02*
X119024Y-143302D01*
X118998Y-143362D01*
X118969Y-143419D01*
X118936Y-143475D01*
X118900Y-143529D01*
X118862Y-143581D01*
X118820Y-143631D01*
X118776Y-143678D01*
X118729Y-143723D01*
X118679Y-143765D01*
X118628Y-143804D01*
X118574Y-143840D01*
X118518Y-143873D01*
X118461Y-143903D01*
X118402Y-143930D01*
X118341Y-143953D01*
X118280Y-143973D01*
X118217Y-143989D01*
X118153Y-144002D01*
X118089Y-144011D01*
X118025Y-144016D01*
X117960Y-144018D01*
X116874Y-143242D02*
X116818Y-143124D01*
X116766Y-143004D01*
X116717Y-142883D01*
X116672Y-142761D01*
X116630Y-142637D01*
X116592Y-142512D01*
X116557Y-142386D01*
X116526Y-142260D01*
X116498Y-142132D01*
X116474Y-142004D01*
X116454Y-141875D01*
X116438Y-141745D01*
X116425Y-141615D01*
X116415Y-141485D01*
X116410Y-141355D01*
X116408Y-141224D01*
X116873Y-143242D02*
X116896Y-143302D01*
X116922Y-143362D01*
X116951Y-143419D01*
X116984Y-143475D01*
X117020Y-143529D01*
X117058Y-143581D01*
X117100Y-143631D01*
X117144Y-143678D01*
X117191Y-143723D01*
X117241Y-143765D01*
X117292Y-143804D01*
X117346Y-143840D01*
X117402Y-143873D01*
X117459Y-143903D01*
X117518Y-143930D01*
X117579Y-143953D01*
X117640Y-143973D01*
X117703Y-143989D01*
X117767Y-144002D01*
X117831Y-144011D01*
X117895Y-144016D01*
X117960Y-144018D01*
X119202Y-142776D02*
X116718Y-139672D01*
X113971Y-141845D02*
X110245Y-141845D01*
X106583Y-144018D02*
X105341Y-144018D01*
X106583Y-144018D02*
X106653Y-144016D01*
X106722Y-144010D01*
X106791Y-144000D01*
X106859Y-143987D01*
X106927Y-143969D01*
X106993Y-143948D01*
X107058Y-143923D01*
X107122Y-143895D01*
X107184Y-143863D01*
X107244Y-143828D01*
X107302Y-143789D01*
X107357Y-143747D01*
X107411Y-143702D01*
X107461Y-143654D01*
X107509Y-143604D01*
X107554Y-143550D01*
X107596Y-143495D01*
X107635Y-143437D01*
X107670Y-143377D01*
X107702Y-143315D01*
X107730Y-143251D01*
X107755Y-143186D01*
X107776Y-143120D01*
X107794Y-143052D01*
X107807Y-142984D01*
X107817Y-142915D01*
X107823Y-142846D01*
X107825Y-142776D01*
X107824Y-142776D02*
X107824Y-139672D01*
X107825Y-139672D02*
X107823Y-139602D01*
X107817Y-139533D01*
X107807Y-139464D01*
X107794Y-139396D01*
X107776Y-139328D01*
X107755Y-139262D01*
X107730Y-139197D01*
X107702Y-139133D01*
X107670Y-139071D01*
X107635Y-139011D01*
X107596Y-138953D01*
X107554Y-138898D01*
X107509Y-138844D01*
X107461Y-138794D01*
X107411Y-138746D01*
X107357Y-138701D01*
X107302Y-138659D01*
X107244Y-138620D01*
X107184Y-138585D01*
X107122Y-138553D01*
X107058Y-138525D01*
X106993Y-138500D01*
X106927Y-138479D01*
X106859Y-138461D01*
X106791Y-138448D01*
X106722Y-138438D01*
X106653Y-138432D01*
X106583Y-138430D01*
X105341Y-138430D01*
X101684Y-138430D02*
X103547Y-144018D01*
X99821Y-144018D02*
X101684Y-138430D01*
X100287Y-142621D02*
X103081Y-142621D01*
X97512Y-144018D02*
X97512Y-138430D01*
X95649Y-141534D01*
X93786Y-138430D01*
X93786Y-144018D01*
X91111Y-141845D02*
X87385Y-141845D01*
X84729Y-144018D02*
X84729Y-138430D01*
X83177Y-138430D01*
X83100Y-138432D01*
X83022Y-138438D01*
X82946Y-138447D01*
X82869Y-138461D01*
X82794Y-138478D01*
X82720Y-138499D01*
X82646Y-138524D01*
X82574Y-138552D01*
X82504Y-138584D01*
X82435Y-138619D01*
X82368Y-138658D01*
X82303Y-138700D01*
X82240Y-138745D01*
X82179Y-138793D01*
X82121Y-138844D01*
X82066Y-138898D01*
X82013Y-138955D01*
X81964Y-139014D01*
X81917Y-139076D01*
X81873Y-139140D01*
X81833Y-139206D01*
X81796Y-139274D01*
X81762Y-139344D01*
X81732Y-139415D01*
X81706Y-139488D01*
X81683Y-139562D01*
X81664Y-139637D01*
X81649Y-139712D01*
X81637Y-139789D01*
X81629Y-139866D01*
X81625Y-139943D01*
X81625Y-140021D01*
X81629Y-140098D01*
X81637Y-140175D01*
X81649Y-140252D01*
X81664Y-140327D01*
X81683Y-140402D01*
X81706Y-140476D01*
X81732Y-140549D01*
X81762Y-140620D01*
X81796Y-140690D01*
X81833Y-140758D01*
X81873Y-140824D01*
X81917Y-140888D01*
X81964Y-140950D01*
X82013Y-141009D01*
X82066Y-141066D01*
X82121Y-141120D01*
X82179Y-141171D01*
X82240Y-141219D01*
X82303Y-141264D01*
X82368Y-141306D01*
X82435Y-141345D01*
X82504Y-141380D01*
X82574Y-141412D01*
X82646Y-141440D01*
X82720Y-141465D01*
X82794Y-141486D01*
X82869Y-141503D01*
X82946Y-141517D01*
X83022Y-141526D01*
X83100Y-141532D01*
X83177Y-141534D01*
X84729Y-141534D01*
X82867Y-141534D02*
X81625Y-144018D01*
X79085Y-144018D02*
X76601Y-144018D01*
X79085Y-144018D02*
X79085Y-138430D01*
X76601Y-138430D01*
X77222Y-140914D02*
X79085Y-140914D01*
X74835Y-138430D02*
X72972Y-144018D01*
X71109Y-138430D01*
X66112Y-138430D02*
X66112Y-139051D01*
X66112Y-138430D02*
X63007Y-138430D01*
X64560Y-144018D01*
X60874Y-144018D02*
X60874Y-143708D01*
X60564Y-143708D01*
X60564Y-144018D01*
X60874Y-144018D01*
X58431Y-141224D02*
X58429Y-141093D01*
X58424Y-140963D01*
X58414Y-140833D01*
X58401Y-140703D01*
X58385Y-140573D01*
X58365Y-140444D01*
X58341Y-140316D01*
X58313Y-140189D01*
X58282Y-140062D01*
X58247Y-139936D01*
X58209Y-139811D01*
X58167Y-139687D01*
X58122Y-139565D01*
X58073Y-139444D01*
X58021Y-139324D01*
X57965Y-139206D01*
X57966Y-139206D02*
X57943Y-139146D01*
X57917Y-139086D01*
X57888Y-139029D01*
X57855Y-138973D01*
X57819Y-138919D01*
X57781Y-138867D01*
X57739Y-138817D01*
X57695Y-138770D01*
X57648Y-138725D01*
X57598Y-138683D01*
X57547Y-138644D01*
X57493Y-138608D01*
X57437Y-138575D01*
X57380Y-138545D01*
X57321Y-138518D01*
X57260Y-138495D01*
X57199Y-138475D01*
X57136Y-138459D01*
X57072Y-138446D01*
X57008Y-138437D01*
X56944Y-138432D01*
X56879Y-138430D01*
X56814Y-138432D01*
X56750Y-138437D01*
X56686Y-138446D01*
X56622Y-138459D01*
X56559Y-138475D01*
X56498Y-138495D01*
X56437Y-138518D01*
X56378Y-138545D01*
X56321Y-138575D01*
X56265Y-138608D01*
X56211Y-138644D01*
X56160Y-138683D01*
X56110Y-138725D01*
X56063Y-138770D01*
X56019Y-138817D01*
X55977Y-138867D01*
X55939Y-138919D01*
X55903Y-138973D01*
X55870Y-139029D01*
X55841Y-139086D01*
X55815Y-139146D01*
X55792Y-139206D01*
X55736Y-139324D01*
X55684Y-139444D01*
X55635Y-139565D01*
X55590Y-139687D01*
X55548Y-139811D01*
X55510Y-139936D01*
X55475Y-140062D01*
X55444Y-140188D01*
X55416Y-140316D01*
X55392Y-140444D01*
X55372Y-140573D01*
X55356Y-140703D01*
X55343Y-140833D01*
X55333Y-140963D01*
X55328Y-141093D01*
X55326Y-141224D01*
X58431Y-141224D02*
X58429Y-141355D01*
X58424Y-141485D01*
X58414Y-141615D01*
X58401Y-141745D01*
X58385Y-141875D01*
X58365Y-142004D01*
X58341Y-142132D01*
X58313Y-142259D01*
X58282Y-142386D01*
X58247Y-142512D01*
X58209Y-142637D01*
X58167Y-142761D01*
X58122Y-142883D01*
X58073Y-143004D01*
X58021Y-143124D01*
X57965Y-143242D01*
X57966Y-143242D02*
X57943Y-143302D01*
X57917Y-143362D01*
X57888Y-143419D01*
X57855Y-143475D01*
X57819Y-143529D01*
X57781Y-143581D01*
X57739Y-143631D01*
X57695Y-143678D01*
X57648Y-143723D01*
X57598Y-143765D01*
X57547Y-143804D01*
X57493Y-143840D01*
X57437Y-143873D01*
X57380Y-143903D01*
X57321Y-143930D01*
X57260Y-143953D01*
X57199Y-143973D01*
X57136Y-143989D01*
X57072Y-144002D01*
X57008Y-144011D01*
X56944Y-144016D01*
X56879Y-144018D01*
X55792Y-143242D02*
X55736Y-143124D01*
X55684Y-143004D01*
X55635Y-142883D01*
X55590Y-142761D01*
X55548Y-142637D01*
X55510Y-142512D01*
X55475Y-142386D01*
X55444Y-142260D01*
X55416Y-142132D01*
X55392Y-142004D01*
X55372Y-141875D01*
X55356Y-141745D01*
X55343Y-141615D01*
X55333Y-141485D01*
X55328Y-141355D01*
X55326Y-141224D01*
X55792Y-143242D02*
X55815Y-143302D01*
X55841Y-143362D01*
X55870Y-143419D01*
X55903Y-143475D01*
X55939Y-143529D01*
X55977Y-143581D01*
X56019Y-143631D01*
X56063Y-143678D01*
X56110Y-143723D01*
X56160Y-143765D01*
X56211Y-143804D01*
X56265Y-143840D01*
X56321Y-143873D01*
X56378Y-143903D01*
X56437Y-143930D01*
X56498Y-143953D01*
X56559Y-143973D01*
X56622Y-143989D01*
X56686Y-144002D01*
X56750Y-144011D01*
X56814Y-144016D01*
X56879Y-144018D01*
X58120Y-142776D02*
X55637Y-139672D01*
D12*
X-126152Y-110710D02*
X-131402Y-110710D01*
X-126152Y-110710D02*
X-83652Y-110710D01*
X-78402Y-110710D01*
X-78402Y-150710D01*
X-79902Y-150710D01*
X-129902Y-150710D01*
X-131402Y-150710D01*
X-131402Y-110710D01*
D11*
X-131152Y-140710D02*
X-126152Y-140710D01*
X-123652Y-140710D01*
X-123652Y-134460D01*
X-86152Y-134460D01*
X-86152Y-140710D02*
X-83652Y-140710D01*
X-78652Y-140710D01*
X-86152Y-140710D02*
X-86152Y-134460D01*
X-126152Y-116960D02*
X-131152Y-116960D01*
X-126152Y-116960D02*
X-126152Y-110710D01*
X-83652Y-116960D02*
X-78652Y-116960D01*
X-83652Y-116960D02*
X-83652Y-110710D01*
X-126152Y-140710D02*
X-126152Y-146960D01*
X-83652Y-146960D01*
X-83652Y-140710D01*
X-126152Y-146960D02*
X-129902Y-150710D01*
X-83652Y-146960D02*
X-79902Y-150710D01*
X-119902Y-116960D02*
X-119902Y-111960D01*
X-119902Y-116960D02*
X-114902Y-116960D01*
X-114902Y-111960D01*
X-107402Y-111960D02*
X-107402Y-116960D01*
X-102402Y-116960D01*
X-102402Y-111960D01*
X-94902Y-111960D02*
X-94902Y-116960D01*
X-89902Y-116960D01*
X-89902Y-111960D01*
D13*
X-117402Y-138835D03*
X-104902Y-138835D03*
X-92402Y-138835D03*
D11*
X-102174Y-125679D02*
X-102174Y-121333D01*
X-102174Y-125679D02*
X-102172Y-125749D01*
X-102166Y-125818D01*
X-102156Y-125887D01*
X-102143Y-125955D01*
X-102125Y-126023D01*
X-102104Y-126089D01*
X-102079Y-126154D01*
X-102051Y-126218D01*
X-102019Y-126280D01*
X-101984Y-126340D01*
X-101945Y-126398D01*
X-101903Y-126453D01*
X-101858Y-126507D01*
X-101810Y-126557D01*
X-101760Y-126605D01*
X-101706Y-126650D01*
X-101651Y-126692D01*
X-101593Y-126731D01*
X-101533Y-126766D01*
X-101471Y-126798D01*
X-101407Y-126826D01*
X-101342Y-126851D01*
X-101276Y-126872D01*
X-101208Y-126890D01*
X-101140Y-126903D01*
X-101071Y-126913D01*
X-101002Y-126919D01*
X-100932Y-126921D01*
X-100311Y-126921D01*
X-104716Y-126921D02*
X-106268Y-126921D01*
X-106345Y-126919D01*
X-106423Y-126913D01*
X-106499Y-126904D01*
X-106576Y-126890D01*
X-106651Y-126873D01*
X-106725Y-126852D01*
X-106799Y-126827D01*
X-106871Y-126799D01*
X-106941Y-126767D01*
X-107010Y-126732D01*
X-107077Y-126693D01*
X-107142Y-126651D01*
X-107205Y-126606D01*
X-107266Y-126558D01*
X-107324Y-126507D01*
X-107379Y-126453D01*
X-107432Y-126396D01*
X-107481Y-126337D01*
X-107528Y-126275D01*
X-107572Y-126211D01*
X-107612Y-126145D01*
X-107649Y-126077D01*
X-107683Y-126007D01*
X-107713Y-125936D01*
X-107739Y-125863D01*
X-107762Y-125789D01*
X-107781Y-125714D01*
X-107796Y-125639D01*
X-107808Y-125562D01*
X-107816Y-125485D01*
X-107820Y-125408D01*
X-107820Y-125330D01*
X-107816Y-125253D01*
X-107808Y-125176D01*
X-107796Y-125099D01*
X-107781Y-125024D01*
X-107762Y-124949D01*
X-107739Y-124875D01*
X-107713Y-124802D01*
X-107683Y-124731D01*
X-107649Y-124661D01*
X-107612Y-124593D01*
X-107572Y-124527D01*
X-107528Y-124463D01*
X-107481Y-124401D01*
X-107432Y-124342D01*
X-107379Y-124285D01*
X-107324Y-124231D01*
X-107266Y-124180D01*
X-107205Y-124132D01*
X-107142Y-124087D01*
X-107077Y-124045D01*
X-107010Y-124006D01*
X-106941Y-123971D01*
X-106871Y-123939D01*
X-106799Y-123911D01*
X-106725Y-123886D01*
X-106651Y-123865D01*
X-106576Y-123848D01*
X-106499Y-123834D01*
X-106423Y-123825D01*
X-106345Y-123819D01*
X-106268Y-123817D01*
X-106578Y-121333D02*
X-104716Y-121333D01*
X-106578Y-121333D02*
X-106648Y-121335D01*
X-106717Y-121341D01*
X-106786Y-121351D01*
X-106854Y-121364D01*
X-106922Y-121382D01*
X-106988Y-121403D01*
X-107053Y-121428D01*
X-107117Y-121456D01*
X-107179Y-121488D01*
X-107239Y-121523D01*
X-107297Y-121562D01*
X-107352Y-121604D01*
X-107406Y-121649D01*
X-107456Y-121697D01*
X-107504Y-121747D01*
X-107549Y-121801D01*
X-107591Y-121856D01*
X-107630Y-121914D01*
X-107665Y-121974D01*
X-107697Y-122036D01*
X-107725Y-122100D01*
X-107750Y-122165D01*
X-107771Y-122231D01*
X-107789Y-122299D01*
X-107802Y-122367D01*
X-107812Y-122436D01*
X-107818Y-122505D01*
X-107820Y-122575D01*
X-107818Y-122645D01*
X-107812Y-122714D01*
X-107802Y-122783D01*
X-107789Y-122851D01*
X-107771Y-122919D01*
X-107750Y-122985D01*
X-107725Y-123050D01*
X-107697Y-123114D01*
X-107665Y-123176D01*
X-107630Y-123236D01*
X-107591Y-123294D01*
X-107549Y-123349D01*
X-107504Y-123403D01*
X-107456Y-123453D01*
X-107406Y-123501D01*
X-107352Y-123546D01*
X-107297Y-123588D01*
X-107239Y-123627D01*
X-107179Y-123662D01*
X-107117Y-123694D01*
X-107053Y-123722D01*
X-106988Y-123747D01*
X-106922Y-123768D01*
X-106854Y-123786D01*
X-106786Y-123799D01*
X-106717Y-123809D01*
X-106648Y-123815D01*
X-106578Y-123817D01*
X-105337Y-123817D01*
D12*
X147286Y-8366D02*
X147286Y-3116D01*
X147286Y51884D01*
X147286Y57134D01*
X187286Y57134D01*
X187286Y55634D01*
X187286Y-6866D01*
X187286Y-8366D01*
X147286Y-8366D01*
D11*
X177286Y-8116D02*
X177286Y-3116D01*
X177286Y-616D01*
X171036Y-616D01*
X171036Y49384D01*
X177286Y49384D02*
X177286Y51884D01*
X177286Y56884D01*
X177286Y49384D02*
X171036Y49384D01*
X153536Y-3116D02*
X153536Y-8116D01*
X153536Y-3116D02*
X147286Y-3116D01*
X153536Y51884D02*
X153536Y56884D01*
X153536Y51884D02*
X147286Y51884D01*
X177286Y-3116D02*
X183536Y-3116D01*
X183536Y51884D01*
X177286Y51884D01*
X183536Y-3116D02*
X187286Y-6866D01*
X183536Y51884D02*
X187286Y55634D01*
X153536Y3134D02*
X148536Y3134D01*
X153536Y3134D02*
X153536Y8134D01*
X148536Y8134D01*
X148536Y15634D02*
X153536Y15634D01*
X153536Y20634D01*
X148536Y20634D01*
X148536Y28134D02*
X153536Y28134D01*
X153536Y33134D01*
X148536Y33134D01*
X148536Y40634D02*
X153536Y40634D01*
X153536Y45634D01*
X148536Y45634D01*
D14*
X175411Y5634D03*
X175411Y18134D03*
X175411Y30634D03*
X175411Y43134D03*
D11*
X163793Y31869D02*
X163793Y27523D01*
X163795Y27453D01*
X163801Y27384D01*
X163811Y27315D01*
X163824Y27247D01*
X163842Y27179D01*
X163863Y27113D01*
X163888Y27048D01*
X163916Y26984D01*
X163948Y26922D01*
X163983Y26862D01*
X164022Y26804D01*
X164064Y26749D01*
X164109Y26695D01*
X164157Y26645D01*
X164207Y26597D01*
X164261Y26552D01*
X164316Y26510D01*
X164374Y26471D01*
X164434Y26436D01*
X164496Y26404D01*
X164560Y26376D01*
X164625Y26351D01*
X164691Y26330D01*
X164759Y26312D01*
X164827Y26299D01*
X164896Y26289D01*
X164965Y26283D01*
X165035Y26281D01*
X165656Y26281D01*
X161251Y27523D02*
X160010Y31869D01*
X161251Y27523D02*
X158147Y27523D01*
X159078Y28765D02*
X159078Y26281D01*
D12*
X-147540Y-5604D02*
X-147540Y-10854D01*
X-147540Y-65854D01*
X-147540Y-71104D01*
X-187540Y-71104D01*
X-187540Y-69604D01*
X-187540Y-7104D01*
X-187540Y-5604D01*
X-147540Y-5604D01*
D11*
X-177540Y-5854D02*
X-177540Y-10854D01*
X-177540Y-13354D01*
X-171290Y-13354D01*
X-171290Y-63354D01*
X-177540Y-63354D02*
X-177540Y-65854D01*
X-177540Y-70854D01*
X-177540Y-63354D02*
X-171290Y-63354D01*
X-153790Y-10854D02*
X-153790Y-5854D01*
X-153790Y-10854D02*
X-147540Y-10854D01*
X-153790Y-65854D02*
X-153790Y-70854D01*
X-153790Y-65854D02*
X-147540Y-65854D01*
X-177540Y-10854D02*
X-183790Y-10854D01*
X-183790Y-65854D01*
X-177540Y-65854D01*
X-183790Y-10854D02*
X-187540Y-7104D01*
X-183790Y-65854D02*
X-187540Y-69604D01*
X-153790Y-17104D02*
X-148790Y-17104D01*
X-153790Y-17104D02*
X-153790Y-22104D01*
X-148790Y-22104D01*
X-148790Y-29604D02*
X-153790Y-29604D01*
X-153790Y-34604D01*
X-148790Y-34604D01*
X-148790Y-42104D02*
X-153790Y-42104D01*
X-153790Y-47104D01*
X-148790Y-47104D01*
X-148790Y-54604D02*
X-153790Y-54604D01*
X-153790Y-59604D01*
X-148790Y-59604D01*
D14*
X-175665Y-19604D03*
X-175665Y-32104D03*
X-175665Y-44604D03*
X-175665Y-57104D03*
D11*
X-161677Y-36215D02*
X-161677Y-31869D01*
X-161677Y-36215D02*
X-161675Y-36285D01*
X-161669Y-36354D01*
X-161659Y-36423D01*
X-161646Y-36491D01*
X-161628Y-36559D01*
X-161607Y-36625D01*
X-161582Y-36690D01*
X-161554Y-36754D01*
X-161522Y-36816D01*
X-161487Y-36876D01*
X-161448Y-36934D01*
X-161406Y-36989D01*
X-161361Y-37043D01*
X-161313Y-37093D01*
X-161263Y-37141D01*
X-161209Y-37186D01*
X-161154Y-37228D01*
X-161096Y-37267D01*
X-161036Y-37302D01*
X-160974Y-37334D01*
X-160910Y-37362D01*
X-160845Y-37387D01*
X-160779Y-37408D01*
X-160711Y-37426D01*
X-160643Y-37439D01*
X-160574Y-37449D01*
X-160505Y-37455D01*
X-160435Y-37457D01*
X-159814Y-37457D01*
X-164219Y-34353D02*
X-166081Y-34353D01*
X-166081Y-34352D02*
X-166151Y-34354D01*
X-166220Y-34360D01*
X-166289Y-34370D01*
X-166357Y-34383D01*
X-166425Y-34401D01*
X-166491Y-34422D01*
X-166556Y-34447D01*
X-166620Y-34475D01*
X-166682Y-34507D01*
X-166742Y-34542D01*
X-166800Y-34581D01*
X-166855Y-34623D01*
X-166909Y-34668D01*
X-166959Y-34716D01*
X-167007Y-34766D01*
X-167052Y-34820D01*
X-167094Y-34875D01*
X-167133Y-34933D01*
X-167168Y-34993D01*
X-167200Y-35055D01*
X-167228Y-35119D01*
X-167253Y-35184D01*
X-167274Y-35250D01*
X-167292Y-35318D01*
X-167305Y-35386D01*
X-167315Y-35455D01*
X-167321Y-35524D01*
X-167323Y-35594D01*
X-167323Y-35905D01*
X-167321Y-35982D01*
X-167315Y-36060D01*
X-167306Y-36136D01*
X-167292Y-36213D01*
X-167275Y-36288D01*
X-167254Y-36362D01*
X-167229Y-36436D01*
X-167201Y-36508D01*
X-167169Y-36578D01*
X-167134Y-36647D01*
X-167095Y-36714D01*
X-167053Y-36779D01*
X-167008Y-36842D01*
X-166960Y-36903D01*
X-166909Y-36961D01*
X-166855Y-37016D01*
X-166798Y-37069D01*
X-166739Y-37118D01*
X-166677Y-37165D01*
X-166613Y-37209D01*
X-166547Y-37249D01*
X-166479Y-37286D01*
X-166409Y-37320D01*
X-166338Y-37350D01*
X-166265Y-37376D01*
X-166191Y-37399D01*
X-166116Y-37418D01*
X-166041Y-37433D01*
X-165964Y-37445D01*
X-165887Y-37453D01*
X-165810Y-37457D01*
X-165732Y-37457D01*
X-165655Y-37453D01*
X-165578Y-37445D01*
X-165501Y-37433D01*
X-165426Y-37418D01*
X-165351Y-37399D01*
X-165277Y-37376D01*
X-165204Y-37350D01*
X-165133Y-37320D01*
X-165063Y-37286D01*
X-164995Y-37249D01*
X-164929Y-37209D01*
X-164865Y-37165D01*
X-164803Y-37118D01*
X-164744Y-37069D01*
X-164687Y-37016D01*
X-164633Y-36961D01*
X-164582Y-36903D01*
X-164534Y-36842D01*
X-164489Y-36779D01*
X-164447Y-36714D01*
X-164408Y-36647D01*
X-164373Y-36578D01*
X-164341Y-36508D01*
X-164313Y-36436D01*
X-164288Y-36362D01*
X-164267Y-36288D01*
X-164250Y-36213D01*
X-164236Y-36136D01*
X-164227Y-36060D01*
X-164221Y-35982D01*
X-164219Y-35905D01*
X-164219Y-34353D01*
X-164218Y-34353D02*
X-164220Y-34255D01*
X-164226Y-34158D01*
X-164235Y-34061D01*
X-164249Y-33964D01*
X-164266Y-33868D01*
X-164287Y-33773D01*
X-164311Y-33679D01*
X-164340Y-33585D01*
X-164372Y-33493D01*
X-164407Y-33402D01*
X-164446Y-33313D01*
X-164489Y-33225D01*
X-164535Y-33139D01*
X-164584Y-33055D01*
X-164637Y-32973D01*
X-164692Y-32893D01*
X-164751Y-32815D01*
X-164813Y-32740D01*
X-164878Y-32667D01*
X-164946Y-32597D01*
X-165016Y-32529D01*
X-165089Y-32464D01*
X-165164Y-32402D01*
X-165242Y-32343D01*
X-165322Y-32288D01*
X-165404Y-32235D01*
X-165488Y-32186D01*
X-165574Y-32140D01*
X-165662Y-32097D01*
X-165751Y-32058D01*
X-165842Y-32023D01*
X-165934Y-31991D01*
X-166028Y-31962D01*
X-166122Y-31938D01*
X-166217Y-31917D01*
X-166313Y-31900D01*
X-166410Y-31886D01*
X-166507Y-31877D01*
X-166604Y-31871D01*
X-166702Y-31869D01*
D15*
X-167410Y65084D03*
X-167410Y72584D03*
D16*
X-167410Y68834D03*
D11*
X-158115Y75692D02*
X-158115Y81280D01*
X-158115Y75692D02*
X-160599Y75692D01*
X-162870Y75692D02*
X-165353Y75692D01*
X-162870Y75692D02*
X-162870Y81280D01*
X-165353Y81280D01*
X-164732Y78796D02*
X-162870Y78796D01*
X-167614Y81280D02*
X-167614Y75692D01*
X-167614Y81280D02*
X-169166Y81280D01*
X-169242Y81278D01*
X-169318Y81273D01*
X-169394Y81263D01*
X-169469Y81250D01*
X-169543Y81233D01*
X-169617Y81213D01*
X-169689Y81189D01*
X-169760Y81162D01*
X-169830Y81131D01*
X-169898Y81097D01*
X-169964Y81059D01*
X-170028Y81018D01*
X-170091Y80975D01*
X-170151Y80928D01*
X-170208Y80878D01*
X-170263Y80825D01*
X-170316Y80770D01*
X-170366Y80713D01*
X-170413Y80653D01*
X-170456Y80590D01*
X-170497Y80526D01*
X-170535Y80460D01*
X-170569Y80392D01*
X-170600Y80322D01*
X-170627Y80251D01*
X-170651Y80178D01*
X-170671Y80105D01*
X-170688Y80031D01*
X-170701Y79956D01*
X-170711Y79880D01*
X-170716Y79804D01*
X-170718Y79728D01*
X-170718Y77244D01*
X-170716Y77165D01*
X-170710Y77087D01*
X-170700Y77009D01*
X-170686Y76932D01*
X-170668Y76855D01*
X-170647Y76779D01*
X-170621Y76705D01*
X-170592Y76632D01*
X-170559Y76561D01*
X-170523Y76491D01*
X-170483Y76423D01*
X-170440Y76357D01*
X-170393Y76294D01*
X-170344Y76233D01*
X-170291Y76175D01*
X-170235Y76119D01*
X-170177Y76066D01*
X-170116Y76017D01*
X-170053Y75970D01*
X-169987Y75927D01*
X-169919Y75887D01*
X-169850Y75851D01*
X-169778Y75818D01*
X-169705Y75789D01*
X-169631Y75763D01*
X-169555Y75742D01*
X-169478Y75724D01*
X-169401Y75710D01*
X-169323Y75700D01*
X-169245Y75694D01*
X-169166Y75692D01*
X-167614Y75692D01*
X-173283Y80038D02*
X-174835Y81280D01*
X-174835Y75692D01*
X-173283Y75692D02*
X-176387Y75692D01*
D17*
X-153924Y62992D02*
X-153924Y57658D01*
X-153924Y62992D02*
X-155406Y62992D01*
X-155482Y62990D01*
X-155558Y62984D01*
X-155634Y62974D01*
X-155709Y62961D01*
X-155783Y62943D01*
X-155857Y62922D01*
X-155929Y62897D01*
X-155999Y62868D01*
X-156069Y62836D01*
X-156136Y62800D01*
X-156201Y62760D01*
X-156265Y62718D01*
X-156326Y62672D01*
X-156384Y62623D01*
X-156440Y62571D01*
X-156494Y62517D01*
X-156544Y62459D01*
X-156591Y62400D01*
X-156636Y62337D01*
X-156677Y62273D01*
X-156714Y62207D01*
X-156748Y62138D01*
X-156779Y62068D01*
X-156806Y61997D01*
X-156829Y61924D01*
X-156848Y61850D01*
X-156864Y61776D01*
X-156876Y61700D01*
X-156884Y61624D01*
X-156888Y61548D01*
X-156888Y61472D01*
X-156884Y61396D01*
X-156876Y61320D01*
X-156864Y61244D01*
X-156848Y61170D01*
X-156829Y61096D01*
X-156806Y61023D01*
X-156779Y60952D01*
X-156748Y60882D01*
X-156714Y60813D01*
X-156677Y60747D01*
X-156636Y60683D01*
X-156591Y60620D01*
X-156544Y60561D01*
X-156494Y60503D01*
X-156440Y60449D01*
X-156384Y60397D01*
X-156326Y60348D01*
X-156265Y60302D01*
X-156201Y60260D01*
X-156136Y60220D01*
X-156069Y60184D01*
X-155999Y60152D01*
X-155929Y60123D01*
X-155857Y60098D01*
X-155783Y60077D01*
X-155709Y60059D01*
X-155634Y60046D01*
X-155558Y60036D01*
X-155482Y60030D01*
X-155406Y60028D01*
X-155406Y60029D02*
X-153924Y60029D01*
X-155702Y60029D02*
X-156887Y57658D01*
X-160995Y62992D02*
X-161067Y62990D01*
X-161139Y62984D01*
X-161211Y62974D01*
X-161282Y62961D01*
X-161352Y62943D01*
X-161421Y62922D01*
X-161489Y62897D01*
X-161555Y62869D01*
X-161620Y62837D01*
X-161683Y62801D01*
X-161744Y62762D01*
X-161802Y62720D01*
X-161859Y62675D01*
X-161912Y62626D01*
X-161963Y62575D01*
X-162012Y62522D01*
X-162057Y62465D01*
X-162099Y62407D01*
X-162138Y62346D01*
X-162174Y62283D01*
X-162206Y62218D01*
X-162234Y62152D01*
X-162259Y62084D01*
X-162280Y62015D01*
X-162298Y61945D01*
X-162311Y61874D01*
X-162321Y61802D01*
X-162327Y61730D01*
X-162329Y61658D01*
X-160995Y62992D02*
X-160915Y62990D01*
X-160836Y62985D01*
X-160756Y62975D01*
X-160678Y62962D01*
X-160600Y62946D01*
X-160522Y62926D01*
X-160446Y62902D01*
X-160371Y62874D01*
X-160298Y62844D01*
X-160226Y62810D01*
X-160155Y62772D01*
X-160087Y62731D01*
X-160020Y62687D01*
X-159955Y62641D01*
X-159893Y62591D01*
X-159833Y62538D01*
X-159776Y62482D01*
X-159721Y62424D01*
X-159669Y62364D01*
X-159620Y62301D01*
X-159574Y62236D01*
X-159531Y62169D01*
X-159491Y62100D01*
X-159455Y62029D01*
X-159421Y61956D01*
X-159392Y61882D01*
X-159365Y61807D01*
X-161884Y60621D02*
X-161935Y60672D01*
X-161983Y60726D01*
X-162029Y60782D01*
X-162072Y60841D01*
X-162112Y60901D01*
X-162148Y60964D01*
X-162182Y61028D01*
X-162212Y61094D01*
X-162239Y61161D01*
X-162262Y61230D01*
X-162282Y61299D01*
X-162299Y61370D01*
X-162312Y61441D01*
X-162321Y61513D01*
X-162326Y61586D01*
X-162328Y61658D01*
X-161884Y60621D02*
X-159365Y57658D01*
X-162328Y57658D01*
X-164851Y57658D02*
X-166629Y57658D01*
X-166695Y57660D01*
X-166762Y57665D01*
X-166827Y57675D01*
X-166893Y57688D01*
X-166957Y57704D01*
X-167020Y57724D01*
X-167082Y57748D01*
X-167143Y57775D01*
X-167202Y57806D01*
X-167259Y57840D01*
X-167315Y57877D01*
X-167368Y57917D01*
X-167419Y57959D01*
X-167467Y58005D01*
X-167513Y58053D01*
X-167555Y58104D01*
X-167595Y58157D01*
X-167632Y58213D01*
X-167666Y58270D01*
X-167697Y58329D01*
X-167724Y58390D01*
X-167748Y58452D01*
X-167768Y58515D01*
X-167784Y58579D01*
X-167797Y58645D01*
X-167807Y58710D01*
X-167812Y58777D01*
X-167814Y58843D01*
X-167815Y58843D02*
X-167815Y59436D01*
X-167814Y59436D02*
X-167812Y59502D01*
X-167807Y59569D01*
X-167797Y59634D01*
X-167784Y59700D01*
X-167768Y59764D01*
X-167748Y59827D01*
X-167724Y59889D01*
X-167697Y59950D01*
X-167666Y60009D01*
X-167632Y60066D01*
X-167595Y60122D01*
X-167555Y60175D01*
X-167513Y60226D01*
X-167467Y60274D01*
X-167419Y60320D01*
X-167368Y60362D01*
X-167315Y60402D01*
X-167259Y60439D01*
X-167202Y60473D01*
X-167143Y60504D01*
X-167082Y60531D01*
X-167020Y60555D01*
X-166957Y60575D01*
X-166893Y60591D01*
X-166827Y60604D01*
X-166762Y60614D01*
X-166695Y60619D01*
X-166629Y60621D01*
X-164851Y60621D01*
X-164851Y62992D01*
X-167815Y62992D01*
D12*
X-148620Y61640D02*
X-148620Y34880D01*
X-120620Y34880D02*
X-120620Y61640D01*
X-133320Y27260D02*
X-135920Y27260D01*
X-135920Y69260D02*
X-133320Y69260D01*
D18*
X-142670Y48260D02*
X-142668Y48458D01*
X-142660Y48655D01*
X-142648Y48852D01*
X-142631Y49049D01*
X-142609Y49245D01*
X-142583Y49441D01*
X-142551Y49636D01*
X-142515Y49830D01*
X-142474Y50024D01*
X-142429Y50216D01*
X-142378Y50407D01*
X-142323Y50597D01*
X-142264Y50785D01*
X-142199Y50972D01*
X-142131Y51157D01*
X-142057Y51341D01*
X-141979Y51522D01*
X-141897Y51702D01*
X-141810Y51879D01*
X-141719Y52055D01*
X-141624Y52228D01*
X-141525Y52399D01*
X-141421Y52567D01*
X-141313Y52732D01*
X-141202Y52895D01*
X-141086Y53055D01*
X-140966Y53213D01*
X-140843Y53367D01*
X-140716Y53518D01*
X-140585Y53666D01*
X-140450Y53811D01*
X-140312Y53952D01*
X-140171Y54090D01*
X-140026Y54225D01*
X-139878Y54356D01*
X-139727Y54483D01*
X-139573Y54606D01*
X-139415Y54726D01*
X-139255Y54842D01*
X-139092Y54953D01*
X-138927Y55061D01*
X-138759Y55165D01*
X-138588Y55264D01*
X-138415Y55359D01*
X-138239Y55450D01*
X-138062Y55537D01*
X-137882Y55619D01*
X-137701Y55697D01*
X-137517Y55771D01*
X-137332Y55839D01*
X-137145Y55904D01*
X-136957Y55963D01*
X-136767Y56018D01*
X-136576Y56069D01*
X-136384Y56114D01*
X-136190Y56155D01*
X-135996Y56191D01*
X-135801Y56223D01*
X-135605Y56249D01*
X-135409Y56271D01*
X-135212Y56288D01*
X-135015Y56300D01*
X-134818Y56308D01*
X-134620Y56310D01*
X-134422Y56308D01*
X-134225Y56300D01*
X-134028Y56288D01*
X-133831Y56271D01*
X-133635Y56249D01*
X-133439Y56223D01*
X-133244Y56191D01*
X-133050Y56155D01*
X-132856Y56114D01*
X-132664Y56069D01*
X-132473Y56018D01*
X-132283Y55963D01*
X-132095Y55904D01*
X-131908Y55839D01*
X-131723Y55771D01*
X-131539Y55697D01*
X-131358Y55619D01*
X-131178Y55537D01*
X-131001Y55450D01*
X-130825Y55359D01*
X-130652Y55264D01*
X-130481Y55165D01*
X-130313Y55061D01*
X-130148Y54953D01*
X-129985Y54842D01*
X-129825Y54726D01*
X-129667Y54606D01*
X-129513Y54483D01*
X-129362Y54356D01*
X-129214Y54225D01*
X-129069Y54090D01*
X-128928Y53952D01*
X-128790Y53811D01*
X-128655Y53666D01*
X-128524Y53518D01*
X-128397Y53367D01*
X-128274Y53213D01*
X-128154Y53055D01*
X-128038Y52895D01*
X-127927Y52732D01*
X-127819Y52567D01*
X-127715Y52399D01*
X-127616Y52228D01*
X-127521Y52055D01*
X-127430Y51879D01*
X-127343Y51702D01*
X-127261Y51522D01*
X-127183Y51341D01*
X-127109Y51157D01*
X-127041Y50972D01*
X-126976Y50785D01*
X-126917Y50597D01*
X-126862Y50407D01*
X-126811Y50216D01*
X-126766Y50024D01*
X-126725Y49830D01*
X-126689Y49636D01*
X-126657Y49441D01*
X-126631Y49245D01*
X-126609Y49049D01*
X-126592Y48852D01*
X-126580Y48655D01*
X-126572Y48458D01*
X-126570Y48260D01*
X-126572Y48062D01*
X-126580Y47865D01*
X-126592Y47668D01*
X-126609Y47471D01*
X-126631Y47275D01*
X-126657Y47079D01*
X-126689Y46884D01*
X-126725Y46690D01*
X-126766Y46496D01*
X-126811Y46304D01*
X-126862Y46113D01*
X-126917Y45923D01*
X-126976Y45735D01*
X-127041Y45548D01*
X-127109Y45363D01*
X-127183Y45179D01*
X-127261Y44998D01*
X-127343Y44818D01*
X-127430Y44641D01*
X-127521Y44465D01*
X-127616Y44292D01*
X-127715Y44121D01*
X-127819Y43953D01*
X-127927Y43788D01*
X-128038Y43625D01*
X-128154Y43465D01*
X-128274Y43307D01*
X-128397Y43153D01*
X-128524Y43002D01*
X-128655Y42854D01*
X-128790Y42709D01*
X-128928Y42568D01*
X-129069Y42430D01*
X-129214Y42295D01*
X-129362Y42164D01*
X-129513Y42037D01*
X-129667Y41914D01*
X-129825Y41794D01*
X-129985Y41678D01*
X-130148Y41567D01*
X-130313Y41459D01*
X-130481Y41355D01*
X-130652Y41256D01*
X-130825Y41161D01*
X-131001Y41070D01*
X-131178Y40983D01*
X-131358Y40901D01*
X-131539Y40823D01*
X-131723Y40749D01*
X-131908Y40681D01*
X-132095Y40616D01*
X-132283Y40557D01*
X-132473Y40502D01*
X-132664Y40451D01*
X-132856Y40406D01*
X-133050Y40365D01*
X-133244Y40329D01*
X-133439Y40297D01*
X-133635Y40271D01*
X-133831Y40249D01*
X-134028Y40232D01*
X-134225Y40220D01*
X-134422Y40212D01*
X-134620Y40210D01*
X-134818Y40212D01*
X-135015Y40220D01*
X-135212Y40232D01*
X-135409Y40249D01*
X-135605Y40271D01*
X-135801Y40297D01*
X-135996Y40329D01*
X-136190Y40365D01*
X-136384Y40406D01*
X-136576Y40451D01*
X-136767Y40502D01*
X-136957Y40557D01*
X-137145Y40616D01*
X-137332Y40681D01*
X-137517Y40749D01*
X-137701Y40823D01*
X-137882Y40901D01*
X-138062Y40983D01*
X-138239Y41070D01*
X-138415Y41161D01*
X-138588Y41256D01*
X-138759Y41355D01*
X-138927Y41459D01*
X-139092Y41567D01*
X-139255Y41678D01*
X-139415Y41794D01*
X-139573Y41914D01*
X-139727Y42037D01*
X-139878Y42164D01*
X-140026Y42295D01*
X-140171Y42430D01*
X-140312Y42568D01*
X-140450Y42709D01*
X-140585Y42854D01*
X-140716Y43002D01*
X-140843Y43153D01*
X-140966Y43307D01*
X-141086Y43465D01*
X-141202Y43625D01*
X-141313Y43788D01*
X-141421Y43953D01*
X-141525Y44121D01*
X-141624Y44292D01*
X-141719Y44465D01*
X-141810Y44641D01*
X-141897Y44818D01*
X-141979Y44998D01*
X-142057Y45179D01*
X-142131Y45363D01*
X-142199Y45548D01*
X-142264Y45735D01*
X-142323Y45923D01*
X-142378Y46113D01*
X-142429Y46304D01*
X-142474Y46496D01*
X-142515Y46690D01*
X-142551Y46884D01*
X-142583Y47079D01*
X-142609Y47275D01*
X-142631Y47471D01*
X-142648Y47668D01*
X-142660Y47865D01*
X-142668Y48062D01*
X-142670Y48260D01*
D17*
X-133519Y46905D02*
X-133517Y46839D01*
X-133512Y46772D01*
X-133502Y46707D01*
X-133489Y46641D01*
X-133473Y46577D01*
X-133453Y46514D01*
X-133429Y46452D01*
X-133402Y46391D01*
X-133371Y46332D01*
X-133337Y46275D01*
X-133300Y46219D01*
X-133260Y46166D01*
X-133218Y46115D01*
X-133172Y46067D01*
X-133124Y46021D01*
X-133073Y45979D01*
X-133020Y45939D01*
X-132964Y45902D01*
X-132907Y45868D01*
X-132848Y45837D01*
X-132787Y45810D01*
X-132725Y45786D01*
X-132662Y45766D01*
X-132598Y45750D01*
X-132532Y45737D01*
X-132467Y45727D01*
X-132400Y45722D01*
X-132334Y45720D01*
X-132235Y45722D01*
X-132136Y45728D01*
X-132038Y45738D01*
X-131940Y45751D01*
X-131843Y45769D01*
X-131746Y45790D01*
X-131651Y45815D01*
X-131556Y45844D01*
X-131463Y45876D01*
X-131371Y45913D01*
X-131280Y45952D01*
X-131192Y45996D01*
X-131105Y46043D01*
X-131019Y46093D01*
X-130936Y46146D01*
X-130855Y46203D01*
X-130777Y46263D01*
X-130701Y46326D01*
X-130627Y46392D01*
X-130556Y46461D01*
X-130704Y49869D02*
X-130706Y49935D01*
X-130711Y50002D01*
X-130721Y50067D01*
X-130734Y50133D01*
X-130750Y50197D01*
X-130771Y50260D01*
X-130794Y50322D01*
X-130821Y50383D01*
X-130852Y50442D01*
X-130886Y50499D01*
X-130923Y50555D01*
X-130963Y50608D01*
X-131005Y50659D01*
X-131051Y50707D01*
X-131099Y50753D01*
X-131150Y50795D01*
X-131203Y50835D01*
X-131259Y50872D01*
X-131316Y50906D01*
X-131375Y50937D01*
X-131436Y50964D01*
X-131498Y50988D01*
X-131561Y51008D01*
X-131625Y51024D01*
X-131691Y51037D01*
X-131756Y51047D01*
X-131823Y51052D01*
X-131889Y51054D01*
X-131978Y51052D01*
X-132068Y51047D01*
X-132157Y51038D01*
X-132245Y51025D01*
X-132333Y51009D01*
X-132420Y50990D01*
X-132507Y50966D01*
X-132592Y50940D01*
X-132676Y50910D01*
X-132759Y50877D01*
X-132841Y50840D01*
X-132921Y50800D01*
X-132999Y50757D01*
X-133076Y50711D01*
X-133150Y50662D01*
X-133223Y50609D01*
X-131297Y48832D02*
X-131241Y48867D01*
X-131187Y48905D01*
X-131136Y48945D01*
X-131086Y48989D01*
X-131040Y49035D01*
X-130995Y49084D01*
X-130954Y49135D01*
X-130915Y49188D01*
X-130879Y49243D01*
X-130847Y49300D01*
X-130817Y49359D01*
X-130791Y49420D01*
X-130768Y49481D01*
X-130749Y49544D01*
X-130733Y49608D01*
X-130720Y49672D01*
X-130711Y49738D01*
X-130706Y49803D01*
X-130704Y49869D01*
X-132926Y47942D02*
X-132982Y47907D01*
X-133036Y47869D01*
X-133087Y47829D01*
X-133137Y47785D01*
X-133184Y47739D01*
X-133228Y47690D01*
X-133269Y47639D01*
X-133308Y47586D01*
X-133344Y47531D01*
X-133376Y47474D01*
X-133406Y47415D01*
X-133432Y47354D01*
X-133455Y47293D01*
X-133474Y47230D01*
X-133490Y47166D01*
X-133503Y47101D01*
X-133512Y47036D01*
X-133517Y46971D01*
X-133519Y46905D01*
X-132927Y47943D02*
X-131297Y48832D01*
X-135860Y49869D02*
X-137341Y51054D01*
X-137341Y45720D01*
X-135860Y45720D02*
X-138823Y45720D01*
D18*
X-25400Y-35320D02*
X2600Y-35320D01*
X-25400Y-35320D02*
X-25400Y34680D01*
X44600Y34680D01*
X44600Y-35320D01*
X9600Y-35320D01*
D19*
X-41400Y-51320D02*
X-41400Y50680D01*
X60600Y50680D01*
X60600Y-51320D01*
X-41400Y-51320D01*
X-14400Y17680D02*
X-11400Y17680D01*
X-5400Y17680D01*
X600Y17680D01*
X7600Y17680D01*
X15600Y17680D01*
X23600Y17680D01*
X33600Y17680D01*
X33600Y3680D01*
X33600Y-6320D01*
X33600Y-15320D01*
X33600Y-18320D01*
X29600Y-18320D01*
X23600Y-18320D01*
X17600Y-18320D01*
X11600Y-18320D01*
X5600Y-18320D01*
X-400Y-18320D01*
X-7400Y-18320D01*
X-14400Y-18320D01*
X-14400Y-10320D01*
X-14400Y-2320D01*
X-14400Y5680D01*
X-14400Y13680D01*
X-14400Y17680D01*
X-14400Y-2320D02*
X-400Y-18320D01*
X5600Y-18320D02*
X-14400Y5680D01*
X-14400Y13680D02*
X11600Y-18320D01*
X17600Y-18320D02*
X-11400Y17680D01*
X-5400Y17680D02*
X23600Y-18320D01*
X-7400Y-18320D02*
X-14400Y-10320D01*
X600Y17680D02*
X29600Y-18320D01*
X33600Y-15320D02*
X7600Y17680D01*
X15600Y17680D02*
X33600Y-6320D01*
X33600Y3680D02*
X23600Y17680D01*
D11*
X16364Y25238D02*
X16364Y29274D01*
X16364Y25238D02*
X16362Y25161D01*
X16356Y25083D01*
X16347Y25007D01*
X16333Y24930D01*
X16316Y24855D01*
X16295Y24781D01*
X16270Y24707D01*
X16242Y24635D01*
X16210Y24565D01*
X16175Y24496D01*
X16136Y24429D01*
X16094Y24364D01*
X16049Y24301D01*
X16001Y24240D01*
X15950Y24182D01*
X15896Y24127D01*
X15839Y24074D01*
X15780Y24025D01*
X15718Y23978D01*
X15654Y23934D01*
X15588Y23894D01*
X15520Y23857D01*
X15450Y23823D01*
X15379Y23793D01*
X15306Y23767D01*
X15232Y23744D01*
X15157Y23725D01*
X15082Y23710D01*
X15005Y23698D01*
X14928Y23690D01*
X14851Y23686D01*
X14773Y23686D01*
X14696Y23690D01*
X14619Y23698D01*
X14542Y23710D01*
X14467Y23725D01*
X14392Y23744D01*
X14318Y23767D01*
X14245Y23793D01*
X14174Y23823D01*
X14104Y23857D01*
X14036Y23894D01*
X13970Y23934D01*
X13906Y23978D01*
X13844Y24025D01*
X13785Y24074D01*
X13728Y24127D01*
X13674Y24182D01*
X13623Y24240D01*
X13575Y24301D01*
X13530Y24364D01*
X13488Y24429D01*
X13449Y24496D01*
X13414Y24565D01*
X13382Y24635D01*
X13354Y24707D01*
X13329Y24781D01*
X13308Y24855D01*
X13291Y24930D01*
X13277Y25007D01*
X13268Y25083D01*
X13262Y25161D01*
X13260Y25238D01*
X13260Y29274D01*
X10695Y28032D02*
X9143Y29274D01*
X9143Y23686D01*
X10695Y23686D02*
X7590Y23686D01*
D20*
X-110840Y106202D02*
X-122840Y106202D01*
X-110840Y106202D02*
X-110840Y78202D01*
X-122840Y78202D01*
X-122840Y106202D01*
D11*
X-111672Y93704D02*
X-111672Y89668D01*
X-111674Y89591D01*
X-111680Y89513D01*
X-111689Y89437D01*
X-111703Y89360D01*
X-111720Y89285D01*
X-111741Y89211D01*
X-111766Y89137D01*
X-111794Y89065D01*
X-111826Y88995D01*
X-111861Y88926D01*
X-111900Y88859D01*
X-111942Y88794D01*
X-111987Y88731D01*
X-112035Y88670D01*
X-112086Y88612D01*
X-112140Y88557D01*
X-112197Y88504D01*
X-112256Y88455D01*
X-112318Y88408D01*
X-112382Y88364D01*
X-112448Y88324D01*
X-112516Y88287D01*
X-112586Y88253D01*
X-112657Y88223D01*
X-112730Y88197D01*
X-112804Y88174D01*
X-112879Y88155D01*
X-112954Y88140D01*
X-113031Y88128D01*
X-113108Y88120D01*
X-113185Y88116D01*
X-113263Y88116D01*
X-113340Y88120D01*
X-113417Y88128D01*
X-113494Y88140D01*
X-113569Y88155D01*
X-113644Y88174D01*
X-113718Y88197D01*
X-113791Y88223D01*
X-113862Y88253D01*
X-113932Y88287D01*
X-114000Y88324D01*
X-114066Y88364D01*
X-114130Y88408D01*
X-114192Y88455D01*
X-114251Y88504D01*
X-114308Y88557D01*
X-114362Y88612D01*
X-114413Y88670D01*
X-114461Y88731D01*
X-114506Y88794D01*
X-114548Y88859D01*
X-114587Y88926D01*
X-114622Y88995D01*
X-114654Y89065D01*
X-114682Y89137D01*
X-114707Y89211D01*
X-114728Y89285D01*
X-114745Y89360D01*
X-114759Y89437D01*
X-114768Y89513D01*
X-114774Y89591D01*
X-114776Y89668D01*
X-114776Y93704D01*
X-117341Y91220D02*
X-119204Y91220D01*
X-119204Y91221D02*
X-119274Y91219D01*
X-119343Y91213D01*
X-119412Y91203D01*
X-119480Y91190D01*
X-119548Y91172D01*
X-119614Y91151D01*
X-119679Y91126D01*
X-119743Y91098D01*
X-119805Y91066D01*
X-119865Y91031D01*
X-119923Y90992D01*
X-119978Y90950D01*
X-120032Y90905D01*
X-120082Y90857D01*
X-120130Y90807D01*
X-120175Y90753D01*
X-120217Y90698D01*
X-120256Y90640D01*
X-120291Y90580D01*
X-120323Y90518D01*
X-120351Y90454D01*
X-120376Y90389D01*
X-120397Y90323D01*
X-120415Y90255D01*
X-120428Y90187D01*
X-120438Y90118D01*
X-120444Y90049D01*
X-120446Y89979D01*
X-120446Y89668D01*
X-120445Y89668D02*
X-120443Y89591D01*
X-120437Y89513D01*
X-120428Y89437D01*
X-120414Y89360D01*
X-120397Y89285D01*
X-120376Y89211D01*
X-120351Y89137D01*
X-120323Y89065D01*
X-120291Y88995D01*
X-120256Y88926D01*
X-120217Y88859D01*
X-120175Y88794D01*
X-120130Y88731D01*
X-120082Y88670D01*
X-120031Y88612D01*
X-119977Y88557D01*
X-119920Y88504D01*
X-119861Y88455D01*
X-119799Y88408D01*
X-119735Y88364D01*
X-119669Y88324D01*
X-119601Y88287D01*
X-119531Y88253D01*
X-119460Y88223D01*
X-119387Y88197D01*
X-119313Y88174D01*
X-119238Y88155D01*
X-119163Y88140D01*
X-119086Y88128D01*
X-119009Y88120D01*
X-118932Y88116D01*
X-118854Y88116D01*
X-118777Y88120D01*
X-118700Y88128D01*
X-118623Y88140D01*
X-118548Y88155D01*
X-118473Y88174D01*
X-118399Y88197D01*
X-118326Y88223D01*
X-118255Y88253D01*
X-118185Y88287D01*
X-118117Y88324D01*
X-118051Y88364D01*
X-117987Y88408D01*
X-117925Y88455D01*
X-117866Y88504D01*
X-117809Y88557D01*
X-117755Y88612D01*
X-117704Y88670D01*
X-117656Y88731D01*
X-117611Y88794D01*
X-117569Y88859D01*
X-117530Y88926D01*
X-117495Y88995D01*
X-117463Y89065D01*
X-117435Y89137D01*
X-117410Y89211D01*
X-117389Y89285D01*
X-117372Y89360D01*
X-117358Y89437D01*
X-117349Y89513D01*
X-117343Y89591D01*
X-117341Y89668D01*
X-117341Y91220D01*
X-117343Y91318D01*
X-117349Y91415D01*
X-117358Y91512D01*
X-117372Y91609D01*
X-117389Y91705D01*
X-117410Y91800D01*
X-117434Y91894D01*
X-117463Y91988D01*
X-117495Y92080D01*
X-117530Y92171D01*
X-117569Y92260D01*
X-117612Y92348D01*
X-117658Y92434D01*
X-117707Y92518D01*
X-117760Y92600D01*
X-117815Y92680D01*
X-117874Y92758D01*
X-117936Y92833D01*
X-118001Y92906D01*
X-118069Y92976D01*
X-118139Y93044D01*
X-118212Y93109D01*
X-118287Y93171D01*
X-118365Y93230D01*
X-118445Y93285D01*
X-118527Y93338D01*
X-118611Y93387D01*
X-118697Y93433D01*
X-118785Y93476D01*
X-118874Y93515D01*
X-118965Y93550D01*
X-119057Y93582D01*
X-119151Y93611D01*
X-119245Y93635D01*
X-119340Y93656D01*
X-119436Y93673D01*
X-119533Y93687D01*
X-119630Y93696D01*
X-119727Y93702D01*
X-119825Y93704D01*
D18*
X-69579Y-101225D02*
X-69577Y-101202D01*
X-69571Y-101179D01*
X-69562Y-101158D01*
X-69549Y-101138D01*
X-69533Y-101121D01*
X-69515Y-101107D01*
X-69495Y-101096D01*
X-69473Y-101088D01*
X-69450Y-101084D01*
X-69426Y-101084D01*
X-69403Y-101088D01*
X-69381Y-101096D01*
X-69361Y-101107D01*
X-69343Y-101121D01*
X-69327Y-101138D01*
X-69314Y-101158D01*
X-69305Y-101179D01*
X-69299Y-101202D01*
X-69297Y-101225D01*
X-69299Y-101248D01*
X-69305Y-101271D01*
X-69314Y-101292D01*
X-69327Y-101312D01*
X-69343Y-101329D01*
X-69361Y-101343D01*
X-69381Y-101354D01*
X-69403Y-101362D01*
X-69426Y-101366D01*
X-69450Y-101366D01*
X-69473Y-101362D01*
X-69495Y-101354D01*
X-69515Y-101343D01*
X-69533Y-101329D01*
X-69549Y-101312D01*
X-69562Y-101292D01*
X-69571Y-101271D01*
X-69577Y-101248D01*
X-69579Y-101225D01*
D21*
X-67438Y-90425D02*
X-65438Y-90425D01*
X-65438Y-106425D01*
X-67438Y-106425D01*
X-83438Y-106425D02*
X-85438Y-106425D01*
X-85438Y-90425D01*
X-83438Y-90425D01*
D11*
X-53783Y-99852D02*
X-53783Y-103888D01*
X-53785Y-103965D01*
X-53791Y-104043D01*
X-53800Y-104119D01*
X-53814Y-104196D01*
X-53831Y-104271D01*
X-53852Y-104345D01*
X-53877Y-104419D01*
X-53905Y-104491D01*
X-53937Y-104561D01*
X-53972Y-104630D01*
X-54011Y-104697D01*
X-54053Y-104762D01*
X-54098Y-104825D01*
X-54146Y-104886D01*
X-54197Y-104944D01*
X-54251Y-104999D01*
X-54308Y-105052D01*
X-54367Y-105101D01*
X-54429Y-105148D01*
X-54493Y-105192D01*
X-54559Y-105232D01*
X-54627Y-105269D01*
X-54697Y-105303D01*
X-54768Y-105333D01*
X-54841Y-105359D01*
X-54915Y-105382D01*
X-54990Y-105401D01*
X-55065Y-105416D01*
X-55142Y-105428D01*
X-55219Y-105436D01*
X-55296Y-105440D01*
X-55374Y-105440D01*
X-55451Y-105436D01*
X-55528Y-105428D01*
X-55605Y-105416D01*
X-55680Y-105401D01*
X-55755Y-105382D01*
X-55829Y-105359D01*
X-55902Y-105333D01*
X-55973Y-105303D01*
X-56043Y-105269D01*
X-56111Y-105232D01*
X-56177Y-105192D01*
X-56241Y-105148D01*
X-56303Y-105101D01*
X-56362Y-105052D01*
X-56419Y-104999D01*
X-56473Y-104944D01*
X-56524Y-104886D01*
X-56572Y-104825D01*
X-56617Y-104762D01*
X-56659Y-104697D01*
X-56698Y-104630D01*
X-56733Y-104561D01*
X-56765Y-104491D01*
X-56793Y-104419D01*
X-56818Y-104345D01*
X-56839Y-104271D01*
X-56856Y-104196D01*
X-56870Y-104119D01*
X-56879Y-104043D01*
X-56885Y-103965D01*
X-56887Y-103888D01*
X-56887Y-99852D01*
X-59452Y-103888D02*
X-59454Y-103811D01*
X-59460Y-103733D01*
X-59469Y-103657D01*
X-59483Y-103580D01*
X-59500Y-103505D01*
X-59521Y-103431D01*
X-59546Y-103357D01*
X-59574Y-103285D01*
X-59606Y-103215D01*
X-59641Y-103146D01*
X-59680Y-103079D01*
X-59722Y-103014D01*
X-59767Y-102951D01*
X-59815Y-102890D01*
X-59866Y-102832D01*
X-59920Y-102777D01*
X-59977Y-102724D01*
X-60036Y-102675D01*
X-60098Y-102628D01*
X-60162Y-102584D01*
X-60228Y-102544D01*
X-60296Y-102507D01*
X-60366Y-102473D01*
X-60437Y-102443D01*
X-60510Y-102417D01*
X-60584Y-102394D01*
X-60659Y-102375D01*
X-60734Y-102360D01*
X-60811Y-102348D01*
X-60888Y-102340D01*
X-60965Y-102336D01*
X-61043Y-102336D01*
X-61120Y-102340D01*
X-61197Y-102348D01*
X-61274Y-102360D01*
X-61349Y-102375D01*
X-61424Y-102394D01*
X-61498Y-102417D01*
X-61571Y-102443D01*
X-61642Y-102473D01*
X-61712Y-102507D01*
X-61780Y-102544D01*
X-61846Y-102584D01*
X-61910Y-102628D01*
X-61972Y-102675D01*
X-62031Y-102724D01*
X-62088Y-102777D01*
X-62142Y-102832D01*
X-62193Y-102890D01*
X-62241Y-102951D01*
X-62286Y-103014D01*
X-62328Y-103079D01*
X-62367Y-103146D01*
X-62402Y-103215D01*
X-62434Y-103285D01*
X-62462Y-103357D01*
X-62487Y-103431D01*
X-62508Y-103505D01*
X-62525Y-103580D01*
X-62539Y-103657D01*
X-62548Y-103733D01*
X-62554Y-103811D01*
X-62556Y-103888D01*
X-62554Y-103965D01*
X-62548Y-104043D01*
X-62539Y-104119D01*
X-62525Y-104196D01*
X-62508Y-104271D01*
X-62487Y-104345D01*
X-62462Y-104419D01*
X-62434Y-104491D01*
X-62402Y-104561D01*
X-62367Y-104630D01*
X-62328Y-104697D01*
X-62286Y-104762D01*
X-62241Y-104825D01*
X-62193Y-104886D01*
X-62142Y-104944D01*
X-62088Y-104999D01*
X-62031Y-105052D01*
X-61972Y-105101D01*
X-61910Y-105148D01*
X-61846Y-105192D01*
X-61780Y-105232D01*
X-61712Y-105269D01*
X-61642Y-105303D01*
X-61571Y-105333D01*
X-61498Y-105359D01*
X-61424Y-105382D01*
X-61349Y-105401D01*
X-61274Y-105416D01*
X-61197Y-105428D01*
X-61120Y-105436D01*
X-61043Y-105440D01*
X-60965Y-105440D01*
X-60888Y-105436D01*
X-60811Y-105428D01*
X-60734Y-105416D01*
X-60659Y-105401D01*
X-60584Y-105382D01*
X-60510Y-105359D01*
X-60437Y-105333D01*
X-60366Y-105303D01*
X-60296Y-105269D01*
X-60228Y-105232D01*
X-60162Y-105192D01*
X-60098Y-105148D01*
X-60036Y-105101D01*
X-59977Y-105052D01*
X-59920Y-104999D01*
X-59866Y-104944D01*
X-59815Y-104886D01*
X-59767Y-104825D01*
X-59722Y-104762D01*
X-59680Y-104697D01*
X-59641Y-104630D01*
X-59606Y-104561D01*
X-59574Y-104491D01*
X-59546Y-104419D01*
X-59521Y-104345D01*
X-59500Y-104271D01*
X-59483Y-104196D01*
X-59469Y-104119D01*
X-59460Y-104043D01*
X-59454Y-103965D01*
X-59452Y-103888D01*
X-59762Y-101094D02*
X-59764Y-101024D01*
X-59770Y-100955D01*
X-59780Y-100886D01*
X-59793Y-100818D01*
X-59811Y-100750D01*
X-59832Y-100684D01*
X-59857Y-100619D01*
X-59885Y-100555D01*
X-59917Y-100493D01*
X-59952Y-100433D01*
X-59991Y-100375D01*
X-60033Y-100320D01*
X-60078Y-100266D01*
X-60126Y-100216D01*
X-60176Y-100168D01*
X-60230Y-100123D01*
X-60285Y-100081D01*
X-60343Y-100042D01*
X-60403Y-100007D01*
X-60465Y-99975D01*
X-60529Y-99947D01*
X-60594Y-99922D01*
X-60660Y-99901D01*
X-60728Y-99883D01*
X-60796Y-99870D01*
X-60865Y-99860D01*
X-60934Y-99854D01*
X-61004Y-99852D01*
X-61074Y-99854D01*
X-61143Y-99860D01*
X-61212Y-99870D01*
X-61280Y-99883D01*
X-61348Y-99901D01*
X-61414Y-99922D01*
X-61479Y-99947D01*
X-61543Y-99975D01*
X-61605Y-100007D01*
X-61665Y-100042D01*
X-61723Y-100081D01*
X-61778Y-100123D01*
X-61832Y-100168D01*
X-61882Y-100216D01*
X-61930Y-100266D01*
X-61975Y-100320D01*
X-62017Y-100375D01*
X-62056Y-100433D01*
X-62091Y-100493D01*
X-62123Y-100555D01*
X-62151Y-100619D01*
X-62176Y-100684D01*
X-62197Y-100750D01*
X-62215Y-100818D01*
X-62228Y-100886D01*
X-62238Y-100955D01*
X-62244Y-101024D01*
X-62246Y-101094D01*
X-62244Y-101164D01*
X-62238Y-101233D01*
X-62228Y-101302D01*
X-62215Y-101370D01*
X-62197Y-101438D01*
X-62176Y-101504D01*
X-62151Y-101569D01*
X-62123Y-101633D01*
X-62091Y-101695D01*
X-62056Y-101755D01*
X-62017Y-101813D01*
X-61975Y-101868D01*
X-61930Y-101922D01*
X-61882Y-101972D01*
X-61832Y-102020D01*
X-61778Y-102065D01*
X-61723Y-102107D01*
X-61665Y-102146D01*
X-61605Y-102181D01*
X-61543Y-102213D01*
X-61479Y-102241D01*
X-61414Y-102266D01*
X-61348Y-102287D01*
X-61280Y-102305D01*
X-61212Y-102318D01*
X-61143Y-102328D01*
X-61074Y-102334D01*
X-61004Y-102336D01*
X-60934Y-102334D01*
X-60865Y-102328D01*
X-60796Y-102318D01*
X-60728Y-102305D01*
X-60660Y-102287D01*
X-60594Y-102266D01*
X-60529Y-102241D01*
X-60465Y-102213D01*
X-60403Y-102181D01*
X-60343Y-102146D01*
X-60285Y-102107D01*
X-60230Y-102065D01*
X-60176Y-102020D01*
X-60126Y-101972D01*
X-60078Y-101922D01*
X-60033Y-101868D01*
X-59991Y-101813D01*
X-59952Y-101755D01*
X-59917Y-101695D01*
X-59885Y-101633D01*
X-59857Y-101569D01*
X-59832Y-101504D01*
X-59811Y-101438D01*
X-59793Y-101370D01*
X-59780Y-101302D01*
X-59770Y-101233D01*
X-59764Y-101164D01*
X-59762Y-101094D01*
D18*
X101961Y-73564D02*
X101963Y-73541D01*
X101969Y-73518D01*
X101978Y-73497D01*
X101991Y-73477D01*
X102007Y-73460D01*
X102025Y-73446D01*
X102045Y-73435D01*
X102067Y-73427D01*
X102090Y-73423D01*
X102114Y-73423D01*
X102137Y-73427D01*
X102159Y-73435D01*
X102179Y-73446D01*
X102197Y-73460D01*
X102213Y-73477D01*
X102226Y-73497D01*
X102235Y-73518D01*
X102241Y-73541D01*
X102243Y-73564D01*
X102241Y-73587D01*
X102235Y-73610D01*
X102226Y-73631D01*
X102213Y-73651D01*
X102197Y-73668D01*
X102179Y-73682D01*
X102159Y-73693D01*
X102137Y-73701D01*
X102114Y-73705D01*
X102090Y-73705D01*
X102067Y-73701D01*
X102045Y-73693D01*
X102025Y-73682D01*
X102007Y-73668D01*
X101991Y-73651D01*
X101978Y-73631D01*
X101969Y-73610D01*
X101963Y-73587D01*
X101961Y-73564D01*
D21*
X112902Y-75564D02*
X112902Y-77564D01*
X96902Y-77564D01*
X96902Y-75564D01*
X96902Y-59564D02*
X96902Y-57564D01*
X112902Y-57564D01*
X112902Y-59564D01*
D11*
X109952Y-64454D02*
X109952Y-68490D01*
X109950Y-68567D01*
X109944Y-68645D01*
X109935Y-68721D01*
X109921Y-68798D01*
X109904Y-68873D01*
X109883Y-68947D01*
X109858Y-69021D01*
X109830Y-69093D01*
X109798Y-69163D01*
X109763Y-69232D01*
X109724Y-69299D01*
X109682Y-69364D01*
X109637Y-69427D01*
X109589Y-69488D01*
X109538Y-69546D01*
X109484Y-69601D01*
X109427Y-69654D01*
X109368Y-69703D01*
X109306Y-69750D01*
X109242Y-69794D01*
X109176Y-69834D01*
X109108Y-69871D01*
X109038Y-69905D01*
X108967Y-69935D01*
X108894Y-69961D01*
X108820Y-69984D01*
X108745Y-70003D01*
X108670Y-70018D01*
X108593Y-70030D01*
X108516Y-70038D01*
X108439Y-70042D01*
X108361Y-70042D01*
X108284Y-70038D01*
X108207Y-70030D01*
X108130Y-70018D01*
X108055Y-70003D01*
X107980Y-69984D01*
X107906Y-69961D01*
X107833Y-69935D01*
X107762Y-69905D01*
X107692Y-69871D01*
X107624Y-69834D01*
X107558Y-69794D01*
X107494Y-69750D01*
X107432Y-69703D01*
X107373Y-69654D01*
X107316Y-69601D01*
X107262Y-69546D01*
X107211Y-69488D01*
X107163Y-69427D01*
X107118Y-69364D01*
X107076Y-69299D01*
X107037Y-69232D01*
X107002Y-69163D01*
X106970Y-69093D01*
X106942Y-69021D01*
X106917Y-68947D01*
X106896Y-68873D01*
X106879Y-68798D01*
X106865Y-68721D01*
X106856Y-68645D01*
X106850Y-68567D01*
X106848Y-68490D01*
X106848Y-64454D01*
X103041Y-67558D02*
X101178Y-67558D01*
X103041Y-67559D02*
X103111Y-67557D01*
X103180Y-67551D01*
X103249Y-67541D01*
X103317Y-67528D01*
X103385Y-67510D01*
X103451Y-67489D01*
X103516Y-67464D01*
X103580Y-67436D01*
X103642Y-67404D01*
X103702Y-67369D01*
X103760Y-67330D01*
X103815Y-67288D01*
X103869Y-67243D01*
X103919Y-67195D01*
X103967Y-67145D01*
X104012Y-67091D01*
X104054Y-67036D01*
X104093Y-66978D01*
X104128Y-66918D01*
X104160Y-66856D01*
X104188Y-66792D01*
X104213Y-66727D01*
X104234Y-66661D01*
X104252Y-66593D01*
X104265Y-66525D01*
X104275Y-66456D01*
X104281Y-66387D01*
X104283Y-66317D01*
X104283Y-66006D01*
X104281Y-65929D01*
X104275Y-65851D01*
X104266Y-65775D01*
X104252Y-65698D01*
X104235Y-65623D01*
X104214Y-65549D01*
X104189Y-65475D01*
X104161Y-65403D01*
X104129Y-65333D01*
X104094Y-65264D01*
X104055Y-65197D01*
X104013Y-65132D01*
X103968Y-65069D01*
X103920Y-65008D01*
X103869Y-64950D01*
X103815Y-64895D01*
X103758Y-64842D01*
X103699Y-64793D01*
X103637Y-64746D01*
X103573Y-64702D01*
X103507Y-64662D01*
X103439Y-64625D01*
X103369Y-64591D01*
X103298Y-64561D01*
X103225Y-64535D01*
X103151Y-64512D01*
X103076Y-64493D01*
X103001Y-64478D01*
X102924Y-64466D01*
X102847Y-64458D01*
X102770Y-64454D01*
X102692Y-64454D01*
X102615Y-64458D01*
X102538Y-64466D01*
X102461Y-64478D01*
X102386Y-64493D01*
X102311Y-64512D01*
X102237Y-64535D01*
X102164Y-64561D01*
X102093Y-64591D01*
X102023Y-64625D01*
X101955Y-64662D01*
X101889Y-64702D01*
X101825Y-64746D01*
X101763Y-64793D01*
X101704Y-64842D01*
X101647Y-64895D01*
X101593Y-64950D01*
X101542Y-65008D01*
X101494Y-65069D01*
X101449Y-65132D01*
X101407Y-65197D01*
X101368Y-65264D01*
X101333Y-65333D01*
X101301Y-65403D01*
X101273Y-65475D01*
X101248Y-65549D01*
X101227Y-65623D01*
X101210Y-65698D01*
X101196Y-65775D01*
X101187Y-65851D01*
X101181Y-65929D01*
X101179Y-66006D01*
X101178Y-66006D02*
X101178Y-67558D01*
X101180Y-67656D01*
X101186Y-67753D01*
X101195Y-67850D01*
X101209Y-67947D01*
X101226Y-68043D01*
X101247Y-68138D01*
X101271Y-68232D01*
X101300Y-68326D01*
X101332Y-68418D01*
X101367Y-68509D01*
X101406Y-68598D01*
X101449Y-68686D01*
X101495Y-68772D01*
X101544Y-68856D01*
X101597Y-68938D01*
X101652Y-69018D01*
X101711Y-69096D01*
X101773Y-69171D01*
X101838Y-69244D01*
X101906Y-69314D01*
X101976Y-69382D01*
X102049Y-69447D01*
X102124Y-69509D01*
X102202Y-69568D01*
X102282Y-69623D01*
X102364Y-69676D01*
X102448Y-69725D01*
X102534Y-69771D01*
X102622Y-69814D01*
X102711Y-69853D01*
X102802Y-69888D01*
X102894Y-69920D01*
X102988Y-69949D01*
X103082Y-69973D01*
X103177Y-69994D01*
X103273Y-70011D01*
X103370Y-70025D01*
X103467Y-70034D01*
X103565Y-70040D01*
X103662Y-70042D01*
D21*
X-112864Y-66412D02*
X-112864Y-49412D01*
X-123864Y-49412D02*
X-123864Y-66412D01*
D22*
X-118364Y-61412D03*
D11*
X-136388Y-58808D02*
X-136388Y-53220D01*
X-137940Y-53220D01*
X-138016Y-53222D01*
X-138092Y-53227D01*
X-138168Y-53237D01*
X-138243Y-53250D01*
X-138317Y-53267D01*
X-138391Y-53287D01*
X-138463Y-53311D01*
X-138534Y-53338D01*
X-138604Y-53369D01*
X-138672Y-53403D01*
X-138738Y-53441D01*
X-138802Y-53482D01*
X-138865Y-53525D01*
X-138925Y-53572D01*
X-138982Y-53622D01*
X-139037Y-53675D01*
X-139090Y-53730D01*
X-139140Y-53787D01*
X-139187Y-53847D01*
X-139230Y-53910D01*
X-139271Y-53974D01*
X-139309Y-54040D01*
X-139343Y-54108D01*
X-139374Y-54178D01*
X-139401Y-54249D01*
X-139425Y-54322D01*
X-139445Y-54395D01*
X-139462Y-54469D01*
X-139475Y-54544D01*
X-139485Y-54620D01*
X-139490Y-54696D01*
X-139492Y-54772D01*
X-139492Y-57256D01*
X-139490Y-57332D01*
X-139485Y-57408D01*
X-139475Y-57484D01*
X-139462Y-57559D01*
X-139445Y-57633D01*
X-139425Y-57707D01*
X-139401Y-57779D01*
X-139374Y-57850D01*
X-139343Y-57920D01*
X-139309Y-57988D01*
X-139271Y-58054D01*
X-139230Y-58118D01*
X-139187Y-58181D01*
X-139140Y-58241D01*
X-139090Y-58298D01*
X-139037Y-58353D01*
X-138982Y-58406D01*
X-138925Y-58456D01*
X-138865Y-58503D01*
X-138802Y-58546D01*
X-138738Y-58587D01*
X-138672Y-58625D01*
X-138604Y-58659D01*
X-138534Y-58690D01*
X-138463Y-58717D01*
X-138391Y-58741D01*
X-138317Y-58761D01*
X-138243Y-58778D01*
X-138168Y-58791D01*
X-138092Y-58801D01*
X-138016Y-58806D01*
X-137940Y-58808D01*
X-136388Y-58808D01*
X-142057Y-54462D02*
X-143609Y-53220D01*
X-143609Y-58808D01*
X-142057Y-58808D02*
X-145162Y-58808D01*
D17*
X-64397Y-90670D02*
X-64395Y-90601D01*
X-64390Y-90533D01*
X-64380Y-90465D01*
X-64367Y-90397D01*
X-64351Y-90330D01*
X-64331Y-90264D01*
X-64307Y-90200D01*
X-64280Y-90137D01*
X-64249Y-90075D01*
X-64215Y-90015D01*
X-64178Y-89957D01*
X-64138Y-89901D01*
X-64095Y-89848D01*
X-64049Y-89797D01*
X-64000Y-89748D01*
X-63949Y-89702D01*
X-63896Y-89659D01*
X-63840Y-89619D01*
X-63782Y-89582D01*
X-63722Y-89548D01*
X-63660Y-89517D01*
X-63597Y-89490D01*
X-63533Y-89466D01*
X-63467Y-89446D01*
X-63400Y-89430D01*
X-63332Y-89417D01*
X-63264Y-89407D01*
X-63196Y-89402D01*
X-63127Y-89400D01*
X-64397Y-90670D02*
X-64397Y-96020D01*
X-64395Y-96089D01*
X-64390Y-96157D01*
X-64380Y-96225D01*
X-64367Y-96293D01*
X-64351Y-96360D01*
X-64331Y-96426D01*
X-64307Y-96490D01*
X-64280Y-96553D01*
X-64249Y-96615D01*
X-64215Y-96675D01*
X-64178Y-96733D01*
X-64138Y-96789D01*
X-64095Y-96842D01*
X-64049Y-96893D01*
X-64000Y-96942D01*
X-63949Y-96988D01*
X-63896Y-97031D01*
X-63840Y-97071D01*
X-63782Y-97108D01*
X-63722Y-97142D01*
X-63660Y-97173D01*
X-63597Y-97200D01*
X-63533Y-97224D01*
X-63467Y-97244D01*
X-63400Y-97260D01*
X-63332Y-97273D01*
X-63264Y-97283D01*
X-63196Y-97288D01*
X-63127Y-97290D01*
X-48887Y-97290D01*
X-48818Y-97288D01*
X-48750Y-97283D01*
X-48682Y-97273D01*
X-48614Y-97260D01*
X-48547Y-97244D01*
X-48481Y-97224D01*
X-48417Y-97200D01*
X-48354Y-97173D01*
X-48292Y-97142D01*
X-48232Y-97108D01*
X-48174Y-97071D01*
X-48118Y-97031D01*
X-48065Y-96988D01*
X-48014Y-96942D01*
X-47965Y-96893D01*
X-47919Y-96842D01*
X-47876Y-96789D01*
X-47836Y-96733D01*
X-47799Y-96675D01*
X-47765Y-96615D01*
X-47734Y-96553D01*
X-47707Y-96490D01*
X-47683Y-96426D01*
X-47663Y-96360D01*
X-47647Y-96293D01*
X-47634Y-96225D01*
X-47624Y-96157D01*
X-47619Y-96089D01*
X-47617Y-96020D01*
X-47617Y-90670D01*
X-47619Y-90601D01*
X-47624Y-90533D01*
X-47634Y-90465D01*
X-47647Y-90397D01*
X-47663Y-90330D01*
X-47683Y-90264D01*
X-47707Y-90200D01*
X-47734Y-90137D01*
X-47765Y-90075D01*
X-47799Y-90015D01*
X-47836Y-89957D01*
X-47876Y-89901D01*
X-47919Y-89848D01*
X-47965Y-89797D01*
X-48014Y-89748D01*
X-48065Y-89702D01*
X-48118Y-89659D01*
X-48174Y-89619D01*
X-48232Y-89582D01*
X-48292Y-89548D01*
X-48354Y-89517D01*
X-48417Y-89490D01*
X-48481Y-89466D01*
X-48547Y-89446D01*
X-48614Y-89430D01*
X-48682Y-89417D01*
X-48750Y-89407D01*
X-48818Y-89402D01*
X-48887Y-89400D01*
X-63127Y-89400D01*
X-50631Y-86487D02*
X-49445Y-86487D01*
X-49379Y-86485D01*
X-49312Y-86480D01*
X-49247Y-86470D01*
X-49181Y-86457D01*
X-49117Y-86441D01*
X-49054Y-86421D01*
X-48992Y-86397D01*
X-48931Y-86370D01*
X-48872Y-86339D01*
X-48815Y-86305D01*
X-48759Y-86268D01*
X-48706Y-86228D01*
X-48655Y-86186D01*
X-48607Y-86140D01*
X-48561Y-86092D01*
X-48519Y-86041D01*
X-48479Y-85988D01*
X-48442Y-85932D01*
X-48408Y-85875D01*
X-48377Y-85816D01*
X-48350Y-85755D01*
X-48326Y-85693D01*
X-48306Y-85630D01*
X-48290Y-85566D01*
X-48277Y-85500D01*
X-48267Y-85435D01*
X-48262Y-85368D01*
X-48260Y-85302D01*
X-48260Y-82338D01*
X-48262Y-82272D01*
X-48267Y-82205D01*
X-48277Y-82140D01*
X-48290Y-82074D01*
X-48306Y-82010D01*
X-48326Y-81947D01*
X-48350Y-81885D01*
X-48377Y-81824D01*
X-48408Y-81765D01*
X-48442Y-81708D01*
X-48479Y-81652D01*
X-48519Y-81599D01*
X-48561Y-81548D01*
X-48607Y-81500D01*
X-48655Y-81454D01*
X-48706Y-81412D01*
X-48759Y-81372D01*
X-48815Y-81335D01*
X-48872Y-81301D01*
X-48931Y-81270D01*
X-48991Y-81243D01*
X-49054Y-81220D01*
X-49117Y-81199D01*
X-49181Y-81183D01*
X-49246Y-81170D01*
X-49312Y-81160D01*
X-49378Y-81155D01*
X-49445Y-81153D01*
X-50631Y-81153D01*
X-52852Y-86487D02*
X-54334Y-86487D01*
X-54410Y-86485D01*
X-54486Y-86479D01*
X-54562Y-86469D01*
X-54637Y-86456D01*
X-54711Y-86438D01*
X-54785Y-86417D01*
X-54857Y-86392D01*
X-54927Y-86363D01*
X-54997Y-86331D01*
X-55064Y-86295D01*
X-55129Y-86255D01*
X-55193Y-86213D01*
X-55254Y-86167D01*
X-55312Y-86118D01*
X-55368Y-86066D01*
X-55422Y-86012D01*
X-55472Y-85954D01*
X-55519Y-85895D01*
X-55564Y-85832D01*
X-55605Y-85768D01*
X-55642Y-85702D01*
X-55676Y-85633D01*
X-55707Y-85563D01*
X-55734Y-85492D01*
X-55757Y-85419D01*
X-55776Y-85345D01*
X-55792Y-85271D01*
X-55804Y-85195D01*
X-55812Y-85119D01*
X-55816Y-85043D01*
X-55816Y-84967D01*
X-55812Y-84891D01*
X-55804Y-84815D01*
X-55792Y-84739D01*
X-55776Y-84665D01*
X-55757Y-84591D01*
X-55734Y-84518D01*
X-55707Y-84447D01*
X-55676Y-84377D01*
X-55642Y-84308D01*
X-55605Y-84242D01*
X-55564Y-84178D01*
X-55519Y-84115D01*
X-55472Y-84056D01*
X-55422Y-83998D01*
X-55368Y-83944D01*
X-55312Y-83892D01*
X-55254Y-83843D01*
X-55193Y-83797D01*
X-55129Y-83755D01*
X-55064Y-83715D01*
X-54997Y-83679D01*
X-54927Y-83647D01*
X-54857Y-83618D01*
X-54785Y-83593D01*
X-54711Y-83572D01*
X-54637Y-83554D01*
X-54562Y-83541D01*
X-54486Y-83531D01*
X-54410Y-83525D01*
X-54334Y-83523D01*
X-54630Y-81153D02*
X-52852Y-81153D01*
X-54630Y-81153D02*
X-54698Y-81155D01*
X-54765Y-81161D01*
X-54832Y-81170D01*
X-54898Y-81184D01*
X-54964Y-81201D01*
X-55028Y-81222D01*
X-55091Y-81246D01*
X-55153Y-81275D01*
X-55213Y-81306D01*
X-55271Y-81341D01*
X-55327Y-81379D01*
X-55380Y-81421D01*
X-55431Y-81465D01*
X-55480Y-81512D01*
X-55526Y-81562D01*
X-55568Y-81614D01*
X-55608Y-81669D01*
X-55645Y-81726D01*
X-55678Y-81785D01*
X-55708Y-81846D01*
X-55734Y-81908D01*
X-55757Y-81972D01*
X-55776Y-82037D01*
X-55791Y-82103D01*
X-55803Y-82169D01*
X-55811Y-82237D01*
X-55815Y-82304D01*
X-55815Y-82372D01*
X-55811Y-82439D01*
X-55803Y-82507D01*
X-55791Y-82573D01*
X-55776Y-82639D01*
X-55757Y-82704D01*
X-55734Y-82768D01*
X-55708Y-82830D01*
X-55678Y-82891D01*
X-55645Y-82950D01*
X-55608Y-83007D01*
X-55568Y-83062D01*
X-55526Y-83114D01*
X-55480Y-83164D01*
X-55431Y-83211D01*
X-55380Y-83255D01*
X-55327Y-83297D01*
X-55271Y-83335D01*
X-55213Y-83370D01*
X-55153Y-83401D01*
X-55091Y-83430D01*
X-55028Y-83454D01*
X-54964Y-83475D01*
X-54898Y-83492D01*
X-54832Y-83506D01*
X-54765Y-83515D01*
X-54698Y-83521D01*
X-54630Y-83523D01*
X-54630Y-83524D02*
X-53445Y-83524D01*
X-58338Y-83820D02*
X-58340Y-83695D01*
X-58345Y-83571D01*
X-58354Y-83447D01*
X-58366Y-83323D01*
X-58382Y-83199D01*
X-58401Y-83076D01*
X-58424Y-82953D01*
X-58451Y-82832D01*
X-58480Y-82711D01*
X-58513Y-82590D01*
X-58550Y-82471D01*
X-58590Y-82353D01*
X-58633Y-82236D01*
X-58680Y-82121D01*
X-58730Y-82006D01*
X-58783Y-81894D01*
X-58806Y-81833D01*
X-58832Y-81774D01*
X-58862Y-81716D01*
X-58895Y-81661D01*
X-58932Y-81607D01*
X-58971Y-81556D01*
X-59013Y-81507D01*
X-59059Y-81461D01*
X-59107Y-81417D01*
X-59157Y-81376D01*
X-59210Y-81339D01*
X-59264Y-81304D01*
X-59321Y-81273D01*
X-59380Y-81245D01*
X-59440Y-81221D01*
X-59501Y-81200D01*
X-59563Y-81183D01*
X-59627Y-81170D01*
X-59691Y-81161D01*
X-59755Y-81155D01*
X-59820Y-81153D01*
X-59885Y-81155D01*
X-59949Y-81161D01*
X-60013Y-81170D01*
X-60077Y-81183D01*
X-60139Y-81200D01*
X-60200Y-81221D01*
X-60260Y-81245D01*
X-60319Y-81273D01*
X-60376Y-81304D01*
X-60430Y-81339D01*
X-60483Y-81376D01*
X-60533Y-81417D01*
X-60581Y-81461D01*
X-60627Y-81507D01*
X-60669Y-81556D01*
X-60708Y-81607D01*
X-60745Y-81661D01*
X-60778Y-81716D01*
X-60808Y-81774D01*
X-60834Y-81833D01*
X-60857Y-81894D01*
X-60910Y-82006D01*
X-60960Y-82121D01*
X-61007Y-82236D01*
X-61050Y-82353D01*
X-61090Y-82471D01*
X-61127Y-82590D01*
X-61160Y-82711D01*
X-61189Y-82832D01*
X-61216Y-82953D01*
X-61239Y-83076D01*
X-61258Y-83199D01*
X-61274Y-83323D01*
X-61286Y-83447D01*
X-61295Y-83571D01*
X-61300Y-83695D01*
X-61302Y-83820D01*
X-58338Y-83820D02*
X-58340Y-83945D01*
X-58345Y-84069D01*
X-58354Y-84193D01*
X-58366Y-84317D01*
X-58382Y-84441D01*
X-58401Y-84564D01*
X-58424Y-84687D01*
X-58451Y-84808D01*
X-58480Y-84929D01*
X-58513Y-85050D01*
X-58550Y-85169D01*
X-58590Y-85287D01*
X-58633Y-85404D01*
X-58680Y-85519D01*
X-58730Y-85634D01*
X-58783Y-85746D01*
X-58806Y-85807D01*
X-58832Y-85866D01*
X-58862Y-85924D01*
X-58895Y-85979D01*
X-58932Y-86033D01*
X-58971Y-86084D01*
X-59013Y-86133D01*
X-59059Y-86179D01*
X-59107Y-86223D01*
X-59157Y-86264D01*
X-59210Y-86301D01*
X-59264Y-86336D01*
X-59321Y-86367D01*
X-59380Y-86395D01*
X-59440Y-86419D01*
X-59501Y-86440D01*
X-59563Y-86457D01*
X-59627Y-86470D01*
X-59691Y-86479D01*
X-59755Y-86485D01*
X-59820Y-86487D01*
X-60857Y-85746D02*
X-60910Y-85634D01*
X-60960Y-85519D01*
X-61007Y-85404D01*
X-61050Y-85287D01*
X-61090Y-85169D01*
X-61127Y-85050D01*
X-61160Y-84929D01*
X-61189Y-84808D01*
X-61216Y-84687D01*
X-61239Y-84564D01*
X-61258Y-84441D01*
X-61274Y-84317D01*
X-61286Y-84193D01*
X-61295Y-84069D01*
X-61300Y-83945D01*
X-61302Y-83820D01*
X-60857Y-85746D02*
X-60834Y-85807D01*
X-60808Y-85866D01*
X-60778Y-85924D01*
X-60745Y-85979D01*
X-60708Y-86033D01*
X-60669Y-86084D01*
X-60627Y-86133D01*
X-60581Y-86179D01*
X-60533Y-86223D01*
X-60483Y-86264D01*
X-60430Y-86301D01*
X-60376Y-86336D01*
X-60319Y-86367D01*
X-60260Y-86395D01*
X-60200Y-86419D01*
X-60139Y-86440D01*
X-60077Y-86457D01*
X-60013Y-86470D01*
X-59949Y-86479D01*
X-59885Y-86485D01*
X-59820Y-86487D01*
X-58635Y-85302D02*
X-61006Y-82338D01*
X111768Y-86368D02*
X111837Y-86366D01*
X111905Y-86361D01*
X111973Y-86351D01*
X112041Y-86338D01*
X112108Y-86322D01*
X112174Y-86302D01*
X112238Y-86278D01*
X112301Y-86251D01*
X112363Y-86220D01*
X112423Y-86186D01*
X112481Y-86149D01*
X112537Y-86109D01*
X112590Y-86066D01*
X112641Y-86020D01*
X112690Y-85971D01*
X112736Y-85920D01*
X112779Y-85867D01*
X112819Y-85811D01*
X112856Y-85753D01*
X112890Y-85693D01*
X112921Y-85631D01*
X112948Y-85568D01*
X112972Y-85504D01*
X112992Y-85438D01*
X113008Y-85371D01*
X113021Y-85303D01*
X113031Y-85235D01*
X113036Y-85167D01*
X113038Y-85098D01*
X113038Y-79748D01*
X113036Y-79679D01*
X113031Y-79611D01*
X113021Y-79543D01*
X113008Y-79475D01*
X112992Y-79408D01*
X112972Y-79342D01*
X112948Y-79278D01*
X112921Y-79215D01*
X112890Y-79153D01*
X112856Y-79093D01*
X112819Y-79035D01*
X112779Y-78979D01*
X112736Y-78926D01*
X112690Y-78875D01*
X112641Y-78826D01*
X112590Y-78780D01*
X112537Y-78737D01*
X112481Y-78697D01*
X112423Y-78660D01*
X112363Y-78626D01*
X112301Y-78595D01*
X112238Y-78568D01*
X112174Y-78544D01*
X112108Y-78524D01*
X112041Y-78508D01*
X111973Y-78495D01*
X111905Y-78485D01*
X111837Y-78480D01*
X111768Y-78478D01*
X97528Y-78478D01*
X97459Y-78480D01*
X97391Y-78485D01*
X97323Y-78495D01*
X97255Y-78508D01*
X97188Y-78524D01*
X97122Y-78544D01*
X97058Y-78568D01*
X96995Y-78595D01*
X96933Y-78626D01*
X96873Y-78660D01*
X96815Y-78697D01*
X96759Y-78737D01*
X96706Y-78780D01*
X96655Y-78826D01*
X96606Y-78875D01*
X96560Y-78926D01*
X96517Y-78979D01*
X96477Y-79035D01*
X96440Y-79093D01*
X96406Y-79153D01*
X96375Y-79215D01*
X96348Y-79278D01*
X96324Y-79342D01*
X96304Y-79408D01*
X96288Y-79475D01*
X96275Y-79543D01*
X96265Y-79611D01*
X96260Y-79679D01*
X96258Y-79748D01*
X96258Y-85098D01*
X96260Y-85167D01*
X96265Y-85235D01*
X96275Y-85303D01*
X96288Y-85371D01*
X96304Y-85438D01*
X96324Y-85504D01*
X96348Y-85568D01*
X96375Y-85631D01*
X96406Y-85693D01*
X96440Y-85753D01*
X96477Y-85811D01*
X96517Y-85867D01*
X96560Y-85920D01*
X96606Y-85971D01*
X96655Y-86020D01*
X96706Y-86066D01*
X96759Y-86109D01*
X96815Y-86149D01*
X96873Y-86186D01*
X96933Y-86220D01*
X96995Y-86251D01*
X97058Y-86278D01*
X97122Y-86302D01*
X97188Y-86322D01*
X97255Y-86338D01*
X97323Y-86351D01*
X97391Y-86361D01*
X97459Y-86366D01*
X97528Y-86368D01*
X111768Y-86368D01*
X126026Y-85217D02*
X127212Y-85217D01*
X127278Y-85215D01*
X127345Y-85210D01*
X127410Y-85200D01*
X127476Y-85187D01*
X127540Y-85171D01*
X127603Y-85151D01*
X127665Y-85127D01*
X127726Y-85100D01*
X127785Y-85069D01*
X127842Y-85035D01*
X127898Y-84998D01*
X127951Y-84958D01*
X128002Y-84916D01*
X128050Y-84870D01*
X128096Y-84822D01*
X128138Y-84771D01*
X128178Y-84718D01*
X128215Y-84662D01*
X128249Y-84605D01*
X128280Y-84546D01*
X128307Y-84485D01*
X128331Y-84423D01*
X128351Y-84360D01*
X128367Y-84296D01*
X128380Y-84230D01*
X128390Y-84165D01*
X128395Y-84098D01*
X128397Y-84032D01*
X128397Y-81068D01*
X128395Y-81002D01*
X128390Y-80935D01*
X128380Y-80870D01*
X128367Y-80804D01*
X128351Y-80740D01*
X128331Y-80677D01*
X128307Y-80615D01*
X128280Y-80554D01*
X128249Y-80495D01*
X128215Y-80438D01*
X128178Y-80382D01*
X128138Y-80329D01*
X128096Y-80278D01*
X128050Y-80230D01*
X128002Y-80184D01*
X127951Y-80142D01*
X127898Y-80102D01*
X127842Y-80065D01*
X127785Y-80031D01*
X127726Y-80000D01*
X127666Y-79973D01*
X127603Y-79950D01*
X127540Y-79929D01*
X127476Y-79913D01*
X127411Y-79900D01*
X127345Y-79890D01*
X127279Y-79885D01*
X127212Y-79883D01*
X126026Y-79883D01*
X123805Y-85217D02*
X122323Y-85217D01*
X122247Y-85215D01*
X122171Y-85209D01*
X122095Y-85199D01*
X122020Y-85186D01*
X121946Y-85168D01*
X121872Y-85147D01*
X121800Y-85122D01*
X121730Y-85093D01*
X121660Y-85061D01*
X121593Y-85025D01*
X121528Y-84985D01*
X121464Y-84943D01*
X121403Y-84897D01*
X121345Y-84848D01*
X121289Y-84796D01*
X121235Y-84742D01*
X121185Y-84684D01*
X121138Y-84625D01*
X121093Y-84562D01*
X121052Y-84498D01*
X121015Y-84432D01*
X120981Y-84363D01*
X120950Y-84293D01*
X120923Y-84222D01*
X120900Y-84149D01*
X120881Y-84075D01*
X120865Y-84001D01*
X120853Y-83925D01*
X120845Y-83849D01*
X120841Y-83773D01*
X120841Y-83697D01*
X120845Y-83621D01*
X120853Y-83545D01*
X120865Y-83469D01*
X120881Y-83395D01*
X120900Y-83321D01*
X120923Y-83248D01*
X120950Y-83177D01*
X120981Y-83107D01*
X121015Y-83038D01*
X121052Y-82972D01*
X121093Y-82908D01*
X121138Y-82845D01*
X121185Y-82786D01*
X121235Y-82728D01*
X121289Y-82674D01*
X121345Y-82622D01*
X121403Y-82573D01*
X121464Y-82527D01*
X121528Y-82485D01*
X121593Y-82445D01*
X121660Y-82409D01*
X121730Y-82377D01*
X121800Y-82348D01*
X121872Y-82323D01*
X121946Y-82302D01*
X122020Y-82284D01*
X122095Y-82271D01*
X122171Y-82261D01*
X122247Y-82255D01*
X122323Y-82253D01*
X122027Y-79883D02*
X123805Y-79883D01*
X122027Y-79883D02*
X121959Y-79885D01*
X121892Y-79891D01*
X121825Y-79900D01*
X121759Y-79914D01*
X121693Y-79931D01*
X121629Y-79952D01*
X121566Y-79976D01*
X121504Y-80005D01*
X121444Y-80036D01*
X121386Y-80071D01*
X121330Y-80109D01*
X121277Y-80151D01*
X121226Y-80195D01*
X121177Y-80242D01*
X121131Y-80292D01*
X121089Y-80344D01*
X121049Y-80399D01*
X121012Y-80456D01*
X120979Y-80515D01*
X120949Y-80576D01*
X120923Y-80638D01*
X120900Y-80702D01*
X120881Y-80767D01*
X120866Y-80833D01*
X120854Y-80899D01*
X120846Y-80967D01*
X120842Y-81034D01*
X120842Y-81102D01*
X120846Y-81169D01*
X120854Y-81237D01*
X120866Y-81303D01*
X120881Y-81369D01*
X120900Y-81434D01*
X120923Y-81498D01*
X120949Y-81560D01*
X120979Y-81621D01*
X121012Y-81680D01*
X121049Y-81737D01*
X121089Y-81792D01*
X121131Y-81844D01*
X121177Y-81894D01*
X121226Y-81941D01*
X121277Y-81985D01*
X121330Y-82027D01*
X121386Y-82065D01*
X121444Y-82100D01*
X121504Y-82131D01*
X121566Y-82160D01*
X121629Y-82184D01*
X121693Y-82205D01*
X121759Y-82222D01*
X121825Y-82236D01*
X121892Y-82245D01*
X121959Y-82251D01*
X122027Y-82253D01*
X122027Y-82254D02*
X123212Y-82254D01*
X118318Y-81068D02*
X116837Y-79883D01*
X116837Y-85217D01*
X118318Y-85217D02*
X115355Y-85217D01*
X111895Y-56650D02*
X111964Y-56648D01*
X112032Y-56643D01*
X112100Y-56633D01*
X112168Y-56620D01*
X112235Y-56604D01*
X112301Y-56584D01*
X112365Y-56560D01*
X112428Y-56533D01*
X112490Y-56502D01*
X112550Y-56468D01*
X112608Y-56431D01*
X112664Y-56391D01*
X112717Y-56348D01*
X112768Y-56302D01*
X112817Y-56253D01*
X112863Y-56202D01*
X112906Y-56149D01*
X112946Y-56093D01*
X112983Y-56035D01*
X113017Y-55975D01*
X113048Y-55913D01*
X113075Y-55850D01*
X113099Y-55786D01*
X113119Y-55720D01*
X113135Y-55653D01*
X113148Y-55585D01*
X113158Y-55517D01*
X113163Y-55449D01*
X113165Y-55380D01*
X113165Y-50030D01*
X113163Y-49961D01*
X113158Y-49893D01*
X113148Y-49825D01*
X113135Y-49757D01*
X113119Y-49690D01*
X113099Y-49624D01*
X113075Y-49560D01*
X113048Y-49497D01*
X113017Y-49435D01*
X112983Y-49375D01*
X112946Y-49317D01*
X112906Y-49261D01*
X112863Y-49208D01*
X112817Y-49157D01*
X112768Y-49108D01*
X112717Y-49062D01*
X112664Y-49019D01*
X112608Y-48979D01*
X112550Y-48942D01*
X112490Y-48908D01*
X112428Y-48877D01*
X112365Y-48850D01*
X112301Y-48826D01*
X112235Y-48806D01*
X112168Y-48790D01*
X112100Y-48777D01*
X112032Y-48767D01*
X111964Y-48762D01*
X111895Y-48760D01*
X97655Y-48760D01*
X97586Y-48762D01*
X97518Y-48767D01*
X97450Y-48777D01*
X97382Y-48790D01*
X97315Y-48806D01*
X97249Y-48826D01*
X97185Y-48850D01*
X97122Y-48877D01*
X97060Y-48908D01*
X97000Y-48942D01*
X96942Y-48979D01*
X96886Y-49019D01*
X96833Y-49062D01*
X96782Y-49108D01*
X96733Y-49157D01*
X96687Y-49208D01*
X96644Y-49261D01*
X96604Y-49317D01*
X96567Y-49375D01*
X96533Y-49435D01*
X96502Y-49497D01*
X96475Y-49560D01*
X96451Y-49624D01*
X96431Y-49690D01*
X96415Y-49757D01*
X96402Y-49825D01*
X96392Y-49893D01*
X96387Y-49961D01*
X96385Y-50030D01*
X96385Y-55380D01*
X96387Y-55449D01*
X96392Y-55517D01*
X96402Y-55585D01*
X96415Y-55653D01*
X96431Y-55720D01*
X96451Y-55786D01*
X96475Y-55850D01*
X96502Y-55913D01*
X96533Y-55975D01*
X96567Y-56035D01*
X96604Y-56093D01*
X96644Y-56149D01*
X96687Y-56202D01*
X96733Y-56253D01*
X96782Y-56302D01*
X96833Y-56348D01*
X96886Y-56391D01*
X96942Y-56431D01*
X97000Y-56468D01*
X97060Y-56502D01*
X97122Y-56533D01*
X97185Y-56560D01*
X97249Y-56584D01*
X97315Y-56604D01*
X97382Y-56620D01*
X97450Y-56633D01*
X97518Y-56643D01*
X97586Y-56648D01*
X97655Y-56650D01*
X111895Y-56650D01*
X110067Y-46990D02*
X108881Y-46990D01*
X110067Y-46990D02*
X110133Y-46988D01*
X110200Y-46983D01*
X110265Y-46973D01*
X110331Y-46960D01*
X110395Y-46944D01*
X110458Y-46924D01*
X110520Y-46900D01*
X110581Y-46873D01*
X110640Y-46842D01*
X110697Y-46808D01*
X110753Y-46771D01*
X110806Y-46731D01*
X110857Y-46689D01*
X110905Y-46643D01*
X110951Y-46595D01*
X110993Y-46544D01*
X111033Y-46491D01*
X111070Y-46435D01*
X111104Y-46378D01*
X111135Y-46319D01*
X111162Y-46258D01*
X111186Y-46196D01*
X111206Y-46133D01*
X111222Y-46069D01*
X111235Y-46003D01*
X111245Y-45938D01*
X111250Y-45871D01*
X111252Y-45805D01*
X111252Y-42841D01*
X111250Y-42775D01*
X111245Y-42708D01*
X111235Y-42643D01*
X111222Y-42577D01*
X111206Y-42513D01*
X111186Y-42450D01*
X111162Y-42388D01*
X111135Y-42327D01*
X111104Y-42268D01*
X111070Y-42211D01*
X111033Y-42155D01*
X110993Y-42102D01*
X110951Y-42051D01*
X110905Y-42003D01*
X110857Y-41957D01*
X110806Y-41915D01*
X110753Y-41875D01*
X110697Y-41838D01*
X110640Y-41804D01*
X110581Y-41773D01*
X110521Y-41746D01*
X110458Y-41723D01*
X110395Y-41702D01*
X110331Y-41686D01*
X110266Y-41673D01*
X110200Y-41663D01*
X110134Y-41658D01*
X110067Y-41656D01*
X108881Y-41656D01*
X105030Y-41656D02*
X104958Y-41658D01*
X104886Y-41664D01*
X104814Y-41674D01*
X104743Y-41687D01*
X104673Y-41705D01*
X104604Y-41726D01*
X104536Y-41751D01*
X104470Y-41779D01*
X104405Y-41811D01*
X104342Y-41847D01*
X104281Y-41886D01*
X104223Y-41928D01*
X104166Y-41973D01*
X104113Y-42022D01*
X104062Y-42073D01*
X104013Y-42126D01*
X103968Y-42183D01*
X103926Y-42241D01*
X103887Y-42302D01*
X103851Y-42365D01*
X103819Y-42430D01*
X103791Y-42496D01*
X103766Y-42564D01*
X103745Y-42633D01*
X103727Y-42703D01*
X103714Y-42774D01*
X103704Y-42846D01*
X103698Y-42918D01*
X103696Y-42990D01*
X105030Y-41656D02*
X105110Y-41658D01*
X105189Y-41663D01*
X105269Y-41673D01*
X105347Y-41686D01*
X105425Y-41702D01*
X105502Y-41722D01*
X105579Y-41746D01*
X105654Y-41774D01*
X105727Y-41804D01*
X105799Y-41838D01*
X105870Y-41876D01*
X105938Y-41917D01*
X106005Y-41961D01*
X106070Y-42007D01*
X106132Y-42057D01*
X106192Y-42110D01*
X106249Y-42166D01*
X106304Y-42224D01*
X106356Y-42284D01*
X106405Y-42347D01*
X106451Y-42412D01*
X106494Y-42479D01*
X106534Y-42549D01*
X106570Y-42619D01*
X106604Y-42692D01*
X106633Y-42766D01*
X106660Y-42841D01*
X104141Y-44027D02*
X104090Y-43976D01*
X104042Y-43922D01*
X103996Y-43866D01*
X103953Y-43807D01*
X103913Y-43747D01*
X103877Y-43684D01*
X103843Y-43620D01*
X103813Y-43554D01*
X103786Y-43487D01*
X103763Y-43418D01*
X103743Y-43349D01*
X103726Y-43278D01*
X103713Y-43207D01*
X103704Y-43135D01*
X103699Y-43062D01*
X103697Y-42990D01*
X104141Y-44027D02*
X106660Y-46990D01*
X103696Y-46990D01*
X101174Y-45508D02*
X101172Y-45432D01*
X101166Y-45356D01*
X101156Y-45280D01*
X101143Y-45205D01*
X101125Y-45131D01*
X101104Y-45057D01*
X101079Y-44985D01*
X101050Y-44915D01*
X101018Y-44845D01*
X100982Y-44778D01*
X100942Y-44713D01*
X100900Y-44649D01*
X100854Y-44588D01*
X100805Y-44530D01*
X100753Y-44474D01*
X100699Y-44420D01*
X100641Y-44370D01*
X100582Y-44323D01*
X100519Y-44278D01*
X100455Y-44237D01*
X100389Y-44200D01*
X100320Y-44166D01*
X100250Y-44135D01*
X100179Y-44108D01*
X100106Y-44085D01*
X100032Y-44066D01*
X99958Y-44050D01*
X99882Y-44038D01*
X99806Y-44030D01*
X99730Y-44026D01*
X99654Y-44026D01*
X99578Y-44030D01*
X99502Y-44038D01*
X99426Y-44050D01*
X99352Y-44066D01*
X99278Y-44085D01*
X99205Y-44108D01*
X99134Y-44135D01*
X99064Y-44166D01*
X98995Y-44200D01*
X98929Y-44237D01*
X98865Y-44278D01*
X98802Y-44323D01*
X98743Y-44370D01*
X98685Y-44420D01*
X98631Y-44474D01*
X98579Y-44530D01*
X98530Y-44588D01*
X98484Y-44649D01*
X98442Y-44713D01*
X98402Y-44778D01*
X98366Y-44845D01*
X98334Y-44915D01*
X98305Y-44985D01*
X98280Y-45057D01*
X98259Y-45131D01*
X98241Y-45205D01*
X98228Y-45280D01*
X98218Y-45356D01*
X98212Y-45432D01*
X98210Y-45508D01*
X98212Y-45584D01*
X98218Y-45660D01*
X98228Y-45736D01*
X98241Y-45811D01*
X98259Y-45885D01*
X98280Y-45959D01*
X98305Y-46031D01*
X98334Y-46101D01*
X98366Y-46171D01*
X98402Y-46238D01*
X98442Y-46303D01*
X98484Y-46367D01*
X98530Y-46428D01*
X98579Y-46486D01*
X98631Y-46542D01*
X98685Y-46596D01*
X98743Y-46646D01*
X98802Y-46693D01*
X98865Y-46738D01*
X98929Y-46779D01*
X98995Y-46816D01*
X99064Y-46850D01*
X99134Y-46881D01*
X99205Y-46908D01*
X99278Y-46931D01*
X99352Y-46950D01*
X99426Y-46966D01*
X99502Y-46978D01*
X99578Y-46986D01*
X99654Y-46990D01*
X99730Y-46990D01*
X99806Y-46986D01*
X99882Y-46978D01*
X99958Y-46966D01*
X100032Y-46950D01*
X100106Y-46931D01*
X100179Y-46908D01*
X100250Y-46881D01*
X100320Y-46850D01*
X100389Y-46816D01*
X100455Y-46779D01*
X100519Y-46738D01*
X100582Y-46693D01*
X100641Y-46646D01*
X100699Y-46596D01*
X100753Y-46542D01*
X100805Y-46486D01*
X100854Y-46428D01*
X100900Y-46367D01*
X100942Y-46303D01*
X100982Y-46238D01*
X101018Y-46171D01*
X101050Y-46101D01*
X101079Y-46031D01*
X101104Y-45959D01*
X101125Y-45885D01*
X101143Y-45811D01*
X101156Y-45736D01*
X101166Y-45660D01*
X101172Y-45584D01*
X101174Y-45508D01*
X100877Y-42841D02*
X100875Y-42773D01*
X100869Y-42706D01*
X100860Y-42639D01*
X100846Y-42573D01*
X100829Y-42507D01*
X100808Y-42443D01*
X100784Y-42380D01*
X100755Y-42318D01*
X100724Y-42258D01*
X100689Y-42200D01*
X100651Y-42144D01*
X100609Y-42091D01*
X100565Y-42040D01*
X100518Y-41991D01*
X100468Y-41945D01*
X100416Y-41903D01*
X100361Y-41863D01*
X100304Y-41826D01*
X100245Y-41793D01*
X100184Y-41763D01*
X100122Y-41737D01*
X100058Y-41714D01*
X99993Y-41695D01*
X99927Y-41680D01*
X99861Y-41668D01*
X99793Y-41660D01*
X99726Y-41656D01*
X99658Y-41656D01*
X99591Y-41660D01*
X99523Y-41668D01*
X99457Y-41680D01*
X99391Y-41695D01*
X99326Y-41714D01*
X99262Y-41737D01*
X99200Y-41763D01*
X99139Y-41793D01*
X99080Y-41826D01*
X99023Y-41863D01*
X98968Y-41903D01*
X98916Y-41945D01*
X98866Y-41991D01*
X98819Y-42040D01*
X98775Y-42091D01*
X98733Y-42144D01*
X98695Y-42200D01*
X98660Y-42258D01*
X98629Y-42318D01*
X98600Y-42380D01*
X98576Y-42443D01*
X98555Y-42507D01*
X98538Y-42573D01*
X98524Y-42639D01*
X98515Y-42706D01*
X98509Y-42773D01*
X98507Y-42841D01*
X98509Y-42909D01*
X98515Y-42976D01*
X98524Y-43043D01*
X98538Y-43109D01*
X98555Y-43175D01*
X98576Y-43239D01*
X98600Y-43302D01*
X98629Y-43364D01*
X98660Y-43424D01*
X98695Y-43482D01*
X98733Y-43538D01*
X98775Y-43591D01*
X98819Y-43642D01*
X98866Y-43691D01*
X98916Y-43737D01*
X98968Y-43779D01*
X99023Y-43819D01*
X99080Y-43856D01*
X99139Y-43889D01*
X99200Y-43919D01*
X99262Y-43945D01*
X99326Y-43968D01*
X99391Y-43987D01*
X99457Y-44002D01*
X99523Y-44014D01*
X99591Y-44022D01*
X99658Y-44026D01*
X99726Y-44026D01*
X99793Y-44022D01*
X99861Y-44014D01*
X99927Y-44002D01*
X99993Y-43987D01*
X100058Y-43968D01*
X100122Y-43945D01*
X100184Y-43919D01*
X100245Y-43889D01*
X100304Y-43856D01*
X100361Y-43819D01*
X100416Y-43779D01*
X100468Y-43737D01*
X100518Y-43691D01*
X100565Y-43642D01*
X100609Y-43591D01*
X100651Y-43538D01*
X100689Y-43482D01*
X100724Y-43424D01*
X100755Y-43364D01*
X100784Y-43302D01*
X100808Y-43239D01*
X100829Y-43175D01*
X100846Y-43109D01*
X100860Y-43043D01*
X100869Y-42976D01*
X100875Y-42909D01*
X100877Y-42841D01*
X-133088Y91051D02*
X-133090Y90982D01*
X-133095Y90914D01*
X-133105Y90846D01*
X-133118Y90778D01*
X-133134Y90711D01*
X-133154Y90645D01*
X-133178Y90581D01*
X-133205Y90518D01*
X-133236Y90456D01*
X-133270Y90396D01*
X-133307Y90338D01*
X-133347Y90282D01*
X-133390Y90229D01*
X-133436Y90178D01*
X-133485Y90129D01*
X-133536Y90083D01*
X-133589Y90040D01*
X-133645Y90000D01*
X-133703Y89963D01*
X-133763Y89929D01*
X-133825Y89898D01*
X-133888Y89871D01*
X-133952Y89847D01*
X-134018Y89827D01*
X-134085Y89811D01*
X-134153Y89798D01*
X-134221Y89788D01*
X-134289Y89783D01*
X-134358Y89781D01*
X-133088Y91051D02*
X-133088Y96401D01*
X-133090Y96470D01*
X-133095Y96538D01*
X-133105Y96606D01*
X-133118Y96674D01*
X-133134Y96741D01*
X-133154Y96807D01*
X-133178Y96871D01*
X-133205Y96934D01*
X-133236Y96996D01*
X-133270Y97056D01*
X-133307Y97114D01*
X-133347Y97170D01*
X-133390Y97223D01*
X-133436Y97274D01*
X-133485Y97323D01*
X-133536Y97369D01*
X-133589Y97412D01*
X-133645Y97452D01*
X-133703Y97489D01*
X-133763Y97523D01*
X-133825Y97554D01*
X-133888Y97581D01*
X-133952Y97605D01*
X-134018Y97625D01*
X-134085Y97641D01*
X-134153Y97654D01*
X-134221Y97664D01*
X-134289Y97669D01*
X-134358Y97671D01*
X-148598Y97671D01*
X-148667Y97669D01*
X-148735Y97664D01*
X-148803Y97654D01*
X-148871Y97641D01*
X-148938Y97625D01*
X-149004Y97605D01*
X-149068Y97581D01*
X-149131Y97554D01*
X-149193Y97523D01*
X-149253Y97489D01*
X-149311Y97452D01*
X-149367Y97412D01*
X-149420Y97369D01*
X-149471Y97323D01*
X-149520Y97274D01*
X-149566Y97223D01*
X-149609Y97170D01*
X-149649Y97114D01*
X-149686Y97056D01*
X-149720Y96996D01*
X-149751Y96934D01*
X-149778Y96871D01*
X-149802Y96807D01*
X-149822Y96741D01*
X-149838Y96674D01*
X-149851Y96606D01*
X-149861Y96538D01*
X-149866Y96470D01*
X-149868Y96401D01*
X-149868Y91051D01*
X-149866Y90982D01*
X-149861Y90914D01*
X-149851Y90846D01*
X-149838Y90778D01*
X-149822Y90711D01*
X-149802Y90645D01*
X-149778Y90581D01*
X-149751Y90518D01*
X-149720Y90456D01*
X-149686Y90396D01*
X-149649Y90338D01*
X-149609Y90282D01*
X-149566Y90229D01*
X-149520Y90178D01*
X-149471Y90129D01*
X-149420Y90083D01*
X-149367Y90040D01*
X-149311Y90000D01*
X-149253Y89963D01*
X-149193Y89929D01*
X-149131Y89898D01*
X-149068Y89871D01*
X-149004Y89847D01*
X-148938Y89827D01*
X-148871Y89811D01*
X-148803Y89798D01*
X-148735Y89788D01*
X-148667Y89783D01*
X-148598Y89781D01*
X-134358Y89781D01*
X-134916Y83439D02*
X-136102Y83439D01*
X-134916Y83439D02*
X-134850Y83441D01*
X-134783Y83446D01*
X-134718Y83456D01*
X-134652Y83469D01*
X-134588Y83485D01*
X-134525Y83505D01*
X-134463Y83529D01*
X-134402Y83556D01*
X-134343Y83587D01*
X-134286Y83621D01*
X-134230Y83658D01*
X-134177Y83698D01*
X-134126Y83740D01*
X-134078Y83786D01*
X-134032Y83834D01*
X-133990Y83885D01*
X-133950Y83938D01*
X-133913Y83994D01*
X-133879Y84051D01*
X-133848Y84110D01*
X-133821Y84171D01*
X-133797Y84233D01*
X-133777Y84296D01*
X-133761Y84360D01*
X-133748Y84426D01*
X-133738Y84491D01*
X-133733Y84558D01*
X-133731Y84624D01*
X-133731Y87588D01*
X-133733Y87654D01*
X-133738Y87721D01*
X-133748Y87786D01*
X-133761Y87852D01*
X-133777Y87916D01*
X-133797Y87979D01*
X-133821Y88041D01*
X-133848Y88102D01*
X-133879Y88161D01*
X-133913Y88218D01*
X-133950Y88274D01*
X-133990Y88327D01*
X-134032Y88378D01*
X-134078Y88426D01*
X-134126Y88472D01*
X-134177Y88514D01*
X-134230Y88554D01*
X-134286Y88591D01*
X-134343Y88625D01*
X-134402Y88656D01*
X-134462Y88683D01*
X-134525Y88706D01*
X-134588Y88727D01*
X-134652Y88743D01*
X-134717Y88756D01*
X-134783Y88766D01*
X-134850Y88771D01*
X-134916Y88773D01*
X-136102Y88773D01*
X-138323Y87588D02*
X-139805Y88773D01*
X-139805Y83439D01*
X-138323Y83439D02*
X-141287Y83439D01*
X-22741Y-98560D02*
X-5961Y-98560D01*
X-5961Y-90670D01*
X-22741Y-90670D01*
X-22741Y-98560D01*
X-6223Y-99949D02*
X-6223Y-105283D01*
X-6223Y-99949D02*
X-7705Y-99949D01*
X-7781Y-99951D01*
X-7857Y-99957D01*
X-7933Y-99967D01*
X-8008Y-99980D01*
X-8082Y-99998D01*
X-8156Y-100019D01*
X-8228Y-100044D01*
X-8298Y-100073D01*
X-8368Y-100105D01*
X-8435Y-100141D01*
X-8500Y-100181D01*
X-8564Y-100223D01*
X-8625Y-100269D01*
X-8683Y-100318D01*
X-8739Y-100370D01*
X-8793Y-100424D01*
X-8843Y-100482D01*
X-8890Y-100541D01*
X-8935Y-100604D01*
X-8976Y-100668D01*
X-9013Y-100734D01*
X-9047Y-100803D01*
X-9078Y-100873D01*
X-9105Y-100944D01*
X-9128Y-101017D01*
X-9147Y-101091D01*
X-9163Y-101165D01*
X-9175Y-101241D01*
X-9183Y-101317D01*
X-9187Y-101393D01*
X-9187Y-101469D01*
X-9183Y-101545D01*
X-9175Y-101621D01*
X-9163Y-101697D01*
X-9147Y-101771D01*
X-9128Y-101845D01*
X-9105Y-101918D01*
X-9078Y-101989D01*
X-9047Y-102059D01*
X-9013Y-102128D01*
X-8976Y-102194D01*
X-8935Y-102258D01*
X-8890Y-102321D01*
X-8843Y-102380D01*
X-8793Y-102438D01*
X-8739Y-102492D01*
X-8683Y-102544D01*
X-8625Y-102593D01*
X-8564Y-102639D01*
X-8500Y-102681D01*
X-8435Y-102721D01*
X-8368Y-102757D01*
X-8298Y-102789D01*
X-8228Y-102818D01*
X-8156Y-102843D01*
X-8082Y-102864D01*
X-8008Y-102882D01*
X-7933Y-102895D01*
X-7857Y-102905D01*
X-7781Y-102911D01*
X-7705Y-102913D01*
X-7705Y-102912D02*
X-6223Y-102912D01*
X-8001Y-102912D02*
X-9186Y-105283D01*
X-11664Y-101134D02*
X-13146Y-99949D01*
X-13146Y-105283D01*
X-14627Y-105283D02*
X-11664Y-105283D01*
X-17150Y-104098D02*
X-18336Y-99949D01*
X-17150Y-104098D02*
X-20114Y-104098D01*
X-19225Y-105283D02*
X-19225Y-102912D01*
X-4834Y-98687D02*
X11946Y-98687D01*
X11946Y-90797D01*
X-4834Y-90797D01*
X-4834Y-98687D01*
X12065Y-100076D02*
X12065Y-105410D01*
X12065Y-100076D02*
X10583Y-100076D01*
X10507Y-100078D01*
X10431Y-100084D01*
X10355Y-100094D01*
X10280Y-100107D01*
X10206Y-100125D01*
X10132Y-100146D01*
X10060Y-100171D01*
X9990Y-100200D01*
X9920Y-100232D01*
X9853Y-100268D01*
X9788Y-100308D01*
X9724Y-100350D01*
X9663Y-100396D01*
X9605Y-100445D01*
X9549Y-100497D01*
X9495Y-100551D01*
X9445Y-100609D01*
X9398Y-100668D01*
X9353Y-100731D01*
X9312Y-100795D01*
X9275Y-100861D01*
X9241Y-100930D01*
X9210Y-101000D01*
X9183Y-101071D01*
X9160Y-101144D01*
X9141Y-101218D01*
X9125Y-101292D01*
X9113Y-101368D01*
X9105Y-101444D01*
X9101Y-101520D01*
X9101Y-101596D01*
X9105Y-101672D01*
X9113Y-101748D01*
X9125Y-101824D01*
X9141Y-101898D01*
X9160Y-101972D01*
X9183Y-102045D01*
X9210Y-102116D01*
X9241Y-102186D01*
X9275Y-102255D01*
X9312Y-102321D01*
X9353Y-102385D01*
X9398Y-102448D01*
X9445Y-102507D01*
X9495Y-102565D01*
X9549Y-102619D01*
X9605Y-102671D01*
X9663Y-102720D01*
X9724Y-102766D01*
X9788Y-102808D01*
X9853Y-102848D01*
X9920Y-102884D01*
X9990Y-102916D01*
X10060Y-102945D01*
X10132Y-102970D01*
X10206Y-102991D01*
X10280Y-103009D01*
X10355Y-103022D01*
X10431Y-103032D01*
X10507Y-103038D01*
X10583Y-103040D01*
X10583Y-103039D02*
X12065Y-103039D01*
X10287Y-103039D02*
X9102Y-105410D01*
X6624Y-101261D02*
X5142Y-100076D01*
X5142Y-105410D01*
X3661Y-105410D02*
X6624Y-105410D01*
X-492Y-100076D02*
X-564Y-100078D01*
X-636Y-100084D01*
X-708Y-100094D01*
X-779Y-100107D01*
X-849Y-100125D01*
X-918Y-100146D01*
X-986Y-100171D01*
X-1052Y-100199D01*
X-1117Y-100231D01*
X-1180Y-100267D01*
X-1241Y-100306D01*
X-1299Y-100348D01*
X-1356Y-100393D01*
X-1409Y-100442D01*
X-1460Y-100493D01*
X-1509Y-100546D01*
X-1554Y-100603D01*
X-1596Y-100661D01*
X-1635Y-100722D01*
X-1671Y-100785D01*
X-1703Y-100850D01*
X-1731Y-100916D01*
X-1756Y-100984D01*
X-1777Y-101053D01*
X-1795Y-101123D01*
X-1808Y-101194D01*
X-1818Y-101266D01*
X-1824Y-101338D01*
X-1826Y-101410D01*
X-492Y-100076D02*
X-412Y-100078D01*
X-333Y-100083D01*
X-253Y-100093D01*
X-175Y-100106D01*
X-97Y-100122D01*
X-20Y-100142D01*
X57Y-100166D01*
X132Y-100194D01*
X205Y-100224D01*
X277Y-100258D01*
X348Y-100296D01*
X416Y-100337D01*
X483Y-100381D01*
X548Y-100427D01*
X610Y-100477D01*
X670Y-100530D01*
X727Y-100586D01*
X782Y-100644D01*
X834Y-100704D01*
X883Y-100767D01*
X929Y-100832D01*
X972Y-100899D01*
X1012Y-100969D01*
X1048Y-101039D01*
X1082Y-101112D01*
X1111Y-101186D01*
X1138Y-101261D01*
X-1382Y-102447D02*
X-1433Y-102396D01*
X-1481Y-102342D01*
X-1527Y-102286D01*
X-1570Y-102227D01*
X-1610Y-102167D01*
X-1646Y-102104D01*
X-1680Y-102040D01*
X-1710Y-101974D01*
X-1737Y-101907D01*
X-1760Y-101838D01*
X-1780Y-101769D01*
X-1797Y-101698D01*
X-1810Y-101627D01*
X-1819Y-101555D01*
X-1824Y-101482D01*
X-1826Y-101410D01*
X-1381Y-102447D02*
X1138Y-105410D01*
X-1826Y-105410D01*
X12692Y-99068D02*
X29472Y-99068D01*
X29472Y-91178D01*
X12692Y-91178D01*
X12692Y-99068D01*
X29210Y-99314D02*
X29210Y-104648D01*
X29210Y-99314D02*
X27728Y-99314D01*
X27652Y-99316D01*
X27576Y-99322D01*
X27500Y-99332D01*
X27425Y-99345D01*
X27351Y-99363D01*
X27277Y-99384D01*
X27205Y-99409D01*
X27135Y-99438D01*
X27065Y-99470D01*
X26998Y-99506D01*
X26933Y-99546D01*
X26869Y-99588D01*
X26808Y-99634D01*
X26750Y-99683D01*
X26694Y-99735D01*
X26640Y-99789D01*
X26590Y-99847D01*
X26543Y-99906D01*
X26498Y-99969D01*
X26457Y-100033D01*
X26420Y-100099D01*
X26386Y-100168D01*
X26355Y-100238D01*
X26328Y-100309D01*
X26305Y-100382D01*
X26286Y-100456D01*
X26270Y-100530D01*
X26258Y-100606D01*
X26250Y-100682D01*
X26246Y-100758D01*
X26246Y-100834D01*
X26250Y-100910D01*
X26258Y-100986D01*
X26270Y-101062D01*
X26286Y-101136D01*
X26305Y-101210D01*
X26328Y-101283D01*
X26355Y-101354D01*
X26386Y-101424D01*
X26420Y-101493D01*
X26457Y-101559D01*
X26498Y-101623D01*
X26543Y-101686D01*
X26590Y-101745D01*
X26640Y-101803D01*
X26694Y-101857D01*
X26750Y-101909D01*
X26808Y-101958D01*
X26869Y-102004D01*
X26933Y-102046D01*
X26998Y-102086D01*
X27065Y-102122D01*
X27135Y-102154D01*
X27205Y-102183D01*
X27277Y-102208D01*
X27351Y-102229D01*
X27425Y-102247D01*
X27500Y-102260D01*
X27576Y-102270D01*
X27652Y-102276D01*
X27728Y-102278D01*
X27728Y-102277D02*
X29210Y-102277D01*
X27432Y-102277D02*
X26247Y-104648D01*
X23769Y-100499D02*
X22287Y-99314D01*
X22287Y-104648D01*
X20806Y-104648D02*
X23769Y-104648D01*
X18283Y-101981D02*
X18281Y-101856D01*
X18276Y-101732D01*
X18267Y-101608D01*
X18255Y-101484D01*
X18239Y-101360D01*
X18220Y-101237D01*
X18197Y-101114D01*
X18170Y-100993D01*
X18141Y-100872D01*
X18108Y-100751D01*
X18071Y-100632D01*
X18031Y-100514D01*
X17988Y-100397D01*
X17941Y-100282D01*
X17891Y-100167D01*
X17838Y-100055D01*
X17815Y-99994D01*
X17789Y-99935D01*
X17759Y-99877D01*
X17726Y-99822D01*
X17689Y-99768D01*
X17650Y-99717D01*
X17608Y-99668D01*
X17562Y-99622D01*
X17514Y-99578D01*
X17464Y-99537D01*
X17411Y-99500D01*
X17357Y-99465D01*
X17300Y-99434D01*
X17241Y-99406D01*
X17181Y-99382D01*
X17120Y-99361D01*
X17058Y-99344D01*
X16994Y-99331D01*
X16930Y-99322D01*
X16866Y-99316D01*
X16801Y-99314D01*
X16736Y-99316D01*
X16672Y-99322D01*
X16608Y-99331D01*
X16544Y-99344D01*
X16482Y-99361D01*
X16421Y-99382D01*
X16361Y-99406D01*
X16302Y-99434D01*
X16245Y-99465D01*
X16191Y-99500D01*
X16138Y-99537D01*
X16088Y-99578D01*
X16040Y-99622D01*
X15994Y-99668D01*
X15952Y-99717D01*
X15913Y-99768D01*
X15876Y-99822D01*
X15843Y-99877D01*
X15813Y-99935D01*
X15787Y-99994D01*
X15764Y-100055D01*
X15711Y-100167D01*
X15661Y-100282D01*
X15614Y-100397D01*
X15571Y-100514D01*
X15531Y-100632D01*
X15494Y-100751D01*
X15461Y-100872D01*
X15432Y-100993D01*
X15405Y-101114D01*
X15382Y-101237D01*
X15363Y-101360D01*
X15347Y-101484D01*
X15335Y-101608D01*
X15326Y-101732D01*
X15321Y-101856D01*
X15319Y-101981D01*
X18283Y-101981D02*
X18281Y-102106D01*
X18276Y-102230D01*
X18267Y-102354D01*
X18255Y-102478D01*
X18239Y-102602D01*
X18220Y-102725D01*
X18197Y-102848D01*
X18170Y-102969D01*
X18141Y-103090D01*
X18108Y-103211D01*
X18071Y-103330D01*
X18031Y-103448D01*
X17988Y-103565D01*
X17941Y-103680D01*
X17891Y-103795D01*
X17838Y-103907D01*
X17815Y-103968D01*
X17789Y-104027D01*
X17759Y-104085D01*
X17726Y-104140D01*
X17689Y-104194D01*
X17650Y-104245D01*
X17608Y-104294D01*
X17562Y-104340D01*
X17514Y-104384D01*
X17464Y-104425D01*
X17411Y-104462D01*
X17357Y-104497D01*
X17300Y-104528D01*
X17241Y-104556D01*
X17181Y-104580D01*
X17120Y-104601D01*
X17058Y-104618D01*
X16994Y-104631D01*
X16930Y-104640D01*
X16866Y-104646D01*
X16801Y-104648D01*
X15764Y-103907D02*
X15711Y-103795D01*
X15661Y-103680D01*
X15614Y-103565D01*
X15571Y-103448D01*
X15531Y-103330D01*
X15494Y-103211D01*
X15461Y-103090D01*
X15432Y-102969D01*
X15405Y-102848D01*
X15382Y-102725D01*
X15363Y-102602D01*
X15347Y-102478D01*
X15335Y-102354D01*
X15326Y-102230D01*
X15321Y-102106D01*
X15319Y-101981D01*
X15764Y-103907D02*
X15787Y-103968D01*
X15813Y-104027D01*
X15843Y-104085D01*
X15876Y-104140D01*
X15913Y-104194D01*
X15952Y-104245D01*
X15994Y-104294D01*
X16040Y-104340D01*
X16088Y-104384D01*
X16138Y-104425D01*
X16191Y-104462D01*
X16245Y-104497D01*
X16302Y-104528D01*
X16361Y-104556D01*
X16421Y-104580D01*
X16482Y-104601D01*
X16544Y-104618D01*
X16608Y-104631D01*
X16672Y-104640D01*
X16736Y-104646D01*
X16801Y-104648D01*
X17986Y-103463D02*
X15616Y-100499D01*
X90289Y31615D02*
X107069Y31615D01*
X107069Y39505D01*
X90289Y39505D01*
X90289Y31615D01*
X86360Y33401D02*
X86360Y38735D01*
X84878Y38735D01*
X84802Y38733D01*
X84726Y38727D01*
X84650Y38717D01*
X84575Y38704D01*
X84501Y38686D01*
X84427Y38665D01*
X84355Y38640D01*
X84285Y38611D01*
X84215Y38579D01*
X84148Y38543D01*
X84083Y38503D01*
X84019Y38461D01*
X83958Y38415D01*
X83900Y38366D01*
X83844Y38314D01*
X83790Y38260D01*
X83740Y38202D01*
X83693Y38143D01*
X83648Y38080D01*
X83607Y38016D01*
X83570Y37950D01*
X83536Y37881D01*
X83505Y37811D01*
X83478Y37740D01*
X83455Y37667D01*
X83436Y37593D01*
X83420Y37519D01*
X83408Y37443D01*
X83400Y37367D01*
X83396Y37291D01*
X83396Y37215D01*
X83400Y37139D01*
X83408Y37063D01*
X83420Y36987D01*
X83436Y36913D01*
X83455Y36839D01*
X83478Y36766D01*
X83505Y36695D01*
X83536Y36625D01*
X83570Y36556D01*
X83607Y36490D01*
X83648Y36426D01*
X83693Y36363D01*
X83740Y36304D01*
X83790Y36246D01*
X83844Y36192D01*
X83900Y36140D01*
X83958Y36091D01*
X84019Y36045D01*
X84083Y36003D01*
X84148Y35963D01*
X84215Y35927D01*
X84285Y35895D01*
X84355Y35866D01*
X84427Y35841D01*
X84501Y35820D01*
X84575Y35802D01*
X84650Y35789D01*
X84726Y35779D01*
X84802Y35773D01*
X84878Y35771D01*
X84878Y35772D02*
X86360Y35772D01*
X84582Y35772D02*
X83397Y33401D01*
X80919Y38142D02*
X80919Y38735D01*
X77956Y38735D01*
X79437Y33401D01*
X89908Y42029D02*
X106688Y42029D01*
X106688Y49919D01*
X89908Y49919D01*
X89908Y42029D01*
X86487Y43815D02*
X86487Y49149D01*
X85005Y49149D01*
X84929Y49147D01*
X84853Y49141D01*
X84777Y49131D01*
X84702Y49118D01*
X84628Y49100D01*
X84554Y49079D01*
X84482Y49054D01*
X84412Y49025D01*
X84342Y48993D01*
X84275Y48957D01*
X84210Y48917D01*
X84146Y48875D01*
X84085Y48829D01*
X84027Y48780D01*
X83971Y48728D01*
X83917Y48674D01*
X83867Y48616D01*
X83820Y48557D01*
X83775Y48494D01*
X83734Y48430D01*
X83697Y48364D01*
X83663Y48295D01*
X83632Y48225D01*
X83605Y48154D01*
X83582Y48081D01*
X83563Y48007D01*
X83547Y47933D01*
X83535Y47857D01*
X83527Y47781D01*
X83523Y47705D01*
X83523Y47629D01*
X83527Y47553D01*
X83535Y47477D01*
X83547Y47401D01*
X83563Y47327D01*
X83582Y47253D01*
X83605Y47180D01*
X83632Y47109D01*
X83663Y47039D01*
X83697Y46970D01*
X83734Y46904D01*
X83775Y46840D01*
X83820Y46777D01*
X83867Y46718D01*
X83917Y46660D01*
X83971Y46606D01*
X84027Y46554D01*
X84085Y46505D01*
X84146Y46459D01*
X84210Y46417D01*
X84275Y46377D01*
X84342Y46341D01*
X84412Y46309D01*
X84482Y46280D01*
X84554Y46255D01*
X84628Y46234D01*
X84702Y46216D01*
X84777Y46203D01*
X84853Y46193D01*
X84929Y46187D01*
X85005Y46185D01*
X85005Y46186D02*
X86487Y46186D01*
X84709Y46186D02*
X83524Y43815D01*
X81046Y45297D02*
X81044Y45373D01*
X81038Y45449D01*
X81028Y45525D01*
X81015Y45600D01*
X80997Y45674D01*
X80976Y45748D01*
X80951Y45820D01*
X80922Y45890D01*
X80890Y45960D01*
X80854Y46027D01*
X80814Y46092D01*
X80772Y46156D01*
X80726Y46217D01*
X80677Y46275D01*
X80625Y46331D01*
X80571Y46385D01*
X80513Y46435D01*
X80454Y46482D01*
X80391Y46527D01*
X80327Y46568D01*
X80261Y46605D01*
X80192Y46639D01*
X80122Y46670D01*
X80051Y46697D01*
X79978Y46720D01*
X79904Y46739D01*
X79830Y46755D01*
X79754Y46767D01*
X79678Y46775D01*
X79602Y46779D01*
X79526Y46779D01*
X79450Y46775D01*
X79374Y46767D01*
X79298Y46755D01*
X79224Y46739D01*
X79150Y46720D01*
X79077Y46697D01*
X79006Y46670D01*
X78936Y46639D01*
X78867Y46605D01*
X78801Y46568D01*
X78737Y46527D01*
X78674Y46482D01*
X78615Y46435D01*
X78557Y46385D01*
X78503Y46331D01*
X78451Y46275D01*
X78402Y46217D01*
X78356Y46156D01*
X78314Y46092D01*
X78274Y46027D01*
X78238Y45960D01*
X78206Y45890D01*
X78177Y45820D01*
X78152Y45748D01*
X78131Y45674D01*
X78113Y45600D01*
X78100Y45525D01*
X78090Y45449D01*
X78084Y45373D01*
X78082Y45297D01*
X78084Y45221D01*
X78090Y45145D01*
X78100Y45069D01*
X78113Y44994D01*
X78131Y44920D01*
X78152Y44846D01*
X78177Y44774D01*
X78206Y44704D01*
X78238Y44634D01*
X78274Y44567D01*
X78314Y44502D01*
X78356Y44438D01*
X78402Y44377D01*
X78451Y44319D01*
X78503Y44263D01*
X78557Y44209D01*
X78615Y44159D01*
X78674Y44112D01*
X78737Y44067D01*
X78801Y44026D01*
X78867Y43989D01*
X78936Y43955D01*
X79006Y43924D01*
X79077Y43897D01*
X79150Y43874D01*
X79224Y43855D01*
X79298Y43839D01*
X79374Y43827D01*
X79450Y43819D01*
X79526Y43815D01*
X79602Y43815D01*
X79678Y43819D01*
X79754Y43827D01*
X79830Y43839D01*
X79904Y43855D01*
X79978Y43874D01*
X80051Y43897D01*
X80122Y43924D01*
X80192Y43955D01*
X80261Y43989D01*
X80327Y44026D01*
X80391Y44067D01*
X80454Y44112D01*
X80513Y44159D01*
X80571Y44209D01*
X80625Y44263D01*
X80677Y44319D01*
X80726Y44377D01*
X80772Y44438D01*
X80814Y44502D01*
X80854Y44567D01*
X80890Y44634D01*
X80922Y44704D01*
X80951Y44774D01*
X80976Y44846D01*
X80997Y44920D01*
X81015Y44994D01*
X81028Y45069D01*
X81038Y45145D01*
X81044Y45221D01*
X81046Y45297D01*
X80749Y47964D02*
X80747Y48032D01*
X80741Y48099D01*
X80732Y48166D01*
X80718Y48232D01*
X80701Y48298D01*
X80680Y48362D01*
X80656Y48425D01*
X80627Y48487D01*
X80596Y48547D01*
X80561Y48605D01*
X80523Y48661D01*
X80481Y48714D01*
X80437Y48765D01*
X80390Y48814D01*
X80340Y48860D01*
X80288Y48902D01*
X80233Y48942D01*
X80176Y48979D01*
X80117Y49012D01*
X80056Y49042D01*
X79994Y49068D01*
X79930Y49091D01*
X79865Y49110D01*
X79799Y49125D01*
X79733Y49137D01*
X79665Y49145D01*
X79598Y49149D01*
X79530Y49149D01*
X79463Y49145D01*
X79395Y49137D01*
X79329Y49125D01*
X79263Y49110D01*
X79198Y49091D01*
X79134Y49068D01*
X79072Y49042D01*
X79011Y49012D01*
X78952Y48979D01*
X78895Y48942D01*
X78840Y48902D01*
X78788Y48860D01*
X78738Y48814D01*
X78691Y48765D01*
X78647Y48714D01*
X78605Y48661D01*
X78567Y48605D01*
X78532Y48547D01*
X78501Y48487D01*
X78472Y48425D01*
X78448Y48362D01*
X78427Y48298D01*
X78410Y48232D01*
X78396Y48166D01*
X78387Y48099D01*
X78381Y48032D01*
X78379Y47964D01*
X78381Y47896D01*
X78387Y47829D01*
X78396Y47762D01*
X78410Y47696D01*
X78427Y47630D01*
X78448Y47566D01*
X78472Y47503D01*
X78501Y47441D01*
X78532Y47381D01*
X78567Y47323D01*
X78605Y47267D01*
X78647Y47214D01*
X78691Y47163D01*
X78738Y47114D01*
X78788Y47068D01*
X78840Y47026D01*
X78895Y46986D01*
X78952Y46949D01*
X79011Y46916D01*
X79072Y46886D01*
X79134Y46860D01*
X79198Y46837D01*
X79263Y46818D01*
X79329Y46803D01*
X79395Y46791D01*
X79463Y46783D01*
X79530Y46779D01*
X79598Y46779D01*
X79665Y46783D01*
X79733Y46791D01*
X79799Y46803D01*
X79865Y46818D01*
X79930Y46837D01*
X79994Y46860D01*
X80056Y46886D01*
X80117Y46916D01*
X80176Y46949D01*
X80233Y46986D01*
X80288Y47026D01*
X80340Y47068D01*
X80390Y47114D01*
X80437Y47163D01*
X80481Y47214D01*
X80523Y47267D01*
X80561Y47323D01*
X80596Y47381D01*
X80627Y47441D01*
X80656Y47503D01*
X80680Y47566D01*
X80701Y47630D01*
X80718Y47696D01*
X80732Y47762D01*
X80741Y47829D01*
X80747Y47896D01*
X80749Y47964D01*
D18*
X-178474Y34476D02*
X-178474Y32726D01*
X-178474Y34476D02*
X-167474Y34476D01*
X-167474Y32726D01*
X-178474Y27726D02*
X-178474Y25976D01*
X-167474Y25976D01*
X-167474Y27726D01*
D11*
X-167474Y36480D02*
X-166232Y36480D01*
X-166162Y36482D01*
X-166093Y36488D01*
X-166024Y36498D01*
X-165956Y36511D01*
X-165888Y36529D01*
X-165822Y36550D01*
X-165757Y36575D01*
X-165693Y36603D01*
X-165631Y36635D01*
X-165571Y36670D01*
X-165513Y36709D01*
X-165458Y36751D01*
X-165404Y36796D01*
X-165354Y36844D01*
X-165306Y36894D01*
X-165261Y36948D01*
X-165219Y37003D01*
X-165180Y37061D01*
X-165145Y37121D01*
X-165113Y37183D01*
X-165085Y37247D01*
X-165060Y37312D01*
X-165039Y37378D01*
X-165021Y37446D01*
X-165008Y37514D01*
X-164998Y37583D01*
X-164992Y37652D01*
X-164990Y37722D01*
X-164990Y40826D01*
X-164992Y40896D01*
X-164998Y40965D01*
X-165008Y41034D01*
X-165021Y41102D01*
X-165039Y41170D01*
X-165060Y41236D01*
X-165085Y41301D01*
X-165113Y41365D01*
X-165145Y41427D01*
X-165180Y41487D01*
X-165219Y41545D01*
X-165261Y41600D01*
X-165306Y41654D01*
X-165354Y41704D01*
X-165404Y41752D01*
X-165458Y41797D01*
X-165513Y41839D01*
X-165571Y41878D01*
X-165631Y41913D01*
X-165693Y41945D01*
X-165757Y41973D01*
X-165822Y41998D01*
X-165888Y42019D01*
X-165956Y42037D01*
X-166024Y42050D01*
X-166093Y42060D01*
X-166162Y42066D01*
X-166232Y42068D01*
X-167474Y42068D01*
X-169578Y36480D02*
X-171130Y36480D01*
X-171207Y36482D01*
X-171285Y36488D01*
X-171361Y36497D01*
X-171438Y36511D01*
X-171513Y36528D01*
X-171587Y36549D01*
X-171661Y36574D01*
X-171733Y36602D01*
X-171803Y36634D01*
X-171872Y36669D01*
X-171939Y36708D01*
X-172004Y36750D01*
X-172067Y36795D01*
X-172128Y36843D01*
X-172186Y36894D01*
X-172241Y36948D01*
X-172294Y37005D01*
X-172343Y37064D01*
X-172390Y37126D01*
X-172434Y37190D01*
X-172474Y37256D01*
X-172511Y37324D01*
X-172545Y37394D01*
X-172575Y37465D01*
X-172601Y37538D01*
X-172624Y37612D01*
X-172643Y37687D01*
X-172658Y37762D01*
X-172670Y37839D01*
X-172678Y37916D01*
X-172682Y37993D01*
X-172682Y38071D01*
X-172678Y38148D01*
X-172670Y38225D01*
X-172658Y38302D01*
X-172643Y38377D01*
X-172624Y38452D01*
X-172601Y38526D01*
X-172575Y38599D01*
X-172545Y38670D01*
X-172511Y38740D01*
X-172474Y38808D01*
X-172434Y38874D01*
X-172390Y38938D01*
X-172343Y39000D01*
X-172294Y39059D01*
X-172241Y39116D01*
X-172186Y39170D01*
X-172128Y39221D01*
X-172067Y39269D01*
X-172004Y39314D01*
X-171939Y39356D01*
X-171872Y39395D01*
X-171803Y39430D01*
X-171733Y39462D01*
X-171661Y39490D01*
X-171587Y39515D01*
X-171513Y39536D01*
X-171438Y39553D01*
X-171361Y39567D01*
X-171285Y39576D01*
X-171207Y39582D01*
X-171130Y39584D01*
X-171441Y42068D02*
X-169578Y42068D01*
X-171441Y42068D02*
X-171511Y42066D01*
X-171580Y42060D01*
X-171649Y42050D01*
X-171717Y42037D01*
X-171785Y42019D01*
X-171851Y41998D01*
X-171916Y41973D01*
X-171980Y41945D01*
X-172042Y41913D01*
X-172102Y41878D01*
X-172160Y41839D01*
X-172215Y41797D01*
X-172269Y41752D01*
X-172319Y41704D01*
X-172367Y41654D01*
X-172412Y41600D01*
X-172454Y41545D01*
X-172493Y41487D01*
X-172528Y41427D01*
X-172560Y41365D01*
X-172588Y41301D01*
X-172613Y41236D01*
X-172634Y41170D01*
X-172652Y41102D01*
X-172665Y41034D01*
X-172675Y40965D01*
X-172681Y40896D01*
X-172683Y40826D01*
X-172681Y40756D01*
X-172675Y40687D01*
X-172665Y40618D01*
X-172652Y40550D01*
X-172634Y40482D01*
X-172613Y40416D01*
X-172588Y40351D01*
X-172560Y40287D01*
X-172528Y40225D01*
X-172493Y40165D01*
X-172454Y40107D01*
X-172412Y40052D01*
X-172367Y39998D01*
X-172319Y39948D01*
X-172269Y39900D01*
X-172215Y39855D01*
X-172160Y39813D01*
X-172102Y39774D01*
X-172042Y39739D01*
X-171980Y39707D01*
X-171916Y39679D01*
X-171851Y39654D01*
X-171785Y39633D01*
X-171717Y39615D01*
X-171649Y39602D01*
X-171580Y39592D01*
X-171511Y39586D01*
X-171441Y39584D01*
X-170199Y39584D01*
X-175065Y36480D02*
X-176617Y36480D01*
X-176694Y36482D01*
X-176772Y36488D01*
X-176848Y36497D01*
X-176925Y36511D01*
X-177000Y36528D01*
X-177074Y36549D01*
X-177148Y36574D01*
X-177220Y36602D01*
X-177290Y36634D01*
X-177359Y36669D01*
X-177426Y36708D01*
X-177491Y36750D01*
X-177554Y36795D01*
X-177615Y36843D01*
X-177673Y36894D01*
X-177728Y36948D01*
X-177781Y37005D01*
X-177830Y37064D01*
X-177877Y37126D01*
X-177921Y37190D01*
X-177961Y37256D01*
X-177998Y37324D01*
X-178032Y37394D01*
X-178062Y37465D01*
X-178088Y37538D01*
X-178111Y37612D01*
X-178130Y37687D01*
X-178145Y37762D01*
X-178157Y37839D01*
X-178165Y37916D01*
X-178169Y37993D01*
X-178169Y38071D01*
X-178165Y38148D01*
X-178157Y38225D01*
X-178145Y38302D01*
X-178130Y38377D01*
X-178111Y38452D01*
X-178088Y38526D01*
X-178062Y38599D01*
X-178032Y38670D01*
X-177998Y38740D01*
X-177961Y38808D01*
X-177921Y38874D01*
X-177877Y38938D01*
X-177830Y39000D01*
X-177781Y39059D01*
X-177728Y39116D01*
X-177673Y39170D01*
X-177615Y39221D01*
X-177554Y39269D01*
X-177491Y39314D01*
X-177426Y39356D01*
X-177359Y39395D01*
X-177290Y39430D01*
X-177220Y39462D01*
X-177148Y39490D01*
X-177074Y39515D01*
X-177000Y39536D01*
X-176925Y39553D01*
X-176848Y39567D01*
X-176772Y39576D01*
X-176694Y39582D01*
X-176617Y39584D01*
X-176927Y42068D02*
X-175065Y42068D01*
X-176927Y42068D02*
X-176997Y42066D01*
X-177066Y42060D01*
X-177135Y42050D01*
X-177203Y42037D01*
X-177271Y42019D01*
X-177337Y41998D01*
X-177402Y41973D01*
X-177466Y41945D01*
X-177528Y41913D01*
X-177588Y41878D01*
X-177646Y41839D01*
X-177701Y41797D01*
X-177755Y41752D01*
X-177805Y41704D01*
X-177853Y41654D01*
X-177898Y41600D01*
X-177940Y41545D01*
X-177979Y41487D01*
X-178014Y41427D01*
X-178046Y41365D01*
X-178074Y41301D01*
X-178099Y41236D01*
X-178120Y41170D01*
X-178138Y41102D01*
X-178151Y41034D01*
X-178161Y40965D01*
X-178167Y40896D01*
X-178169Y40826D01*
X-178167Y40756D01*
X-178161Y40687D01*
X-178151Y40618D01*
X-178138Y40550D01*
X-178120Y40482D01*
X-178099Y40416D01*
X-178074Y40351D01*
X-178046Y40287D01*
X-178014Y40225D01*
X-177979Y40165D01*
X-177940Y40107D01*
X-177898Y40052D01*
X-177853Y39998D01*
X-177805Y39948D01*
X-177755Y39900D01*
X-177701Y39855D01*
X-177646Y39813D01*
X-177588Y39774D01*
X-177528Y39739D01*
X-177466Y39707D01*
X-177402Y39679D01*
X-177337Y39654D01*
X-177271Y39633D01*
X-177203Y39615D01*
X-177135Y39602D01*
X-177066Y39592D01*
X-176997Y39586D01*
X-176927Y39584D01*
X-175685Y39584D01*
D17*
X103370Y75049D02*
X120150Y75049D01*
X120150Y82939D01*
X103370Y82939D01*
X103370Y75049D01*
X119761Y73533D02*
X119761Y68199D01*
X119761Y73533D02*
X118279Y73533D01*
X118203Y73531D01*
X118127Y73525D01*
X118051Y73515D01*
X117976Y73502D01*
X117902Y73484D01*
X117828Y73463D01*
X117756Y73438D01*
X117686Y73409D01*
X117616Y73377D01*
X117549Y73341D01*
X117484Y73301D01*
X117420Y73259D01*
X117359Y73213D01*
X117301Y73164D01*
X117245Y73112D01*
X117191Y73058D01*
X117141Y73000D01*
X117094Y72941D01*
X117049Y72878D01*
X117008Y72814D01*
X116971Y72748D01*
X116937Y72679D01*
X116906Y72609D01*
X116879Y72538D01*
X116856Y72465D01*
X116837Y72391D01*
X116821Y72317D01*
X116809Y72241D01*
X116801Y72165D01*
X116797Y72089D01*
X116797Y72013D01*
X116801Y71937D01*
X116809Y71861D01*
X116821Y71785D01*
X116837Y71711D01*
X116856Y71637D01*
X116879Y71564D01*
X116906Y71493D01*
X116937Y71423D01*
X116971Y71354D01*
X117008Y71288D01*
X117049Y71224D01*
X117094Y71161D01*
X117141Y71102D01*
X117191Y71044D01*
X117245Y70990D01*
X117301Y70938D01*
X117359Y70889D01*
X117420Y70843D01*
X117484Y70801D01*
X117549Y70761D01*
X117616Y70725D01*
X117686Y70693D01*
X117756Y70664D01*
X117828Y70639D01*
X117902Y70618D01*
X117976Y70600D01*
X118051Y70587D01*
X118127Y70577D01*
X118203Y70571D01*
X118279Y70569D01*
X118279Y70570D02*
X119761Y70570D01*
X117983Y70570D02*
X116798Y68199D01*
X112690Y73533D02*
X112618Y73531D01*
X112546Y73525D01*
X112474Y73515D01*
X112403Y73502D01*
X112333Y73484D01*
X112264Y73463D01*
X112196Y73438D01*
X112130Y73410D01*
X112065Y73378D01*
X112002Y73342D01*
X111941Y73303D01*
X111883Y73261D01*
X111826Y73216D01*
X111773Y73167D01*
X111722Y73116D01*
X111673Y73063D01*
X111628Y73006D01*
X111586Y72948D01*
X111547Y72887D01*
X111511Y72824D01*
X111479Y72759D01*
X111451Y72693D01*
X111426Y72625D01*
X111405Y72556D01*
X111387Y72486D01*
X111374Y72415D01*
X111364Y72343D01*
X111358Y72271D01*
X111356Y72199D01*
X112690Y73533D02*
X112770Y73531D01*
X112849Y73526D01*
X112929Y73516D01*
X113007Y73503D01*
X113085Y73487D01*
X113163Y73467D01*
X113239Y73443D01*
X113314Y73415D01*
X113387Y73385D01*
X113459Y73351D01*
X113530Y73313D01*
X113598Y73272D01*
X113665Y73228D01*
X113730Y73182D01*
X113792Y73132D01*
X113852Y73079D01*
X113909Y73023D01*
X113964Y72965D01*
X114016Y72905D01*
X114065Y72842D01*
X114111Y72777D01*
X114154Y72710D01*
X114194Y72640D01*
X114230Y72570D01*
X114264Y72497D01*
X114293Y72423D01*
X114320Y72348D01*
X111801Y71162D02*
X111750Y71213D01*
X111702Y71267D01*
X111656Y71323D01*
X111613Y71382D01*
X111573Y71442D01*
X111537Y71505D01*
X111503Y71569D01*
X111473Y71635D01*
X111446Y71702D01*
X111423Y71771D01*
X111403Y71840D01*
X111386Y71911D01*
X111373Y71982D01*
X111364Y72054D01*
X111359Y72127D01*
X111357Y72199D01*
X111801Y71162D02*
X114320Y68199D01*
X111357Y68199D01*
X108834Y71162D02*
X107056Y71162D01*
X106990Y71160D01*
X106923Y71155D01*
X106858Y71145D01*
X106792Y71132D01*
X106728Y71116D01*
X106665Y71096D01*
X106603Y71072D01*
X106542Y71045D01*
X106483Y71014D01*
X106426Y70980D01*
X106370Y70943D01*
X106317Y70903D01*
X106266Y70861D01*
X106218Y70815D01*
X106172Y70767D01*
X106130Y70716D01*
X106090Y70663D01*
X106053Y70607D01*
X106019Y70550D01*
X105988Y70491D01*
X105961Y70430D01*
X105937Y70368D01*
X105917Y70305D01*
X105901Y70241D01*
X105888Y70175D01*
X105878Y70110D01*
X105873Y70043D01*
X105871Y69977D01*
X105870Y69977D02*
X105870Y69681D01*
X105872Y69605D01*
X105878Y69529D01*
X105888Y69453D01*
X105901Y69378D01*
X105919Y69304D01*
X105940Y69230D01*
X105965Y69158D01*
X105994Y69088D01*
X106026Y69018D01*
X106062Y68951D01*
X106102Y68886D01*
X106144Y68822D01*
X106190Y68761D01*
X106239Y68703D01*
X106291Y68647D01*
X106345Y68593D01*
X106403Y68543D01*
X106462Y68496D01*
X106525Y68451D01*
X106589Y68410D01*
X106655Y68373D01*
X106724Y68339D01*
X106794Y68308D01*
X106865Y68281D01*
X106938Y68258D01*
X107012Y68239D01*
X107086Y68223D01*
X107162Y68211D01*
X107238Y68203D01*
X107314Y68199D01*
X107390Y68199D01*
X107466Y68203D01*
X107542Y68211D01*
X107618Y68223D01*
X107692Y68239D01*
X107766Y68258D01*
X107839Y68281D01*
X107910Y68308D01*
X107980Y68339D01*
X108049Y68373D01*
X108115Y68410D01*
X108179Y68451D01*
X108242Y68496D01*
X108301Y68543D01*
X108359Y68593D01*
X108413Y68647D01*
X108465Y68703D01*
X108514Y68761D01*
X108560Y68822D01*
X108602Y68886D01*
X108642Y68951D01*
X108678Y69018D01*
X108710Y69088D01*
X108739Y69158D01*
X108764Y69230D01*
X108785Y69304D01*
X108803Y69378D01*
X108816Y69453D01*
X108826Y69529D01*
X108832Y69605D01*
X108834Y69681D01*
X108834Y71162D01*
X108832Y71257D01*
X108826Y71353D01*
X108817Y71448D01*
X108803Y71542D01*
X108786Y71636D01*
X108765Y71729D01*
X108740Y71822D01*
X108712Y71913D01*
X108680Y72003D01*
X108644Y72091D01*
X108605Y72178D01*
X108562Y72264D01*
X108516Y72347D01*
X108467Y72429D01*
X108414Y72509D01*
X108358Y72586D01*
X108300Y72662D01*
X108238Y72734D01*
X108173Y72804D01*
X108105Y72872D01*
X108035Y72937D01*
X107963Y72999D01*
X107887Y73057D01*
X107810Y73113D01*
X107730Y73166D01*
X107649Y73215D01*
X107565Y73261D01*
X107479Y73304D01*
X107392Y73343D01*
X107304Y73379D01*
X107214Y73411D01*
X107123Y73439D01*
X107030Y73464D01*
X106937Y73485D01*
X106843Y73502D01*
X106749Y73516D01*
X106654Y73525D01*
X106559Y73531D01*
X106463Y73533D01*
X110752Y96655D02*
X93972Y96655D01*
X93972Y88765D01*
X110752Y88765D01*
X110752Y96655D01*
X109855Y98679D02*
X109855Y104013D01*
X108373Y104013D01*
X108297Y104011D01*
X108221Y104005D01*
X108145Y103995D01*
X108070Y103982D01*
X107996Y103964D01*
X107922Y103943D01*
X107850Y103918D01*
X107780Y103889D01*
X107710Y103857D01*
X107643Y103821D01*
X107578Y103781D01*
X107514Y103739D01*
X107453Y103693D01*
X107395Y103644D01*
X107339Y103592D01*
X107285Y103538D01*
X107235Y103480D01*
X107188Y103421D01*
X107143Y103358D01*
X107102Y103294D01*
X107065Y103228D01*
X107031Y103159D01*
X107000Y103089D01*
X106973Y103018D01*
X106950Y102945D01*
X106931Y102871D01*
X106915Y102797D01*
X106903Y102721D01*
X106895Y102645D01*
X106891Y102569D01*
X106891Y102493D01*
X106895Y102417D01*
X106903Y102341D01*
X106915Y102265D01*
X106931Y102191D01*
X106950Y102117D01*
X106973Y102044D01*
X107000Y101973D01*
X107031Y101903D01*
X107065Y101834D01*
X107102Y101768D01*
X107143Y101704D01*
X107188Y101641D01*
X107235Y101582D01*
X107285Y101524D01*
X107339Y101470D01*
X107395Y101418D01*
X107453Y101369D01*
X107514Y101323D01*
X107578Y101281D01*
X107643Y101241D01*
X107710Y101205D01*
X107780Y101173D01*
X107850Y101144D01*
X107922Y101119D01*
X107996Y101098D01*
X108070Y101080D01*
X108145Y101067D01*
X108221Y101057D01*
X108297Y101051D01*
X108373Y101049D01*
X108373Y101050D02*
X109855Y101050D01*
X108077Y101050D02*
X106892Y98679D01*
X102784Y104013D02*
X102712Y104011D01*
X102640Y104005D01*
X102568Y103995D01*
X102497Y103982D01*
X102427Y103964D01*
X102358Y103943D01*
X102290Y103918D01*
X102224Y103890D01*
X102159Y103858D01*
X102096Y103822D01*
X102035Y103783D01*
X101977Y103741D01*
X101920Y103696D01*
X101867Y103647D01*
X101816Y103596D01*
X101767Y103543D01*
X101722Y103486D01*
X101680Y103428D01*
X101641Y103367D01*
X101605Y103304D01*
X101573Y103239D01*
X101545Y103173D01*
X101520Y103105D01*
X101499Y103036D01*
X101481Y102966D01*
X101468Y102895D01*
X101458Y102823D01*
X101452Y102751D01*
X101450Y102679D01*
X102784Y104013D02*
X102864Y104011D01*
X102943Y104006D01*
X103023Y103996D01*
X103101Y103983D01*
X103179Y103967D01*
X103257Y103947D01*
X103333Y103923D01*
X103408Y103895D01*
X103481Y103865D01*
X103553Y103831D01*
X103624Y103793D01*
X103692Y103752D01*
X103759Y103708D01*
X103824Y103662D01*
X103886Y103612D01*
X103946Y103559D01*
X104003Y103503D01*
X104058Y103445D01*
X104110Y103385D01*
X104159Y103322D01*
X104205Y103257D01*
X104248Y103190D01*
X104288Y103120D01*
X104324Y103050D01*
X104358Y102977D01*
X104387Y102903D01*
X104414Y102828D01*
X101895Y101642D02*
X101844Y101693D01*
X101796Y101747D01*
X101750Y101803D01*
X101707Y101862D01*
X101667Y101922D01*
X101631Y101985D01*
X101597Y102049D01*
X101567Y102115D01*
X101540Y102182D01*
X101517Y102251D01*
X101497Y102320D01*
X101480Y102391D01*
X101467Y102462D01*
X101458Y102534D01*
X101453Y102607D01*
X101451Y102679D01*
X101895Y101642D02*
X104414Y98679D01*
X101451Y98679D01*
X98928Y103420D02*
X98928Y104013D01*
X95964Y104013D01*
X97446Y98679D01*
M02*
