G04 EAGLE Gerber RS-274X export*
G75*
%MOMM*%
%FSLAX34Y34*%
%LPD*%
%INSoldermask Top*%
%IPNEG*%
%AMOC8*
5,1,8,0,0,1.08239X$1,22.5*%
G01*
%ADD10C,0.777500*%
%ADD11C,0.803212*%
%ADD12C,0.782463*%
%ADD13C,0.773763*%
%ADD14C,0.784525*%
%ADD15C,0.755194*%
%ADD16C,0.779163*%
%ADD17C,0.764113*%
%ADD18C,0.772506*%
%ADD19C,0.736600*%
%ADD20C,0.747031*%
%ADD21C,0.747463*%
%ADD22C,0.731325*%
%ADD23C,0.738344*%
%ADD24C,0.715269*%
%ADD25C,0.718419*%
%ADD26C,0.713006*%
%ADD27C,0.740525*%
%ADD28C,0.757750*%
%ADD29C,0.762000*%
%ADD30C,0.768738*%
%ADD31C,0.777088*%
%ADD32C,0.739656*%
%ADD33C,0.697456*%
%ADD34C,0.802013*%
%ADD35C,0.727344*%
%ADD36C,0.711650*%
%ADD37C,0.690019*%
%ADD38C,0.765800*%
%ADD39C,0.762419*%
%ADD40C,0.686269*%
%ADD41C,0.737038*%
%ADD42C,0.743569*%
%ADD43C,0.752200*%
%ADD44C,0.733088*%
%ADD45C,0.702525*%
%ADD46C,0.677756*%
%ADD47C,0.718869*%
%ADD48C,0.642569*%
%ADD49C,0.618525*%
%ADD50C,0.651050*%
%ADD51C,0.722894*%
%ADD52C,0.717069*%
%ADD53R,1.002400X1.052400*%
%ADD54C,0.404487*%
%ADD55R,2.852400X1.152400*%
%ADD56R,2.152400X0.952400*%
%ADD57R,3.152400X2.252400*%
%ADD58C,1.676400*%
%ADD59R,1.102400X1.202400*%
%ADD60R,1.252400X1.152400*%
%ADD61C,1.552400*%
%ADD62R,0.852400X0.352400*%
%ADD63R,1.052400X0.552400*%
%ADD64R,0.752400X1.202400*%
%ADD65R,0.842400X1.142400*%
%ADD66R,0.752400X0.952400*%
%ADD67R,1.142400X0.842400*%
%ADD68R,0.502400X0.552400*%
%ADD69R,0.552400X0.502400*%
%ADD70R,0.952400X0.952400*%

G36*
X-72845Y-115930D02*
X-72845Y-115930D01*
X-72850Y-115922D01*
X-72843Y-115916D01*
X-72843Y-97916D01*
X-72879Y-97869D01*
X-72886Y-97875D01*
X-72892Y-97867D01*
X-80992Y-97867D01*
X-81039Y-97903D01*
X-81034Y-97910D01*
X-81041Y-97916D01*
X-81041Y-115916D01*
X-81005Y-115964D01*
X-80998Y-115958D01*
X-80992Y-115965D01*
X-72892Y-115965D01*
X-72845Y-115930D01*
G37*
G36*
X82055Y-115930D02*
X82055Y-115930D01*
X82050Y-115922D01*
X82057Y-115916D01*
X82057Y-97916D01*
X82021Y-97869D01*
X82014Y-97875D01*
X82008Y-97867D01*
X74008Y-97867D01*
X73961Y-97903D01*
X73966Y-97910D01*
X73959Y-97916D01*
X73959Y-115916D01*
X73995Y-115964D01*
X74002Y-115958D01*
X74008Y-115965D01*
X82008Y-115965D01*
X82055Y-115930D01*
G37*
G36*
X145511Y-32757D02*
X145511Y-32757D01*
X145506Y-32750D01*
X145513Y-32744D01*
X145513Y-26744D01*
X145477Y-26697D01*
X145470Y-26702D01*
X145464Y-26695D01*
X128364Y-26695D01*
X128317Y-26731D01*
X128322Y-26738D01*
X128315Y-26744D01*
X128315Y-32744D01*
X128351Y-32791D01*
X128358Y-32786D01*
X128364Y-32793D01*
X145464Y-32793D01*
X145511Y-32757D01*
G37*
G36*
X145511Y-45257D02*
X145511Y-45257D01*
X145506Y-45250D01*
X145513Y-45244D01*
X145513Y-39244D01*
X145477Y-39197D01*
X145470Y-39202D01*
X145464Y-39195D01*
X128364Y-39195D01*
X128317Y-39231D01*
X128322Y-39238D01*
X128315Y-39244D01*
X128315Y-45244D01*
X128351Y-45291D01*
X128358Y-45286D01*
X128364Y-45293D01*
X145464Y-45293D01*
X145511Y-45257D01*
G37*
G36*
X145611Y-57757D02*
X145611Y-57757D01*
X145606Y-57750D01*
X145613Y-57744D01*
X145613Y-51744D01*
X145577Y-51697D01*
X145570Y-51702D01*
X145564Y-51695D01*
X128464Y-51695D01*
X128417Y-51731D01*
X128422Y-51738D01*
X128415Y-51744D01*
X128415Y-57744D01*
X128451Y-57791D01*
X128458Y-57786D01*
X128464Y-57793D01*
X145564Y-57793D01*
X145611Y-57757D01*
G37*
G36*
X145611Y-70257D02*
X145611Y-70257D01*
X145606Y-70250D01*
X145613Y-70244D01*
X145613Y-64244D01*
X145577Y-64197D01*
X145570Y-64202D01*
X145564Y-64195D01*
X128464Y-64195D01*
X128417Y-64231D01*
X128422Y-64238D01*
X128415Y-64244D01*
X128415Y-70244D01*
X128451Y-70291D01*
X128458Y-70286D01*
X128464Y-70293D01*
X145564Y-70293D01*
X145611Y-70257D01*
G37*
G36*
X145611Y-82757D02*
X145611Y-82757D01*
X145606Y-82750D01*
X145613Y-82744D01*
X145613Y-76744D01*
X145577Y-76697D01*
X145570Y-76702D01*
X145564Y-76695D01*
X128464Y-76695D01*
X128417Y-76731D01*
X128422Y-76738D01*
X128415Y-76744D01*
X128415Y-82744D01*
X128451Y-82791D01*
X128458Y-82786D01*
X128464Y-82793D01*
X145564Y-82793D01*
X145611Y-82757D01*
G37*
G36*
X145611Y-95257D02*
X145611Y-95257D01*
X145606Y-95250D01*
X145613Y-95244D01*
X145613Y-89244D01*
X145577Y-89197D01*
X145570Y-89202D01*
X145564Y-89195D01*
X128464Y-89195D01*
X128417Y-89231D01*
X128422Y-89238D01*
X128415Y-89244D01*
X128415Y-95244D01*
X128451Y-95291D01*
X128458Y-95286D01*
X128464Y-95293D01*
X145564Y-95293D01*
X145611Y-95257D01*
G37*
G36*
X-13045Y-95030D02*
X-13045Y-95030D01*
X-13050Y-95022D01*
X-13043Y-95016D01*
X-13043Y-83016D01*
X-13079Y-82969D01*
X-13086Y-82975D01*
X-13092Y-82967D01*
X-15892Y-82967D01*
X-15939Y-83003D01*
X-15934Y-83010D01*
X-15941Y-83016D01*
X-15941Y-95016D01*
X-15905Y-95064D01*
X-15898Y-95058D01*
X-15892Y-95065D01*
X-13092Y-95065D01*
X-13045Y-95030D01*
G37*
G36*
X46955Y-95030D02*
X46955Y-95030D01*
X46950Y-95022D01*
X46957Y-95016D01*
X46957Y-83016D01*
X46921Y-82969D01*
X46914Y-82975D01*
X46908Y-82967D01*
X44108Y-82967D01*
X44061Y-83003D01*
X44066Y-83010D01*
X44059Y-83016D01*
X44059Y-95016D01*
X44095Y-95064D01*
X44102Y-95058D01*
X44108Y-95065D01*
X46908Y-95065D01*
X46955Y-95030D01*
G37*
G36*
X-3045Y-95030D02*
X-3045Y-95030D01*
X-3050Y-95022D01*
X-3043Y-95016D01*
X-3043Y-83016D01*
X-3079Y-82969D01*
X-3086Y-82975D01*
X-3092Y-82967D01*
X-5892Y-82967D01*
X-5939Y-83003D01*
X-5934Y-83010D01*
X-5941Y-83016D01*
X-5941Y-95016D01*
X-5905Y-95064D01*
X-5898Y-95058D01*
X-5892Y-95065D01*
X-3092Y-95065D01*
X-3045Y-95030D01*
G37*
G36*
X1955Y-95030D02*
X1955Y-95030D01*
X1950Y-95022D01*
X1957Y-95016D01*
X1957Y-83016D01*
X1921Y-82969D01*
X1914Y-82975D01*
X1908Y-82967D01*
X-892Y-82967D01*
X-939Y-83003D01*
X-934Y-83010D01*
X-941Y-83016D01*
X-941Y-95016D01*
X-905Y-95064D01*
X-898Y-95058D01*
X-892Y-95065D01*
X1908Y-95065D01*
X1955Y-95030D01*
G37*
G36*
X-23045Y-95030D02*
X-23045Y-95030D01*
X-23050Y-95022D01*
X-23043Y-95016D01*
X-23043Y-83016D01*
X-23079Y-82969D01*
X-23086Y-82975D01*
X-23092Y-82967D01*
X-25892Y-82967D01*
X-25939Y-83003D01*
X-25934Y-83010D01*
X-25941Y-83016D01*
X-25941Y-95016D01*
X-25905Y-95064D01*
X-25898Y-95058D01*
X-25892Y-95065D01*
X-23092Y-95065D01*
X-23045Y-95030D01*
G37*
G36*
X21955Y-95030D02*
X21955Y-95030D01*
X21950Y-95022D01*
X21957Y-95016D01*
X21957Y-83016D01*
X21921Y-82969D01*
X21914Y-82975D01*
X21908Y-82967D01*
X19108Y-82967D01*
X19061Y-83003D01*
X19066Y-83010D01*
X19059Y-83016D01*
X19059Y-95016D01*
X19095Y-95064D01*
X19102Y-95058D01*
X19108Y-95065D01*
X21908Y-95065D01*
X21955Y-95030D01*
G37*
G36*
X-58045Y-95030D02*
X-58045Y-95030D01*
X-58050Y-95022D01*
X-58043Y-95016D01*
X-58043Y-83016D01*
X-58079Y-82969D01*
X-58086Y-82975D01*
X-58092Y-82967D01*
X-60892Y-82967D01*
X-60939Y-83003D01*
X-60934Y-83010D01*
X-60941Y-83016D01*
X-60941Y-95016D01*
X-60905Y-95064D01*
X-60898Y-95058D01*
X-60892Y-95065D01*
X-58092Y-95065D01*
X-58045Y-95030D01*
G37*
G36*
X-33045Y-95030D02*
X-33045Y-95030D01*
X-33050Y-95022D01*
X-33043Y-95016D01*
X-33043Y-83016D01*
X-33079Y-82969D01*
X-33086Y-82975D01*
X-33092Y-82967D01*
X-35892Y-82967D01*
X-35939Y-83003D01*
X-35934Y-83010D01*
X-35941Y-83016D01*
X-35941Y-95016D01*
X-35905Y-95064D01*
X-35898Y-95058D01*
X-35892Y-95065D01*
X-33092Y-95065D01*
X-33045Y-95030D01*
G37*
G36*
X56955Y-95030D02*
X56955Y-95030D01*
X56950Y-95022D01*
X56957Y-95016D01*
X56957Y-83016D01*
X56921Y-82969D01*
X56914Y-82975D01*
X56908Y-82967D01*
X54108Y-82967D01*
X54061Y-83003D01*
X54066Y-83010D01*
X54059Y-83016D01*
X54059Y-95016D01*
X54095Y-95064D01*
X54102Y-95058D01*
X54108Y-95065D01*
X56908Y-95065D01*
X56955Y-95030D01*
G37*
G36*
X51955Y-95030D02*
X51955Y-95030D01*
X51950Y-95022D01*
X51957Y-95016D01*
X51957Y-83016D01*
X51921Y-82969D01*
X51914Y-82975D01*
X51908Y-82967D01*
X49108Y-82967D01*
X49061Y-83003D01*
X49066Y-83010D01*
X49059Y-83016D01*
X49059Y-95016D01*
X49095Y-95064D01*
X49102Y-95058D01*
X49108Y-95065D01*
X51908Y-95065D01*
X51955Y-95030D01*
G37*
G36*
X6955Y-95030D02*
X6955Y-95030D01*
X6950Y-95022D01*
X6957Y-95016D01*
X6957Y-83016D01*
X6921Y-82969D01*
X6914Y-82975D01*
X6908Y-82967D01*
X4108Y-82967D01*
X4061Y-83003D01*
X4066Y-83010D01*
X4059Y-83016D01*
X4059Y-95016D01*
X4095Y-95064D01*
X4102Y-95058D01*
X4108Y-95065D01*
X6908Y-95065D01*
X6955Y-95030D01*
G37*
G36*
X-53045Y-95030D02*
X-53045Y-95030D01*
X-53050Y-95022D01*
X-53043Y-95016D01*
X-53043Y-83016D01*
X-53079Y-82969D01*
X-53086Y-82975D01*
X-53092Y-82967D01*
X-55892Y-82967D01*
X-55939Y-83003D01*
X-55934Y-83010D01*
X-55941Y-83016D01*
X-55941Y-95016D01*
X-55905Y-95064D01*
X-55898Y-95058D01*
X-55892Y-95065D01*
X-53092Y-95065D01*
X-53045Y-95030D01*
G37*
G36*
X-48045Y-95030D02*
X-48045Y-95030D01*
X-48050Y-95022D01*
X-48043Y-95016D01*
X-48043Y-83016D01*
X-48079Y-82969D01*
X-48086Y-82975D01*
X-48092Y-82967D01*
X-50892Y-82967D01*
X-50939Y-83003D01*
X-50934Y-83010D01*
X-50941Y-83016D01*
X-50941Y-95016D01*
X-50905Y-95064D01*
X-50898Y-95058D01*
X-50892Y-95065D01*
X-48092Y-95065D01*
X-48045Y-95030D01*
G37*
G36*
X-28045Y-95030D02*
X-28045Y-95030D01*
X-28050Y-95022D01*
X-28043Y-95016D01*
X-28043Y-83016D01*
X-28079Y-82969D01*
X-28086Y-82975D01*
X-28092Y-82967D01*
X-30892Y-82967D01*
X-30939Y-83003D01*
X-30934Y-83010D01*
X-30941Y-83016D01*
X-30941Y-95016D01*
X-30905Y-95064D01*
X-30898Y-95058D01*
X-30892Y-95065D01*
X-28092Y-95065D01*
X-28045Y-95030D01*
G37*
G36*
X31955Y-95030D02*
X31955Y-95030D01*
X31950Y-95022D01*
X31957Y-95016D01*
X31957Y-83016D01*
X31921Y-82969D01*
X31914Y-82975D01*
X31908Y-82967D01*
X29108Y-82967D01*
X29061Y-83003D01*
X29066Y-83010D01*
X29059Y-83016D01*
X29059Y-95016D01*
X29095Y-95064D01*
X29102Y-95058D01*
X29108Y-95065D01*
X31908Y-95065D01*
X31955Y-95030D01*
G37*
G36*
X-38045Y-95030D02*
X-38045Y-95030D01*
X-38050Y-95022D01*
X-38043Y-95016D01*
X-38043Y-83016D01*
X-38079Y-82969D01*
X-38086Y-82975D01*
X-38092Y-82967D01*
X-40892Y-82967D01*
X-40939Y-83003D01*
X-40934Y-83010D01*
X-40941Y-83016D01*
X-40941Y-95016D01*
X-40905Y-95064D01*
X-40898Y-95058D01*
X-40892Y-95065D01*
X-38092Y-95065D01*
X-38045Y-95030D01*
G37*
G36*
X-8045Y-95030D02*
X-8045Y-95030D01*
X-8050Y-95022D01*
X-8043Y-95016D01*
X-8043Y-83016D01*
X-8079Y-82969D01*
X-8086Y-82975D01*
X-8092Y-82967D01*
X-10892Y-82967D01*
X-10939Y-83003D01*
X-10934Y-83010D01*
X-10941Y-83016D01*
X-10941Y-95016D01*
X-10905Y-95064D01*
X-10898Y-95058D01*
X-10892Y-95065D01*
X-8092Y-95065D01*
X-8045Y-95030D01*
G37*
G36*
X11955Y-95030D02*
X11955Y-95030D01*
X11950Y-95022D01*
X11957Y-95016D01*
X11957Y-83016D01*
X11921Y-82969D01*
X11914Y-82975D01*
X11908Y-82967D01*
X9108Y-82967D01*
X9061Y-83003D01*
X9066Y-83010D01*
X9059Y-83016D01*
X9059Y-95016D01*
X9095Y-95064D01*
X9102Y-95058D01*
X9108Y-95065D01*
X11908Y-95065D01*
X11955Y-95030D01*
G37*
G36*
X26955Y-95030D02*
X26955Y-95030D01*
X26950Y-95022D01*
X26957Y-95016D01*
X26957Y-83016D01*
X26921Y-82969D01*
X26914Y-82975D01*
X26908Y-82967D01*
X24108Y-82967D01*
X24061Y-83003D01*
X24066Y-83010D01*
X24059Y-83016D01*
X24059Y-95016D01*
X24095Y-95064D01*
X24102Y-95058D01*
X24108Y-95065D01*
X26908Y-95065D01*
X26955Y-95030D01*
G37*
G36*
X-43045Y-95030D02*
X-43045Y-95030D01*
X-43050Y-95022D01*
X-43043Y-95016D01*
X-43043Y-83016D01*
X-43079Y-82969D01*
X-43086Y-82975D01*
X-43092Y-82967D01*
X-45892Y-82967D01*
X-45939Y-83003D01*
X-45934Y-83010D01*
X-45941Y-83016D01*
X-45941Y-95016D01*
X-45905Y-95064D01*
X-45898Y-95058D01*
X-45892Y-95065D01*
X-43092Y-95065D01*
X-43045Y-95030D01*
G37*
G36*
X-18045Y-95030D02*
X-18045Y-95030D01*
X-18050Y-95022D01*
X-18043Y-95016D01*
X-18043Y-83016D01*
X-18079Y-82969D01*
X-18086Y-82975D01*
X-18092Y-82967D01*
X-20892Y-82967D01*
X-20939Y-83003D01*
X-20934Y-83010D01*
X-20941Y-83016D01*
X-20941Y-95016D01*
X-20905Y-95064D01*
X-20898Y-95058D01*
X-20892Y-95065D01*
X-18092Y-95065D01*
X-18045Y-95030D01*
G37*
G36*
X41955Y-95030D02*
X41955Y-95030D01*
X41950Y-95022D01*
X41957Y-95016D01*
X41957Y-83016D01*
X41921Y-82969D01*
X41914Y-82975D01*
X41908Y-82967D01*
X39108Y-82967D01*
X39061Y-83003D01*
X39066Y-83010D01*
X39059Y-83016D01*
X39059Y-95016D01*
X39095Y-95064D01*
X39102Y-95058D01*
X39108Y-95065D01*
X41908Y-95065D01*
X41955Y-95030D01*
G37*
G36*
X61955Y-94930D02*
X61955Y-94930D01*
X61950Y-94922D01*
X61957Y-94916D01*
X61957Y-82916D01*
X61921Y-82869D01*
X61914Y-82875D01*
X61908Y-82867D01*
X59108Y-82867D01*
X59061Y-82903D01*
X59066Y-82910D01*
X59059Y-82916D01*
X59059Y-94916D01*
X59095Y-94964D01*
X59102Y-94958D01*
X59108Y-94965D01*
X61908Y-94965D01*
X61955Y-94930D01*
G37*
G36*
X16955Y-95030D02*
X16955Y-95030D01*
X16950Y-95022D01*
X16957Y-95016D01*
X16957Y-83016D01*
X16921Y-82969D01*
X16914Y-82975D01*
X16908Y-82967D01*
X14108Y-82967D01*
X14061Y-83003D01*
X14066Y-83010D01*
X14059Y-83016D01*
X14059Y-95016D01*
X14095Y-95064D01*
X14102Y-95058D01*
X14108Y-95065D01*
X16908Y-95065D01*
X16955Y-95030D01*
G37*
G36*
X36955Y-95030D02*
X36955Y-95030D01*
X36950Y-95022D01*
X36957Y-95016D01*
X36957Y-83016D01*
X36921Y-82969D01*
X36914Y-82975D01*
X36908Y-82967D01*
X34108Y-82967D01*
X34061Y-83003D01*
X34066Y-83010D01*
X34059Y-83016D01*
X34059Y-95016D01*
X34095Y-95064D01*
X34102Y-95058D01*
X34108Y-95065D01*
X36908Y-95065D01*
X36955Y-95030D01*
G37*
G36*
X-43045Y-130930D02*
X-43045Y-130930D01*
X-43050Y-130922D01*
X-43043Y-130916D01*
X-43043Y-118916D01*
X-43079Y-118869D01*
X-43086Y-118875D01*
X-43092Y-118867D01*
X-45892Y-118867D01*
X-45939Y-118903D01*
X-45934Y-118910D01*
X-45941Y-118916D01*
X-45941Y-130916D01*
X-45905Y-130964D01*
X-45898Y-130958D01*
X-45892Y-130965D01*
X-43092Y-130965D01*
X-43045Y-130930D01*
G37*
G36*
X-8045Y-130930D02*
X-8045Y-130930D01*
X-8050Y-130922D01*
X-8043Y-130916D01*
X-8043Y-118916D01*
X-8079Y-118869D01*
X-8086Y-118875D01*
X-8092Y-118867D01*
X-10892Y-118867D01*
X-10939Y-118903D01*
X-10934Y-118910D01*
X-10941Y-118916D01*
X-10941Y-130916D01*
X-10905Y-130964D01*
X-10898Y-130958D01*
X-10892Y-130965D01*
X-8092Y-130965D01*
X-8045Y-130930D01*
G37*
G36*
X46955Y-130930D02*
X46955Y-130930D01*
X46950Y-130922D01*
X46957Y-130916D01*
X46957Y-118916D01*
X46921Y-118869D01*
X46914Y-118875D01*
X46908Y-118867D01*
X44108Y-118867D01*
X44061Y-118903D01*
X44066Y-118910D01*
X44059Y-118916D01*
X44059Y-130916D01*
X44095Y-130964D01*
X44102Y-130958D01*
X44108Y-130965D01*
X46908Y-130965D01*
X46955Y-130930D01*
G37*
G36*
X-33045Y-130930D02*
X-33045Y-130930D01*
X-33050Y-130922D01*
X-33043Y-130916D01*
X-33043Y-118916D01*
X-33079Y-118869D01*
X-33086Y-118875D01*
X-33092Y-118867D01*
X-35892Y-118867D01*
X-35939Y-118903D01*
X-35934Y-118910D01*
X-35941Y-118916D01*
X-35941Y-130916D01*
X-35905Y-130964D01*
X-35898Y-130958D01*
X-35892Y-130965D01*
X-33092Y-130965D01*
X-33045Y-130930D01*
G37*
G36*
X-58045Y-130930D02*
X-58045Y-130930D01*
X-58050Y-130922D01*
X-58043Y-130916D01*
X-58043Y-118916D01*
X-58079Y-118869D01*
X-58086Y-118875D01*
X-58092Y-118867D01*
X-60892Y-118867D01*
X-60939Y-118903D01*
X-60934Y-118910D01*
X-60941Y-118916D01*
X-60941Y-130916D01*
X-60905Y-130964D01*
X-60898Y-130958D01*
X-60892Y-130965D01*
X-58092Y-130965D01*
X-58045Y-130930D01*
G37*
G36*
X16955Y-130930D02*
X16955Y-130930D01*
X16950Y-130922D01*
X16957Y-130916D01*
X16957Y-118916D01*
X16921Y-118869D01*
X16914Y-118875D01*
X16908Y-118867D01*
X14108Y-118867D01*
X14061Y-118903D01*
X14066Y-118910D01*
X14059Y-118916D01*
X14059Y-130916D01*
X14095Y-130964D01*
X14102Y-130958D01*
X14108Y-130965D01*
X16908Y-130965D01*
X16955Y-130930D01*
G37*
G36*
X51955Y-130930D02*
X51955Y-130930D01*
X51950Y-130922D01*
X51957Y-130916D01*
X51957Y-118916D01*
X51921Y-118869D01*
X51914Y-118875D01*
X51908Y-118867D01*
X49108Y-118867D01*
X49061Y-118903D01*
X49066Y-118910D01*
X49059Y-118916D01*
X49059Y-130916D01*
X49095Y-130964D01*
X49102Y-130958D01*
X49108Y-130965D01*
X51908Y-130965D01*
X51955Y-130930D01*
G37*
G36*
X21955Y-130930D02*
X21955Y-130930D01*
X21950Y-130922D01*
X21957Y-130916D01*
X21957Y-118916D01*
X21921Y-118869D01*
X21914Y-118875D01*
X21908Y-118867D01*
X19108Y-118867D01*
X19061Y-118903D01*
X19066Y-118910D01*
X19059Y-118916D01*
X19059Y-130916D01*
X19095Y-130964D01*
X19102Y-130958D01*
X19108Y-130965D01*
X21908Y-130965D01*
X21955Y-130930D01*
G37*
G36*
X-28045Y-130930D02*
X-28045Y-130930D01*
X-28050Y-130922D01*
X-28043Y-130916D01*
X-28043Y-118916D01*
X-28079Y-118869D01*
X-28086Y-118875D01*
X-28092Y-118867D01*
X-30892Y-118867D01*
X-30939Y-118903D01*
X-30934Y-118910D01*
X-30941Y-118916D01*
X-30941Y-130916D01*
X-30905Y-130964D01*
X-30898Y-130958D01*
X-30892Y-130965D01*
X-28092Y-130965D01*
X-28045Y-130930D01*
G37*
G36*
X1955Y-130930D02*
X1955Y-130930D01*
X1950Y-130922D01*
X1957Y-130916D01*
X1957Y-118916D01*
X1921Y-118869D01*
X1914Y-118875D01*
X1908Y-118867D01*
X-892Y-118867D01*
X-939Y-118903D01*
X-934Y-118910D01*
X-941Y-118916D01*
X-941Y-130916D01*
X-905Y-130964D01*
X-898Y-130958D01*
X-892Y-130965D01*
X1908Y-130965D01*
X1955Y-130930D01*
G37*
G36*
X-3045Y-130930D02*
X-3045Y-130930D01*
X-3050Y-130922D01*
X-3043Y-130916D01*
X-3043Y-118916D01*
X-3079Y-118869D01*
X-3086Y-118875D01*
X-3092Y-118867D01*
X-5892Y-118867D01*
X-5939Y-118903D01*
X-5934Y-118910D01*
X-5941Y-118916D01*
X-5941Y-130916D01*
X-5905Y-130964D01*
X-5898Y-130958D01*
X-5892Y-130965D01*
X-3092Y-130965D01*
X-3045Y-130930D01*
G37*
G36*
X56955Y-130930D02*
X56955Y-130930D01*
X56950Y-130922D01*
X56957Y-130916D01*
X56957Y-118916D01*
X56921Y-118869D01*
X56914Y-118875D01*
X56908Y-118867D01*
X54108Y-118867D01*
X54061Y-118903D01*
X54066Y-118910D01*
X54059Y-118916D01*
X54059Y-130916D01*
X54095Y-130964D01*
X54102Y-130958D01*
X54108Y-130965D01*
X56908Y-130965D01*
X56955Y-130930D01*
G37*
G36*
X-18045Y-130930D02*
X-18045Y-130930D01*
X-18050Y-130922D01*
X-18043Y-130916D01*
X-18043Y-118916D01*
X-18079Y-118869D01*
X-18086Y-118875D01*
X-18092Y-118867D01*
X-20892Y-118867D01*
X-20939Y-118903D01*
X-20934Y-118910D01*
X-20941Y-118916D01*
X-20941Y-130916D01*
X-20905Y-130964D01*
X-20898Y-130958D01*
X-20892Y-130965D01*
X-18092Y-130965D01*
X-18045Y-130930D01*
G37*
G36*
X-53045Y-130930D02*
X-53045Y-130930D01*
X-53050Y-130922D01*
X-53043Y-130916D01*
X-53043Y-118916D01*
X-53079Y-118869D01*
X-53086Y-118875D01*
X-53092Y-118867D01*
X-55892Y-118867D01*
X-55939Y-118903D01*
X-55934Y-118910D01*
X-55941Y-118916D01*
X-55941Y-130916D01*
X-55905Y-130964D01*
X-55898Y-130958D01*
X-55892Y-130965D01*
X-53092Y-130965D01*
X-53045Y-130930D01*
G37*
G36*
X41955Y-130930D02*
X41955Y-130930D01*
X41950Y-130922D01*
X41957Y-130916D01*
X41957Y-118916D01*
X41921Y-118869D01*
X41914Y-118875D01*
X41908Y-118867D01*
X39108Y-118867D01*
X39061Y-118903D01*
X39066Y-118910D01*
X39059Y-118916D01*
X39059Y-130916D01*
X39095Y-130964D01*
X39102Y-130958D01*
X39108Y-130965D01*
X41908Y-130965D01*
X41955Y-130930D01*
G37*
G36*
X-38045Y-130930D02*
X-38045Y-130930D01*
X-38050Y-130922D01*
X-38043Y-130916D01*
X-38043Y-118916D01*
X-38079Y-118869D01*
X-38086Y-118875D01*
X-38092Y-118867D01*
X-40892Y-118867D01*
X-40939Y-118903D01*
X-40934Y-118910D01*
X-40941Y-118916D01*
X-40941Y-130916D01*
X-40905Y-130964D01*
X-40898Y-130958D01*
X-40892Y-130965D01*
X-38092Y-130965D01*
X-38045Y-130930D01*
G37*
G36*
X-23045Y-130930D02*
X-23045Y-130930D01*
X-23050Y-130922D01*
X-23043Y-130916D01*
X-23043Y-118916D01*
X-23079Y-118869D01*
X-23086Y-118875D01*
X-23092Y-118867D01*
X-25892Y-118867D01*
X-25939Y-118903D01*
X-25934Y-118910D01*
X-25941Y-118916D01*
X-25941Y-130916D01*
X-25905Y-130964D01*
X-25898Y-130958D01*
X-25892Y-130965D01*
X-23092Y-130965D01*
X-23045Y-130930D01*
G37*
G36*
X11955Y-130930D02*
X11955Y-130930D01*
X11950Y-130922D01*
X11957Y-130916D01*
X11957Y-118916D01*
X11921Y-118869D01*
X11914Y-118875D01*
X11908Y-118867D01*
X9108Y-118867D01*
X9061Y-118903D01*
X9066Y-118910D01*
X9059Y-118916D01*
X9059Y-130916D01*
X9095Y-130964D01*
X9102Y-130958D01*
X9108Y-130965D01*
X11908Y-130965D01*
X11955Y-130930D01*
G37*
G36*
X31955Y-130930D02*
X31955Y-130930D01*
X31950Y-130922D01*
X31957Y-130916D01*
X31957Y-118916D01*
X31921Y-118869D01*
X31914Y-118875D01*
X31908Y-118867D01*
X29108Y-118867D01*
X29061Y-118903D01*
X29066Y-118910D01*
X29059Y-118916D01*
X29059Y-130916D01*
X29095Y-130964D01*
X29102Y-130958D01*
X29108Y-130965D01*
X31908Y-130965D01*
X31955Y-130930D01*
G37*
G36*
X-13045Y-130930D02*
X-13045Y-130930D01*
X-13050Y-130922D01*
X-13043Y-130916D01*
X-13043Y-118916D01*
X-13079Y-118869D01*
X-13086Y-118875D01*
X-13092Y-118867D01*
X-15892Y-118867D01*
X-15939Y-118903D01*
X-15934Y-118910D01*
X-15941Y-118916D01*
X-15941Y-130916D01*
X-15905Y-130964D01*
X-15898Y-130958D01*
X-15892Y-130965D01*
X-13092Y-130965D01*
X-13045Y-130930D01*
G37*
G36*
X36955Y-130930D02*
X36955Y-130930D01*
X36950Y-130922D01*
X36957Y-130916D01*
X36957Y-118916D01*
X36921Y-118869D01*
X36914Y-118875D01*
X36908Y-118867D01*
X34108Y-118867D01*
X34061Y-118903D01*
X34066Y-118910D01*
X34059Y-118916D01*
X34059Y-130916D01*
X34095Y-130964D01*
X34102Y-130958D01*
X34108Y-130965D01*
X36908Y-130965D01*
X36955Y-130930D01*
G37*
G36*
X26955Y-130930D02*
X26955Y-130930D01*
X26950Y-130922D01*
X26957Y-130916D01*
X26957Y-118916D01*
X26921Y-118869D01*
X26914Y-118875D01*
X26908Y-118867D01*
X24108Y-118867D01*
X24061Y-118903D01*
X24066Y-118910D01*
X24059Y-118916D01*
X24059Y-130916D01*
X24095Y-130964D01*
X24102Y-130958D01*
X24108Y-130965D01*
X26908Y-130965D01*
X26955Y-130930D01*
G37*
G36*
X61955Y-130930D02*
X61955Y-130930D01*
X61950Y-130922D01*
X61957Y-130916D01*
X61957Y-118916D01*
X61921Y-118869D01*
X61914Y-118875D01*
X61908Y-118867D01*
X59108Y-118867D01*
X59061Y-118903D01*
X59066Y-118910D01*
X59059Y-118916D01*
X59059Y-130916D01*
X59095Y-130964D01*
X59102Y-130958D01*
X59108Y-130965D01*
X61908Y-130965D01*
X61955Y-130930D01*
G37*
G36*
X-48045Y-130930D02*
X-48045Y-130930D01*
X-48050Y-130922D01*
X-48043Y-130916D01*
X-48043Y-118916D01*
X-48079Y-118869D01*
X-48086Y-118875D01*
X-48092Y-118867D01*
X-50892Y-118867D01*
X-50939Y-118903D01*
X-50934Y-118910D01*
X-50941Y-118916D01*
X-50941Y-130916D01*
X-50905Y-130964D01*
X-50898Y-130958D01*
X-50892Y-130965D01*
X-48092Y-130965D01*
X-48045Y-130930D01*
G37*
G36*
X6955Y-130930D02*
X6955Y-130930D01*
X6950Y-130922D01*
X6957Y-130916D01*
X6957Y-118916D01*
X6921Y-118869D01*
X6914Y-118875D01*
X6908Y-118867D01*
X4108Y-118867D01*
X4061Y-118903D01*
X4066Y-118910D01*
X4059Y-118916D01*
X4059Y-130916D01*
X4095Y-130964D01*
X4102Y-130958D01*
X4108Y-130965D01*
X6908Y-130965D01*
X6955Y-130930D01*
G37*
D10*
X73787Y-128905D03*
D11*
X23114Y-141351D03*
D12*
X89916Y-125730D03*
D13*
X120650Y-127127D03*
D14*
X109474Y-92710D03*
D15*
X118110Y-52832D03*
D16*
X88900Y-48006D03*
D17*
X80899Y-45720D03*
D18*
X75311Y-53086D03*
D19*
X68580Y-85471D03*
D20*
X75311Y-80264D03*
D21*
X81661Y-75184D03*
D22*
X91821Y-75565D03*
X87376Y-84709D03*
D20*
X38445Y-60979D03*
D23*
X25563Y-26696D03*
D24*
X-17272Y-57277D03*
D21*
X-27178Y-57023D03*
D25*
X-35306Y-57277D03*
D24*
X-47170Y-3349D03*
D25*
X-92456Y-38862D03*
D21*
X-92837Y-24765D03*
D26*
X-108458Y-24892D03*
D27*
X-113284Y-33274D03*
D19*
X-87376Y-64516D03*
D26*
X-84963Y-132334D03*
D28*
X-92964Y-132080D03*
D29*
X-174879Y-101473D03*
D23*
X-128778Y-71628D03*
D27*
X-156464Y-39116D03*
D30*
X-175006Y-40005D03*
D31*
X-49784Y-50292D03*
D32*
X-57150Y-38989D03*
D33*
X-57404Y-24384D03*
D32*
X-58166Y-11049D03*
D24*
X-34798Y-2921D03*
D17*
X-35306Y10414D03*
D34*
X-15858Y12841D03*
D22*
X-3538Y-11705D03*
D35*
X-8636Y-26416D03*
D36*
X6604Y-26924D03*
D25*
X41891Y-18905D03*
D37*
X41946Y-10269D03*
D32*
X41710Y-1452D03*
D22*
X41837Y7202D03*
D26*
X42236Y16764D03*
D19*
X12772Y9870D03*
D38*
X125836Y-15177D03*
D21*
X70231Y22352D03*
D26*
X88138Y27940D03*
D39*
X113030Y41021D03*
D27*
X136271Y-6350D03*
D39*
X66185Y38209D03*
D40*
X88773Y53340D03*
D41*
X136779Y88392D03*
D35*
X43180Y78232D03*
D42*
X1124Y20536D03*
D43*
X-16764Y56134D03*
D44*
X-15113Y84709D03*
D19*
X-56007Y57785D03*
D39*
X-52705Y43561D03*
D27*
X-76581Y28194D03*
D20*
X-112141Y14097D03*
D45*
X-66929Y9017D03*
D23*
X-111887Y22606D03*
D24*
X-113030Y42291D03*
D29*
X-96774Y78994D03*
D27*
X-79375Y-76962D03*
D46*
X-8999Y24527D03*
D47*
X-9652Y72390D03*
D48*
X-21627Y-10229D03*
D49*
X-116840Y34290D03*
D50*
X-99060Y55372D03*
D51*
X57948Y-54959D03*
D52*
X163068Y4445D03*
D46*
X-96520Y70104D03*
D24*
X-47170Y10081D03*
X-50073Y24419D03*
X-55878Y3185D03*
D29*
X-154940Y101600D03*
D27*
X-135890Y-7620D03*
D23*
X-167640Y-113030D03*
D13*
X142240Y-130937D03*
D26*
X97790Y19050D03*
X99060Y-19050D03*
D52*
X172720Y29337D03*
D42*
X40748Y33998D03*
X52686Y78702D03*
D41*
X123063Y97790D03*
D44*
X-3683Y92837D03*
D43*
X-21336Y33020D03*
D20*
X-87503Y8763D03*
D53*
X-115612Y93218D03*
X-127212Y93218D03*
D54*
X-156547Y-98014D02*
X-159027Y-98014D01*
X-159027Y-95534D01*
X-156547Y-95534D01*
X-156547Y-98014D01*
X-149777Y-98014D02*
X-147297Y-98014D01*
X-149777Y-98014D02*
X-149777Y-95534D01*
X-147297Y-95534D01*
X-147297Y-98014D01*
X-164569Y-49306D02*
X-167049Y-49306D01*
X-164569Y-49306D02*
X-164569Y-51786D01*
X-167049Y-51786D01*
X-167049Y-49306D01*
X-173819Y-49306D02*
X-176299Y-49306D01*
X-173819Y-49306D02*
X-173819Y-51786D01*
X-176299Y-51786D01*
X-176299Y-49306D01*
X-159027Y-51786D02*
X-156547Y-51786D01*
X-159027Y-51786D02*
X-159027Y-49306D01*
X-156547Y-49306D01*
X-156547Y-51786D01*
X-149777Y-51786D02*
X-147297Y-51786D01*
X-149777Y-51786D02*
X-149777Y-49306D01*
X-147297Y-49306D01*
X-147297Y-51786D01*
X144101Y3018D02*
X146581Y3018D01*
X146581Y538D01*
X144101Y538D01*
X144101Y3018D01*
X137331Y3018D02*
X134851Y3018D01*
X137331Y3018D02*
X137331Y538D01*
X134851Y538D01*
X134851Y3018D01*
X128822Y60736D02*
X126342Y60736D01*
X126342Y63216D01*
X128822Y63216D01*
X128822Y60736D01*
X135592Y60736D02*
X138072Y60736D01*
X135592Y60736D02*
X135592Y63216D01*
X138072Y63216D01*
X138072Y60736D01*
D55*
X168964Y-110744D03*
X168964Y-11244D03*
D56*
X-135274Y42626D03*
X-135274Y30126D03*
X-135274Y17626D03*
X-135274Y5126D03*
D57*
X-166524Y67626D03*
X-166524Y-19874D03*
D58*
X-167640Y-130810D03*
X167640Y-130810D03*
X167640Y90170D03*
X-167640Y90170D03*
D59*
X74030Y88752D03*
X74030Y70252D03*
X88530Y70252D03*
X88530Y88752D03*
D60*
X-29092Y89916D03*
X-46092Y89916D03*
X153915Y74422D03*
X136915Y74422D03*
X172965Y56388D03*
X155965Y56388D03*
D61*
X100000Y-320D03*
X-100000Y-320D03*
D62*
X-95432Y31147D03*
X-86432Y31147D03*
X-95432Y35147D03*
X-95432Y39147D03*
X-86432Y27147D03*
X-86432Y35147D03*
X-86432Y39147D03*
X-95432Y27147D03*
D63*
X-114984Y79144D03*
X-114984Y66144D03*
X-136984Y79144D03*
X-136984Y72644D03*
X-136984Y66144D03*
D64*
X136931Y42456D03*
X155931Y42456D03*
X136931Y15456D03*
X146431Y15456D03*
X155931Y15456D03*
D65*
X29312Y79702D03*
X19812Y79702D03*
X10312Y79702D03*
X10312Y53802D03*
X29312Y53802D03*
X-64160Y99260D03*
X-73660Y99260D03*
X-83160Y99260D03*
X-83160Y73360D03*
X-64160Y73360D03*
D66*
X120650Y-117783D03*
X120650Y-92783D03*
D67*
X-174444Y-63906D03*
X-174444Y-73406D03*
X-174444Y-82906D03*
X-148544Y-82906D03*
X-148544Y-63906D03*
D68*
X-97282Y89726D03*
X-97282Y97726D03*
D69*
X6108Y-3337D03*
X14108Y-3337D03*
X30924Y-12954D03*
X22924Y-12954D03*
X30338Y17490D03*
X22338Y17490D03*
X-51752Y34036D03*
X-43752Y34036D03*
D70*
X74549Y-142113D03*
X108585Y-141732D03*
X90805Y-141986D03*
D54*
X58824Y-66578D02*
X56344Y-66578D01*
X58824Y-66578D02*
X58824Y-69058D01*
X56344Y-69058D01*
X56344Y-66578D01*
X49574Y-66578D02*
X47094Y-66578D01*
X49574Y-66578D02*
X49574Y-69058D01*
X47094Y-69058D01*
X47094Y-66578D01*
X-63985Y18004D02*
X-66465Y18004D01*
X-63985Y18004D02*
X-63985Y15524D01*
X-66465Y15524D01*
X-66465Y18004D01*
X-73235Y18004D02*
X-75715Y18004D01*
X-73235Y18004D02*
X-73235Y15524D01*
X-75715Y15524D01*
X-75715Y18004D01*
X-59205Y-61819D02*
X-56725Y-61819D01*
X-59205Y-61819D02*
X-59205Y-59339D01*
X-56725Y-59339D01*
X-56725Y-61819D01*
X-49955Y-61819D02*
X-47475Y-61819D01*
X-49955Y-61819D02*
X-49955Y-59339D01*
X-47475Y-59339D01*
X-47475Y-61819D01*
X12995Y-11560D02*
X15475Y-11560D01*
X15475Y-14040D01*
X12995Y-14040D01*
X12995Y-11560D01*
X6225Y-11560D02*
X3745Y-11560D01*
X6225Y-11560D02*
X6225Y-14040D01*
X3745Y-14040D01*
X3745Y-11560D01*
X58284Y18010D02*
X60764Y18010D01*
X60764Y15530D01*
X58284Y15530D01*
X58284Y18010D01*
X51514Y18010D02*
X49034Y18010D01*
X51514Y18010D02*
X51514Y15530D01*
X49034Y15530D01*
X49034Y18010D01*
X58228Y9281D02*
X60708Y9281D01*
X60708Y6801D01*
X58228Y6801D01*
X58228Y9281D01*
X51458Y9281D02*
X48978Y9281D01*
X51458Y9281D02*
X51458Y6801D01*
X48978Y6801D01*
X48978Y9281D01*
X58542Y482D02*
X61022Y482D01*
X61022Y-1998D01*
X58542Y-1998D01*
X58542Y482D01*
X51772Y482D02*
X49292Y482D01*
X51772Y482D02*
X51772Y-1998D01*
X49292Y-1998D01*
X49292Y482D01*
X58432Y-8338D02*
X60912Y-8338D01*
X60912Y-10818D01*
X58432Y-10818D01*
X58432Y-8338D01*
X51662Y-8338D02*
X49182Y-8338D01*
X51662Y-8338D02*
X51662Y-10818D01*
X49182Y-10818D01*
X49182Y-8338D01*
X58524Y-17122D02*
X61004Y-17122D01*
X61004Y-19602D01*
X58524Y-19602D01*
X58524Y-17122D01*
X51754Y-17122D02*
X49274Y-17122D01*
X51754Y-17122D02*
X51754Y-19602D01*
X49274Y-19602D01*
X49274Y-17122D01*
X-37315Y58898D02*
X-39795Y58898D01*
X-37315Y58898D02*
X-37315Y56418D01*
X-39795Y56418D01*
X-39795Y58898D01*
X-46565Y58898D02*
X-49045Y58898D01*
X-46565Y58898D02*
X-46565Y56418D01*
X-49045Y56418D01*
X-49045Y58898D01*
X-72981Y48290D02*
X-75461Y48290D01*
X-75461Y50770D01*
X-72981Y50770D01*
X-72981Y48290D01*
X-66211Y48290D02*
X-63731Y48290D01*
X-66211Y48290D02*
X-66211Y50770D01*
X-63731Y50770D01*
X-63731Y48290D01*
X-31013Y11400D02*
X-28533Y11400D01*
X-28533Y8920D01*
X-31013Y8920D01*
X-31013Y11400D01*
X-37783Y11400D02*
X-40263Y11400D01*
X-37783Y11400D02*
X-37783Y8920D01*
X-40263Y8920D01*
X-40263Y11400D01*
X-30904Y-865D02*
X-28424Y-865D01*
X-28424Y-3345D01*
X-30904Y-3345D01*
X-30904Y-865D01*
X-37674Y-865D02*
X-40154Y-865D01*
X-37674Y-865D02*
X-37674Y-3345D01*
X-40154Y-3345D01*
X-40154Y-865D01*
X-90507Y-85568D02*
X-92987Y-85568D01*
X-92987Y-83088D01*
X-90507Y-83088D01*
X-90507Y-85568D01*
X-83737Y-85568D02*
X-81257Y-85568D01*
X-83737Y-85568D02*
X-83737Y-83088D01*
X-81257Y-83088D01*
X-81257Y-85568D01*
X-85321Y18004D02*
X-87801Y18004D01*
X-85321Y18004D02*
X-85321Y15524D01*
X-87801Y15524D01*
X-87801Y18004D01*
X-94571Y18004D02*
X-97051Y18004D01*
X-94571Y18004D02*
X-94571Y15524D01*
X-97051Y15524D01*
X-97051Y18004D01*
X-88055Y49373D02*
X-85575Y49373D01*
X-85575Y46893D01*
X-88055Y46893D01*
X-88055Y49373D01*
X-94825Y49373D02*
X-97305Y49373D01*
X-94825Y49373D02*
X-94825Y46893D01*
X-97305Y46893D01*
X-97305Y49373D01*
X20551Y31526D02*
X23031Y31526D01*
X20551Y31526D02*
X20551Y34006D01*
X23031Y34006D01*
X23031Y31526D01*
X29801Y31526D02*
X32281Y31526D01*
X29801Y31526D02*
X29801Y34006D01*
X32281Y34006D01*
X32281Y31526D01*
X78209Y59466D02*
X80689Y59466D01*
X78209Y59466D02*
X78209Y61946D01*
X80689Y61946D01*
X80689Y59466D01*
X87459Y59466D02*
X89939Y59466D01*
X87459Y59466D02*
X87459Y61946D01*
X89939Y61946D01*
X89939Y59466D01*
X-121241Y51338D02*
X-123721Y51338D01*
X-123721Y53818D01*
X-121241Y53818D01*
X-121241Y51338D01*
X-114471Y51338D02*
X-111991Y51338D01*
X-114471Y51338D02*
X-114471Y53818D01*
X-111991Y53818D01*
X-111991Y51338D01*
X-75461Y56799D02*
X-72981Y56799D01*
X-75461Y56799D02*
X-75461Y59279D01*
X-72981Y59279D01*
X-72981Y56799D01*
X-66211Y56799D02*
X-63731Y56799D01*
X-66211Y56799D02*
X-66211Y59279D01*
X-63731Y59279D01*
X-63731Y56799D01*
X-39773Y18546D02*
X-37293Y18546D01*
X-39773Y18546D02*
X-39773Y21026D01*
X-37293Y21026D01*
X-37293Y18546D01*
X-30523Y18546D02*
X-28043Y18546D01*
X-30523Y18546D02*
X-30523Y21026D01*
X-28043Y21026D01*
X-28043Y18546D01*
X55455Y89378D02*
X57935Y89378D01*
X57935Y86898D01*
X55455Y86898D01*
X55455Y89378D01*
X48685Y89378D02*
X46205Y89378D01*
X48685Y89378D02*
X48685Y86898D01*
X46205Y86898D01*
X46205Y89378D01*
X9421Y39848D02*
X6941Y39848D01*
X9421Y39848D02*
X9421Y37368D01*
X6941Y37368D01*
X6941Y39848D01*
X171Y39848D02*
X-2309Y39848D01*
X171Y39848D02*
X171Y37368D01*
X-2309Y37368D01*
X-2309Y39848D01*
X-65382Y-23525D02*
X-67862Y-23525D01*
X-65382Y-23525D02*
X-65382Y-26005D01*
X-67862Y-26005D01*
X-67862Y-23525D01*
X-74632Y-23525D02*
X-77112Y-23525D01*
X-74632Y-23525D02*
X-74632Y-26005D01*
X-77112Y-26005D01*
X-77112Y-23525D01*
X-77493Y-57501D02*
X-75013Y-57501D01*
X-77493Y-57501D02*
X-77493Y-55021D01*
X-75013Y-55021D01*
X-75013Y-57501D01*
X-68243Y-57501D02*
X-65763Y-57501D01*
X-68243Y-57501D02*
X-68243Y-55021D01*
X-65763Y-55021D01*
X-65763Y-57501D01*
X-65382Y-37368D02*
X-67862Y-37368D01*
X-65382Y-37368D02*
X-65382Y-39848D01*
X-67862Y-39848D01*
X-67862Y-37368D01*
X-74632Y-37368D02*
X-77112Y-37368D01*
X-74632Y-37368D02*
X-74632Y-39848D01*
X-77112Y-39848D01*
X-77112Y-37368D01*
X24180Y-36397D02*
X26660Y-36397D01*
X24180Y-36397D02*
X24180Y-33917D01*
X26660Y-33917D01*
X26660Y-36397D01*
X33430Y-36397D02*
X35910Y-36397D01*
X33430Y-36397D02*
X33430Y-33917D01*
X35910Y-33917D01*
X35910Y-36397D01*
X8516Y-36473D02*
X6036Y-36473D01*
X6036Y-33993D01*
X8516Y-33993D01*
X8516Y-36473D01*
X15286Y-36473D02*
X17766Y-36473D01*
X15286Y-36473D02*
X15286Y-33993D01*
X17766Y-33993D01*
X17766Y-36473D01*
X-9989Y-36546D02*
X-12469Y-36546D01*
X-12469Y-34066D01*
X-9989Y-34066D01*
X-9989Y-36546D01*
X-3219Y-36546D02*
X-739Y-36546D01*
X-3219Y-36546D02*
X-3219Y-34066D01*
X-739Y-34066D01*
X-739Y-36546D01*
X-9994Y-45835D02*
X-12474Y-45835D01*
X-12474Y-43355D01*
X-9994Y-43355D01*
X-9994Y-45835D01*
X-3224Y-45835D02*
X-744Y-45835D01*
X-3224Y-45835D02*
X-3224Y-43355D01*
X-744Y-43355D01*
X-744Y-45835D01*
X-65509Y-9428D02*
X-67989Y-9428D01*
X-65509Y-9428D02*
X-65509Y-11908D01*
X-67989Y-11908D01*
X-67989Y-9428D01*
X-74759Y-9428D02*
X-77239Y-9428D01*
X-74759Y-9428D02*
X-74759Y-11908D01*
X-77239Y-11908D01*
X-77239Y-9428D01*
X-24555Y73884D02*
X-22075Y73884D01*
X-22075Y71404D01*
X-24555Y71404D01*
X-24555Y73884D01*
X-31325Y73884D02*
X-33805Y73884D01*
X-31325Y73884D02*
X-31325Y71404D01*
X-33805Y71404D01*
X-33805Y73884D01*
X-68917Y39400D02*
X-71397Y39400D01*
X-71397Y41880D01*
X-68917Y41880D01*
X-68917Y39400D01*
X-62147Y39400D02*
X-59667Y39400D01*
X-62147Y39400D02*
X-62147Y41880D01*
X-59667Y41880D01*
X-59667Y39400D01*
M02*
