G04 EAGLE Gerber RS-274X export*
G75*
%MOMM*%
%FSLAX34Y34*%
%LPD*%
%INSoldermask Bottom*%
%IPNEG*%
%AMOC8*
5,1,8,0,0,1.08239X$1,22.5*%
G01*
%ADD10C,0.722450*%
%ADD11C,0.715269*%
%ADD12C,0.677756*%
%ADD13C,0.685800*%
%ADD14C,0.736600*%
%ADD15C,0.740525*%
%ADD16C,0.690019*%
%ADD17C,0.713006*%
%ADD18C,0.752200*%
%ADD19C,0.711650*%
%ADD20C,0.737038*%
%ADD21C,0.702525*%
%ADD22C,0.705731*%
%ADD23C,0.697456*%
%ADD24C,0.738344*%
%ADD25C,0.747463*%
%ADD26C,0.693750*%
%ADD27C,0.622688*%
%ADD28C,0.662350*%
%ADD29C,0.664781*%
%ADD30C,0.660888*%
%ADD31C,0.687675*%
%ADD32C,0.693281*%
%ADD33C,0.668169*%
%ADD34C,0.660400*%
%ADD35C,0.609600*%
%ADD36C,0.614344*%
%ADD37C,0.653031*%
%ADD38C,0.686269*%
%ADD39C,0.647575*%
%ADD40C,0.711200*%
%ADD41C,0.731325*%
%ADD42C,0.690950*%
%ADD43C,0.681550*%
%ADD44C,0.642569*%
%ADD45C,0.651050*%
%ADD46C,0.672500*%
%ADD47C,0.666719*%
%ADD48C,0.659419*%
%ADD49C,0.603750*%
%ADD50C,0.722894*%
%ADD51R,0.952400X2.152400*%
%ADD52R,2.252400X3.152400*%
%ADD53R,2.152400X0.952400*%
%ADD54R,3.152400X2.252400*%
%ADD55R,0.952400X0.952400*%
%ADD56C,1.676400*%
%ADD57R,1.252400X1.152400*%
%ADD58R,1.152400X1.052400*%
%ADD59C,1.552400*%
%ADD60R,1.050000X0.500000*%
%ADD61R,0.500000X1.050000*%
%ADD62R,0.500000X1.650000*%
%ADD63R,1.002400X0.652400*%
%ADD64R,1.002400X1.212400*%
%ADD65R,0.352400X0.852400*%
%ADD66R,0.852400X0.352400*%
%ADD67R,0.752400X0.952400*%
%ADD68C,0.404487*%
%ADD69R,0.552400X0.502400*%

G36*
X48908Y39948D02*
X48908Y39948D01*
X48966Y39960D01*
X48978Y39968D01*
X48984Y39970D01*
X48991Y39978D01*
X49026Y40004D01*
X50526Y41504D01*
X50548Y41544D01*
X50572Y41571D01*
X50574Y41585D01*
X50588Y41606D01*
X50590Y41621D01*
X50593Y41626D01*
X50593Y41637D01*
X50599Y41680D01*
X50599Y50180D01*
X50594Y50196D01*
X50597Y50213D01*
X50575Y50263D01*
X50560Y50314D01*
X50547Y50325D01*
X50540Y50341D01*
X50495Y50371D01*
X50455Y50406D01*
X50438Y50409D01*
X50424Y50418D01*
X50350Y50429D01*
X45850Y50429D01*
X45834Y50424D01*
X45817Y50427D01*
X45767Y50405D01*
X45716Y50390D01*
X45705Y50377D01*
X45689Y50370D01*
X45659Y50325D01*
X45624Y50285D01*
X45621Y50268D01*
X45612Y50253D01*
X45601Y50180D01*
X45601Y40930D01*
X45607Y40908D01*
X45605Y40894D01*
X45620Y40862D01*
X45630Y40814D01*
X45638Y40802D01*
X45640Y40796D01*
X45648Y40789D01*
X45659Y40774D01*
X45662Y40767D01*
X45666Y40764D01*
X45674Y40754D01*
X46424Y40004D01*
X46476Y39975D01*
X46527Y39942D01*
X46541Y39940D01*
X46546Y39937D01*
X46557Y39937D01*
X46600Y39931D01*
X48850Y39931D01*
X48908Y39948D01*
G37*
G36*
X-31592Y35698D02*
X-31592Y35698D01*
X-31534Y35710D01*
X-31522Y35718D01*
X-31516Y35720D01*
X-31509Y35728D01*
X-31474Y35754D01*
X-30724Y36504D01*
X-30702Y36543D01*
X-30676Y36573D01*
X-30674Y36588D01*
X-30662Y36606D01*
X-30660Y36621D01*
X-30657Y36626D01*
X-30657Y36637D01*
X-30651Y36680D01*
X-30651Y38930D01*
X-30655Y38943D01*
X-30653Y38954D01*
X-30667Y38986D01*
X-30668Y38988D01*
X-30680Y39046D01*
X-30688Y39058D01*
X-30690Y39064D01*
X-30698Y39071D01*
X-30724Y39106D01*
X-32224Y40606D01*
X-32276Y40635D01*
X-32327Y40668D01*
X-32341Y40670D01*
X-32346Y40673D01*
X-32357Y40673D01*
X-32400Y40679D01*
X-40900Y40679D01*
X-40916Y40674D01*
X-40933Y40677D01*
X-40983Y40655D01*
X-41034Y40640D01*
X-41045Y40627D01*
X-41061Y40620D01*
X-41091Y40575D01*
X-41126Y40535D01*
X-41129Y40518D01*
X-41138Y40503D01*
X-41149Y40430D01*
X-41149Y35930D01*
X-41144Y35914D01*
X-41147Y35897D01*
X-41125Y35847D01*
X-41110Y35796D01*
X-41097Y35785D01*
X-41090Y35769D01*
X-41045Y35739D01*
X-41005Y35704D01*
X-40988Y35701D01*
X-40974Y35692D01*
X-40900Y35681D01*
X-31650Y35681D01*
X-31592Y35698D01*
G37*
G36*
X-27342Y39948D02*
X-27342Y39948D01*
X-27284Y39960D01*
X-27272Y39968D01*
X-27266Y39970D01*
X-27259Y39978D01*
X-27224Y40004D01*
X-26474Y40754D01*
X-26452Y40793D01*
X-26426Y40823D01*
X-26424Y40838D01*
X-26412Y40856D01*
X-26410Y40871D01*
X-26407Y40876D01*
X-26407Y40887D01*
X-26401Y40930D01*
X-26401Y50180D01*
X-26406Y50196D01*
X-26403Y50213D01*
X-26425Y50263D01*
X-26440Y50314D01*
X-26453Y50325D01*
X-26460Y50341D01*
X-26505Y50371D01*
X-26545Y50406D01*
X-26562Y50409D01*
X-26577Y50418D01*
X-26650Y50429D01*
X-31150Y50429D01*
X-31166Y50424D01*
X-31183Y50427D01*
X-31233Y50405D01*
X-31284Y50390D01*
X-31295Y50377D01*
X-31311Y50370D01*
X-31341Y50325D01*
X-31376Y50285D01*
X-31379Y50268D01*
X-31388Y50253D01*
X-31399Y50180D01*
X-31399Y41680D01*
X-31391Y41652D01*
X-31393Y41642D01*
X-31381Y41617D01*
X-31370Y41564D01*
X-31362Y41552D01*
X-31360Y41546D01*
X-31352Y41539D01*
X-31338Y41520D01*
X-31336Y41514D01*
X-31333Y41512D01*
X-31326Y41504D01*
X-29826Y40004D01*
X-29774Y39975D01*
X-29724Y39942D01*
X-29709Y39940D01*
X-29704Y39937D01*
X-29693Y39937D01*
X-29650Y39931D01*
X-27400Y39931D01*
X-27342Y39948D01*
G37*
G36*
X-32342Y-41302D02*
X-32342Y-41302D01*
X-32284Y-41290D01*
X-32272Y-41282D01*
X-32266Y-41280D01*
X-32259Y-41272D01*
X-32224Y-41246D01*
X-30724Y-39746D01*
X-30702Y-39706D01*
X-30678Y-39679D01*
X-30676Y-39665D01*
X-30662Y-39644D01*
X-30660Y-39629D01*
X-30657Y-39624D01*
X-30657Y-39613D01*
X-30651Y-39570D01*
X-30651Y-37320D01*
X-30654Y-37307D01*
X-30653Y-37298D01*
X-30665Y-37270D01*
X-30668Y-37262D01*
X-30680Y-37204D01*
X-30688Y-37192D01*
X-30690Y-37186D01*
X-30698Y-37179D01*
X-30724Y-37144D01*
X-31474Y-36394D01*
X-31526Y-36365D01*
X-31577Y-36332D01*
X-31591Y-36330D01*
X-31596Y-36327D01*
X-31607Y-36327D01*
X-31650Y-36321D01*
X-40900Y-36321D01*
X-40916Y-36326D01*
X-40933Y-36323D01*
X-40983Y-36345D01*
X-41034Y-36360D01*
X-41045Y-36373D01*
X-41061Y-36380D01*
X-41091Y-36425D01*
X-41126Y-36465D01*
X-41129Y-36482D01*
X-41138Y-36497D01*
X-41149Y-36570D01*
X-41149Y-41070D01*
X-41144Y-41087D01*
X-41147Y-41103D01*
X-41125Y-41153D01*
X-41110Y-41204D01*
X-41097Y-41216D01*
X-41090Y-41231D01*
X-41045Y-41261D01*
X-41005Y-41296D01*
X-40988Y-41299D01*
X-40974Y-41308D01*
X-40900Y-41319D01*
X-32400Y-41319D01*
X-32342Y-41302D01*
G37*
G36*
X60116Y35686D02*
X60116Y35686D01*
X60133Y35683D01*
X60183Y35705D01*
X60234Y35720D01*
X60245Y35733D01*
X60261Y35740D01*
X60291Y35785D01*
X60326Y35825D01*
X60329Y35842D01*
X60338Y35856D01*
X60349Y35930D01*
X60349Y40430D01*
X60346Y40442D01*
X60347Y40450D01*
X60345Y40453D01*
X60347Y40463D01*
X60325Y40513D01*
X60310Y40564D01*
X60297Y40575D01*
X60290Y40591D01*
X60245Y40621D01*
X60205Y40656D01*
X60188Y40659D01*
X60174Y40668D01*
X60100Y40679D01*
X51600Y40679D01*
X51542Y40662D01*
X51484Y40650D01*
X51472Y40642D01*
X51466Y40640D01*
X51459Y40632D01*
X51424Y40606D01*
X49924Y39106D01*
X49895Y39054D01*
X49885Y39038D01*
X49874Y39026D01*
X49873Y39020D01*
X49862Y39003D01*
X49860Y38989D01*
X49857Y38984D01*
X49857Y38973D01*
X49851Y38930D01*
X49851Y36680D01*
X49857Y36658D01*
X49855Y36644D01*
X49870Y36612D01*
X49880Y36564D01*
X49888Y36552D01*
X49890Y36546D01*
X49898Y36539D01*
X49909Y36524D01*
X49912Y36517D01*
X49916Y36514D01*
X49924Y36504D01*
X50674Y35754D01*
X50726Y35725D01*
X50777Y35692D01*
X50791Y35690D01*
X50796Y35687D01*
X50807Y35687D01*
X50850Y35681D01*
X60100Y35681D01*
X60116Y35686D01*
G37*
G36*
X60116Y-41314D02*
X60116Y-41314D01*
X60133Y-41317D01*
X60183Y-41295D01*
X60234Y-41280D01*
X60245Y-41267D01*
X60261Y-41260D01*
X60291Y-41215D01*
X60326Y-41175D01*
X60329Y-41158D01*
X60338Y-41144D01*
X60349Y-41070D01*
X60349Y-36570D01*
X60346Y-36558D01*
X60347Y-36550D01*
X60345Y-36547D01*
X60347Y-36537D01*
X60325Y-36488D01*
X60310Y-36436D01*
X60297Y-36425D01*
X60290Y-36409D01*
X60245Y-36379D01*
X60205Y-36344D01*
X60188Y-36341D01*
X60174Y-36332D01*
X60100Y-36321D01*
X50850Y-36321D01*
X50792Y-36338D01*
X50734Y-36350D01*
X50722Y-36358D01*
X50716Y-36360D01*
X50709Y-36368D01*
X50674Y-36394D01*
X49924Y-37144D01*
X49895Y-37196D01*
X49879Y-37221D01*
X49874Y-37227D01*
X49873Y-37229D01*
X49862Y-37247D01*
X49860Y-37261D01*
X49857Y-37266D01*
X49857Y-37277D01*
X49851Y-37320D01*
X49851Y-39570D01*
X49859Y-39598D01*
X49858Y-39608D01*
X49869Y-39633D01*
X49880Y-39686D01*
X49888Y-39698D01*
X49890Y-39704D01*
X49898Y-39711D01*
X49912Y-39730D01*
X49914Y-39736D01*
X49917Y-39738D01*
X49924Y-39746D01*
X51424Y-41246D01*
X51476Y-41275D01*
X51527Y-41308D01*
X51541Y-41310D01*
X51546Y-41313D01*
X51557Y-41313D01*
X51600Y-41319D01*
X60100Y-41319D01*
X60116Y-41314D01*
G37*
G36*
X50366Y-51064D02*
X50366Y-51064D01*
X50383Y-51067D01*
X50433Y-51045D01*
X50484Y-51030D01*
X50495Y-51017D01*
X50511Y-51010D01*
X50541Y-50965D01*
X50576Y-50925D01*
X50579Y-50908D01*
X50588Y-50894D01*
X50599Y-50820D01*
X50599Y-42320D01*
X50597Y-42312D01*
X50582Y-42262D01*
X50570Y-42204D01*
X50562Y-42192D01*
X50560Y-42186D01*
X50552Y-42179D01*
X50526Y-42144D01*
X49026Y-40644D01*
X48974Y-40615D01*
X48924Y-40582D01*
X48909Y-40580D01*
X48904Y-40577D01*
X48893Y-40577D01*
X48850Y-40571D01*
X46600Y-40571D01*
X46542Y-40588D01*
X46484Y-40600D01*
X46472Y-40608D01*
X46466Y-40610D01*
X46459Y-40618D01*
X46424Y-40644D01*
X45674Y-41394D01*
X45645Y-41446D01*
X45612Y-41497D01*
X45610Y-41511D01*
X45607Y-41516D01*
X45607Y-41527D01*
X45601Y-41570D01*
X45601Y-50820D01*
X45606Y-50837D01*
X45603Y-50853D01*
X45625Y-50903D01*
X45640Y-50954D01*
X45653Y-50966D01*
X45660Y-50981D01*
X45705Y-51011D01*
X45745Y-51046D01*
X45762Y-51049D01*
X45777Y-51058D01*
X45850Y-51069D01*
X50350Y-51069D01*
X50366Y-51064D01*
G37*
G36*
X-26634Y-51064D02*
X-26634Y-51064D01*
X-26617Y-51067D01*
X-26567Y-51045D01*
X-26516Y-51030D01*
X-26505Y-51017D01*
X-26489Y-51010D01*
X-26459Y-50965D01*
X-26424Y-50925D01*
X-26421Y-50908D01*
X-26412Y-50894D01*
X-26401Y-50820D01*
X-26401Y-41570D01*
X-26418Y-41512D01*
X-26430Y-41454D01*
X-26438Y-41442D01*
X-26440Y-41436D01*
X-26448Y-41429D01*
X-26474Y-41394D01*
X-27224Y-40644D01*
X-27276Y-40615D01*
X-27327Y-40582D01*
X-27341Y-40580D01*
X-27346Y-40577D01*
X-27357Y-40577D01*
X-27400Y-40571D01*
X-29650Y-40571D01*
X-29708Y-40588D01*
X-29766Y-40600D01*
X-29778Y-40608D01*
X-29784Y-40610D01*
X-29791Y-40618D01*
X-29826Y-40644D01*
X-31326Y-42144D01*
X-31355Y-42196D01*
X-31388Y-42247D01*
X-31390Y-42261D01*
X-31393Y-42266D01*
X-31393Y-42277D01*
X-31399Y-42320D01*
X-31399Y-50820D01*
X-31394Y-50837D01*
X-31397Y-50853D01*
X-31375Y-50903D01*
X-31360Y-50954D01*
X-31347Y-50966D01*
X-31340Y-50981D01*
X-31295Y-51011D01*
X-31255Y-51046D01*
X-31238Y-51049D01*
X-31224Y-51058D01*
X-31150Y-51069D01*
X-26650Y-51069D01*
X-26634Y-51064D01*
G37*
D10*
X-136906Y101473D03*
D11*
X-96774Y78994D03*
D12*
X-96266Y70104D03*
D13*
X-73769Y88902D03*
D14*
X-56007Y57785D03*
D15*
X-15240Y84836D03*
D16*
X-9398Y72390D03*
D15*
X43180Y78232D03*
D17*
X136906Y88392D03*
D18*
X98552Y64770D03*
D14*
X113030Y41275D03*
D19*
X87757Y27940D03*
D11*
X66185Y38390D03*
D20*
X70104Y22352D03*
D21*
X75184Y-53213D03*
D22*
X80899Y-45593D03*
D23*
X89027Y-47879D03*
D12*
X118110Y-52705D03*
D16*
X136271Y-6350D03*
D24*
X151511Y-66294D03*
D21*
X151511Y-79883D03*
D11*
X109601Y-92710D03*
D25*
X87376Y-84709D03*
D26*
X81661Y-75057D03*
D12*
X75184Y-80264D03*
D27*
X68580Y-85090D03*
D28*
X91821Y-75692D03*
D29*
X48514Y-105029D03*
D28*
X50800Y-75946D03*
D30*
X38390Y-60779D03*
D31*
X33147Y-111379D03*
D32*
X26035Y-107442D03*
D33*
X19050Y-111887D03*
D29*
X10541Y-111125D03*
D20*
X-12573Y-112141D03*
D13*
X-16764Y-105029D03*
X-25019Y-106172D03*
D32*
X-30607Y-112268D03*
D15*
X-37719Y-107188D03*
D23*
X-45085Y-112014D03*
D34*
X-48895Y-101854D03*
D29*
X-56261Y-105918D03*
D35*
X-63500Y-102108D03*
D36*
X-62738Y-110998D03*
D37*
X-79248Y-77089D03*
D38*
X-64643Y-77597D03*
D39*
X-43180Y-74930D03*
D33*
X-24511Y-75692D03*
D26*
X-49911Y-50292D03*
D19*
X-64135Y-46355D03*
D23*
X-57150Y-38862D03*
D40*
X-74930Y-46101D03*
D41*
X-57404Y-24384D03*
D42*
X-87376Y-64516D03*
D29*
X-92456Y-38735D03*
D32*
X-113284Y-33274D03*
D13*
X-92710Y-24892D03*
D38*
X-108458Y-24765D03*
D43*
X-128778Y-71882D03*
D44*
X-58166Y-11176D03*
D29*
X-55644Y3250D03*
D16*
X-66929Y9017D03*
X-76581Y28067D03*
D31*
X-77978Y40513D03*
D29*
X-111887Y22733D03*
D45*
X-112776Y42418D03*
D46*
X-160782Y30607D03*
D47*
X-112014Y14224D03*
D48*
X-99187Y55118D03*
D28*
X-52578Y43561D03*
D49*
X120650Y-126746D03*
D13*
X89916Y-125984D03*
D28*
X73914Y-128905D03*
D14*
X23114Y-141351D03*
D20*
X4572Y-139700D03*
D38*
X-174879Y-101346D03*
D48*
X-35560Y-57150D03*
D44*
X-27305Y-57023D03*
D32*
X-17272Y-57150D03*
D50*
X57948Y-54959D03*
D15*
X125836Y-15177D03*
D29*
X-47118Y10146D03*
X-49839Y24484D03*
X-47118Y-3284D03*
D19*
X97663Y19050D03*
X99187Y-19050D03*
D17*
X123190Y97790D03*
D15*
X-3810Y92710D03*
D13*
X-155049Y101602D03*
D47*
X-136144Y-7620D03*
D38*
X-167767Y-113030D03*
D49*
X142240Y-130810D03*
D24*
X168783Y-48260D03*
D51*
X-92402Y-99460D03*
X-104902Y-99460D03*
X-117402Y-99460D03*
D52*
X-67402Y-130710D03*
X-142402Y-130710D03*
D53*
X136036Y43134D03*
X136036Y30634D03*
X136036Y18134D03*
X136036Y5634D03*
D54*
X167286Y68134D03*
X167286Y-19366D03*
D53*
X-136290Y-57104D03*
X-136290Y-44604D03*
X-136290Y-32104D03*
X-136290Y-19604D03*
D54*
X-167540Y-82104D03*
X-167540Y5396D03*
D55*
X-161410Y68834D03*
X-176410Y68834D03*
D56*
X-167640Y-130810D03*
X167640Y-130810D03*
X167640Y90170D03*
X-167640Y90170D03*
D57*
X-175378Y50546D03*
X-158378Y50546D03*
D58*
X-126620Y68760D03*
X-142620Y68760D03*
X-142620Y27760D03*
X-126620Y27760D03*
D59*
X100000Y-320D03*
X-100000Y-320D03*
D60*
X-35900Y-31820D03*
X-35900Y-24820D03*
X-35900Y-17820D03*
X-35900Y-10820D03*
X-35900Y-3820D03*
X-35900Y3180D03*
X-35900Y10180D03*
X-35900Y17180D03*
X-35900Y24180D03*
X-35900Y31180D03*
D61*
X-21900Y45180D03*
X-14900Y45180D03*
X-7900Y45180D03*
X-900Y45180D03*
X6100Y45180D03*
X13100Y45180D03*
X20100Y45180D03*
X27100Y45180D03*
X34100Y45180D03*
X41100Y45180D03*
D60*
X55100Y31180D03*
X55100Y24180D03*
X55100Y17180D03*
X55100Y10180D03*
X55100Y3180D03*
X55100Y-3820D03*
X55100Y-10820D03*
X55100Y-17820D03*
X55100Y-24820D03*
X55100Y-31820D03*
D61*
X41100Y-45820D03*
X34100Y-45820D03*
X27100Y-45820D03*
X20100Y-45820D03*
X13100Y-45820D03*
D62*
X6100Y-42820D03*
D61*
X-900Y-45820D03*
X-7900Y-45820D03*
X-14900Y-45820D03*
X-21900Y-45820D03*
D63*
X-125640Y82602D03*
X-125640Y101802D03*
X-108040Y82602D03*
D64*
X-108040Y99802D03*
D65*
X-73438Y-93925D03*
X-73438Y-102925D03*
X-77438Y-93925D03*
X-81438Y-93925D03*
X-69438Y-102925D03*
X-77438Y-102925D03*
X-81438Y-102925D03*
X-69438Y-93925D03*
D66*
X109402Y-69564D03*
X100402Y-69564D03*
X109402Y-65564D03*
X109402Y-61564D03*
X100402Y-73564D03*
X100402Y-65564D03*
X100402Y-61564D03*
X109402Y-73564D03*
D67*
X-118364Y-70412D03*
X-118364Y-45412D03*
D68*
X-52622Y-92105D02*
X-50142Y-92105D01*
X-50142Y-94585D01*
X-52622Y-94585D01*
X-52622Y-92105D01*
X-59392Y-92105D02*
X-61872Y-92105D01*
X-59392Y-92105D02*
X-59392Y-94585D01*
X-61872Y-94585D01*
X-61872Y-92105D01*
X98783Y-83663D02*
X101263Y-83663D01*
X98783Y-83663D02*
X98783Y-81183D01*
X101263Y-81183D01*
X101263Y-83663D01*
X108033Y-83663D02*
X110513Y-83663D01*
X108033Y-83663D02*
X108033Y-81183D01*
X110513Y-81183D01*
X110513Y-83663D01*
X101390Y-53945D02*
X98910Y-53945D01*
X98910Y-51465D01*
X101390Y-51465D01*
X101390Y-53945D01*
X108160Y-53945D02*
X110640Y-53945D01*
X108160Y-53945D02*
X108160Y-51465D01*
X110640Y-51465D01*
X110640Y-53945D01*
X-144863Y92486D02*
X-147343Y92486D01*
X-147343Y94966D01*
X-144863Y94966D01*
X-144863Y92486D01*
X-138093Y92486D02*
X-135613Y92486D01*
X-138093Y92486D02*
X-138093Y94966D01*
X-135613Y94966D01*
X-135613Y92486D01*
X-20216Y-95855D02*
X-17736Y-95855D01*
X-20216Y-95855D02*
X-20216Y-93375D01*
X-17736Y-93375D01*
X-17736Y-95855D01*
X-10966Y-95855D02*
X-8486Y-95855D01*
X-10966Y-95855D02*
X-10966Y-93375D01*
X-8486Y-93375D01*
X-8486Y-95855D01*
X-2309Y-95982D02*
X171Y-95982D01*
X-2309Y-95982D02*
X-2309Y-93502D01*
X171Y-93502D01*
X171Y-95982D01*
X6941Y-95982D02*
X9421Y-95982D01*
X6941Y-95982D02*
X6941Y-93502D01*
X9421Y-93502D01*
X9421Y-95982D01*
X15217Y-96363D02*
X17697Y-96363D01*
X15217Y-96363D02*
X15217Y-93883D01*
X17697Y-93883D01*
X17697Y-96363D01*
X24467Y-96363D02*
X26947Y-96363D01*
X24467Y-96363D02*
X24467Y-93883D01*
X26947Y-93883D01*
X26947Y-96363D01*
X92814Y34320D02*
X95294Y34320D01*
X92814Y34320D02*
X92814Y36800D01*
X95294Y36800D01*
X95294Y34320D01*
X102064Y34320D02*
X104544Y34320D01*
X102064Y34320D02*
X102064Y36800D01*
X104544Y36800D01*
X104544Y34320D01*
X94913Y44734D02*
X92433Y44734D01*
X92433Y47214D01*
X94913Y47214D01*
X94913Y44734D01*
X101683Y44734D02*
X104163Y44734D01*
X101683Y44734D02*
X101683Y47214D01*
X104163Y47214D01*
X104163Y44734D01*
D69*
X-168974Y30226D03*
X-176974Y30226D03*
D68*
X105895Y77754D02*
X108375Y77754D01*
X105895Y77754D02*
X105895Y80234D01*
X108375Y80234D01*
X108375Y77754D01*
X115145Y77754D02*
X117625Y77754D01*
X115145Y77754D02*
X115145Y80234D01*
X117625Y80234D01*
X117625Y77754D01*
X108227Y93950D02*
X105747Y93950D01*
X108227Y93950D02*
X108227Y91470D01*
X105747Y91470D01*
X105747Y93950D01*
X98977Y93950D02*
X96497Y93950D01*
X98977Y93950D02*
X98977Y91470D01*
X96497Y91470D01*
X96497Y93950D01*
M02*
